<?xml version="1.0" encoding="UTF-8" standalone="no"?>
<svg
   xmlns:dc="http://purl.org/dc/elements/1.1/"
   xmlns:cc="http://creativecommons.org/ns#"
   xmlns:rdf="http://www.w3.org/1999/02/22-rdf-syntax-ns#"
   xmlns:svg="http://www.w3.org/2000/svg"
   xmlns="http://www.w3.org/2000/svg"
   xmlns:sodipodi="http://sodipodi.sourceforge.net/DTD/sodipodi-0.dtd"
   xmlns:inkscape="http://www.inkscape.org/namespaces/inkscape"
   width="783.09998"
   height="970"
   viewBox="0 0 626.47998 776"
   version="1.1"
   id="svg2"
   inkscape:version="0.48.4 r9939"
   sodipodi:docname="distancefunction.svg">
  <metadata
     id="metadata170">
    <rdf:RDF>
      <cc:Work
         rdf:about="">
        <dc:format>image/svg+xml</dc:format>
        <dc:type
           rdf:resource="http://purl.org/dc/dcmitype/StillImage" />
      </cc:Work>
    </rdf:RDF>
  </metadata>
  <defs
     id="defs168" />
  <sodipodi:namedview
     pagecolor="#ffffff"
     bordercolor="#666666"
     borderopacity="1"
     objecttolerance="10"
     gridtolerance="10"
     guidetolerance="10"
     inkscape:pageopacity="0"
     inkscape:pageshadow="2"
     inkscape:window-width="1920"
     inkscape:window-height="996"
     id="namedview166"
     showgrid="false"
     inkscape:zoom="0.6881534"
     inkscape:cx="346.3151"
     inkscape:cy="530.32448"
     inkscape:window-x="-8"
     inkscape:window-y="-8"
     inkscape:window-maximized="1"
     inkscape:current-layer="svg2"
     fit-margin-top="0"
     fit-margin-left="-1.9"
     fit-margin-right="0"
     fit-margin-bottom="0" />
  <path
     d="m -1.52,-3.5156267e-7 16.69,0 C 9.58,4.0699996 3.69,7.7899996 -1.52,12.37 L -1.52,-3.5156267e-7 z"
     id="path4"
     inkscape:connector-curvature="0"
     style="fill:#ffffff" />
  <path
     d="m 15.17,-3.5156267e-7 2.96,0 C 11.58,4.7399996 4.71,9.0599996 -1.52,14.23 l 0,-1.86 C 3.69,7.7899996 9.58,4.0699996 15.17,-3.5156267e-7 z"
     id="path6"
     inkscape:connector-curvature="0"
     style="fill:#dddddd" />
  <path
     d="m 18.13,-3.5156267e-7 24.96,0 C 27.61,9.5299996 12.47,19.78 -1.52,31.41 l 0,-17.18 C 4.71,9.0599996 11.58,4.7399996 18.13,-3.5156267e-7 z"
     id="path8"
     inkscape:connector-curvature="0"
     style="fill:#ffffff" />
  <path
     d="m 43.09,-3.5156267e-7 2.9,0 C 29.66,10.35 13.46,21.02 -1.52,33.27 l 0,-1.86 C 12.47,19.78 27.61,9.5299996 43.09,-3.5156267e-7 z"
     id="path10"
     inkscape:connector-curvature="0"
     style="fill:#dcdcdc" />
  <path
     d="m 45.99,-3.5156267e-7 27.09,0 C 46.72,14.44 21.66,31.34 -1.52,50.48 l 0,-17.21 C 13.46,21.02 29.66,10.35 45.99,-3.5156268e-7 z"
     id="path12"
     inkscape:connector-curvature="0"
     style="fill:#ffffff" />
  <path
     d="m 73.08,-3.5156267e-7 2.97,0 C 66.25,6.1399996 55.92,11.4 46.27,17.8 34.55,25.66 22.6,33.25 11.57,42.09 7.26,45.58 2.71,48.76 -1.52,52.36 l 0,-1.88 C 21.66,31.34 46.72,14.44 73.08,-3.5156265e-7 z"
     id="path14"
     inkscape:connector-curvature="0"
     style="fill:#dbdbdb" />
  <path
     d="m 76.05,-3.5156267e-7 30,0 C 94.35,5.0399996 83.27,11.37 72.28,17.78 50.15,30.34 29.21,44.94 9.48,60.99 5.69,64 1.79,66.92 -1.52,70.47 l 0,-18.11 C 2.71,48.76 7.26,45.58 11.57,42.09 22.6,33.25 34.55,25.66 46.27,17.8 55.92,11.4 66.25,6.1399996 76.05,-3.5156266e-7 z"
     id="path16"
     inkscape:connector-curvature="0"
     style="fill:#ffffff" />
  <path
     d="m 106.05,-3.5156267e-7 4.09,0 C 92.66,7.7899996 76.05,17.32 59.69,27.22 c -17.3,10.67 -33.9,22.5 -49.67,35.33 -3.93,3.16 -8,6.18 -11.54,9.79 l 0,-1.87 C 1.79,66.92 5.69,64 9.48,60.99 29.21,44.94 50.15,30.34 72.28,17.78 83.27,11.37 94.35,5.0399996 106.05,-3.5156268e-7 z"
     id="path18"
     inkscape:connector-curvature="0"
     style="fill:#dadada" />
  <path
     d="m 110.14,-3.5156267e-7 33.06,0 C 128.33,6.6199996 113.24,12.77 98.81,20.33 62.63,39.4 28.54,62.68 -1.52,90.460003 L -1.52,72.34 C 2.02,68.73 6.09,65.71 10.02,62.55 25.79,49.72 42.39,37.89 59.69,27.22 76.05,17.32 92.66,7.7899996 110.14,-3.5156266e-7 z"
     id="path20"
     inkscape:connector-curvature="0"
     style="fill:#ffffff" />
  <path
     d="m 143.2,-3.5156267e-7 5.88,0 C 125.6,9.1399996 102.5,19.47 80.79,32.31 51.27,49.24 23.63,69.42 -1.52,92.330003 l 0,-1.87 C 28.54,62.68 62.63,39.4 98.81,20.33 113.24,12.77 128.33,6.6199996 143.2,-3.5156267e-7 z"
     id="path22"
     inkscape:connector-curvature="0"
     style="fill:#d8d8d8" />
  <path
     d="m 149.08,-3.5156267e-7 42.03,0 C 177.44,4.3899996 163.61,8.3299996 150.34,13.86 112.33,28.25 76.63,48.41 43.89,72.41 28.06,84.630003 12.23,97.030003 -1.52,111.59999 l 0,-19.269987 C 23.63,69.42 51.27,49.24 80.79,32.31 102.5,19.47 125.6,9.1399996 149.08,-3.5156267e-7 z"
     id="path24"
     inkscape:connector-curvature="0"
     style="fill:#ffffff" />
  <path
     d="m 191.11,-3.5156267e-7 7,0 C 188.33,3.2299996 178.36,5.8299996 168.6,9.0999996 137.76,19.85 107.71,33.2 79.91,50.43 67.28,57.89 55.13,66.14 43.32,74.84 27.69,86.880003 12.18,99.230003 -1.52,113.48999 l 0,-1.89 C 12.23,97.030003 28.06,84.630003 43.89,72.41 76.63,48.41 112.33,28.25 150.34,13.86 163.61,8.3299996 177.44,4.3899996 191.11,-3.5156266e-7 z"
     id="path26"
     inkscape:connector-curvature="0"
     style="fill:#d7d7d7" />
  <path
     d="m 198.11,-3.5156267e-7 77.13,0 C 272.68,0.39999965 270.13,0.87999965 267.56,1.1899996 166.02,11.04 68.91,58.94 -1.52,132.59999 l 0,-19.11 C 12.18,99.230003 27.69,86.880003 43.32,74.84 55.13,66.14 67.28,57.89 79.91,50.43 107.71,33.2 137.76,19.85 168.6,9.0999996 c 9.76,-3.27 19.73,-5.87 29.51,-9.0999999515627 z"
     id="path28"
     inkscape:connector-curvature="0"
     style="fill:#ffffff" />
  <path
     d="m 275.24,-3.5156267e-7 71.47,0 C 351.61,0.86999965 356.55,1.5199996 361.51,1.9399996 449.63,12.22 534.08,50.29 600.75,108.73 c 8.06,7.02999 16.1,14.24999 22.77,22.62999 -5.62,-3.37 -9.54,-8.73 -14.28,-13.12 C 582.9,94.180003 553.79,73.16 522.57,55.89 473.95,29.1 420.29,11.36 365.19,4.3399996 c -17.5,-1.9 -35.08,-3.78999995 -52.71,-3.33 -8.73,0.02 -17.47,-0.35999995 -26.16,0.65 C 225.99,5.0699996 166.38,21.34 112.81,49.31 70.35,71.16 31.58,100.09 -1.52,134.47999 l 0,-1.88 C 68.91,58.94 166.02,11.04 267.56,1.1899996 270.13,0.87999965 272.68,0.39999965 275.24,-3.5156267e-7 z"
     id="path30"
     inkscape:connector-curvature="0"
     style="fill:#d5d5d5" />
  <path
     d="m 346.71,-3.5156267e-7 77.14,0 C 447.15,6.7099996 470.22,14.33 492.43,24.1 c 44.33,19.5 85.56,46.03 121.73,78.24 2.94,2.91 5.81,5.98 9.52,7.92999 C 619.87,104.98 614.73,100.88 609.88,96.600003 564.64,57.25 511.72,26.69 454.86,7.6099996 c -7.64,-2.69 -15.51,-4.71 -23.07,-7.60999995156266 l 42.12,0 C 484.76,4.6799996 495.91,8.6699996 506.5,13.95 c 18.07,7.89 35.17,17.82 52.05,27.98 16.06,9.96 31.39,21.08 46.27,32.73 6.45,4.99 12.22,10.850003 19.11,15.260003 C 620.51,84.570003 614.93,81.32 610.3,77.18 581.63,53.45 550.09,33.29 516.82,16.66 504.3,10.81 491.71,5.1099996 478.86,-3.5156267e-7 l 33.97,0 C 519.79,3.6399996 527.14,6.4899996 533.87,10.59 c 16.55,8.31 32.25,18.2 47.81,28.23 11.48,8.1 23.02,16.17 33.82,25.17 2.27,1.93 4.75,3.59 7.37,5.03 -3.58,-4.93 -8.81,-8.18 -13.49,-11.93 C 588.38,40.53 565.85,25.98 542.45,13.05 533.83,8.8199996 525.69,3.6199996 516.78,-3.5156267e-7 l 30.11,0 C 561.2,8.4699996 575.78,16.54 589.49,25.99 c 9.67,6.59 19.26,13.31 28.39,20.64 1.94,1.52 3.97,2.92 6.05,4.25 -1.45,-1.97 -2.94,-3.94 -4.85,-5.48 C 597.24,28.5 574.18,13.09 549.85,-3.5156268e-7 l 27.11,0 C 587.4,6.6799996 598.08,13.03 608.03,20.45 c 5.26,3.53 9.99,7.9 15.74,10.67 -1.43,-1.7 -2.89,-3.4 -4.66,-4.77 C 606.35,17.13 593.52,7.9699996 579.92,-3.5156268e-7 l 25.1,0 C 611.57,3.9399996 617.28,9.1299996 623.98,12.83 619.93,7.1399996 613.51,3.9499996 607.94,-3.5156268e-7 l 18.54,0 L 626.48,776 603.9,776 c 6.38,-4.57 13.91,-7.88 18.91,-14.1 -7.74,3.93 -14.41,9.61 -21.82,14.1 l -27.12,0 c 7.27,-4.27 14.76,-8.17 21.85,-12.73 6.97,-4.26 13.49,-9.18 20.25,-13.76 2.65,-1.78 4.96,-4 6.96,-6.48 -5.75,2.78 -10.48,7.16 -15.79,10.64 -11.78,8.44 -24.5,15.44 -37.22,22.33 l -34.16,0 c 8,-3.75 16.36,-6.67 24.37,-10.38 16.93,-7.98 32.84,-17.97 47.89,-29.07 5.13,-3.96 10.93,-7.28 14.89,-12.55 -6.11,3.11 -10.94,8.07 -16.63,11.81 -14.31,10.48 -29.45,19.85 -45.47,27.5 -10.15,4.61 -20.58,8.58 -30.94,12.69 l -52.1,0 c 8.9,-2.02 17.95,-3.36 26.72,-5.93 15.64,-4.15 30.72,-10.14 45.56,-16.52 20.01,-8.87 38.41,-20.95 55.73,-34.25 5.92,-4.83 12.82,-8.8 17.16,-15.25 -3.93,2.45 -7.38,5.54 -10.94,8.48 -15.77,12.24 -32.03,24.03 -49.84,33.15 -12.86,6.73 -26.42,11.99 -40.05,16.93 -8.88,3.22 -18.01,5.7 -27.19,7.87 -9.63,2.29 -19.55,3.08 -29.14,5.52 l -70.56,0 c -23.62,-3.58 -47.01,-9.32 -68.99,-18.8 -7.66,-3.77 -16.53,-1.5 -24.06,1.45 -9.57,3.93 -19.59,6.56 -29.47,9.59 -12.07,3.66 -24.58,5.48 -36.95,7.76 l -69.54,0 c -6.14,-1.39 -12.39,-2.15 -18.6,-3.12 C 121.54,768.21 96.45,759.1 72.48,747.97 53.93,738.13 35.82,727.25 19.57,713.89 12.46,707.89 5.11,702.14 -1.52,695.61 l 0,-20.32 c 5.03,7.15 12.2,12.27 18.3,18.42 18.55,16.79 39.51,30.79 61.69,42.32 16.17,7.55 32.77,14.25 50.01,18.94 20.21,5.73 41.17,8.18 62.06,9.82 10.57,1 21.11,-0.66 31.66,-1.17 25.99,-1.37 51.25,-8.43 75.57,-17.34 5.76,-2.21 11.31,-5.66 17.7,-5.46 6.2,-0.43 11.78,2.53 17.3,4.87 16.46,6.63 33.55,11.75 50.99,15.04 13.77,2.41 27.77,3.1 41.69,4.17 12.02,0.74 24.02,-0.63 35.95,-1.98 18.29,-2.4 36.55,-5.81 53.96,-12.02 19.22,-6.77 38.18,-14.64 55.44,-25.59 13.72,-8.65 26.89,-18.22 39.23,-28.75 4.66,-4.14 9.5,-8.26 12.81,-13.61 -4.94,3.46 -8.67,8.28 -13.33,12.08 -12.78,10.78 -26.34,20.65 -40.58,29.43 -16.73,10.39 -35.04,17.9 -53.56,24.44 -17.42,6.21 -35.68,9.62 -53.98,12.02 -11.59,1.31 -23.26,2.66 -34.95,2.03 -17.88,-1.31 -35.93,-2.14 -53.4,-6.47 -12.71,-3.04 -25.24,-6.86 -37.41,-11.64 -6.58,-2.4 -12.88,-6.52 -20.16,-6.03 -6.66,-0.19 -12.39,3.54 -18.42,5.75 -20.96,7.49 -42.48,14.02 -64.73,16.17 -10.93,0.95 -21.88,1.86 -32.84,2.37 -16.73,-0.3 -33.36,-2.61 -49.87,-5.22 C 124.43,753.2 100.17,744.44 77.13,733.36 53.42,720.79 30.95,705.56 11.65,686.84 6.83,682.77 2.44,678.23 -1.52,673.33 l 0,-20 c 28.8,33.83 65.21,61.82 106.86,77.83 27.16,11.34 56.52,16.96 85.85,18.26 8.11,1.34 16.21,-0.56 24.33,-0.52 21.36,-1.07 42.65,-4.89 62.84,-12.01 9.27,-3.17 18.73,-5.99 27.42,-10.6 3.87,-2.15 8.37,-2.88 12.75,-2.39 4.23,0.3 7.92,2.6 11.7,4.3 26.6,11.62 55.08,19.62 84.21,20.71 8.01,0.03 15.97,1.8 23.98,0.9 5.24,-0.59 10.52,-0.76 15.78,-1.18 22.02,-2.7 44.08,-6.76 64.72,-15.14 17.17,-6.13 33.62,-14.24 48.95,-24.1 15.17,-10.24 29.7,-21.47 42.89,-34.18 4.2,-4.28 9.05,-8.15 11.67,-13.68 -2.12,1.67 -4.1,3.52 -5.86,5.58 -6.71,7.96 -15.02,14.33 -22.8,21.19 -14.29,11.4 -29.18,22.21 -45.56,30.44 -12.63,6.71 -26.06,11.72 -39.51,16.47 -15.92,5.58 -32.63,8.37 -49.27,10.78 -6.96,1.09 -14.03,1 -21.01,1.82 -8.01,0.9 -15.97,-0.88 -23.98,-0.9 -29.13,-1.08 -57.61,-9.09 -84.21,-20.71 -4.64,-2.25 -9.42,-4.86 -14.77,-4.42 -6.34,-0.26 -11.49,3.85 -17.13,6.03 -9.5,3.77 -19.27,6.83 -28.97,10.04 -17.49,5.16 -35.62,8.18 -53.84,9.05 -4.41,0.08 -8.81,0.37 -13.19,0.85 -5.97,0.66 -11.89,-0.7 -17.85,-0.75 -7.88,-0.1 -15.66,-1.46 -23.44,-2.58 C 141.43,741.6 122.16,736.29 103.9,728.58 74.17,717.11 47.33,699.02 23.71,677.78 14.85,669.18 6.07,660.43 -1.52,650.66 l 0,-22.21 c 9.8,13.79 21.07,26.56 33.28,38.28 12.06,10.77 24.62,21.08 38.4,29.6 41.68,26.77 91.84,40.36 141.34,37.64 19.61,-0.78 39.24,-3.72 57.86,-10.09 12.95,-4.23 26.02,-8.43 38.02,-15 4.76,-2.75 10.81,-2.73 15.78,-0.53 29.68,14.54 62.04,24.83 95.3,25.61 4.7,-0.02 9.36,0.65 14.05,0.82 15.57,-0.6 31.12,-2.17 46.4,-5.33 20.27,-3.69 39.44,-11.58 58.22,-19.83 17.02,-8.54 32.76,-19.47 47.59,-31.36 7.34,-5.6 13.38,-12.63 20.02,-19 6.86,-6.65 13.35,-13.77 18.68,-21.72 -6.18,3.93 -9.51,10.72 -14.69,15.71 -6.38,6.29 -12.55,12.8 -19.09,18.92 -14.11,11.89 -29.21,22.68 -45.33,31.69 -7.61,4.44 -15.91,7.48 -23.99,10.94 -9.62,3.57 -19.17,7.46 -29.17,9.91 -19.18,4.82 -38.89,7.39 -58.64,8.07 -13.21,-0.96 -26.51,-1.02 -39.61,-3.19 -21.09,-3.46 -41.48,-10.43 -60.99,-19.04 -5.32,-2.29 -10.37,-6.04 -16.44,-5.77 -4.96,-0.28 -9.08,2.79 -13.35,4.81 -8.17,3.87 -16.64,7.08 -25.26,9.8 -11.29,3.86 -22.74,7.42 -34.53,9.4 -11.2,1.82 -22.52,3.06 -33.87,3.27 -21.74,1.23 -43.54,-1.56 -64.73,-6.31 C 110.01,717.54 78.12,702.05 50.75,680.73 38.74,671.19 26.93,661.22 17.13,649.35 10.52,642.02 4.68,634.04 -1.52,626.37 l 0,-24.97 c 4.67,7.15 9.3,14.36 14.33,21.27 5.84,7.13 11.18,14.74 17.9,21.1 5.42,5.25 10.61,10.73 16.04,15.96 35.29,31.88 80.54,52.87 127.9,58.04 11.87,1.85 23.9,1.14 35.86,1.23 13.57,-0.82 27.2,-2.15 40.41,-5.49 16.46,-4.21 32.6,-9.76 47.89,-17.2 5.26,-2.78 10.33,-6.91 16.65,-6.52 6.71,-0.75 12,3.88 17.66,6.59 12.74,6.32 26.24,10.94 39.79,15.18 20.26,6.2 41.6,7.84 62.7,7.59 13.9,0.21 27.68,-2.14 41.3,-4.7 17.4,-3.32 33.94,-9.89 50.15,-16.88 20.35,-9.48 38.62,-22.81 55.58,-37.4 9.6,-9.09 18.99,-18.47 26.95,-29.06 4.7,-6.46 10.2,-12.44 13.75,-19.66 -4.93,3.65 -7.6,9.33 -11.4,14 -11.23,15.22 -24.17,29.25 -39.11,40.89 -10.8,8.42 -21.8,16.72 -33.96,23.08 -9.98,5.99 -20.95,10.03 -31.75,14.24 -16.55,6.54 -34.12,10.04 -51.72,12.27 -11.23,1.68 -22.62,1.17 -33.93,1.1 -17.99,-0.62 -36.02,-3.14 -53.12,-8.89 -12.92,-4.23 -25.83,-8.76 -37.86,-15.15 -3.32,-1.7 -6.4,-4.04 -10.09,-4.84 -5.16,-0.88 -10.74,-0.37 -15.23,2.53 -8.54,5.39 -18.08,8.82 -27.39,12.61 -17.26,6.08 -35.01,11.17 -53.32,12.61 -12.61,1.58 -25.34,1.13 -38.01,1.03 -19.01,-1.52 -38,-4.64 -56.1,-10.77 C 99.48,696.17 70.82,679.46 46.75,657.73 41.17,652.31 35.76,646.71 30.21,641.27 18.03,628.2 8.05,613.34 -1.52,598.31 l 0,-28.96 c 7.3,14.5 15.05,28.85 24.7,41.95 12.87,17.22 27.59,33.2 44.63,46.38 11.84,9.58 25,17.35 38.35,24.6 18.34,8.34 37.47,15.44 57.45,18.59 10.55,1.65 21.17,3.35 31.87,3.17 18.47,0.26 37.11,-1.25 55,-6.05 17.12,-4.66 34.11,-10.48 49.45,-19.53 5.15,-2.95 10.32,-6.83 16.56,-6.63 5.94,-0.24 10.53,4.03 15.43,6.71 14.99,8.46 31.24,14.53 47.77,19.22 21.91,6.13 44.9,7.07 67.51,5.92 17.83,-1.98 35.77,-4.87 52.57,-11.39 15.01,-5.5 29.9,-11.76 43.12,-20.86 8.17,-5.4 15.96,-11.34 23.67,-17.35 4.83,-4.51 9.91,-8.75 14.66,-13.34 16.43,-17.85 32.07,-37.01 42.08,-59.3 -5.26,4 -6.91,10.67 -10.35,16.02 -9.44,15.44 -20.99,29.48 -33.22,42.78 -2.18,2.17 -4.62,4.06 -6.9,6.12 -8.37,8.12 -18.06,14.72 -27.53,21.46 -13.68,9.7 -29.12,16.5 -44.82,22.2 -17.57,6.87 -36.37,9.92 -55.06,11.81 -11.98,0.28 -24.02,0.62 -35.95,-0.75 -18.75,-1.46 -37.01,-6.71 -54.43,-13.64 -8.19,-3.12 -16.13,-6.91 -23.74,-11.26 -4.66,-2.64 -9.12,-6.6 -14.81,-6.35 -6.76,-0.2 -12.21,4.29 -17.82,7.37 -15.5,8.89 -32.57,14.63 -49.78,19.2 -20.31,5.23 -41.48,6.25 -62.35,5.42 -17.49,-1.69 -35.07,-4.28 -51.7,-10.17 -10.01,-3.29 -19.81,-7.22 -29.34,-11.7 C 91.54,672.33 77.83,664.09 65.58,653.89 36.13,630.37 13.63,598.84 -1.52,564.47 l 0,-38.18 c 4.13,11.91 7.91,23.98 13.33,35.38 5.27,10.54 10.21,21.3 17.05,30.94 8.37,13.28 18.65,25.2 29.34,36.64 10.52,9.56 21.12,19.19 33.1,26.93 8.65,5.09 17,10.82 26.31,14.7 15.68,6.75 31.92,12.59 48.86,15.13 9.29,1.36 18.59,3.11 28.01,3.04 20.25,0.19 40.77,-1.65 60.11,-7.96 14.13,-4.27 27.94,-9.72 40.63,-17.32 6.9,-3.63 13.04,-9.8 21.3,-9.9 4.11,-0.41 7.58,2.1 10.84,4.22 16.71,11.02 35.23,19.14 54.45,24.63 14.83,4.27 30.29,5.99 45.67,6.33 18.83,0.56 37.66,-2.32 55.8,-7.23 15.93,-5.2 31.84,-11.02 46.17,-19.84 10.41,-6.36 20.2,-13.67 29.66,-21.35 5.15,-4.51 9.68,-9.66 14.64,-14.36 5.34,-5.06 9.71,-10.99 14.28,-16.72 8.53,-10.84 16.07,-22.48 22.13,-34.88 5.33,-10.32 10.28,-20.98 13.25,-32.24 -4.53,4.45 -5.24,11.14 -7.83,16.69 -7.38,16.78 -16.12,33.08 -27.37,47.61 -5.29,6.67 -10.28,13.64 -16.46,19.54 -5.45,5.22 -10.4,11.01 -16.53,15.48 -14.86,11.75 -30.71,22.63 -48.44,29.57 -9.03,3.48 -18.02,7.14 -27.4,9.59 -11.8,2.92 -23.86,4.83 -35.96,5.91 -18.8,0.82 -37.82,-0.2 -56.15,-4.65 -22.14,-5.61 -43.38,-14.87 -62.34,-27.64 -5.65,-4.33 -13.56,-2.83 -19.17,0.75 -11.69,7.47 -23.85,14.42 -36.99,19.02 -14.47,5.22 -29.31,9.86 -44.71,11.25 -8.5,0.83 -17.02,1.75 -25.58,1.5 -12.2,0.38 -24.27,-1.79 -36.26,-3.79 -11.71,-1.93 -22.94,-5.88 -34.03,-9.99 -8.14,-3.25 -16.31,-6.57 -23.79,-11.19 -6.37,-3.95 -13,-7.5 -19.06,-11.93 -7.21,-5.39 -14.18,-11.11 -20.81,-17.2 -7.64,-6.04 -13.38,-13.98 -19.8,-21.2 C 34.19,598.52 24.65,584.36 17.48,569.01 8.96,553.02 3.44,535.7 -1.52,518.35 l 0,-139.69 c 3.79,-12.7 6.84,-25.64 11.58,-38.05 11.09,-31.78001 27.22,-61.74001 47.26,-88.76001 28.17,-38.76 65.43,-70.67 107.52,-93.46 37.66,-19.72 79.18,-32.31 121.62,-35.55 9.96,-1.31 20.01,-0.72 30.02,-0.86 11.58,-0.34 23.09,1.28 34.59,2.47 38.93,5.27 77.08,17.38 111.43,36.5 22.68,12.05 43.51,27.33 62.71,44.32 6.9,6.76 13.66,13.67 20.53,20.47 12.65,13.57 23.87,28.42 34.13,43.86 9.16,14.88 18.16,29.94 25.02,46.04001 5.89,12.9 11.02,26.16 15.1,39.75 0.66,2.3 1.65,4.57 3.51,6.15 -0.7,-4.98 -2.5,-9.7 -4.13,-14.42 -15.06,-44.35001 -39.08,-85.72001 -70.65,-120.36001 -6.6,-6.73 -13.37,-13.29 -19.96,-20.03 -5.44,-5.62 -11.7,-10.34 -17.66,-15.37 -28.9,-23.39 -61.87,-41.76 -96.99,-53.97 -29.16,-10.13 -59.8,-15.9 -90.61,-17.41 -8.01,-0.01 -16.02,0.05 -24.02,-0.02 -39.58,1.67 -78.89,10.73 -115.01,27.03 -21.14,9 -40.79,21.18 -59.37,34.63 -12.35,9.53 -24.57,19.33 -35.36,30.63 -23.79,22.85 -43.37,49.84 -59.46,78.56 -8.74,15.96 -16.22,32.62001 -22.22,49.80001 -3.79,9.82 -6.27,20.07 -9.58,30.05 l 0,-43.08 c 6.14,-14.44 11.97,-29.07001 19.87,-42.68001 13.17,-24.51 29.38,-47.37 47.94,-68.09 5.56,-5.46 10.22,-11.8 16.34,-16.68 53.36,-52.49 125.28,-85.6 199.85,-92.14999 11.93,-1.68 24,-0.74 36,-1.01 10.69,-0.34 21.3,1.12 31.91,2.14999 74.38,9.01 144.9,44.24 197.82,97.11 24.14,24.62 44.68,52.79 60.76,83.31 4.34,7.3 7.5,15.2 10.94,22.95001 0.79,1.93 2.1,3.57 3.54,5.07 -1.27,-6.5 -4.9,-12.15001 -7.36,-18.21001 -15.02,-30.13 -33.88,-58.45 -56.66,-83.29 -56.53,-62.4 -136.84,-103.21 -220.94,-110.12999 -12.61,-1.63 -25.34,-0.66 -38.01,-0.97 -7.27,-0.23 -14.5,0.62 -21.72,1.41 -70.23,6.88999 -137.73,37.51999 -189.52,85.38999 -3.47,3.55 -7.11,6.91 -10.85,10.16 -23.56,23.68 -44.2,50.4 -60.24,79.75 -7.72,13.06 -13.7,27.02 -19.67,40.93001 l 0,-33.04001 c 11.28,-20.99 23.24,-41.75 38.08,-60.47 33.63,-44.46 78.09,-80.74 128.58,-104.43 7.85,-4.2 16.26,-7.17 24.48,-10.54 30.54,-11.92999 62.92,-18.909987 95.58,-21.539987 8.4,-0.99 16.86,-0.5 25.28,-0.57 8.76,0.1 17.55,-0.45 26.28,0.56 45.8,3.53 90.95,16.219997 131.72,37.419987 29.29,14.54 56.08,33.81 80.23,55.77 5.72,5.61 11.34,11.34 17.03,16.98 19.31,20.86 36.42,43.81 50.5,68.53 2.19,3.87 3.87,8.16 7.25,11.21 -1.48,-5.73 -4.96,-10.59 -7.84,-15.66 -13.56,-23.03 -29.77,-44.47 -47.91,-64.08 -6.36,-6.31 -12.64,-12.7 -19.02,-18.97 -24.15,-21.98 -50.95,-41.24 -80.24,-55.78 C 427.71,106.79 382.56,94.100003 336.76,90.580003 c -8.07,-0.95 -16.19,-0.53 -24.28,-0.57 -9.7,0.09 -19.43,-0.48 -29.08,0.74 -40.43,3.28 -80.27,13.859997 -116.93,31.239987 -30.37,14.26 -58.83,32.74 -83.73,55.27 -23.41,20.39 -43.68,44.21 -61.22,69.78 -8.52,12.35 -15.58,25.59 -23.04,38.58 l 0,-27.09 c 13.01,-22.14 28.34,-42.92 45.44,-62.08 3.37,-3.95 7.12,-7.55 10.81,-11.2 27.07,-28.12 59.01,-51.5 93.74,-69.26 C 190.41,94.060003 236.94,81.24 284.06,77.49 c 7.31,-0.88 14.69,-0.07 22,-0.98 5.14,-0.7 10.26,0.31 15.39,0.47 17.47,-0.25 34.83,2.26 52.04,5.01 45.89,8.430003 90.28,25.33 129.77,50.23999 21.09,13.36 41.25,28.39 59.06,45.93 3.37,2.95 6.89,5.78 9.79,9.23 4.8,5.83 10.43,10.92 15.16,16.82 11.43,13.12 21.83,27.13 31.11,41.85 1.35,2.09 3.14,3.83 5,5.46 -2.43,-5.7 -6.33,-10.57 -9.72,-15.71 -9.34,-13.75 -19.78,-26.74 -30.96,-39.02 -5.56,-5.45 -10.14,-11.84 -16.13,-16.85 -5.79,-4.87 -10.84,-10.54 -16.67,-15.35 -31.63,-27.15 -67.6,-49.33 -106.41,-64.619987 C 410.28,86.950003 375.23,78.46 339.64,75.66 c -7.63,-1.1 -15.34,-0.26 -22.99,-0.99 -8.39,-1.13 -16.78,0.88 -25.2,0.36 -42.19,2.36 -83.97,12.290003 -122.71,29.18 -19.13,8.48999 -37.48,18.64999 -55.07,29.96999 -20.56,14.03 -40.23,29.55 -57.44,47.58 -22.52,21.52 -41.12,46.76 -57.75,73 l 0,-25.11 c 5.79,-7.16 10.67,-15 16.52,-22.13 8.83,-11.72 18.94,-22.37 28.73,-33.26 5.53,-5.83 11.98,-10.68 17.53,-16.49 46.43,-41.55 103.06,-71.949987 163.82,-86.17999 20.41,-5.17 41.38,-8 62.37,-9.48 11.46,0.19 22.88,-2.34 34.31,-0.48 53.31,1.27 106.12,14.8 154.06,38.020003 56.14,27.619987 106.05,68.509987 142.43,119.549987 1.47,1.99 3.3,3.68 5.2,5.27 -2.27,-4.94 -5.9,-9.01 -9.11,-13.33 -4.63,-6.31 -9.75,-12.24 -14.79,-18.22 -5.73,-6.26 -11.03,-12.95 -17.38,-18.61 C 514.49,105.01 419.7,62.17 322.64,59.71 c -7.75,-1.02 -15.58,-1.02 -23.32,-0.01 -57.9,1.44 -115.2,17.49 -166.04,45.11 -25.62,14.09999 -49.66,31.03999 -71.52,50.46999 -6.13,6.22 -12.91,11.75 -19.02,17.99 -15.98,17.05 -31.43,34.74 -44.26,54.33 l 0,-23.15 c 13.32,-18.53 28.95,-35.28 45.25,-51.2 22.13,-20.32 46.04,-38.87 72.1,-53.899987 C 160.96,72.73 211.67,55.64 263.66,49.2 c 13.19,-1.9 26.52,-2.07 39.79,-3.15 7.4,-0.32 14.82,-0.14 22.19,0.64 94.56,3.07 186.86,42.830003 255.61,107.53999 6.74,6.93 13.76,13.58 20.43,20.57 5.27,6.06 10.75,11.96 15.61,18.36 1.78,2.35 3.88,4.43 6.18,6.27 -3.49,-6.95 -9.31,-12.29 -14.18,-18.24 -5.54,-6.76 -11.89,-12.77 -18.06,-18.94 -24.65,-25.61 -53.36,-47.13 -84.05,-64.949987 C 455.29,67.16 396.4,49.11 336.51,45.13 c -8.7,0.04 -17.33,-1.36 -26.03,-1.22 -8.69,-0.12 -17.31,1.2 -26,1.27 -43.12,2.96 -85.75,13.25 -125.44,30.36 -43.26,18.260003 -82.66,45.07999 -116.83,77.18999 -15.62,15.32 -30.67,31.33 -43.73,48.93 l 0,-22.07 c 5.06,-5.8 10.06,-11.66 15.25,-17.34 13.75,-13.6 26.9,-27.9 42.29,-39.7 C 76.88,105.42 99.52,90.470003 123.38,77.87 c 7.69,-4.64 16.11,-7.83 24.15,-11.78 38.68,-17.27 80.08,-28.48 122.24,-32.75 9.83,-1.52 19.8,-1.19 29.68,-2.24 9.76,-0.15 19.58,-0.49 29.31,0.5 78.86,3.33 156.33,30.73 220.35,76.76 18.61,13.05999 35.72,28.09999 52.08,43.84999 7.84,7.34 14.01,16.34 22.24,23.27 -3.22,-6.6 -9.46,-10.86 -13.8,-16.63 C 584.1,132.30999 555.34,108.8 523.88,89.600003 468.01,55.42 403.91,34.53 338.51,30.14 322.53,29.07 306.46,28.15 290.48,29.81 279.93,29.88 269.49,31.39 259.03,32.56 235,35.89 211.11,40.82 188.1,48.62 132.12,66.4 80.45,97.070003 37.22,136.73999 c -13.07,13.47 -27.2,25.99 -38.74,40.86 l 0,-20.98 c 7.91,-8.94 16,-17.76 25.07,-25.55 C 55.62,100.5 92.66,75.09 132.81,56.34 c 5.14,-2.69 10.38,-5.16 15.81,-7.22 8.91,-3.41 17.63,-7.34 26.73,-10.26 48.72,-16.92 100.62,-24.43 152.12,-22.71 12.2,1.03 24.46,1.55 36.59,3.29 86.01,11.06 168.22,49.29 232.3,107.67999 7.43,6.2 14.01,13.32 20.8,20.19 1.91,1.93 4.09,3.56 6.36,5.05 -2.4,-3.35 -5.28,-6.31 -8.27,-9.13 -24.27,-24.78 -51.51,-46.709987 -81,-64.97999 C 519.31,68.68 503.37,60.84 487.48,53.02 445.16,33.62 399.73,20.95 353.41,16.19 340.12,15.18 326.83,13.61 313.48,14 306,14.04 298.5,13.67 291.05,14.53 c -39.36,1.91 -78.47,9.42 -115.7,22.33 -9.34,3 -18.3,7.04 -27.45,10.54 -5.18,1.98 -10.17,4.38 -15.09,6.94 -40.38,18.83 -77.54,44.480003 -109.8,75.18999 -8.55,8 -17.25,15.97 -24.53,25.19 l 0,-20.24 C 31.58,100.09 70.35,71.16 112.81,49.31 166.38,21.34 225.99,5.0699996 286.32,1.6599996 c 8.69,-1.00999995 17.43,-0.63 26.16,-0.65 17.63,-0.45999995 35.21,1.43 52.71,3.33 C 420.29,11.36 473.95,29.1 522.57,55.89 c 31.22,17.27 60.33,38.290003 86.67,62.34999 4.74,4.39 8.66,9.75 14.28,13.12 -6.67,-8.38 -14.71,-15.6 -22.77,-22.62999 C 534.08,50.29 449.63,12.22 361.51,1.9399996 c -4.96,-0.42 -9.9,-1.06999995 -14.8,-1.93999995156267 z"
     id="path32"
     inkscape:connector-curvature="0"
     style="fill:#ffffff" />
  <path
     d="m 423.85,-3.5156267e-7 7.94,0 C 439.35,2.8999996 447.22,4.9199996 454.86,7.6099996 511.72,26.69 564.64,57.25 609.88,96.600003 614.73,100.88 619.87,104.98 623.68,110.26999 619.97,108.32 617.1,105.25 614.16,102.34 577.99,70.13 536.76,43.6 492.43,24.1 470.22,14.33 447.15,6.7099996 423.85,-3.5156267e-7 z"
     id="path34"
     inkscape:connector-curvature="0"
     style="fill:#d7d7d7" />
  <path
     d="m 473.91,-3.5156267e-7 4.95,0 C 491.71,5.1099996 504.3,10.81 516.82,16.66 c 33.27,16.63 64.81,36.79 93.48,60.52 4.63,4.14 10.21,7.390003 13.63,12.740003 C 617.04,85.510003 611.27,79.65 604.82,74.66 589.94,63.01 574.61,51.89 558.55,41.93 541.67,31.77 524.57,21.84 506.5,13.95 495.91,8.6699996 484.76,4.6799996 473.91,-3.5156266e-7 z"
     id="path36"
     inkscape:connector-curvature="0"
     style="fill:#d8d8d8" />
  <path
     d="m 512.83,-3.5156267e-7 3.95,0 C 525.69,3.6199996 533.83,8.8199996 542.45,13.05 c 23.4,12.93 45.93,27.48 66.93,44.04 4.68,3.75 9.91,7 13.49,11.93 -2.62,-1.44 -5.1,-3.1 -7.37,-5.03 -10.8,-9 -22.34,-17.07 -33.82,-25.17 C 566.12,28.79 550.42,18.9 533.87,10.59 527.14,6.4899996 519.79,3.6399996 512.83,-3.5156267e-7 z"
     id="path38"
     inkscape:connector-curvature="0"
     style="fill:#dadada" />
  <path
     d="m 546.89,-3.5156267e-7 2.96,0 C 574.18,13.09 597.24,28.5 619.08,45.4 c 1.91,1.54 3.4,3.51 4.85,5.48 -2.08,-1.33 -4.11,-2.73 -6.05,-4.25 C 608.75,39.3 599.16,32.58 589.49,25.99 575.78,16.54 561.2,8.4699996 546.89,-3.5156267e-7 z"
     id="path40"
     inkscape:connector-curvature="0"
     style="fill:#dbdbdb" />
  <path
     d="m 576.96,-3.5156267e-7 2.96,0 C 593.52,7.9699996 606.35,17.13 619.11,26.35 c 1.77,1.37 3.23,3.07 4.66,4.77 C 618.02,28.35 613.29,23.98 608.03,20.45 598.08,13.03 587.4,6.6799996 576.96,-3.5156267e-7 z"
     id="path42"
     inkscape:connector-curvature="0"
     style="fill:#dcdcdc" />
  <path
     d="m 605.02,-3.5156267e-7 2.92,0 C 613.51,3.9499996 619.93,7.1399996 623.98,12.83 617.28,9.1299996 611.57,3.9399996 605.02,-3.5156267e-7 z"
     id="path44"
     inkscape:connector-curvature="0"
     style="fill:#dddddd" />
  <path
     d="M 291.05,14.53 C 298.5,13.67 306,14.04 313.48,14 c 13.35,-0.39 26.64,1.18 39.93,2.19 46.32,4.76 91.75,17.43 134.07,36.83 15.89,7.82 31.83,15.66 46.77,25.23 29.49,18.270003 56.73,40.19999 81,64.97999 2.99,2.82 5.87,5.78 8.27,9.13 -2.27,-1.49 -4.45,-3.12 -6.36,-5.05 -6.79,-6.87 -13.37,-13.99 -20.8,-20.19 C 532.28,68.73 450.07,30.5 364.06,19.44 351.93,17.7 339.67,17.18 327.47,16.15 c -51.5,-1.72 -103.4,5.79 -152.12,22.71 -9.1,2.92 -17.82,6.85 -26.73,10.26 -5.43,2.06 -10.67,4.53 -15.81,7.22 -40.15,18.75 -77.19,44.16 -109.26,74.72999 -9.07,7.79 -17.16,16.61 -25.07,25.55 l 0,-1.9 c 7.28,-9.22 15.98,-17.19 24.53,-25.19 C 55.27,98.820003 92.43,73.17 132.81,54.34 c 4.92,-2.56 9.91,-4.96 15.09,-6.94 9.15,-3.5 18.11,-7.54 27.45,-10.54 37.23,-12.91 76.34,-20.42 115.7,-22.33 z"
     id="path46"
     inkscape:connector-curvature="0"
     style="fill:#d5d5d5" />
  <path
     d="m 290.48,29.81 c 15.98,-1.66 32.05,-0.74 48.03,0.33 65.4,4.39 129.5,25.28 185.37,59.460003 31.46,19.199997 60.22,42.709987 85.75,69.249987 4.34,5.77 10.58,10.03 13.8,16.63 -8.23,-6.93 -14.4,-15.93 -22.24,-23.27 -16.36,-15.75 -33.47,-30.79 -52.08,-43.84999 C 485.09,62.33 407.62,34.93 328.76,31.6 c -9.73,-0.99 -19.55,-0.65 -29.31,-0.5 -9.88,1.05 -19.85,0.72 -29.68,2.24 -42.16,4.27 -83.56,15.48 -122.24,32.75 -8.04,3.95 -16.46,7.14 -24.15,11.78 -23.86,12.600003 -46.5,27.55 -67.36,44.67999 -15.39,11.8 -28.54,26.1 -42.29,39.7 -5.19,5.68 -10.19,11.54 -15.25,17.34 l 0,-1.99 c 11.54,-14.87 25.67,-27.39 38.74,-40.86 C 80.45,97.070003 132.12,66.4 188.1,48.62 c 23.01,-7.8 46.9,-12.73 70.93,-16.06 10.46,-1.17 20.9,-2.68 31.45,-2.75 z"
     id="path48"
     inkscape:connector-curvature="0"
     style="fill:#d3d3d3" />
  <path
     d="m 284.48,45.18 c 8.69,-0.07 17.31,-1.39 26,-1.27 8.7,-0.14 17.33,1.26 26.03,1.22 59.89,3.98 118.78,22.03 170.67,52.170003 30.69,17.819987 59.4,39.339987 84.05,64.949987 6.17,6.17 12.52,12.18 18.06,18.94 4.87,5.95 10.69,11.29 14.18,18.24 -2.3,-1.84 -4.4,-3.92 -6.18,-6.27 -4.86,-6.4 -10.34,-12.3 -15.61,-18.36 -6.67,-6.99 -13.69,-13.64 -20.43,-20.57 C 512.5,89.520003 420.2,49.76 325.64,46.69 c -7.37,-0.78 -14.79,-0.96 -22.19,-0.64 -13.27,1.08 -26.6,1.25 -39.79,3.15 -51.99,6.44 -102.7,23.53 -147.83,50.150003 -26.06,15.029987 -49.97,33.579987 -72.1,53.899987 -16.3,15.92 -31.93,32.67 -45.25,51.2 l 0,-2.79 c 13.06,-17.6 28.11,-33.61 43.73,-48.93 34.17,-32.11 73.57,-58.929987 116.83,-77.18999 39.69,-17.11 82.32,-27.4 125.44,-30.36 z"
     id="path50"
     inkscape:connector-curvature="0"
     style="fill:#d2d2d2" />
  <path
     d="m 299.32,59.7 c 7.74,-1.01 15.57,-1.01 23.32,0.01 97.06,2.46 191.85,45.3 259.53,114.59999 6.35,5.66 11.65,12.35 17.38,18.61 5.04,5.98 10.16,11.91 14.79,18.22 3.21,4.32 6.84,8.39 9.11,13.33 -1.9,-1.59 -3.73,-3.28 -5.2,-5.27 -36.38,-51.04 -86.29,-91.93 -142.43,-119.549987 C 427.88,76.43 375.07,62.9 321.76,61.63 c -11.43,-1.86 -22.85,0.67 -34.31,0.48 -20.99,1.48 -41.96,4.31 -62.37,9.48 -60.76,14.230003 -117.39,44.62999 -163.82,86.17999 -5.55,5.81 -12,10.66 -17.53,16.49 -9.79,10.89 -19.9,21.54 -28.73,33.26 -5.85,7.13 -10.73,14.97 -16.52,22.13 l 0,-2.05 c 12.83,-19.59 28.28,-37.28 44.26,-54.33 6.11,-6.24 12.89,-11.77 19.02,-17.99 21.86,-19.43 45.9,-36.37 71.52,-50.46999 C 184.12,77.19 241.42,61.14 299.32,59.7 z"
     id="path52"
     inkscape:connector-curvature="0"
     style="fill:#d0d0d0" />
  <path
     d="m 291.45,75.03 c 8.42,0.52 16.81,-1.49 25.2,-0.36 7.65,0.73 15.36,-0.11 22.99,0.99 35.59,2.8 70.64,11.290003 103.85,24.310003 38.81,15.289987 74.78,37.469987 106.41,64.619987 5.83,4.81 10.88,10.48 16.67,15.35 5.99,5.01 10.57,11.4 16.13,16.85 11.18,12.28 21.62,25.27 30.96,39.02 3.39,5.14 7.29,10.01 9.72,15.71 -1.86,-1.63 -3.65,-3.37 -5,-5.46 -9.28,-14.72 -19.68,-28.73 -31.11,-41.85 -4.73,-5.9 -10.36,-10.99 -15.16,-16.82 -2.9,-3.45 -6.42,-6.28 -9.79,-9.23 -17.81,-17.54 -37.97,-32.57 -59.06,-45.93 C 463.77,107.32 419.38,90.420003 373.49,81.99 c -17.21,-2.75 -34.57,-5.26 -52.04,-5.01 -5.13,-0.16 -10.25,-1.17 -15.39,-0.47 -7.31,0.91 -14.69,0.1 -22,0.98 -47.12,3.75 -93.65,16.570003 -135.59,38.49999 -34.73,17.76 -66.67,41.14 -93.74,69.26 -3.69,3.65 -7.44,7.25 -10.81,11.2 -17.1,19.16 -32.43,39.94 -45.44,62.08 l 0,-3.77 c 16.63,-26.24 35.23,-51.48 57.75,-73 17.21,-18.03 36.88,-33.55 57.44,-47.58 17.59,-11.32 35.94,-21.48 55.07,-29.96999 38.74,-16.889997 80.52,-26.82 122.71,-29.18 z"
     id="path54"
     inkscape:connector-curvature="0"
     style="fill:#d0d0d0" />
  <path
     d="m 283.4,90.750003 c 9.65,-1.22 19.38,-0.65 29.08,-0.74 8.09,0.04 16.21,-0.38 24.28,0.57 45.8,3.52 90.95,16.209997 131.72,37.409987 29.29,14.54 56.09,33.8 80.24,55.78 6.38,6.27 12.66,12.66 19.02,18.97 18.14,19.61 34.35,41.05 47.91,64.08 2.88,5.07 6.36,9.93 7.84,15.66 -3.38,-3.05 -5.06,-7.34 -7.25,-11.21 -14.08,-24.72 -31.19,-47.67 -50.5,-68.53 -5.69,-5.64 -11.31,-11.37 -17.03,-16.98 -24.15,-21.96 -50.94,-41.23 -80.23,-55.77 C 427.71,108.79 382.56,96.100003 336.76,92.570003 c -8.73,-1.01 -17.52,-0.46 -26.28,-0.56 -8.42,0.07 -16.88,-0.42 -25.28,0.57 -32.66,2.63 -65.04,9.609997 -95.58,21.539987 -8.22,3.37 -16.63,6.34 -24.48,10.54 -50.49,23.69 -94.95,59.97 -128.58,104.43 -14.84,18.72 -26.8,39.48 -38.08,60.47 l 0,-3.94 c 7.46,-12.99 14.52,-26.23 23.04,-38.58 17.54,-25.57 37.81,-49.39 61.22,-69.78 24.9,-22.53 53.36,-41.01 83.73,-55.27 C 203.13,104.61 242.97,94.030003 283.4,90.750003 z"
     id="path56"
     inkscape:connector-curvature="0"
     style="fill:#cecece" />
  <path
     d="m 278.76,106.37 c 7.22,-0.79 14.45,-1.64 21.72,-1.41 12.67,0.31 25.4,-0.66 38.01,0.97 84.1,6.91999 164.41,47.72999 220.94,110.12999 22.78,24.84 41.64,53.16 56.66,83.29 2.46,6.06 6.09,11.71001 7.36,18.21001 -1.44,-1.5 -2.75,-3.14 -3.54,-5.07 -3.44,-7.75001 -6.6,-15.65001 -10.94,-22.95001 -16.08,-30.52 -36.62,-58.69 -60.76,-83.31 -52.92,-52.87 -123.44,-88.1 -197.82,-97.11 C 339.78,108.09 329.17,106.63 318.48,106.97 c -12,0.27 -24.07,-0.67 -36,1.01 -74.57,6.54999 -146.49,39.65999 -199.85,92.14999 -6.12,4.88 -10.78,11.22 -16.34,16.68 -18.56,20.72 -34.77,43.58 -47.94,68.09 -7.9,13.61 -13.73,28.24001 -19.87,42.68001 l 0,-4.98 c 5.97,-13.91001 11.95,-27.87001 19.67,-40.93001 16.04,-29.35 36.68,-56.07 60.24,-79.75 3.74,-3.25 7.38,-6.61 10.85,-10.16 51.79,-47.87 119.29,-78.5 189.52,-85.38999 z"
     id="path58"
     inkscape:connector-curvature="0"
     style="fill:#cdcdcd" />
  <path
     d="m 184.47,146.98999 c 36.12,-16.3 75.43,-25.36 115.01,-27.03 8,0.07 16.01,0.01 24.02,0.02 30.81,1.51 61.45,7.28 90.61,17.41 35.12,12.21 68.09,30.58 96.99,53.97 5.96,5.03 12.22,9.75 17.66,15.37 6.59,6.74 13.36,13.3 19.96,20.03 31.57,34.64 55.59,76.01 70.65,120.36001 1.63,4.72 3.43,9.44 4.13,14.42 -1.86,-1.58 -2.85,-3.85 -3.51,-6.15 -4.08,-13.59 -9.21,-26.85 -15.1,-39.75 -6.86,-16.10001 -15.86,-31.16001 -25.02,-46.04001 -10.26,-15.44 -21.48,-30.29 -34.13,-43.86 -6.87,-6.8 -13.63,-13.71 -20.53,-20.47 -19.2,-16.99 -40.03,-32.27 -62.71,-44.32 -34.35,-19.12 -72.5,-31.23 -111.43,-36.5 -11.5,-1.19 -23.01,-2.81 -34.59,-2.47 -10.01,0.14 -20.06,-0.45 -30.02,0.86 -42.44,3.24 -83.96,15.83 -121.62,35.55 -42.09,22.79 -79.35,54.7 -107.52,93.46 -20.04,27.02 -36.17,56.98 -47.26,88.76001 -4.74,12.41 -7.79,25.35 -11.58,38.05 l 0,-8 c 3.31,-9.98 5.79,-20.23 9.58,-30.05 6,-17.18 13.48,-33.84001 22.22,-49.80001 16.09,-28.72 35.67,-55.71 59.46,-78.56 10.79,-11.3 23.01,-21.1 35.36,-30.63 18.58,-13.45 38.23,-25.63 59.37,-34.63 z"
     id="path60"
     inkscape:connector-curvature="0"
     style="fill:#cbcbcb" />
  <path
     d="m 293.89,135.43999 c 7.83,-0.96 15.73,-0.18 23.59,-0.48 6.7,-0.29 13.31,0.99 19.98,1.24 64.21,5.66 126.08,32.88 174.32,75.49 7.6,6.02 13.97,13.37 20.97,20.04 52.14,54.93 84.12,128.48001 89.11,204.03001 1.27,9.69 0.32,19.49 0.67,29.24 -1.59,32.11 -7.78,64.36 -21.37,93.67 -4.52,9.03 -8.89,18.17 -14.28,26.74 -9.48,14.18 -20.21,27.6 -32.69,39.28 -10.69,9.51 -22.19,18.14 -34.41,25.59 -19.24,10.21 -39.86,18.47 -61.56,21.41 -7.89,1.01 -15.74,2.78 -23.74,2.34 -9.18,0.39 -18.28,-0.9 -27.42,-1.55 -30.59,-4.18 -59.63,-17.37 -84.17,-35.92 -2.07,-1.92 -4.97,-0.95 -7.46,-0.85 -2.53,0.35 -5.33,0.18 -7.52,1.73 -15.8,11.52 -33.02,21.44 -51.8,27.19 -13.72,4.81 -28.04,8.09 -42.61,8.58 -17.03,2.31 -34.19,-0.13 -50.94,-3.28 -7.91,-1.77 -15.83,-3.64 -23.37,-6.65 -8.64,-3.52 -17.55,-6.53 -25.53,-11.44 C 97.55,642.99 82.39,632.15 69.74,618.75 53.56,603.4 40.45,585 30.28,565.2 14.11,533.74 5.38,498.56 4.13,463.25 2.25,450.89 4.38,438.49 4.73,426.11 7.56,394.62 14.82,363.48 26.6,334.13 c 13.53,-33.44001 32.08,-64.96001 55.86,-92.15001 7.28,-8.04 14.41,-16.23 22.36,-23.62 4.33,-3.32 7.98,-7.39 12.19,-10.85 48.93,-42.55 112.12,-68.36 176.88,-72.07 z"
     id="path62"
     inkscape:connector-curvature="0"
     style="fill:#cbcbcb" />
  <path
     d="m 293.89,137.43999 c 7.5,-0.94 15.06,-0.21 22.59,-0.47 7.34,-0.36 14.58,0.99 21.89,1.3 48.88,4.51 96.5,21.4 137.56,48.25 14.16,8.83 27.06,19.49 39.67,30.38 57,52.18 93.54,125.56001 102.74,202.14001 0.94,8.29 1.58,16.63 2.18,24.95 -0.32,9.81 0.56,19.66 -0.57,29.43 -2.03,29.06 -8.34,58.01 -20.47,84.59 -5.91,11.79 -11.49,23.89 -19.52,34.44 -5.89,8.64 -12.73,16.56 -19.69,24.34 -11.91,11.99 -25.57,22.15 -39.85,31.13 -19.93,10.71 -41.41,19.21 -63.98,22.02 -7.61,1.11 -15.23,2.54 -22.96,2.09 -8.29,0.41 -16.5,-0.93 -24.76,-1.36 -20.9,-2.37 -41.01,-9.63 -59.58,-19.32 -9.29,-4.68 -17.87,-10.64 -26.24,-16.78 -2.99,-2.37 -7.01,-0.52 -10.43,-0.54 -3.95,0.04 -6.72,3.13 -9.79,5.17 -13.96,9.51 -28.89,17.88 -45.07,22.94 -11.78,4.07 -23.92,7.44 -36.38,8.52 -7.92,0.39 -15.79,1.73 -23.75,1.39 -8.02,0.29 -15.94,-1.21 -23.87,-2.23 -13.22,-1.94 -26.37,-5.01 -38.71,-10.24 -7.02,-2.79 -14.14,-5.44 -20.61,-9.38 -15.7,-8.63 -30.61,-19 -43.06,-31.95 C 50.39,598.28 34.59,573.36 23.83,546.66 14.2,523.57 8.89,498.84 6.65,473.98 6.38,462.18 4.31,450.38 6.03,438.59 7.9,394.77 19.12,351.36 38.46,311.99 c 13.83,-28.59001 31.75,-55.29001 53.62,-78.36001 4.86,-5.79 10.16,-11.25 16.04,-16.02 49.98,-47.38 117.02,-76.23 185.77,-80.17 z"
     id="path64"
     inkscape:connector-curvature="0"
     style="fill:#ffffff" />
  <path
     d="m 296.89,150.44999 c 9.63,-0.74 19.38,-0.81 29,0.09 58.35,2.99 115.36,24.83 161.49,60.55 11.39,8.84 22,18.63 32.36,28.64 7.13,8.21 14.72,16.02 21.29,24.71 C 577.99,311.89 600.82,370.11 606.36,429.97 c -0.09,6.71 1.4,13.32 1.16,20.03 -0.21,5.91 0.36,11.86 -0.39,17.75 -1.05,6.97 -0.21,14.1 -1.91,20.99 -2.83,21.54 -8.4,42.8 -17.38,62.61 -4.78,8.88 -8.47,18.4 -14.33,26.67 -5.02,7.53 -10.4,14.85 -16.33,21.68 -4.98,4.72 -8.69,10.67 -14.32,14.71 -7.97,7.54 -17.06,13.73 -26.16,19.81 -11.13,7.42 -23.74,12.17 -36.22,16.76 -9.53,3.49 -19.58,5.13 -29.59,6.48 -11.31,2.4 -22.98,1.82 -34.39,0.6 -15.35,-0.57 -30.22,-5.09 -44.45,-10.62 -18.45,-7.07 -34.97,-18.37 -50.04,-30.98 -3.09,-0.89 -6.39,-0.61 -9.57,-0.48 -3.45,-0.06 -5.44,3.18 -7.96,5.01 -13.54,11.27 -29.16,19.92 -45.4,26.62 -10.71,3.83 -21.56,7.54 -32.85,9.15 -6.25,1.41 -12.69,1.03 -19,1.89 -9.35,1.1 -18.76,0.08 -28.01,-1.33 C 134.47,652.2 93.25,627.02 65.58,591.89 39.27,559.37 24.3,518.55 20.18,477.12 19,470.09 19.99,462.91 18.73,455.89 c -0.99,-5.97 0.33,-11.92 0.71,-17.86 -0.22,-14.52 2.48,-28.87 4.95,-43.12 5.42,-27.34 14.18,-54.15 27.1,-78.91 13.77,-28.85001 32.94,-54.93001 55.07,-77.92001 10.35,-10.01 20.59,-20.21 32.2,-28.79 15.17,-11.7 31.42,-22.04 48.72,-30.29 12.2,-6.55 25.31,-11.13 38.36,-15.65 23.03,-7.23 46.94,-11.67 71.05,-12.9 z"
     id="path66"
     inkscape:connector-curvature="0"
     style="fill:#c9c9c9" />
  <path
     d="m 296.89,152.43999 c 9.63,-0.73 19.39,-0.8 29.01,0.1 67.81,3.49 133.78,32.37 183.01,79.02 7.5,5.83 13.14,13.51 19.73,20.26 41.74,47.96 67.98,108.93001 75.12,172.05001 1.24,14.29 2.43,28.65 1.47,43.01 -1.17,7.25 -0.27,14.68 -2.01,21.86 -2.77,21.3 -8.3,42.3 -17.05,61.94 -3.66,7.05 -6.98,14.28 -10.77,21.26 -7.17,11.51 -15.18,22.57 -24.51,32.44 -3.54,4.8 -8.48,8.19 -12.77,12.25 -6.14,5.31 -12.93,9.81 -19.62,14.4 -12.01,8.34 -25.81,13.53 -39.48,18.45 -11.53,4.12 -23.79,5.17 -35.78,7.22 -8.57,0.71 -17.21,0.45 -25.74,-0.57 -19.56,-0.68 -38.3,-7.31 -56.01,-15.18 -14.18,-7.18 -27.37,-16.22 -39.48,-26.49 -3.91,-0.89 -8.15,-0.88 -12.05,0 -5.05,3.93 -9.73,8.37 -15.07,11.94 -15.01,9.97 -31.12,18.58 -48.53,23.5 -14.72,5.25 -30.42,6.26 -45.88,7.18 -9.23,0.31 -18.33,-1.41 -27.43,-2.64 -16.35,-2.33 -32.1,-7.89 -46.92,-15.07 C 111.21,632.04 97.68,622.19 85.25,611.22 68.63,595.65 55.35,576.78 44.79,556.67 30.15,526.68 21.77,493.52 21.24,460.11 c -0.73,-5.25 -1.27,-10.59 -0.41,-15.86 0.89,-5.05 0.55,-10.18 0.73,-15.27 3.59,-39.16 13.76,-77.99 31.93,-112.98 14.04,-29.21001 33.37,-55.83001 56.15,-78.84001 30.5,-31.16 68.29,-55.17 109.47,-69.51 25.02,-8.75 51.32,-13.78 77.78,-15.21 z"
     id="path68"
     inkscape:connector-curvature="0"
     style="fill:#ffffff" />
  <path
     d="m 298.89,165.43999 c 8.87,-0.78 17.86,-0.79 26.71,0.28 24.77,1.24 49.38,6.09 72.76,14.4 15.31,4.64 29.58,11.97 43.77,19.25 10.54,5.89 20.56,12.65 30.5,19.48 7.53,5.76 14.93,11.7 22.08,17.92 6.73,6.61 13.34,13.33 20.03,19.98 15.42,17.03 28.9,35.83 40.07,55.91001 4.04,8.27 8.41,16.38 12.22,24.76 11.92,27.53 20.02,56.75 23.48,86.57 1.02,5.58 0.83,11.26 1.23,16.89 1.07,7.33 0.86,14.76 0.65,22.14 -1.12,8.22 -0.76,16.56 -2.25,24.74 -4.13,31.51 -15.34,62.23 -33.55,88.36 -5.38,6.6 -10.1,13.79 -16.34,19.64 -12.26,13.11 -27.03,23.68 -42.79,32.17 -12.05,5.31 -24.33,10.55 -37.4,12.71 -13.02,2.39 -26.38,4.66 -39.6,2.56 -18.03,-0.22 -35.31,-6.46 -51.65,-13.56 -14.37,-7.23 -27.9,-16.29 -39.71,-27.24 -2.78,-2.24 -5.23,-4.86 -8.08,-7 -3.68,-0.4 -7.45,0.44 -11.06,1.14 -2.99,1.91 -5.46,4.51 -8.16,6.79 -9.12,8.5 -19.45,15.6 -30.3,21.69 -8.3,5.02 -17.33,8.71 -26.64,11.34 -11.61,4.36 -24,6.75 -36.4,6.74 -4.01,0.22 -7.97,1.26 -12,0.88 -10.82,-1.18 -21.74,-2.04 -32.34,-4.65 -20.17,-5.3 -39.47,-14.24 -56.08,-26.9 -9.25,-6.63 -16.66,-15.33 -24.83,-23.17 -25.48,-28 -40.63,-64.35 -46.43,-101.51 -1.14,-8.88 -2.67,-17.78 -2.28,-26.76 0.19,-4.55 -1.43,-9.03 -0.61,-13.57 1.28,-7.46 -0.09,-15.08 1.3,-22.54 3.7,-37.61 15.04,-74.29 32.37,-107.82 7.97,-14.07001 16.15,-28.10001 26.06,-40.92001 9.99,-12.89 20.84,-25.1 32.59,-36.41 19.45,-17.82 40.76,-33.91 64.6,-45.4 33.37,-17.31 70.55,-27.12 108.08,-28.89 z"
     id="path70"
     inkscape:connector-curvature="0"
     style="fill:#c5c5c5" />
  <path
     d="m 298.89,167.43999 c 8.87,-0.78 17.86,-0.78 26.71,0.28 24.77,1.25 49.38,6.09 72.76,14.4 15.31,4.64 29.59,11.97 43.77,19.25 7.59,4.27 14.96,8.91 22.15,13.83 10.48,6.6 19.87,14.73 29.39,22.63 6.81,6.51 13.39,13.26 20.03,19.94 17.17,19.46 32.5,40.8 43.78,64.24001 16.86,32.23 27.08,67.78 31.27,103.86 1.06,6.37 0.4,12.87 1.48,19.25 0.49,7.98 0.58,16.05 -0.48,24 -1.17,29.51 -8.74,58.77 -22,85.17 -5.18,9.26 -10.23,18.71 -17.11,26.86 -13.7,19.03 -32.65,33.74 -53.18,44.77 -12.3,5.45 -24.86,10.76 -38.22,12.87 -7.83,1.61 -15.78,2.54 -23.73,3.2 -6.73,0.61 -13.36,-1 -20.06,-1.04 -10.33,-0.57 -20.4,-3.35 -30.1,-6.81 -15.91,-4.9 -30.39,-13.46 -43.74,-23.27 -6.85,-5.09 -13.02,-10.99 -19.43,-16.59 -0.86,-1.01 -2.18,-1.22 -3.41,-1.02 -2.95,0.31 -5.94,0.54 -8.81,1.28 -2.99,1.91 -5.46,4.51 -8.16,6.79 -9.12,8.5 -19.45,15.6 -30.3,21.69 -8.3,5.02 -17.33,8.71 -26.65,11.35 -11.61,4.35 -23.99,6.74 -36.4,6.73 -4,0.22 -7.96,1.26 -11.99,0.88 -12.95,-1.4 -26.09,-2.41 -38.58,-6.41 -24.59,-7.52 -47.92,-20.5 -65.64,-39.33 -27.45,-25.96 -44.02,-61.7 -51.69,-98.31 -2.24,-12.52 -4.38,-25.19 -4.06,-37.95 0.02,-4.21 -1.39,-8.36 -0.6,-12.57 1.28,-7.46 -0.09,-15.07 1.3,-22.53 3.7,-37.61 15.04,-74.29 32.37,-107.82 8.31,-14.70001 16.89,-29.33001 27.37,-42.62001 9.98,-12.57 20.57,-24.7 32.36,-35.61 13.32,-11.53 27,-22.82 42.19,-31.84 33.11,-20.13 70.42,-33.69 109,-38.02 6.11,-0.79 12.29,-0.85 18.41,-1.53 z"
     id="path72"
     inkscape:connector-curvature="0"
     style="fill:#ffffff" />
  <path
     d="m 298.46,180.81999 c 7.71,-1.03 15.55,-1.33 23.27,-0.17 62.8,2.35 123.76,29.76 168.94,73.13 4.59,5.09 10.13,9.26 14.28,14.77 C 546.61,314.65 571.92,375.07 576.44,436.98 c -0.11,7.38 1.72,14.66 1.03,22.06 -1.19,10.3 -1.11,20.72 -2.95,30.96 -2.46,12.9 -4.62,26.01 -9.89,38.14 -2.87,7.8 -5.96,15.56 -10.32,22.68 -4.11,7.93 -8.96,15.48 -14.59,22.42 -5.52,6.76 -10.99,13.64 -17.58,19.42 -12.73,10.44 -26.19,20.46 -41.81,26.14 -6.28,2.12 -12.35,4.97 -18.92,6.15 -5.95,1.11 -11.87,2.53 -17.93,2.98 -5.25,0.28 -10.49,1.72 -15.76,0.76 -5.42,-0.95 -10.96,-0.48 -16.38,-1.42 -23.27,-3.55 -45.05,-14.18 -63.44,-28.68 -5.62,-3.64 -9.79,-8.95 -14.99,-13.09 -4.34,-3.71 -7.39,-8.64 -11.75,-12.34 -3.73,0.67 -7.57,0.48 -11.28,1.27 -2.48,1.44 -4.03,3.98 -5.85,6.13 -2.31,3.01 -5.32,5.37 -8.19,7.82 -9.38,8.83 -19.63,16.88 -31,23 -4.28,2.49 -8.54,5.07 -13.23,6.73 -14.4,5.63 -29.58,10.02 -45.16,9.99 -4.99,0.71 -10.01,1.12 -15,0.1 -32.73,-2.03 -64.36,-16.55 -87.73,-39.44 C 72.4,559.31 54.65,517.4 50.41,475.01 c -1.77,-11.93 -0.56,-24 -0.98,-36 0.73,-21.21 4.73,-42.21 10.48,-62.6 6.4,-20.41 13.91,-40.65 24.93,-59.06 10.79,-19.72001 24.32,-37.90001 39.71,-54.25001 3.59,-4.4 7.7,-8.36 12.03,-12.01 28.25,-27.3 63.02,-47.82 100.52,-59.48 7.5,-2.74 15.33,-4.34 23.14,-5.9 12.53,-2.95 25.36,-4.46 38.22,-4.89 z"
     id="path74"
     inkscape:connector-curvature="0"
     style="fill:#b7b7b7" />
  <path
     d="m 301.89,182.44999 c 6.87,-0.89 13.85,-0.65 20.7,0.29 30.02,1.02 59.65,8.25 87.32,19.8 19.7,8.68 38.76,19.03 55.86,32.16 40.78,30.2 71.77,72.8 89.98,120.01001 10.14,25.64 16.28,52.81 18.63,80.27 0.14,3.81 0.06,7.64 0.64,11.43 1.01,6.84 0.51,13.78 -0.36,20.61 -0.23,8.57 -1.1,17.13 -2.6,25.58 -2.04,10.01 -3.64,20.17 -7.21,29.79 -3.85,9.88 -7.23,20.02 -12.9,29.06 -5.39,10.76 -12.76,20.33 -20.53,29.46 -6.79,8.95 -16.22,15.27 -25.13,21.9 -12.17,9.05 -26.44,14.65 -40.79,19.2 -8.24,1.84 -16.55,3.64 -25,4.18 -4.24,0.49 -8.53,1.27 -12.79,0.5 -5.41,-0.95 -10.95,-0.48 -16.37,-1.42 -23.27,-3.55 -45.05,-14.18 -63.45,-28.69 -5.4,-3.5 -9.45,-8.56 -14.42,-12.58 -4.47,-3.81 -7.34,-9.41 -12.59,-12.31 -2.74,-0.62 -5.6,0.19 -8.35,0.4 -4.59,0.48 -7.32,4.68 -10.02,7.93 -2.08,2.92 -5.05,4.98 -7.72,7.31 -6.87,6.56 -14.45,12.37 -22.36,17.63 -7.53,4.26 -14.78,9.23 -23.05,11.99 -13.99,5.42 -28.8,9.23 -43.88,9.22 -5.33,1.09 -10.69,0.59 -16.02,-0.16 C 160.7,623.96 133.05,611.92 111.01,593.47 84.21,570.72 66.33,538.64 57.66,504.81 53.59,487.87 50.85,470.46 51.49,453 c -1.23,-37.42 7.73,-74.58 22.03,-108.98 3.89,-9.43 8.49,-18.55 13.69,-27.31 10.81,-19.71001 24.44,-37.80001 39.81,-54.15001 4.38,-5.97 10.76,-9.89 15.73,-15.29 30.53,-27.43 67.77,-47.3 107.52,-57.47 11.63,-2.39 23.21,-5.31 35.1,-6.1 5.47,-0.84 11.04,-0.49 16.52,-1.25 z"
     id="path76"
     inkscape:connector-curvature="0"
     style="fill:#ffffff" />
  <path
     d="m 305.89,195.42999 c 4.21,-0.88 8.5,-0.31 12.7,0.34 41.24,0.98 81.98,13.6 117.22,34.89 14.68,9.3 29.18,19.16 41.43,31.58 3.51,3.49 7.79,6.2 10.8,10.19 2.43,3.21 5.38,5.95 8.14,8.86 C 535.82,326.94 559.66,386.29 561.81,446.75 c 1.08,5.75 0.85,11.61 -0.08,17.36 -0.84,28.31 -7.73,56.7 -21.69,81.46 -8.09,15.17 -19.79,28.06 -32.44,39.55 -6.26,4.8 -12.55,9.67 -19.47,13.49 -7.74,3.28 -15.16,7.41 -23.28,9.74 -8.89,2.55 -18.02,4.3 -27.25,4.96 -6.36,1.17 -12.71,-0.72 -19.1,-0.45 -28.36,-2.8 -54.17,-17.97 -74.29,-37.59 -5.18,-5.49 -10.99,-10.41 -15.64,-16.38 -2.32,-2.68 -4.61,-5.46 -7.52,-7.52 -4.54,-0.79 -10.35,-1.5 -13.4,2.81 -11.63,13.33 -23.97,26.25 -38.44,36.55 -14.6,10.92 -31.94,17.74 -49.76,21.2 -6.68,1.16 -13.47,0.93 -20.2,1.62 -9.62,-0.26 -19.21,-1.58 -28.58,-3.75 -8.68,-2.63 -17.35,-5.48 -25.5,-9.53 -8.31,-4.81 -16.71,-9.62 -23.89,-16.08 -9.23,-7.06 -16.75,-16.03 -23.83,-25.17 C 89.76,549.15 84.15,537.89 78.91,526.58 70.05,505.52 65.36,482.8 64.43,460 c 0.09,-7.01 0.03,-14.01 0.02,-21.01 2.42,-44.45 16.67,-88.07 40.24,-125.79 8.23,-12.83001 17.58,-24.93001 27.55,-36.44001 6.67,-6.66 13.24,-13.43 20.05,-19.94 11.89,-9.95 23.96,-19.86 37.51,-27.51 16.72,-10.56 35.19,-18.12 54.05,-23.93 16.44,-5.04 33.46,-8.07 50.6,-9.33 3.81,-0.08 7.66,0.06 11.44,-0.62 z"
     id="path78"
     inkscape:connector-curvature="0"
     style="fill:#b1b1b1" />
  <path
     d="m 305.89,197.42999 c 4.22,-0.87 8.5,-0.31 12.7,0.34 40.99,0.97 81.5,13.45 116.59,34.52 14.7,9.27 29.25,19.08 41.55,31.46 3.01,2.99 6.74,5.24 9.31,8.68 3.43,4.54 7.93,8.12 11.38,12.65 34.71,41.49001 56.45,93.65001 61.55,147.51001 0.82,5.52 0.17,11.15 1.17,16.66 0.93,5.24 0.12,10.54 -0.49,15.77 -0.84,27.77 -7.71,55.56 -21.26,79.92 -7.74,14.52 -18.57,27.22 -30.78,38.18 -6.26,4.8 -12.55,9.67 -19.47,13.49 -7.75,3.28 -15.17,7.41 -23.29,9.74 -8.6,2.44 -17.41,4.23 -26.34,4.86 -6.96,1.32 -13.92,-0.59 -20.92,-0.42 -30.18,-3.35 -57.24,-20.39 -77.86,-42.04 -6.72,-5.99 -11.57,-13.81 -18.68,-19.38 -3.3,-0.72 -6.84,-0.72 -10.15,0 -4.63,3.68 -8.46,8.28 -12.25,12.81 -8.74,9.28 -17.88,18.27 -28.3,25.7 -14.85,11.38 -32.61,18.51 -50.9,22.05 -6.68,1.16 -13.48,0.93 -20.21,1.62 -22.28,-0.56 -44.66,-6.7 -63.45,-18.85 -8.3,-4.73 -15.39,-11.22 -22.6,-17.41 -8.25,-8.89 -16.02,-18.35 -22.18,-28.84 -15.62,-26.38 -23.62,-56.9 -24.58,-87.46 0.35,-9.13 -0.55,-18.31 0.57,-27.4 3.04,-37.28 14.51,-73.75 32.64,-106.41 9.31,-17.06001 21.1,-32.60001 33.66,-47.37001 3.64,-4.02 7.66,-7.67 11.43,-11.56 9.28,-9.85 20.25,-17.87 31.03,-25.97 34.79,-24.42 76.29,-39.19 118.69,-42.23 3.82,-0.08 7.66,0.06 11.44,-0.62 z"
     id="path80"
     inkscape:connector-curvature="0"
     style="fill:#ffffff" />
  <path
     d="m 308.93,210.47999 c 1.89,-0.25 3.78,0.09 5.66,0.27 45.14,0.41 89.74,15.69 126.69,41.46 21.11,14.84 39.72,33.13 55.34,53.64 29.02,39.08001 46.54,86.58001 49.87,135.13001 -0.04,9.35 0.04,18.7 -0.02,28.05 -1.66,21.84 -6.36,43.81 -16.64,63.31 -3.93,8.05 -8.57,15.79 -14.31,22.68 -9.29,12.76 -21.87,22.67 -35.37,30.64 -7.31,3.71 -14.94,6.82 -22.77,9.23 -14.88,3.85 -30.54,4.41 -45.67,1.78 -19.66,-4.44 -37.96,-14.47 -52.6,-28.28 -6.05,-4.94 -11.49,-10.57 -16.4,-16.63 -7.36,-6.8 -12.82,-15.64 -21.46,-21.01 -4.72,0.46 -10.7,-1.26 -14.07,2.97 -3.03,2.96 -6.67,5.3 -9.24,8.71 -2.83,3.81 -6.53,6.82 -9.55,10.46 -6.16,7.82 -13.97,14.07 -21.34,20.67 -5.08,4.01 -10.58,7.48 -16,11 -9.15,5.32 -19.29,8.71 -29.43,11.57 -26.99,5.46 -56.22,0.33 -79.14,-15.12 -5.16,-3.42 -10.44,-6.78 -14.77,-11.24 -2.98,-3.02 -5.96,-6.04 -9,-9 -6.69,-6.5 -11.81,-14.37 -16.77,-22.21 C 87.26,514.39 80.63,486.05 79.44,458 c 0.15,-6.68 -0.13,-13.35 0.11,-20.02 1.03,-9.43 1.62,-18.94 3.61,-28.24 1.97,-13.27 6.26,-26.02 10.34,-38.74 10.92,-30.65 27.61,-59.33 49.6,-83.36001 4.4,-5.9 10.27,-10.41 15.15,-15.87 7.42,-6.27 14.54,-12.95 22.61,-18.41 31.81,-23.41 70.03,-38.13 109.38,-41.74 6.18,-1.09 12.49,-0.18 18.69,-1.14 z"
     id="path82"
     inkscape:connector-curvature="0"
     style="fill:#a4a4a4" />
  <path
     d="m 308.93,212.47999 c 2.19,-0.28 4.38,0.2 6.57,0.36 33.65,0.18 66.91,9.27 96.99,24.13 26.65,13.53 50.76,32.09 70.46,54.57 C 519.1,332.81 540.68,386.34 544.49,440.98 c -0.01,9.01 -0.01,18.03 0.01,27.04 -1.28,19.51 -5.2,39 -13.06,56.96 -5,10.55 -10.35,21.08 -17.93,30.04 -8.16,11.86 -20.05,20.36 -32.08,27.92 -7.64,4.13 -15.77,7.35 -24.05,9.95 -14.88,3.85 -30.54,4.41 -45.67,1.78 -17.15,-3.84 -33.2,-12.04 -46.79,-23.12 -6.65,-6.01 -13.96,-11.4 -19.26,-18.74 -8.28,-7.86 -14.8,-17.68 -24.42,-24.05 -3.77,-0.02 -7.6,-0.01 -11.31,0.64 -4.65,4 -9.42,7.95 -13.54,12.52 -3.59,4.71 -8.26,8.45 -11.82,13.19 -3.7,4.63 -8.27,8.42 -12.79,12.2 -6.12,6.08 -13.56,10.54 -20.73,15.25 -9.38,5.43 -19.77,8.92 -30.19,11.76 -20.49,3.77 -42.2,2.08 -61.39,-6.29 -8.8,-3.18 -16.49,-8.63 -24.15,-13.87 -4.74,-3.17 -8.59,-7.4 -12.6,-11.4 -9.82,-9.21 -17.01,-20.78 -23.5,-32.46 -4.96,-10.59 -9.63,-21.43 -12.16,-32.89 -8.44,-33.05 -6.97,-67.99 0.8,-101.01 4.89,-18.35 10.83,-36.52 19.61,-53.4 9.72,-20.18 22.61,-38.77001 37.62,-55.36001 5.41,-6.56 11.51,-12.58 18.02,-18.03 24.7,-22 54.16,-38.83 85.99,-48.01 15.02,-4.81 30.7,-7.09 46.36,-8.53 4.49,-0.12 9,0.06 13.47,-0.59 z"
     id="path84"
     inkscape:connector-curvature="0"
     style="fill:#ffffff" />
  <path
     d="m 293.89,226.40999 c 9.5,-0.91 19.08,-0.18 28.61,-0.43 17.91,1.35 35.87,4.13 52.86,10.14 31.34,9.94 59.91,27.71 83.78,50.19 C 497.17,322.56 521.85,372.12 529.51,424 c 1.22,8.94 2.33,17.95 1.97,27 -0.22,8.04 0.61,16.15 -0.75,24.13 -2.08,17.21 -5.84,34.55 -14.24,49.88 -5.22,11.36 -12.5,21.8 -21.76,30.24 -16.66,18.31 -41.59,28.43 -66.25,27.8 -12.72,0.25 -25.23,-3.69 -36.34,-9.69 -13.44,-6.45 -24.17,-17.03 -34.41,-27.61 -5.84,-5.2 -10.21,-11.76 -15.99,-17.01 -4.93,-5.19 -10.27,-10.2 -16.88,-13.15 -3.46,-2.03 -7.58,-1.69 -11.43,-1.68 -1.74,0.08 -3.59,-0.01 -5.14,0.93 -4.42,2.4 -9.05,4.7 -12.58,8.38 -4.59,4.76 -9.59,9.15 -13.59,14.44 -5.56,6.09 -11.66,11.66 -17.37,17.61 -7.47,7.87 -16.81,13.59 -26.25,18.78 -29.39,15.06 -66.83,10.75 -92.89,-9.18 -17.67,-12.99 -31.32,-31.24 -39.39,-51.59 -7.27,-16.81 -10.25,-35.11 -11.73,-53.25 -0.93,-25.83 2.94,-51.75 10.67,-76.39 4.59,-15.34 11.64,-29.79 19.03,-43.94 9.93,-17.4 21.65,-33.94001 35.98,-47.99001 19.34,-20.83 43.06,-37.59 69.17,-48.88 20.34,-9.2 42.39,-14.25 64.55,-16.42 z"
     id="path86"
     inkscape:connector-curvature="0"
     style="fill:#979797" />
  <path
     d="m 293.89,228.40999 c 9.5,-0.91 19.07,-0.18 28.6,-0.43 17.65,1.34 35.35,4.03 52.12,9.88 29.77,9.41 57.25,25.68 80.31,46.68 7.61,6.05 13.68,13.68 20.12,20.89 C 504.75,341.55 523.74,386.47 528.57,433 c 1.42,8.94 0.78,17.99 0.92,27 0.47,12.06 -1.87,24 -4.25,35.76 -2.31,10.16 -5.77,20.08 -10.75,29.25 -4.17,8.99 -9.55,17.44 -16.25,24.75 -5.27,5.08 -10.01,10.83 -16.3,14.72 -7.44,5.92 -16.35,9.47 -25.17,12.76 -16.45,4.48 -34.33,5.82 -50.68,0.19 -15.02,-5.13 -28.73,-13.89 -39.88,-25.16 -3.46,-3.55 -6.99,-7.01 -10.5,-10.5 -3.22,-3.14 -5.68,-6.96 -8.96,-10.04 -6.51,-6.19 -12.28,-13.52 -20.56,-17.47 -4.91,-3.09 -10.98,-2.54 -16.49,-2.03 -4.99,2.38 -10.05,5.02 -14,8.99 -5.77,5.91 -11.87,11.51 -16.98,18.02 -10.03,9.67 -19.03,20.8 -31.4,27.62 -11.05,7.55 -24.03,11.97 -37.24,13.75 -23.89,2.57 -48.71,-4.62 -67.29,-19.92 C 130.32,551.36 120.95,538.5 113.54,524.94 100.8,500.45 95.73,472.46 96.44,445 c 1.92,-53.6 23.32,-106.08 58.8,-146.24001 11.2,-11.51 22.44,-23.17 35.83,-32.17 29.97,-21.77 65.94,-34.97 102.82,-38.18 z"
     id="path88"
     inkscape:connector-curvature="0"
     style="fill:#ffffff" />
  <path
     d="m 257.12,248.65999 c 17.35,-4.81 35.3,-8.17 53.37,-7.65 24.98,-0.65 49.77,5.04 72.98,14.02 21.98,9.15 42.61,21.7 60.27,37.7 5.63,5.71 11.36,11.32 16.98,17.03001 12.53,14.31 23.64,29.99 31.76,47.24 10.87,20.72 17.87,43.34 21.59,66.41 1.72,10.1 2.85,20.33 2.4,30.59 0.63,14.97 -1.64,29.96 -5.64,44.37 -3.11,9.66 -6.63,19.3 -12.05,27.94 -9.18,14.78 -21.93,27.81 -37.95,35.05 -11.64,5.13 -24.54,7.58 -37.26,6.49 -6.97,-0.94 -13.77,-2.95 -20.25,-5.66 -5.33,-1.93 -9.73,-5.57 -14.45,-8.58 -8.95,-5.85 -16.14,-13.83 -23.57,-21.41 -2.99,-3.99 -6.6,-7.43 -10.04,-11.02 -5.36,-7.3 -12.91,-12.55 -20.23,-17.71 -7.88,-4.14 -17.03,-7.22 -25.94,-4.83 -5.64,2.14 -11.62,3.74 -16.45,7.51 -4.52,2.77 -7.42,7.44 -11.69,10.47 -0.46,0.01 -1.36,0.03 -1.81,0.04 6.17,-5.85 11.79,-12.71 19.77,-16.18 5.93,-2.39 12.02,-5.26 18.61,-4.58 13.35,0.83 24.26,9.66 33.66,18.39 3.78,4.23 7.47,8.52 11.51,12.51 8.28,9.69 17.18,19.09 27.97,26.03 14.18,10.41 32.56,15.41 50.01,12.43 17.9,-2.6 34.67,-11.92 46.48,-25.6 17.68,-20.63 25.62,-47.91 27.33,-74.62 -0.17,-10.04 0.61,-20.15 -0.81,-30.13 -1.81,-16.77 -5.69,-33.26 -10.84,-49.3 -6.8,-18.72 -15.53,-36.79 -26.55,-53.41 -7.09,-9.77 -14.24,-19.63 -23.05,-27.96001 -27.91,-29.57 -65.45,-49.59 -105.18,-57.77 -11.39,-2.15 -22.97,-3.69 -34.57,-3.49 -40.37,-1 -80.53,12.41 -113.39,35.63 C 150.38,314.2 118.26,372.35 112.41,432.99 c -1.14,10.38 -1.47,20.9 -0.33,31.29 1.91,23.49 8.86,47.06 22.83,66.28 3.13,4.17 6.16,8.46 9.86,12.16 8.28,7.42 17.47,14.12 27.97,18.04 11.51,4.35 24.08,6.47 36.34,4.79 8.02,-1.82 16.18,-3.63 23.54,-7.42 14.4,-7.51 26.25,-19.03 36.65,-31.34 2.91146,-5.00957 19.38623,-18.50159 11.66532,-10.34322 -3.29,3.05 -11.09532,11.62322 -13.80532,15.22322 -10.87,11.61 -22.57,23.05 -37.22,29.77 -6.91,3.02 -14.33,4.61 -21.64,6.3 -20.57,2.09 -41.73,-4.74 -57.54,-17.99 -10.82,-8.31 -18.79,-19.72 -25.55,-31.43 -11.68,-22.12 -16.2,-47.48 -15.73,-72.32 -0.14,-5.67 1.17,-11.24 1.24,-16.9 2.48,-16.66 5.6,-33.37 11.78,-49.1 9.06,-25.66 23.29,-49.39 40.99,-70.02 3.37,-4.26001 7.51,-7.82001 11.27,-11.73001 22.7,-23.13 51.43,-40.12 82.39,-49.59 z"
     id="path90"
     inkscape:connector-curvature="0"
     style="fill:#8a8a8a"
     sodipodi:nodetypes="cccccccccccccccccccccccccccccccccccccccccccccccccccccccc" />
  <path
     d="m 200.09,278.60999 c 32.86,-23.22 73.02,-36.63 113.39,-35.63 11.6,-0.2 23.18,1.34 34.57,3.49 39.73,8.18 77.27,28.2 105.18,57.77 8.81,8.33001 15.96,18.19001 23.05,27.96001 11.02,16.62 19.75,34.69 26.55,53.41 5.15,16.04 9.03,32.53 10.84,49.3 1.42,9.98 0.64,20.09 0.81,30.13 -1.71,26.71 -9.65,53.99 -27.33,74.62 -11.81,13.68 -28.58,23 -46.48,25.6 -17.45,2.98 -35.83,-2.02 -50.01,-12.43 -10.79,-6.94 -19.69,-16.34 -27.97,-26.03 -4.04,-3.99 -7.73,-8.28 -11.51,-12.51 -9.4,-8.73 -20.31,-17.56 -33.66,-18.39 -6.59,-0.68 -12.68,2.19 -18.61,4.58 -7.98,3.47 -13.6,10.33 -19.77,16.18 -3.3,3.37 -6.63,6.71 -9.87,10.13 -10.4,12.31 -22.25,23.83 -36.65,31.34 -7.36,3.79 -15.52,5.6 -23.54,7.42 -12.26,1.68 -24.83,-0.44 -36.34,-4.79 -10.5,-3.92 -19.69,-10.62 -27.97,-18.04 -3.7,-3.7 -6.73,-7.99 -9.86,-12.16 -13.97,-19.22 -20.92,-42.79 -22.83,-66.28 -1.14,-10.39 -0.81,-20.91 0.33,-31.29 5.85,-60.64 37.97,-118.79 87.68,-154.38001 z"
     id="path92"
     inkscape:connector-curvature="0"
     style="fill:#ffffff" />
  <path
     d="m 296.89,256.40999 c 5.16,-0.78 10.39,-0.3 15.59,-0.41 11.3,-0.4 22.51,1.5 33.6,3.45 10.65,2.51 21.34,5.16 31.41,9.53 22.35,9.32 43.37,22.3 60.75,39.26 C 475.87,343.88 498.12,394.47 501.5,445.98 c -0.25,8.69 0.65,17.46 -0.9,26.06 -1.4,15.06 -5.69,29.94 -12.83,43.28 -4.34,6.23 -8.19,12.93 -14.03,17.94 -12.56,14.07 -32.05,21.99 -50.88,19.35 -4.67,-1.05 -9.23,-2.6 -13.69,-4.32 -9.69,-4.29 -17.52,-11.63 -25.36,-18.56 -4.16,-3.56 -6.98,-8.36 -11.07,-11.99 -9.66,-11.33 -20.26,-22.5 -33.76,-29.22 -4.97,-2.48 -10.36,-3.89 -15.71,-5.27 -9.78,-1.05 -20.09,-0.18 -28.81,4.72 -11.46,5.01 -20.79,13.74 -29.08,22.91 -3.89,5.41 -9.39,9.35 -13.37,14.68 -3.67,4.66 -8.54,8.1 -12.86,12.1 -9.54,8.08 -21.37,13.49 -33.76,15.22 -15.98,1.34 -32.12,-4.27 -44.5,-14.3 -8.97,-7.82 -17.2,-16.77 -22.44,-27.57 -7.14,-13.64 -11.27,-28.74 -12.94,-44.01 -2.65,-19.33 -0.13,-38.99 4.04,-57.93 7.83,-34.07 24.33,-66.2 48.02,-91.96 5.01,-6.62 11.65,-11.72001 17.68,-17.35001 28.25,-24.57 64.25,-40.24 101.64,-43.35 z"
     id="path94"
     inkscape:connector-curvature="0"
     style="fill:#7c7c7c" />
  <path
     d="m 296.89,258.40999 c 5.16,-0.78 10.39,-0.3 15.59,-0.41 11.3,-0.4 22.5,1.5 33.6,3.45 10.65,2.51 21.34,5.16 31.41,9.53 22.15,9.22 42.95,22.07 60.25,38.76001 17.27,16.39 30.83,36.38 41.31,57.67 10.45,22.47 17.55,46.62 19.78,71.35 1.29,8.35 0.41,16.85 0.65,25.27 -0.99,10.36 -2.15,20.79 -5.26,30.76 -2.79,7.85 -5.18,16.02 -10.02,22.92 -1.72,2.31 -3.32,4.71 -4.91,7.11 -2.56,4 -6.29,7.03 -9.53,10.45 -3.77,4.12 -8.92,6.46 -13.5,9.5 -8.29,4.13 -17.49,6.48 -26.79,6.3 -6.57,0.38 -12.78,-2.13 -18.88,-4.21 -10.17,-3.96 -18.16,-11.69 -26.38,-18.59 -11.04,-12.23 -21.45,-25.3 -34.71,-35.28 -7.86,-6.16 -17.37,-9.89 -27.09,-11.87 -6.19,-0.28 -12.55,-0.63 -18.55,1.21 -4.56,0.92 -8.6,3.28 -12.73,5.31 -6.39,2.85 -11.6,7.66 -16.91,12.11 -4.24,4.76 -9.29,8.77 -13.09,13.92 -2.42,2.89 -5.32,5.33 -7.9,8.08 -2.3,2.37 -3.97,5.31 -6.51,7.46 -6.34,5.05 -12.07,11.07 -19.56,14.48 -6.7,3.81 -14.17,6.05 -21.77,7.19 -15.98,1.34 -32.12,-4.27 -44.5,-14.3 -8.58,-7.23 -15.86,-16.1 -20.77,-26.23 -6.96,-13.46 -10.96,-28.33 -12.61,-43.35 -1.24,-9.4 -1.58,-18.99 -0.49,-28.41 3.49,-45.04 22.38,-88.8 53.01,-122.03 3.31,-4.32 7.28,-8.12001 11.57,-11.46001 28.69,-26.56 66.28,-43.42 105.29,-46.69 z"
     id="path96"
     inkscape:connector-curvature="0"
     style="fill:#ffffff" />
  <path
     d="m 301.89,261.39999 c 2.8,-0.7 5.73,-0.33 8.59,-0.41 4.08,0.11 8.26,-0.44 12.23,0.79 32.41,1.85 63.78,14.21 90.36,32.64 7.69,5.89 15.74,11.51 21.98,19.01001 14.4,12.59 25.71,28.32 35.09,44.9 1.97,4.58 5.33,8.43 6.77,13.26 9.92,20.51 15.72,42.87 18.54,65.41 -0.02,3.72 -0.1,7.46 0.95,11.08 0.09,4.89 0.31,9.82 -0.14,14.69 -1.09,3.29 -0.65,6.75 -0.87,10.15 -1.66,9.45 -3.12,19.09 -7.01,27.95 -1.6,6.12 -5.49,11.17 -8.29,16.73 -3.5,5.36 -8.07,9.94 -12.37,14.65 -3.95,3.07 -7.91,6.16 -12.05,8.95 -6.32,2.97 -12.9,5.49 -19.93,6.07 -4.37,1.72 -8.76,-0.2 -13.17,-0.36 -8.69,-1.73 -16.79,-5.76 -23.67,-11.33 -3.19,-2.82 -6.98,-5 -9.53,-8.49 -3.54,-3.44 -7.52,-6.55 -10.31,-10.68 -2.53,-3.44 -6.19,-5.87 -8.58,-9.41 -4.23,-5.76 -10.09,-9.93 -15.41,-14.58 -9.31,-7.52 -20.53,-12.66 -32.34,-14.69 -5.82,-1.45 -11.97,-0.93 -17.66,0.85 -6.07,0.75 -11.48,3.75 -17.15,5.85 -5.3,4.02 -11.12,7.41 -15.75,12.27 -4.04,2.89 -7.74,6.32 -10.54,10.46 -3.36,3.96 -7.61,7.14 -10.45,11.55 -8.94,9.18 -17.77405,18.07937 -29.84,24.14 -4,1.39 -5.67494,1.75278 -9.72494,2.99278 -8.27076,0.87659 -5.94341,1.11722 -12.21506,1.26532 -7.58,-1 -15.35,-1.2181 -22.27,-4.7581 -7.4,-3.45 -13.72405,-8.32 -19.93658,-14.63468 C 150.02557,521.08025 148.36,516.98 144.51,510.98 c -7.19,-13.13 -11.72,-27.71 -13.46,-42.56 -1.99969,-17.90545 -0.60653,-28.59381 0.19,-36.66 1.16,-12.88 4.08,-25.6 8.11,-37.89 4.73,-14.9 10.96,-29.39 19.44,-42.55 6.22,-9.88 12.61,-19.83 20.84,-28.16 1.92,-3.02 4.54,-5.47 7.28,-7.73 2.92,-3.41 6.11,-6.56001 9.34,-9.67001 8.19,-6.53 16.23,-13.32 25.27,-18.71 5.2,-2.79 9.87,-6.64 15.55,-8.47 19.64,-9.69 41.3,-15.84 63.19,-16.8 0.41,-0.09 1.22,-0.28 1.63,-0.38 z"
     id="path98"
     inkscape:connector-curvature="0"
     style="fill:#171717"
     sodipodi:nodetypes="ccccccccccccccccccccccccccccccccccccccccccccc" />
  <path
     d="m 301.88,264.39999 c 2.81,-0.7 5.74,-0.33 8.6,-0.41 4.08,0.11 8.26,-0.44 12.22,0.79 19.39,1 38.49,6.13 56.38,13.63 12.39,5.83 24.75,11.96 35.69,20.3 22.99,16.70001 41.87,38.94001 54.76,64.25001 3.04,4.03 4.23,8.99 6.61,13.37 7.44,16.79 12.39,34.66 15.2,52.79 0.16,3.66 1.49,7.18 1.14,10.89 -0.23,2.74 0.32,5.41 0.92,8.07 0.09,4.89 0.31,9.82 -0.14,14.7 -1.09,3.28 -0.65,6.74 -0.87,10.14 -1.66,9.45 -3.12,19.09 -7.01,27.95 -1.6,6.12 -5.49,11.17 -8.3,16.73 -2.08,3.8 -5.53,6.52 -7.88,10.13 -3.41,3.64 -7.86,6.12 -11.7,9.28 -6.84,4.15 -14.66,6.51 -22.59,7.43 -4.11,1.54 -8.2,-0.52 -12.35,-0.53 -15.65,-3 -28.16,-13.95 -38.78,-25.21 -3.24,-5.01 -8.35,-8.39 -11.59,-13.4 -8.77,-8.99 -18.02,-17.86 -29.19,-23.82 -11.65,-5.4 -25.17,-10.08 -37.93,-5.9 -6.07,0.75 -11.48,3.75 -17.14,5.85 -5.31,4.01 -11.13,7.41 -15.76,12.27 -4.38,2.88 -7.49,7.16 -11.41,10.59 -2.71,4.2 -6.66,7.33 -9.98,11 -4.04,5.55 -9.09,10.32 -14.51,14.49 -4.13,4.07 -9.32,6.81 -14.24,9.78 -3.66,1.44 -7.45,2.53 -11.16,3.84 -3.15,1.18 -6.79532,1.06722 -9.83,1.23 -5.61101,0.1681 -5.64,-0.81 -8.53,-0.66 -10.4,-1.36 -20.15,-6.19 -28.27,-12.72 -4.03,-4.3 -8.86,-7.97 -11.98,-13.04 -11.29,-15.78 -16.8,-35.07 -18.79,-54.17 0.25109,-10.03205 -1.47987,-24.00798 0.77,-32.27 1.16,-12.89 4.08,-25.61 8.11,-37.9 4.73,-14.89 10.96,-29.39 19.44,-42.56 6.13,-9.65 12.29,-19.48 20.39,-27.61 8.09,-10.56 18.64,-18.84001 29.14,-26.87001 6.88,-4.93 14.2,-9.2 21.48,-13.5 3.97,-1.61 7.89,-3.31 11.68,-5.31 14.57,-6.11 29.89,-10.55 45.58,-12.45 3.86,-1.16 7.98,0.04 11.82,-1.17 z"
     id="path100"
     inkscape:connector-curvature="0"
     style="fill:#ffffff"
     sodipodi:nodetypes="ccccccccccccccccccccccccccccccccccccccccccc" />
  <path
     d="m 298.88,271.40999 c 27.68,-2.15 55.91,3.3 81.03,15.13 3.72,1.41 7.26,3.25 10.64,5.36 11.98,6.55 23.38,14.29 33.27,23.74001 10.68,8.7 19.12,19.71 27.39,30.63 23.21,33.36 36.29,74.04 35.27,114.76 -1.38,17.47 -4.34,35.7 -14.53,50.42 -3.46,6.25 -8.44,11.55 -13.87,16.13 -5.92,3.75 -11.82,8.25 -19.01,9.05 -10.78,3.11 -22.58,-0.2 -31.41,-6.8 -7.26,-4.19 -12.39,-10.94 -18.45,-16.56 -3.9,-3.47 -6.68,-7.96 -10.46,-11.54 -6.97,-6.7 -13.33,-14.1 -21.27,-19.71 -11.43,-8.26 -25.1,-13.09 -39.01,-14.99 -6.57,-0.79 -12.87,1.52 -19.22,2.79 -9.31,2.25 -17.46,7.37 -25.34,12.61 -7.14,5.11 -12.93,11.73 -19.2,17.8 -4.01,3.69 -6.89,8.4 -10.97,12.04 -7.57,7.46 -14.74,15.72 -24.42,20.51 -3.39,1.19 -6.61,2.84 -10.03,3.94 -3.29,0.36 -6.57,0.83 -9.86,1.21 -14.33,-0.52 -27.71,-8.13 -37.08,-18.73 -12.7,-14.5 -19.33,-33.38 -21.69,-52.29 -0.18,-8.12 -2.33,-16.23 -0.62,-24.32 1.26,-25.97 8.87,-51.39 20.42,-74.6 9.21,-17.31 20.51,-33.69 34.77,-47.24 27.04,-28.30001 64.68,-46.05001 103.65,-49.34001 z"
     id="path102"
     inkscape:connector-curvature="0"
     style="fill:#767676" />
  <path
     d="m 298.89,273.40999 c 45.87,-3.59 92.47,13.95 126.03,45.15001 6.33,4.66 10.85,11.17 16.01,16.99 28.64,34.93 44.57,80.3 43.55,125.49 -1.2,15.64 -3.77,31.62 -11.42,45.54 -2,3.04 -3.89,6.13 -5.78,9.25 -5.16,7.95 -13.46,13.04 -21.78,17.16 -4.23,1.5 -8.76,2.06 -13.15,2.91 -7.58,-0.05 -15.32,-1.79 -21.68,-6.08 -3.94,-2.69 -8.18,-5.04 -11.46,-8.55 -5.41,-5.6 -11.28,-10.78 -16.01,-17 -10.14,-9.87 -19.36,-21.04 -31.76,-28.22 -6.75,-3.69 -13.83,-6.95 -21.35,-8.68 -6.05,-1.48 -12.25,-3.09 -18.52,-2.25 -7.96,1.57 -15.95,3.27 -23.38,6.64 -8.78,4.87 -17.51,10.13 -24.48,17.48 -4.89,5.09 -10.13,9.86 -14.89,15.09 -4.55,6.05 -10.38,10.96 -15.58,16.44 -5.57,5.06 -11.76,9.74 -19.03,12.02 -4.52,2.57 -9.79,2.35 -14.77,3.14 -12.92,-0.44 -25.08,-6.76 -34.25,-15.65 -14.76,-16.69 -22.07,-39.01 -23.03,-61.04 -1.86,-8.07 0.23,-16.18 0.38,-24.27 5.16,-49.37 30.28,-96.72 69.51,-127.40001 24.81,-19.5 55.4,-31.47 86.84,-34.16 z"
     id="path104"
     inkscape:connector-curvature="0"
     style="fill:#ffffff" />
  <path
     d="m 301.89,286.40999 c 6.89,-0.68 13.96,-0.8 20.83,0.26 14.94,1.28 29.75,4.73 43.63,10.46 16.47,6.17 31.24,16.15001 44.82,27.20001 5.33,4.99 10.36,10.29 15.56,15.42 12.31,14.02 22.61,29.9 29.91,47.1 7.55,18.09 12.9,37.3 14.16,56.91 1.2,7.69 0.96,15.59 -0.19,23.27 -1.12,14.26 -5.37,28.58 -13.88,40.21 -3.89,3.77 -7.45,7.93 -11.67,11.33 -4.11,1.51 -8.25,3.08 -12.53,4.02 -3.59,-0.39 -7.19,-0.92 -10.64,-2 -4.61,-1.65 -8.24,-5.04 -11.99,-8.05 -4.69,-4.3 -9.43,-8.61 -13.22,-13.75 -7.2,-6.82 -12.72,-15.29 -20.85,-21.14 -16.78,-15.71 -39.31,-25.45 -62.38,-25.67 -13.34,1.6 -26.75,4.85 -38.57,11.42 -9.96,6.82 -19.79,14.02 -28.03,22.89 -3.82,5.48 -9.39,9.4 -13.25,14.85 -7.11,7.64 -14.66,15.35 -24.37,19.61 -3.54,0.84 -7.15,1.45 -10.78,1.8 -3.69,-0.53 -7.33,-1.47 -10.84,-2.71 -6.48,-3.12 -11.53,-8.42 -16.28,-13.69 -9.91,-12.48 -14.38,-28.46 -15.79,-44.12 0.44,-5.48 -2.02,-10.87 -0.36,-16.28 0.67,-24.98 7.88,-49.59 19.28,-71.76 6.03,-11.79 13.44,-22.87 22.21,-32.8 4.87,-6.41 10.94,-11.76 16.82,-17.19 21.95,-19.83001 49.99,-32.95001 79.4,-36.58001 2.98,-0.47 6.03,-0.43 9,-1.01 z"
     id="path106"
     inkscape:connector-curvature="0"
     style="fill:#696969" />
  <path
     d="m 301.89,288.40999 c 6.89,-0.68 13.96,-0.8 20.83,0.26 14.69,1.26 29.24,4.6 42.9,10.18 16.97,6.27 32.19,16.50001 46.08,27.94001 5.98,6.02 12.38,11.68 17.6,18.4 20.42,24.68 33.34,55.19 38.27,86.76 0.93,4.72 0.75,9.56 1.62,14.29 1,8.81 -0.09,17.63 -1.14,26.37 -1.1,5.39 -1.62,10.94 -3.9,16.02 -1.69,6.36 -5.14,11.97 -8.52,17.53 -3.34,3.63 -6.74,7.3 -10.57,10.41 -4.11,1.51 -8.25,3.08 -12.53,4.02 -5.5,-0.64 -11.32,-1.34 -15.88,-4.76 -5.89,-4.33 -11.68,-8.99 -16.17,-14.83 -3.09,-4.21 -7.44,-7.29 -10.44,-11.57 -4.79,-5.86 -10.73,-10.62 -16.31,-15.68 -14.02,-12.26 -31.52,-20.8 -50.11,-22.96 -3.97,-0.74 -8.02,-1.12 -12.04,-0.66 -12.46,1.85 -24.94,4.84 -36.07,10.9 -11.47,7.58 -22.45,16.08 -31.58,26.41 -3.05,4.24 -7.26,7.42 -10.57,11.43 -6.22,8.16 -14.27,14.92 -23.38,19.64 -3.76,1.06 -7.65,1.63 -11.53,2.04 -3.69,-0.53 -7.33,-1.47 -10.84,-2.71 -10.39,-5.25 -17.96,-14.89 -22.55,-25.41 -3.85,-8.48 -6,-17.64 -7.19,-26.84 -0.67,-3.97 -0.06,-8.06 -0.99,-12 -0.8,-2.9 -0.04,-5.82 0.42,-8.69 0.43,-21.74 6.42,-43.11 15.22,-62.89 5.41,-11.44 11.6,-22.58 19.39,-32.58 6.81,-8.45 13.56,-17.1 22.12,-23.87 19.66,-17.71001 44.22,-29.83001 70.2,-34.83001 5.83,-1.15 11.77,-1.54 17.66,-2.32 z"
     id="path108"
     inkscape:connector-curvature="0"
     style="fill:#ffffff" />
  <path
     d="m 302.39,301.80999 c 5.09,-0.96 10.39,-1.29 15.51,-0.24 26.11,1.36 51.77,10.71001 72.88,26.14001 38.4,27.32 62.25,73.09 65.13,119.88 0.73,3.42 0.68,6.95 0.57,10.44 -1.03,9.08 -1.76,18.33 -5.03,26.96 -1.99,4.36 -3.42,9.06 -6.52,12.82 -0.44,-0.05 -1.74102,0.0455 -2.19102,-0.0145 6.56,-9.87 10.09102,-21.90551 11.00102,-33.62551 0.95,-5.77 1.09,-11.68 0.1,-17.45 -2.44,-37.65 -18.61,-74.21 -44.62,-101.53 -24.04,-23.83 -56.44,-39.76001 -90.46,-41.55001 -6.08,-1.21 -12.24,-0.53 -18.31,0.27 -12.87,0.66 -25.34,4.21 -37.33,8.72001 -16.51,6.87 -32.13,16.47 -44.4,29.62 -17.51,16.33 -29.83,37.56 -38.08,59.89 -7.05,19.89 -9.85,41.29 -7.65,62.3 1.52,11.61 5.08,23.35 12.32,32.73 3.3,4.41 8.57,7.47 14.09,7.8 4.87,-1.05 9.96,-2.84 13.36,-6.67 5.34,-5.67 11.31,-10.75 16.07,-16.94 11.54,-12.21 23.57,-24.34 38.29,-32.7 11.67,-6.17 24.09,-11.28 37.3,-12.76 12.39,-2.36 25.04,-0.01 37.08,3.09 14.71,4.42 28.6,11.7 40.27,21.73 7.77,6.17 14.41,13.6 21.43,20.58 4.8,6.15 10.56,11.43 16.02,16.98 3.7,3.81 8.83,6.2 14.09,6.73 3.71,-1.85 9.50987,-8.17538 12.81987,-10.60538 -1.56799,5.90141 -8.22517,9.74725 -12.74987,12.88538 -4.69,-1.2 -9.61,-2.51 -13.14,-6.04 -5,-5 -10.07,-9.94 -14.97,-15.04 -4.81,-6.45 -11,-11.66 -16.52,-17.47 -10.31,-9.43 -21.78,-17.98 -34.84,-23.18 -13.31,-5.82 -27.93,-8.96 -42.46,-8.55 -7.69,0.79 -15.35,2.06 -22.78,4.22 -7.66,2.64 -15.04,6 -22.21,9.76 -13.54,7.97 -24.94,18.93 -35.65,30.33 -4.5,6.1 -10.39,10.95 -15.57,16.44 -2.6,2.42 -4.76,5.62 -8.31,6.71 -3.21,1.12 -6.55,3.33 -10.06,2.22 -8.01,-1.92 -13.43,-8.83 -17.6,-15.48 -5.12,-9.6 -7.93,-20.35 -8.76,-31.18 -0.36,-11.12 -0.38,-22.31 1.71,-33.28 4.93,-27.94 17.7,-54.37 36.05,-75.97 11.45,-11.65 22.75,-23.97 37.51,-31.51 11.13,-7 23.67,-11.27001 36.29,-14.68001 6.68,-1.48 13.48,-2.45 20.32,-2.78 z"
     id="path110"
     inkscape:connector-curvature="0"
     style="fill:#5c5c5c"
     sodipodi:nodetypes="ccccccccccccccccccccccccccccccsccccccccccccccccc" />
  <path
     d="m 300.45,303.90999 c 6.07,-0.8 12.23,-1.48 18.31,-0.27 34.02,1.79 66.42,17.72001 90.46,41.55001 26.01,27.32 42.18,63.88 44.62,101.53 0.99,5.77 0.85,11.68 -0.1,17.45 -3.75169,10.85158 -13.16232,36.83476 -20.43,40.84 -5.26,-0.53 -10.39,-2.92 -14.09,-6.73 -5.46,-5.55 -11.22,-10.83 -16.02,-16.98 -7.02,-6.98 -13.66,-14.41 -21.43,-20.58 -11.67,-10.03 -25.56,-17.31 -40.27,-21.73 -12.04,-3.1 -24.69,-5.45 -37.08,-3.09 -13.21,1.48 -25.63,6.59 -37.3,12.76 -14.72,8.36 -26.75,20.49 -38.29,32.7 -4.76,6.19 -10.73,11.27 -16.07,16.94 -3.4,3.83 -8.49,5.62 -13.36,6.67 -5.52,-0.33 -10.79,-3.39 -14.09,-7.8 -7.24,-9.38 -10.8,-21.12 -12.32,-32.73 -2.2,-21.01 0.6,-42.41 7.65,-62.3 8.25,-22.33 20.57,-43.56 38.08,-59.89 12.27,-13.15 27.89,-22.75 44.4,-29.62 11.99,-4.51001 24.46,-8.06001 37.33,-8.72001 z"
     id="path112"
     inkscape:connector-curvature="0"
     style="fill:#ffffff"
     sodipodi:nodetypes="ccccccccccccccccccccc" />
  <path
     d="m 305.39,316.85 c 10.04507,-0.11232 15.4008,0.13883 20.93873,1.41658 25.87,3.7 50.84127,15.31342 69.66127,33.37342 0.13,0.33 0.41,0.98 0.54,1.3 -2.4,0.03 -3.67,-2.31 -5.33,-3.66 -15.9,-13.82 -35.22,-23.67 -55.79,-28.22 -13.44294,-1.74482 -26.10615,-3.92438 -38.52,-1.67 -12.49,1.68 -24.88,5.06 -36.08,10.93 -15.23,7.11 -28.25,18.15 -39.47,30.52 -4.18,5.84 -9.12,11.13 -12.56,17.47 -3.1,4.71 -5.18,10 -8.22,14.74 -5.87,13 -10.13,26.78 -12.15,40.91 -1.66,8.57 -0.72,17.36 -0.9,26.03 1.06,6.5 2.02,13.14 4.78,19.18 1.21,3.6 3.94138,8.71197 4.90348,11.7837 C 194.69024,490.95357 190.27,479.03 188.13,473.38 c -1.28,-6.05 -3.07,-12.13 -2.67,-18.38 0.27,-6.14 -0.55,-12.35 0.56,-18.42 1.87,-14.8 6.2,-29.23 12.2,-42.87 5.29,-9.22 9.71,-19.1 16.82,-27.14 4.44,-6.78 10.58,-12.08 16.18,-17.84 20.02,-18.7 46.57,-31.12 74.17,-31.88 z"
     id="path114"
     inkscape:connector-curvature="0"
     style="fill:#474747"
     sodipodi:nodetypes="cccccccccccccccccccccc" />
  <path
     d="m 298.7,332.22 c 3.91,-0.43 7.88,-0.06 11.78,-0.69 3.33,0.46 6.68,0.49 10.04,0.48 13.36,1.31 26.52,5.15 38.3,11.66 8.24,3.56 15.27,9.23 22.36,14.63 3.81,3.52 7.34,7.33 11.06,10.94 7.49,8.13 13.64,17.41 18.81,27.16 1.05,2.84 2.37,5.56 3.76,8.26 5.38,11.3 8.18,23.61 10.13,35.92 1.36,5.8 0.83,11.97 -2.76,16.89 -2.66,-2.21 -4.34,-5.56 -7.64,-6.98 -2.07958,-3.46581 -10.12687,-8.93673 1.2422,-0.10114 -5.3,-4.07 -15.43148,-11.3506 -21.01148,-15.0906 -6.43,-5.13 -12.97072,-9.33826 -19.96072,-13.61826 -11.48,-5.17 -23.27,-10.05 -35.73,-12.31 -4.75,-1.47 -9.75,-1.42 -14.6,-2.33 -7.71,0.16 -15.52,-0.74 -23.12,0.79 -8.66,0.92 -17.02,3.52 -25.44,5.61 -8.2,3.23 -16.34,6.66 -24.04,10.97 -7.58,4.98 -15.21,9.98 -22.14,15.85 -3.01,3.39 -7,5.67 -10.06,9.01 -3.43,3.52 -6.98,6.92 -10.37,10.48 -2.56,-0.86 -5.72,-0.84 -7.6,-3.03 -0.35,-4.26 -1.54,-8.43 -1.28,-12.73 -0.25,-4.47 1.29,-8.74 1.92,-13.11 1.86,-13.11 7.37,-25.27 12.81,-37.21 5.03,-8.99 10.82,-17.56 17.99,-24.99 5.23,-7.41 12.92,-12.47 19.74,-18.27 8.44,-5.7 17.59,-10.38 27.2,-13.8 6.01,-2.19 12.39,-3.02 18.61,-4.39 z"
     id="path116"
     inkscape:connector-curvature="0"
     style="fill:#393939"
     sodipodi:nodetypes="cccccccccccccccccccccccccccccc" />
  <path
     d="m 252.33,352.84 c 18.29,-12.74 40.69,-20.67 63.11,-18.87 18.71,-0.08 36.61,7.15 52.45,16.61 19.26,12.25 34.62,30.47 43.59,51.42 6.11,11.74 9.26,24.74 11.3,37.74 0.99,4.82 1.37,10.04 -0.6,14.67 -11.23383,-12.05417 -11.40213,-10.98509 -26.7,-21.42 -6.42,-5.13 -13.68,-9.03 -20.67,-13.31 -11.48,-5.17 -23.27,-10.05 -35.73,-12.31 -4.75,-1.47 -9.75,-1.42 -14.6,-2.33 -7.7,0.16 -15.52,-0.74 -23.12,0.79 -8.66,0.92 -17.03,3.52 -25.45,5.61 -8.19,3.23 -16.33,6.66 -24.02,10.97 -7.59,4.98 -15.22,9.97 -22.15,15.85 -2.8,3.24 -6.62,5.32 -9.48,8.5 -3.35,3.93 -7.51,7.08 -10.92,10.96 -1.84,-0.73 -4.37,-0.23 -5.59,-2.05 -1.82,-7.6 -1.79,-15.54 0.3,-23.08 1.82,-13.95 7.53,-26.95 13.46,-39.56 5.03,-8.99 10.97,-17.43 18.09,-24.89 4.25,-6.44 11.09,-10.27 16.73,-15.3 z"
     id="path118"
     inkscape:connector-curvature="0"
     style="fill:#ffffff"
     sodipodi:nodetypes="ccccccccccccccccccccc" />
  <path
     d="m 395.91347,351.91246 c 3.78,2.27 6.86653,7.46754 10.30653,10.33754 18.11,21.58 29.84,48.44 33.71,76.33 0.87,3.84 0.63102,5.50665 1.33,11.68 -0.35754,9.71004 -0.43449,5.65377 -0.52449,8.26377 -0.15,2.65 -0.17551,4.80623 -0.28551,7.47623 -0.5,6.04 -2.8,11.72 -4.42,17.51 -0.85,1.17 -1.19,3.17 -2.71,3.57 -3.36,-0.61 -5.29072,-1.8497 -7.89072,-3.8997 C 420.76958,480.34246 416.9,475 412.74,471.74 c -4.8,-3.9 -7.56,-9.78 -12.82,-13.16 -13.91,-12.87 -29.84,-24.17 -48.06,-29.97 -8.51,-2.72 -17.17,-5.56 -26.15,-5.9 -8.66,-1.74 -17.48,-0.3 -26.15,0.42 -18.06,3.51 -35.8,10.17 -50.51,21.43 -4.9,3.35 -9.85,6.72 -13.82,11.18 -7.46,7.89 -15.85,14.94 -22.56,23.49 -4.52,4.77 -10.34542,8.21356 -15.69542,11.95356 0.41,-2.75 -3.27184,0.13776 5.19542,-5.49356 3.77253,-2.59861 5.69,-3.55 8.06,-5.92 7.88063,-8.7881 17.07,-17.62 25.49,-26.53 4.45,-5.03 10.33,-8.37 15.61,-12.4 14.28,-10.21 31.08,-16.39 48.23,-19.71 5.34,-0.09 10.55,-1.6 15.92,-1.17 5.37,-0.43 10.58,1.08 15.92,1.17 12.69,2.5 25.13,6.5 36.76,12.2 11.19,6.39 21.92,13.78 31.15,22.83 3.4,2.92 4.44839,3.75042 9.61,9.42 3.88,4.73 4.07331,3.50504 12.32,12.88072 3.66797,3.25784 7.77,5.37928 12.15,6.89928 1.83,-6.1 4.15,-12.1 4.99,-18.45 0.36,-4.11 0.44203,-7.07695 0.7,-12.34 0.6,-1.97 0.33,-4.02 -0.16,-5.97 -1.99,-30.27 -13.59,-59.84 -32.43,-83.62 -2.74,-3.9 -11.00292,-11.26394 -13.89292,-15.03394 -0.07,-0.41 3.38639,2.3764 3.31639,1.9664 z"
     id="path120"
     inkscape:connector-curvature="0"
     style="fill:#484848"
     sodipodi:nodetypes="cccccccccccccccccccccccccccccccccccc" />
  <path
     d="m -1.52,518.35 c 4.96,17.35 10.48,34.67 19,50.66 7.17,15.35 16.71,29.51 27.25,42.74 6.42,7.22 12.16,15.16 19.8,21.2 6.63,6.09 13.6,11.81 20.81,17.2 6.06,4.43 12.69,7.98 19.06,11.93 7.48,4.62 15.65,7.94 23.79,11.19 11.09,4.11 22.32,8.06 34.03,9.99 11.99,2 24.06,4.17 36.26,3.79 8.56,0.25 17.08,-0.67 25.58,-1.5 15.4,-1.39 30.24,-6.03 44.71,-11.25 13.14,-4.6 25.3,-11.55 36.99,-19.02 5.61,-3.58 13.52,-5.08 19.17,-0.75 18.96,12.77 40.2,22.03 62.34,27.64 18.33,4.45 37.35,5.47 56.15,4.65 12.1,-1.08 24.16,-2.99 35.96,-5.91 9.38,-2.45 18.37,-6.11 27.4,-9.59 17.73,-6.94 33.58,-17.82 48.44,-29.57 6.13,-4.47 11.08,-10.26 16.53,-15.48 6.18,-5.9 11.17,-12.87 16.46,-19.54 11.25,-14.53 19.99,-30.83 27.37,-47.61 2.59,-5.55 3.3,-12.24 7.83,-16.69 -2.97,11.26 -7.92,21.92 -13.25,32.24 -6.06,12.4 -13.6,24.04 -22.13,34.88 -4.57,5.73 -8.94,11.66 -14.28,16.72 -4.96,4.7 -9.49,9.85 -14.64,14.36 -9.46,7.68 -19.25,14.99 -29.66,21.35 -14.33,8.82 -30.24,14.64 -46.17,19.84 -18.14,4.91 -36.97,7.79 -55.8,7.23 -15.38,-0.34 -30.84,-2.06 -45.67,-6.33 -19.22,-5.49 -37.74,-13.61 -54.45,-24.63 -3.26,-2.12 -6.73,-4.63 -10.84,-4.22 -8.26,0.1 -14.4,6.27 -21.3,9.9 -12.69,7.6 -26.5,13.05 -40.63,17.32 -19.34,6.31 -39.86,8.15 -60.11,7.96 -9.42,0.07 -18.72,-1.68 -28.01,-3.04 -16.94,-2.54 -33.18,-8.38 -48.86,-15.13 C 108.3,667 99.95,661.27 91.3,656.18 79.32,648.44 68.72,638.81 58.2,629.25 47.51,617.81 37.23,605.89 28.86,592.61 22.02,582.97 17.08,572.21 11.81,561.67 6.39,550.27 2.61,538.2 -1.52,526.29 l 0,-7.94 z"
     id="path122"
     inkscape:connector-curvature="0"
     style="fill:#cbcbcb" />
  <path
     d="m -1.52,564.47 c 15.15,34.37 37.65,65.9 67.1,89.42 12.25,10.2 25.96,18.44 39.92,26.06 9.53,4.48 19.33,8.41 29.34,11.7 16.63,5.89 34.21,8.48 51.7,10.17 20.87,0.83 42.04,-0.19 62.35,-5.42 17.21,-4.57 34.28,-10.31 49.78,-19.2 5.61,-3.08 11.06,-7.57 17.82,-7.37 5.69,-0.25 10.15,3.71 14.81,6.35 7.61,4.35 15.55,8.14 23.74,11.26 17.42,6.93 35.68,12.18 54.43,13.64 11.93,1.37 23.97,1.03 35.95,0.75 18.69,-1.89 37.49,-4.94 55.06,-11.81 15.7,-5.7 31.14,-12.5 44.82,-22.2 9.47,-6.74 19.16,-13.34 27.53,-21.46 2.28,-2.06 4.72,-3.95 6.9,-6.12 12.23,-13.3 23.78,-27.34 33.22,-42.78 3.44,-5.35 5.09,-12.02 10.35,-16.02 -10.01,22.29 -25.65,41.45 -42.08,59.3 -4.75,4.59 -9.83,8.83 -14.66,13.34 -7.71,6.01 -15.5,11.95 -23.67,17.35 -13.22,9.1 -28.11,15.36 -43.12,20.86 -16.8,6.52 -34.74,9.41 -52.57,11.39 -22.61,1.15 -45.6,0.21 -67.51,-5.92 -16.53,-4.69 -32.78,-10.76 -47.77,-19.22 -4.9,-2.68 -9.49,-6.95 -15.43,-6.71 -6.24,-0.2 -11.41,3.68 -16.56,6.63 -15.34,9.05 -32.33,14.87 -49.45,19.53 -17.89,4.8 -36.53,6.31 -55,6.05 -10.7,0.18 -21.32,-1.52 -31.87,-3.17 C 143.63,697.72 124.5,690.62 106.16,682.28 92.81,675.03 79.65,667.26 67.81,657.68 50.77,644.5 36.05,628.52 23.18,611.3 13.53,598.2 5.78,583.85 -1.52,569.35 l 0,-4.88 z"
     id="path124"
     inkscape:connector-curvature="0"
     style="fill:#cdcdcd" />
  <path
     d="m -1.52,598.31 c 9.57,15.03 19.55,29.89 31.73,42.96 5.55,5.44 10.96,11.04 16.54,16.46 24.07,21.73 52.73,38.44 83.6,48.43 18.1,6.13 37.09,9.25 56.1,10.77 12.67,0.1 25.4,0.55 38.01,-1.03 18.31,-1.44 36.06,-6.53 53.32,-12.61 9.31,-3.79 18.85,-7.22 27.39,-12.61 4.49,-2.9 10.07,-3.41 15.23,-2.53 3.69,0.8 6.77,3.14 10.09,4.84 12.03,6.39 24.94,10.92 37.86,15.15 17.1,5.75 35.13,8.27 53.12,8.89 11.31,0.07 22.7,0.58 33.93,-1.1 17.6,-2.23 35.17,-5.73 51.72,-12.27 10.8,-4.21 21.77,-8.25 31.75,-14.24 12.16,-6.36 23.16,-14.66 33.96,-23.08 14.94,-11.64 27.88,-25.67 39.11,-40.89 3.8,-4.67 6.47,-10.35 11.4,-14 -3.55,7.22 -9.05,13.2 -13.75,19.66 -7.96,10.59 -17.35,19.97 -26.95,29.06 -16.96,14.59 -35.23,27.92 -55.58,37.4 -16.21,6.99 -32.75,13.56 -50.15,16.88 -13.62,2.56 -27.4,4.91 -41.3,4.7 -21.1,0.25 -42.44,-1.39 -62.7,-7.59 -13.55,-4.24 -27.05,-8.86 -39.79,-15.18 -5.66,-2.71 -10.95,-7.34 -17.66,-6.59 -6.32,-0.39 -11.39,3.74 -16.65,6.52 -15.29,7.44 -31.43,12.99 -47.89,17.2 -13.21,3.34 -26.84,4.67 -40.41,5.49 -11.96,-0.09 -23.99,0.62 -35.86,-1.23 C 127.29,712.6 82.04,691.61 46.75,659.73 41.32,654.5 36.13,649.02 30.71,643.77 23.99,637.41 18.65,629.8 12.81,622.67 7.78,615.76 3.15,608.55 -1.52,601.4 l 0,-3.09 z"
     id="path126"
     inkscape:connector-curvature="0"
     style="fill:#cecece" />
  <path
     d="m -1.52,626.37 c 6.2,7.67 12.04,15.65 18.65,22.98 9.8,11.87 21.61,21.84 33.62,31.38 27.37,21.32 59.26,36.81 92.98,45.02 21.19,4.75 42.99,7.54 64.73,6.31 11.35,-0.21 22.67,-1.45 33.87,-3.27 11.79,-1.98 23.24,-5.54 34.53,-9.4 8.62,-2.72 17.09,-5.93 25.26,-9.8 4.27,-2.02 8.39,-5.09 13.35,-4.81 6.07,-0.27 11.12,3.48 16.44,5.77 19.51,8.61 39.9,15.58 60.99,19.04 13.1,2.17 26.4,2.23 39.61,3.19 19.75,-0.68 39.46,-3.25 58.64,-8.07 10,-2.45 19.55,-6.34 29.17,-9.91 8.08,-3.46 16.38,-6.5 23.99,-10.94 16.12,-9.01 31.22,-19.8 45.33,-31.69 6.54,-6.12 12.71,-12.63 19.09,-18.92 5.18,-4.99 8.51,-11.78 14.69,-15.71 -5.33,7.95 -11.82,15.07 -18.68,21.72 -6.64,6.37 -12.68,13.4 -20.02,19 -14.83,11.89 -30.57,22.82 -47.59,31.36 -18.78,8.25 -37.95,16.14 -58.22,19.83 -15.28,3.16 -30.83,4.73 -46.4,5.33 -4.69,-0.17 -9.35,-0.84 -14.05,-0.82 -33.26,-0.78 -65.62,-11.07 -95.3,-25.61 -4.97,-2.2 -11.02,-2.22 -15.78,0.53 -12,6.57 -25.07,10.77 -38.02,15 -18.62,6.37 -38.25,9.31 -57.86,10.09 C 162,736.69 111.84,723.1 70.16,696.33 56.38,687.81 43.82,677.5 31.76,666.73 19.55,655.01 8.28,642.24 -1.52,628.45 l 0,-2.08 z"
     id="path128"
     inkscape:connector-curvature="0"
     style="fill:#d0d0d0" />
  <path
     d="m -1.52,650.66 c 7.59,9.77 16.37,18.52 25.23,27.12 23.62,21.24 50.46,39.33 80.19,50.8 18.26,7.71 37.53,13.02 57.14,15.84 7.78,1.12 15.56,2.48 23.44,2.58 5.96,0.05 11.88,1.41 17.85,0.75 4.38,-0.48 8.78,-0.77 13.19,-0.85 18.22,-0.87 36.35,-3.89 53.84,-9.05 9.7,-3.21 19.47,-6.27 28.97,-10.04 5.64,-2.18 10.79,-6.29 17.13,-6.03 5.35,-0.44 10.13,2.17 14.77,4.42 26.6,11.62 55.08,19.63 84.21,20.71 8.01,0.02 15.97,1.8 23.98,0.9 6.98,-0.82 14.05,-0.73 21.01,-1.82 16.64,-2.41 33.35,-5.2 49.27,-10.78 13.45,-4.75 26.88,-9.76 39.51,-16.47 16.38,-8.23 31.27,-19.04 45.56,-30.44 7.78,-6.86 16.09,-13.23 22.8,-21.19 1.76,-2.06 3.74,-3.91 5.86,-5.58 -2.62,5.53 -7.47,9.4 -11.67,13.68 -13.19,12.71 -27.72,23.94 -42.89,34.18 -15.33,9.86 -31.78,17.97 -48.95,24.1 -20.64,8.38 -42.7,12.44 -64.72,15.14 -5.26,0.42 -10.54,0.59 -15.78,1.18 -8.01,0.9 -15.97,-0.87 -23.98,-0.9 -29.13,-1.09 -57.61,-9.09 -84.21,-20.71 -3.78,-1.7 -7.47,-4 -11.7,-4.3 -4.38,-0.49 -8.88,0.24 -12.75,2.39 -8.69,4.61 -18.15,7.43 -27.42,10.6 -20.19,7.12 -41.48,10.94 -62.84,12.01 -8.12,-0.04 -16.22,1.86 -24.33,0.52 -29.33,-1.3 -58.69,-6.92 -85.85,-18.26 -41.65,-16.01 -78.06,-44 -106.86,-77.83 l 0,-2.67 z"
     id="path130"
     inkscape:connector-curvature="0"
     style="fill:#d0d0d0" />
  <path
     d="m -1.52,673.33 c 3.96,4.9 8.35,9.44 13.17,13.51 19.3,18.72 41.77,33.95 65.48,46.52 23.04,11.08 47.3,19.84 72.48,24.52 16.51,2.61 33.14,4.92 49.87,5.22 10.96,-0.51 21.91,-1.42 32.84,-2.37 22.25,-2.15 43.77,-8.68 64.73,-16.17 6.03,-2.21 11.76,-5.94 18.42,-5.75 7.28,-0.49 13.58,3.63 20.16,6.03 12.17,4.78 24.7,8.6 37.41,11.64 17.47,4.33 35.52,5.16 53.4,6.47 11.69,0.63 23.36,-0.72 34.95,-2.03 18.3,-2.4 36.56,-5.81 53.98,-12.02 18.52,-6.54 36.83,-14.05 53.56,-24.44 14.24,-8.78 27.8,-18.65 40.58,-29.43 4.66,-3.8 8.39,-8.62 13.33,-12.08 -3.31,5.35 -8.15,9.47 -12.81,13.61 -12.34,10.53 -25.51,20.1 -39.23,28.75 -17.26,10.95 -36.22,18.82 -55.44,25.59 -17.41,6.21 -35.67,9.62 -53.96,12.02 -11.93,1.35 -23.93,2.72 -35.95,1.98 -13.92,-1.07 -27.92,-1.76 -41.69,-4.17 -17.44,-3.29 -34.53,-8.41 -50.99,-15.04 -5.52,-2.34 -11.1,-5.3 -17.3,-4.87 -6.39,-0.2 -11.94,3.25 -17.7,5.46 -24.32,8.91 -49.58,15.97 -75.57,17.34 -10.55,0.51 -21.09,2.17 -31.66,1.17 -20.89,-1.64 -41.85,-4.09 -62.06,-9.82 C 111.24,750.28 94.64,743.58 78.47,736.03 56.29,724.5 35.33,710.5 16.78,693.71 10.68,687.56 3.51,682.44 -1.52,675.29 l 0,-1.96 z"
     id="path132"
     inkscape:connector-curvature="0"
     style="fill:#d2d2d2" />
  <path
     d="m -1.52,695.61 c 6.63,6.53 13.98,12.28 21.09,18.28 16.25,13.36 34.36,24.24 52.91,34.08 23.97,11.13 49.06,20.24 75.13,24.91 6.21,0.97 12.46,1.73 18.6,3.12 l -14.03,0 c -9.12,-2.14 -18.36,-3.73 -27.37,-6.29 C 106.42,764.35 88.42,757.62 71.16,749.3 52.69,739.37 34.64,728.45 18.47,715 11.76,709.23 4.66,703.86 -1.52,697.5 l 0,-1.89 z"
     id="path134"
     inkscape:connector-curvature="0"
     style="fill:#d3d3d3" />
  <path
     d="m -1.52,697.5 c 6.18,6.36 13.28,11.73 19.99,17.5 16.17,13.45 34.22,24.37 52.69,34.3 17.26,8.32 35.26,15.05 53.65,20.41 9.01,2.56 18.25,4.15 27.37,6.29 l -52.1,0 C 92.85,773 85.55,770.16 78.33,767.14 58.4,758.35 39.52,747.32 21.77,734.72 13.81,728.61 5.57,722.74 -1.52,715.6 l 0,-18.1 z"
     id="path136"
     inkscape:connector-curvature="0"
     style="fill:#ffffff" />
  <path
     d="m 612,712.53 c 3.56,-2.94 7.01,-6.03 10.94,-8.48 -4.34,6.45 -11.24,10.42 -17.16,15.25 -17.32,13.3 -35.72,25.38 -55.73,34.25 -14.84,6.38 -29.92,12.37 -45.56,16.52 -8.77,2.57 -17.82,3.91 -26.72,5.93 l -11.99,0 c 9.59,-2.44 19.51,-3.23 29.14,-5.52 9.18,-2.17 18.31,-4.65 27.19,-7.87 13.63,-4.94 27.19,-10.2 40.05,-16.93 17.81,-9.12 34.07,-20.91 49.84,-33.15 z"
     id="path138"
     inkscape:connector-curvature="0"
     style="fill:#d3d3d3" />
  <path
     d="m -1.52,715.6 c 7.09,7.14 15.33,13.01 23.29,19.12 17.75,12.6 36.63,23.63 56.56,32.42 7.22,3.02 14.52,5.86 21.75,8.86 l -4.98,0 C 63.77,764.14 34.22,747.44 8.24,726.26 4.82,723.53 1.41,720.76 -1.52,717.5 l 0,-1.9 z"
     id="path140"
     inkscape:connector-curvature="0"
     style="fill:#d5d5d5" />
  <path
     d="m -1.52,717.5 c 2.93,3.26 6.34,6.03 9.76,8.76 25.98,21.18 55.53,37.88 86.86,49.74 l -34.01,0 C 38.95,764.71 17.65,751.58 -1.52,735.72 l 0,-18.22 z"
     id="path142"
     inkscape:connector-curvature="0"
     style="fill:#ffffff" />
  <path
     d="m 606.28,735.81 c 5.69,-3.74 10.52,-8.7 16.63,-11.81 -3.96,5.27 -9.76,8.59 -14.89,12.55 -15.05,11.1 -30.96,21.09 -47.89,29.07 -8.01,3.71 -16.37,6.63 -24.37,10.38 l -5.89,0 c 10.36,-4.11 20.79,-8.08 30.94,-12.69 16.02,-7.65 31.16,-17.02 45.47,-27.5 z"
     id="path144"
     inkscape:connector-curvature="0"
     style="fill:#d5d5d5" />
  <path
     d="m -1.52,735.72 c 19.17,15.86 40.47,28.99 62.61,40.28 l -3.95,0 C 48.01,771.5 39.38,766.06 30.7,760.77 19.33,753.98 8.64,746.06 -1.52,737.59 l 0,-1.87 z"
     id="path146"
     inkscape:connector-curvature="0"
     style="fill:#d5d5d5" />
  <path
     d="m -1.52,737.59 c 10.16,8.47 20.85,16.39 32.22,23.18 8.68,5.29 17.31,10.73 26.44,15.23 l -27.96,0 C 18.99,768.85 7.9,762.92 -1.52,754.71 l 0,-17.12 z"
     id="path148"
     inkscape:connector-curvature="0"
     style="fill:#ffffff" />
  <path
     d="m 607.14,753.67 c 5.31,-3.48 10.04,-7.86 15.79,-10.64 -2,2.48 -4.31,4.7 -6.96,6.48 -6.76,4.58 -13.28,9.5 -20.25,13.76 -7.09,4.56 -14.58,8.46 -21.85,12.73 l -3.95,0 c 12.72,-6.89 25.44,-13.89 37.22,-22.33 z"
     id="path150"
     inkscape:connector-curvature="0"
     style="fill:#d5d5d5" />
  <path
     d="m -1.52,754.71 c 9.42,8.21 20.51,14.14 30.7,21.29 l -2.93,0 C 16.88,769.71 6.9,764.16 -1.52,756.58 l 0,-1.87 z"
     id="path152"
     inkscape:connector-curvature="0"
     style="fill:#d7d7d7" />
  <path
     d="m 302.17,758.65 c 7.53,-2.95 16.4,-5.22 24.06,-1.45 21.98,9.48 45.37,15.22 68.99,18.8 l -14.06,0 c -15.1,-3.72 -30.34,-7.07 -44.85,-12.78 -5.42,-1.8 -10.47,-4.72 -16.09,-5.89 -7.79,-0.75 -15.29,2.1 -22.37,5 -16.04,5.61 -32.42,10.22 -49.05,13.67 l -13.05,0 c 12.37,-2.28 24.88,-4.1 36.95,-7.76 9.88,-3.03 19.9,-5.66 29.47,-9.59 z"
     id="path154"
     inkscape:connector-curvature="0"
     style="fill:#d3d3d3" />
  <path
     d="m -1.52,756.58 c 8.42,7.58 18.4,13.13 27.77,19.42 l -27.77,0 0,-19.42 z"
     id="path156"
     inkscape:connector-curvature="0"
     style="fill:#ffffff" />
  <path
     d="m 297.85,762.33 c 7.08,-2.9 14.58,-5.75 22.37,-5 5.62,1.17 10.67,4.09 16.09,5.89 14.51,5.71 29.75,9.06 44.85,12.78 l -49.08,0 c -9.89,-5.57 -22.47,-5.65 -32.35,0 l -50.93,0 c 16.63,-3.45 33.01,-8.06 49.05,-13.67 z"
     id="path158"
     inkscape:connector-curvature="0"
     style="fill:#ffffff" />
  <path
     d="m 600.99,776 c 7.41,-4.49 14.08,-10.17 21.82,-14.1 -5,6.22 -12.53,9.53 -18.91,14.1 l -2.91,0 z"
     id="path160"
     inkscape:connector-curvature="0"
     style="fill:#d7d7d7" />
  <path
     d="m 299.73,776 c 9.88,-5.65 22.46,-5.57 32.35,0 l -4.8,0 c -7.18,-2.98 -15.42,-2.96 -22.6,0 l -4.95,0 z"
     id="path162"
     inkscape:connector-curvature="0"
     style="fill:#d5d5d5" />
  <path
     d="m 304.68,776 c 7.18,-2.96 15.42,-2.98 22.6,0 l -22.6,0 z"
     id="path164"
     inkscape:connector-curvature="0"
     style="fill:#ffffff" />
</svg>
