<?xml version="1.0" encoding="UTF-8" standalone="no"?>
<!-- Created with Inkscape (http://www.inkscape.org/) -->

<svg
   xmlns:dc="http://purl.org/dc/elements/1.1/"
   xmlns:cc="http://creativecommons.org/ns#"
   xmlns:rdf="http://www.w3.org/1999/02/22-rdf-syntax-ns#"
   xmlns:svg="http://www.w3.org/2000/svg"
   xmlns="http://www.w3.org/2000/svg"
   xmlns:xlink="http://www.w3.org/1999/xlink"
   xmlns:sodipodi="http://sodipodi.sourceforge.net/DTD/sodipodi-0.dtd"
   xmlns:inkscape="http://www.inkscape.org/namespaces/inkscape"
   width="315.14566"
   height="445.81686"
   id="svg2"
   version="1.1"
   inkscape:version="0.48.4 r9939"
   sodipodi:docname="temp.svg">
  <sodipodi:namedview
     id="base"
     pagecolor="#ffffff"
     bordercolor="#666666"
     borderopacity="1.0"
     inkscape:pageopacity="0.0"
     inkscape:pageshadow="2"
     inkscape:zoom="0.7"
     inkscape:cx="-244.94668"
     inkscape:cy="130.95734"
     inkscape:document-units="px"
     inkscape:current-layer="layer1"
     showgrid="false"
     inkscape:window-width="1440"
     inkscape:window-height="878"
     inkscape:window-x="1912"
     inkscape:window-y="-8"
     inkscape:window-maximized="1"
     fit-margin-top="0"
     fit-margin-left="0"
     fit-margin-right="0"
     fit-margin-bottom="0" />
  <defs
     id="defs4">
    <marker
       inkscape:stockid="Arrow1Lend"
       orient="auto"
       refY="0"
       refX="0"
       id="Arrow1Lend"
       style="overflow:visible">
      <path
         id="path3816"
         d="M 0,0 5,-5 -12.5,0 5,5 0,0 z"
         style="fill-rule:evenodd;stroke:#000000;stroke-width:1pt"
         transform="matrix(-0.8,0,0,-0.8,-10,0)"
         inkscape:connector-curvature="0" />
    </marker>
    <linearGradient
       inkscape:collect="always"
       id="linearGradient5699">
      <stop
         style="stop-color:#000000;stop-opacity:1;"
         offset="0"
         id="stop5701" />
      <stop
         style="stop-color:#000000;stop-opacity:0;"
         offset="1"
         id="stop5703" />
    </linearGradient>
    <linearGradient
       inkscape:collect="always"
       id="linearGradient5673">
      <stop
         style="stop-color:#000000;stop-opacity:1;"
         offset="0"
         id="stop5675" />
      <stop
         style="stop-color:#000000;stop-opacity:0;"
         offset="1"
         id="stop5677" />
    </linearGradient>
    <linearGradient
       inkscape:collect="always"
       id="linearGradient5665">
      <stop
         style="stop-color:#eb3a00;stop-opacity:1"
         offset="0"
         id="stop5667" />
      <stop
         style="stop-color:#000000;stop-opacity:0;"
         offset="1"
         id="stop5669" />
    </linearGradient>
    <linearGradient
       id="linearGradient5405">
      <stop
         style="stop-color:#00aaaa;stop-opacity:0.66666669;"
         offset="0"
         id="stop5407" />
      <stop
         id="stop5415"
         offset="0.55385339"
         style="stop-color:#0064aa;stop-opacity:0.49803922;" />
      <stop
         style="stop-color:#0064aa;stop-opacity:0;"
         offset="1"
         id="stop5409" />
    </linearGradient>
    <linearGradient
       id="linearGradient5391">
      <stop
         style="stop-color:#0064aa;stop-opacity:1;"
         offset="0"
         id="stop5393" />
      <stop
         style="stop-color:#0064aa;stop-opacity:0;"
         offset="1"
         id="stop5395" />
    </linearGradient>
    <linearGradient
       id="linearGradient5363">
      <stop
         style="stop-color:#0064aa;stop-opacity:0.66666669;"
         offset="0"
         id="stop5365" />
      <stop
         style="stop-color:#aa0000;stop-opacity:0.66666669;"
         offset="1"
         id="stop5367" />
    </linearGradient>
    <linearGradient
       id="linearGradient3851">
      <stop
         style="stop-color:#ffff00;stop-opacity:1;"
         offset="0"
         id="stop3853" />
      <stop
         style="stop-color:#ffff00;stop-opacity:0;"
         offset="1"
         id="stop3855" />
    </linearGradient>
    <linearGradient
       inkscape:collect="always"
       xlink:href="#linearGradient5665"
       id="linearGradient5671"
       x1="-751.42859"
       y1="708.07648"
       x2="-820"
       y2="683.79077"
       gradientUnits="userSpaceOnUse" />
    <linearGradient
       inkscape:collect="always"
       xlink:href="#linearGradient5673"
       id="linearGradient5683"
       x1="-825.01331"
       y1="737.38824"
       x2="-751.42859"
       y2="708.07648"
       gradientUnits="userSpaceOnUse" />
    <linearGradient
       inkscape:collect="always"
       xlink:href="#linearGradient5699"
       id="linearGradient5705"
       x1="-913.35339"
       y1="713.15839"
       x2="-758.49988"
       y2="713.15839"
       gradientUnits="userSpaceOnUse" />
    <marker
       style="overflow:visible"
       id="Arrow1Lend-1"
       refX="0"
       refY="0"
       orient="auto"
       inkscape:stockid="Arrow1Lend">
      <path
         transform="matrix(-0.8,0,0,-0.8,-10,0)"
         style="fill-rule:evenodd;stroke:#000000;stroke-width:1pt"
         d="M 0,0 5,-5 -12.5,0 5,5 0,0 z"
         id="path3816-7"
         inkscape:connector-curvature="0" />
    </marker>
    <marker
       style="overflow:visible"
       id="marker3145"
       refX="0"
       refY="0"
       orient="auto"
       inkscape:stockid="Arrow1Lend">
      <path
         transform="matrix(-0.8,0,0,-0.8,-10,0)"
         style="fill-rule:evenodd;stroke:#000000;stroke-width:1pt"
         d="M 0,0 5,-5 -12.5,0 5,5 0,0 z"
         id="path3147"
         inkscape:connector-curvature="0" />
    </marker>
    <marker
       style="overflow:visible"
       id="marker3149"
       refX="0"
       refY="0"
       orient="auto"
       inkscape:stockid="Arrow1Lend">
      <path
         transform="matrix(-0.8,0,0,-0.8,-10,0)"
         style="fill-rule:evenodd;stroke:#000000;stroke-width:1pt"
         d="M 0,0 5,-5 -12.5,0 5,5 0,0 z"
         id="path3151"
         inkscape:connector-curvature="0" />
    </marker>
    <marker
       style="overflow:visible"
       id="marker3153"
       refX="0"
       refY="0"
       orient="auto"
       inkscape:stockid="Arrow1Lend">
      <path
         transform="matrix(-0.8,0,0,-0.8,-10,0)"
         style="fill-rule:evenodd;stroke:#000000;stroke-width:1pt"
         d="M 0,0 5,-5 -12.5,0 5,5 0,0 z"
         id="path3155"
         inkscape:connector-curvature="0" />
    </marker>
    <marker
       style="overflow:visible"
       id="marker3157"
       refX="0"
       refY="0"
       orient="auto"
       inkscape:stockid="Arrow1Lend">
      <path
         transform="matrix(-0.8,0,0,-0.8,-10,0)"
         style="fill-rule:evenodd;stroke:#000000;stroke-width:1pt"
         d="M 0,0 5,-5 -12.5,0 5,5 0,0 z"
         id="path3159"
         inkscape:connector-curvature="0" />
    </marker>
    <marker
       style="overflow:visible"
       id="marker3161"
       refX="0"
       refY="0"
       orient="auto"
       inkscape:stockid="Arrow1Lend">
      <path
         transform="matrix(-0.8,0,0,-0.8,-10,0)"
         style="fill-rule:evenodd;stroke:#000000;stroke-width:1pt"
         d="M 0,0 5,-5 -12.5,0 5,5 0,0 z"
         id="path3163"
         inkscape:connector-curvature="0" />
    </marker>
    <marker
       style="overflow:visible"
       id="marker3165"
       refX="0"
       refY="0"
       orient="auto"
       inkscape:stockid="Arrow1Lend">
      <path
         transform="matrix(-0.8,0,0,-0.8,-10,0)"
         style="fill-rule:evenodd;stroke:#000000;stroke-width:1pt"
         d="M 0,0 5,-5 -12.5,0 5,5 0,0 z"
         id="path3167"
         inkscape:connector-curvature="0" />
    </marker>
    <marker
       style="overflow:visible"
       id="marker3169"
       refX="0"
       refY="0"
       orient="auto"
       inkscape:stockid="Arrow1Lend">
      <path
         transform="matrix(-0.8,0,0,-0.8,-10,0)"
         style="fill-rule:evenodd;stroke:#000000;stroke-width:1pt"
         d="M 0,0 5,-5 -12.5,0 5,5 0,0 z"
         id="path3171"
         inkscape:connector-curvature="0" />
    </marker>
    <marker
       style="overflow:visible"
       id="marker3173"
       refX="0"
       refY="0"
       orient="auto"
       inkscape:stockid="Arrow1Lend">
      <path
         transform="matrix(-0.8,0,0,-0.8,-10,0)"
         style="fill-rule:evenodd;stroke:#000000;stroke-width:1pt"
         d="M 0,0 5,-5 -12.5,0 5,5 0,0 z"
         id="path3175"
         inkscape:connector-curvature="0" />
    </marker>
    <marker
       style="overflow:visible"
       id="marker3177"
       refX="0"
       refY="0"
       orient="auto"
       inkscape:stockid="Arrow1Lend">
      <path
         transform="matrix(-0.8,0,0,-0.8,-10,0)"
         style="fill-rule:evenodd;stroke:#000000;stroke-width:1pt"
         d="M 0,0 5,-5 -12.5,0 5,5 0,0 z"
         id="path3179"
         inkscape:connector-curvature="0" />
    </marker>
    <marker
       style="overflow:visible"
       id="marker3181"
       refX="0"
       refY="0"
       orient="auto"
       inkscape:stockid="Arrow1Lend">
      <path
         transform="matrix(-0.8,0,0,-0.8,-10,0)"
         style="fill-rule:evenodd;stroke:#000000;stroke-width:1pt"
         d="M 0,0 5,-5 -12.5,0 5,5 0,0 z"
         id="path3183"
         inkscape:connector-curvature="0" />
    </marker>
    <marker
       style="overflow:visible"
       id="marker3185"
       refX="0"
       refY="0"
       orient="auto"
       inkscape:stockid="Arrow1Lend">
      <path
         transform="matrix(-0.8,0,0,-0.8,-10,0)"
         style="fill-rule:evenodd;stroke:#000000;stroke-width:1pt"
         d="M 0,0 5,-5 -12.5,0 5,5 0,0 z"
         id="path3187"
         inkscape:connector-curvature="0" />
    </marker>
    <marker
       style="overflow:visible"
       id="marker3189"
       refX="0"
       refY="0"
       orient="auto"
       inkscape:stockid="Arrow1Lend">
      <path
         transform="matrix(-0.8,0,0,-0.8,-10,0)"
         style="fill-rule:evenodd;stroke:#000000;stroke-width:1pt"
         d="M 0,0 5,-5 -12.5,0 5,5 0,0 z"
         id="path3191"
         inkscape:connector-curvature="0" />
    </marker>
    <marker
       style="overflow:visible"
       id="marker3193"
       refX="0"
       refY="0"
       orient="auto"
       inkscape:stockid="Arrow1Lend">
      <path
         transform="matrix(-0.8,0,0,-0.8,-10,0)"
         style="fill-rule:evenodd;stroke:#000000;stroke-width:1pt"
         d="M 0,0 5,-5 -12.5,0 5,5 0,0 z"
         id="path3195"
         inkscape:connector-curvature="0" />
    </marker>
    <marker
       style="overflow:visible"
       id="marker3197"
       refX="0"
       refY="0"
       orient="auto"
       inkscape:stockid="Arrow1Lend">
      <path
         transform="matrix(-0.8,0,0,-0.8,-10,0)"
         style="fill-rule:evenodd;stroke:#000000;stroke-width:1pt"
         d="M 0,0 5,-5 -12.5,0 5,5 0,0 z"
         id="path3199"
         inkscape:connector-curvature="0" />
    </marker>
    <marker
       style="overflow:visible"
       id="marker3201"
       refX="0"
       refY="0"
       orient="auto"
       inkscape:stockid="Arrow1Lend">
      <path
         transform="matrix(-0.8,0,0,-0.8,-10,0)"
         style="fill-rule:evenodd;stroke:#000000;stroke-width:1pt"
         d="M 0,0 5,-5 -12.5,0 5,5 0,0 z"
         id="path3203"
         inkscape:connector-curvature="0" />
    </marker>
    <marker
       style="overflow:visible"
       id="marker3205"
       refX="0"
       refY="0"
       orient="auto"
       inkscape:stockid="Arrow1Lend">
      <path
         transform="matrix(-0.8,0,0,-0.8,-10,0)"
         style="fill-rule:evenodd;stroke:#000000;stroke-width:1pt"
         d="M 0,0 5,-5 -12.5,0 5,5 0,0 z"
         id="path3207"
         inkscape:connector-curvature="0" />
    </marker>
    <marker
       style="overflow:visible"
       id="marker3209"
       refX="0"
       refY="0"
       orient="auto"
       inkscape:stockid="Arrow1Lend">
      <path
         transform="matrix(-0.8,0,0,-0.8,-10,0)"
         style="fill-rule:evenodd;stroke:#000000;stroke-width:1pt"
         d="M 0,0 5,-5 -12.5,0 5,5 0,0 z"
         id="path3211"
         inkscape:connector-curvature="0" />
    </marker>
    <marker
       style="overflow:visible"
       id="marker3213"
       refX="0"
       refY="0"
       orient="auto"
       inkscape:stockid="Arrow1Lend">
      <path
         transform="matrix(-0.8,0,0,-0.8,-10,0)"
         style="fill-rule:evenodd;stroke:#000000;stroke-width:1pt"
         d="M 0,0 5,-5 -12.5,0 5,5 0,0 z"
         id="path3215"
         inkscape:connector-curvature="0" />
    </marker>
    <marker
       style="overflow:visible"
       id="marker3217"
       refX="0"
       refY="0"
       orient="auto"
       inkscape:stockid="Arrow1Lend">
      <path
         transform="matrix(-0.8,0,0,-0.8,-10,0)"
         style="fill-rule:evenodd;stroke:#000000;stroke-width:1pt"
         d="M 0,0 5,-5 -12.5,0 5,5 0,0 z"
         id="path3219"
         inkscape:connector-curvature="0" />
    </marker>
    <marker
       style="overflow:visible"
       id="Arrow1Lend-0"
       refX="0"
       refY="0"
       orient="auto"
       inkscape:stockid="Arrow1Lend">
      <path
         transform="matrix(-0.8,0,0,-0.8,-10,0)"
         style="fill-rule:evenodd;stroke:#000000;stroke-width:1pt"
         d="M 0,0 5,-5 -12.5,0 5,5 0,0 z"
         id="path3816-9"
         inkscape:connector-curvature="0" />
    </marker>
    <marker
       style="overflow:visible"
       id="marker3254"
       refX="0"
       refY="0"
       orient="auto"
       inkscape:stockid="Arrow1Lend">
      <path
         transform="matrix(-0.8,0,0,-0.8,-10,0)"
         style="fill-rule:evenodd;stroke:#000000;stroke-width:1pt"
         d="M 0,0 5,-5 -12.5,0 5,5 0,0 z"
         id="path3256"
         inkscape:connector-curvature="0" />
    </marker>
    <marker
       style="overflow:visible"
       id="marker3258"
       refX="0"
       refY="0"
       orient="auto"
       inkscape:stockid="Arrow1Lend">
      <path
         transform="matrix(-0.8,0,0,-0.8,-10,0)"
         style="fill-rule:evenodd;stroke:#000000;stroke-width:1pt"
         d="M 0,0 5,-5 -12.5,0 5,5 0,0 z"
         id="path3260"
         inkscape:connector-curvature="0" />
    </marker>
  </defs>
  <metadata
     id="metadata7">
    <rdf:RDF>
      <cc:Work
         rdf:about="">
        <dc:format>image/svg+xml</dc:format>
        <dc:type
           rdf:resource="http://purl.org/dc/dcmitype/StillImage" />
        <dc:title />
      </cc:Work>
    </rdf:RDF>
  </metadata>
  <g
     inkscape:label="Layer 1"
     inkscape:groupmode="layer"
     id="layer1"
     transform="translate(57.09397,-321.10696)">
    <rect
       style="fill:#0065a9;fill-opacity:0.66666667;stroke:none"
       id="rect3104"
       width="313.57141"
       height="447.14285"
       x="-58.089252"
       y="322.45502"
       clip-path="none" />
    <path
       style="fill:#0064aa;fill-opacity:0.66666667000000002;stroke:#000000;stroke-width:0.936;stroke-linecap:round;stroke-linejoin:bevel;stroke-miterlimit:10.43299961;stroke-opacity:1;stroke-dasharray:none;stroke-dashoffset:0"
       d="m -544.94501,534.61999 0.0648,-164.01312 8.57174,7.67889 c 25.03443,22.42681 35.43662,55.98339 41.73978,134.64907 5.51202,68.79198 7.82715,79.96156 21.52027,103.82706 12.3673,21.55478 30.76899,34.33328 57.52697,39.94786 15.9389,3.34445 51.7904,2.99973 67.1097,-0.64524 31.8728,-7.58363 50.58817,-23.74299 62.85088,-54.26713 5.69408,-14.17365 7.93979,-30.71919 9.57392,-70.53706 2.55104,-62.16004 4.8153,-85.72439 10.15433,-105.67699 5.13757,-19.19978 15.30289,-37.10818 27.15507,-47.83947 l 7.88245,-7.13699 0.0659,164.01312 0.0659,164.01315 -157.17321,0 -157.17321,0 0.0648,-164.01315 z"
       id="path3809"
       inkscape:connector-curvature="0" />
    <g
       id="g3773"
       transform="matrix(1.0991668,0,0,1,-36.911303,26)" />
    <text
       xml:space="preserve"
       style="font-size:40px;font-style:normal;font-variant:normal;font-weight:normal;font-stretch:normal;text-align:start;line-height:128.99999619%;letter-spacing:0px;word-spacing:0px;writing-mode:lr-tb;text-anchor:start;fill:#000000;fill-opacity:1;stroke:none;font-family:Calibri;-inkscape-font-specification:Calibri"
       x="60.113552"
       y="372.42661"
       id="text3014"
       sodipodi:linespacing="129%"><tspan
         sodipodi:role="line"
         id="tspan3016"
         x="60.113552"
         y="372.42661"
         style="font-size:32px" /></text>
    <g
       transform="translate(0.71428182,4.6760533e-8)"
       id="g4046"
       clip-path="none">
      <g
         id="g4048">
        <g
           style="fill:#000000;fill-opacity:0.2745098;stroke:none"
           id="g4050"
           transform="matrix(1.008741,0,0,0.85640685,-0.46904704,21.967346)"
           mask="none">
          <g
             id="g4052"
             style="fill:#000000;fill-opacity:0.2745098">
            <rect
               ry="0"
               style="fill:#000000;fill-opacity:0.2745098;stroke:none"
               id="rect4054"
               width="312.20837"
               height="82.724014"
               x="-56.629353"
               y="349.6012" />
          </g>
        </g>
        <path
           sodipodi:nodetypes="cssccsssscsssc"
           style="fill:#000000;fill-opacity:0.2745098;stroke:none"
           d="M 84.748555,463.49041 C 42.775622,461.46591 7.2167831,452.4844 -19.416892,435.97267 c -5.14687,-3.19083 -13.35095,-9.57564 -20.545671,-17.09789 -3.841673,-4.01656 -7.494492,-8.6164 -9.936629,-12.68238 -1.705816,-2.54684 -9.058746,-14.04952 -6.489987,-13.92303 0.361351,-0.0153 8.266381,-0.0776 18.156911,-0.002 14.307274,0.1085 28.3498788,8.2e-4 34.1420667,-0.0734 7.5145151,-0.0962 100.4457643,0.0134 106.9155213,0.0309 18.62268,0.0506 37.79333,-0.006 55.07126,0.0259 l 99.48545,0.0267 -1.99687,4.41065 c -0.82969,1.83261 -16.91718,19.28266 -27.16426,29.82557 -19.88692,20.46105 -77.52115,40.15856 -143.472345,36.97748 z"
           id="path4056"
           inkscape:connector-curvature="0"
           mask="none" />
        <path
           style="fill:none;stroke:#000000;stroke-width:1px;stroke-linecap:butt;stroke-linejoin:miter;stroke-opacity:1"
           d="m 256.97297,393.04892 0,-71.94173"
           id="path4080"
           inkscape:connector-curvature="0"
           sodipodi:nodetypes="cc" />
        <path
           sodipodi:nodetypes="cc"
           inkscape:connector-curvature="0"
           id="path4082"
           d="m -57.186477,393.04892 0,-71.94173"
           style="fill:none;stroke:#000000;stroke-width:1px;stroke-linecap:butt;stroke-linejoin:miter;stroke-opacity:1" />
        <path
           style="fill:none;stroke:#000000;stroke-width:1px;stroke-linecap:butt;stroke-linejoin:miter;stroke-opacity:1"
           d="m -57.780393,321.00663 315.156013,-10e-6"
           id="path4084"
           inkscape:connector-curvature="0"
           sodipodi:nodetypes="cc" />
      </g>
    </g>
    <text
       xml:space="preserve"
       style="font-size:40px;font-style:normal;font-variant:normal;font-weight:normal;font-stretch:normal;text-align:start;line-height:128.99999619%;letter-spacing:0px;word-spacing:0px;writing-mode:lr-tb;text-anchor:start;fill:#000000;fill-opacity:1;stroke:none;font-family:Calibri;-inkscape-font-specification:Calibri"
       x="84.670464"
       y="390.60934"
       id="text3796"
       sodipodi:linespacing="129%"><tspan
         sodipodi:role="line"
         id="tspan3798"
         x="84.670464"
         y="390.60934"
         style="font-size:32px">Air</tspan></text>
    <text
       xml:space="preserve"
       style="font-size:40px;font-style:normal;font-variant:normal;font-weight:normal;font-stretch:normal;text-align:start;line-height:128.99999619%;letter-spacing:0px;word-spacing:0px;writing-mode:lr-tb;text-anchor:start;fill:#000000;fill-opacity:1;stroke:none;font-family:Calibri;-inkscape-font-specification:Calibri"
       x="339.82004"
       y="588.77551"
       id="text3977"
       sodipodi:linespacing="129%"><tspan
         sodipodi:role="line"
         id="tspan3979"
         x="339.82004"
         y="588.77551"
         style="font-size:32px">Mush</tspan></text>
    <text
       sodipodi:linespacing="129%"
       id="text3981"
       y="729.48981"
       x="337.25641"
       style="font-size:40px;font-style:normal;font-variant:normal;font-weight:normal;font-stretch:normal;text-align:start;line-height:128.99999619%;letter-spacing:0px;word-spacing:0px;writing-mode:lr-tb;text-anchor:start;fill:#000000;fill-opacity:1;stroke:none;font-family:Calibri;-inkscape-font-specification:Calibri"
       xml:space="preserve"><tspan
         style="font-size:32px"
         y="729.48981"
         x="337.25641"
         id="tspan3983"
         sodipodi:role="line">Solid</tspan></text>
    <rect
       style="fill:#0065a9;fill-opacity:0.66666667;stroke:#000000;stroke-width:1;stroke-linecap:round;stroke-linejoin:bevel;stroke-miterlimit:4;stroke-opacity:1;stroke-dasharray:none;stroke-dashoffset:0"
       id="rect4083"
       width="112.85714"
       height="122.85714"
       x="-361.42856"
       y="-8.4688501"
       transform="translate(-57.09397,321.10696)" />
    <path
       sodipodi:type="arc"
       style="fill:#ff0000;fill-opacity:0.66666667000000002;stroke:#000000;stroke-width:1;stroke-linecap:round;stroke-linejoin:bevel;stroke-miterlimit:4;stroke-opacity:1;stroke-dasharray:none;stroke-dashoffset:0"
       id="path4087"
       sodipodi:cx="-302.5"
       sodipodi:cy="19.031149"
       sodipodi:rx="36.07143"
       sodipodi:ry="14.642858"
       d="m -326.26637,30.046344 a 36.07143,14.642858 0 1 1 0.19284,0.06808"
       transform="translate(-57.09397,321.10696)"
       sodipodi:start="2.2901114"
       sodipodi:end="8.5662119"
       sodipodi:open="true" />
  </g>
</svg>
