<?xml version="1.0" encoding="UTF-8" standalone="no"?>
<!-- Created with Inkscape (http://www.inkscape.org/) -->

<svg
   xmlns:ns0="http://www.iki.fi/pav/software/textext/"
   xmlns:dc="http://purl.org/dc/elements/1.1/"
   xmlns:cc="http://creativecommons.org/ns#"
   xmlns:rdf="http://www.w3.org/1999/02/22-rdf-syntax-ns#"
   xmlns:svg="http://www.w3.org/2000/svg"
   xmlns="http://www.w3.org/2000/svg"
   xmlns:sodipodi="http://sodipodi.sourceforge.net/DTD/sodipodi-0.dtd"
   xmlns:inkscape="http://www.inkscape.org/namespaces/inkscape"
   width="1064.6433"
   height="465.5"
   id="svg2"
   version="1.1"
   inkscape:version="0.48.4 r9939"
   sodipodi:docname="setup.svg">
  <sodipodi:namedview
     id="base"
     pagecolor="#ffffff"
     bordercolor="#666666"
     borderopacity="1.0"
     inkscape:pageopacity="0.0"
     inkscape:pageshadow="2"
     inkscape:zoom="0.70710678"
     inkscape:cx="293.76386"
     inkscape:cy="255.49309"
     inkscape:document-units="px"
     inkscape:current-layer="layer1"
     showgrid="false"
     inkscape:window-width="1920"
     inkscape:window-height="996"
     inkscape:window-x="-8"
     inkscape:window-y="-8"
     inkscape:window-maximized="1"
     fit-margin-top="0"
     fit-margin-left="0"
     fit-margin-right="0"
     fit-margin-bottom="0" />
  <defs
     id="defs4" />
  <metadata
     id="metadata7">
    <rdf:RDF>
      <cc:Work
         rdf:about="">
        <dc:format>image/svg+xml</dc:format>
        <dc:type
           rdf:resource="http://purl.org/dc/dcmitype/StillImage" />
        <dc:title />
      </cc:Work>
    </rdf:RDF>
  </metadata>
  <g
     transform="translate(173.75682,-195.71875)"
     inkscape:label="Layer 1"
     inkscape:groupmode="layer"
     id="layer1">
    <path
       sodipodi:nodetypes="ccc"
       style="fill:none;stroke:#000000;stroke-width:1.875;stroke-linecap:butt;stroke-linejoin:miter;stroke-miterlimit:4;stroke-opacity:1;stroke-dasharray:none"
       d="m 682.78571,595.8995 91.16627,0 c 45.38812,0 50.34246,-4.1837 73.89727,19.37111"
       id="path3813"
       inkscape:connector-curvature="0" />
    <path
       sodipodi:nodetypes="ccsc"
       inkscape:connector-curvature="0"
       id="path3815"
       d="m 682.78571,539.5835 c 45.49669,0 45.68185,0.44993 86.88118,-0.22703 28.41588,0 48.26284,-2.4049 65.31396,2.16393 11.90928,3.19108 45.10521,24.5968 54.07882,45.69411"
       style="fill:none;stroke:#000000;stroke-width:1.875;stroke-linecap:butt;stroke-linejoin:miter;stroke-miterlimit:4;stroke-opacity:1;stroke-dasharray:none" />
    <path
       inkscape:connector-curvature="0"
       id="path3782"
       d="m 34.343911,595.8995 -91.166267,0 c -45.388124,0 -50.342464,-4.1837 -73.897274,19.37111"
       style="fill:none;stroke:#000000;stroke-width:1.875;stroke-linecap:butt;stroke-linejoin:miter;stroke-miterlimit:4;stroke-opacity:1;stroke-dasharray:none"
       sodipodi:nodetypes="ccc" />
    <path
       style="fill:none;stroke:#000000;stroke-width:1.875;stroke-linecap:butt;stroke-linejoin:miter;stroke-miterlimit:4;stroke-opacity:1;stroke-dasharray:none"
       d="m 34.343911,539.5835 c -45.496695,0 -45.681852,0.44993 -86.881186,-0.22703 -28.415877,0 -48.262835,-2.4049 -65.313955,2.16393 -11.90928,3.19108 -45.10521,24.5968 -54.07882,45.69411"
       id="path3780"
       inkscape:connector-curvature="0"
       sodipodi:nodetypes="ccsc" />
    <rect
       style="fill:#12d8b3;fill-opacity:0.42328042;stroke:#000000;stroke-opacity:1"
       id="rect3770"
       width="704.28564"
       height="56.428757"
       x="9.2857141"
       y="539.50507" />
    <rect
       style="fill:#646464;fill-opacity:1;stroke:#000000;stroke-width:2;stroke-miterlimit:4;stroke-opacity:1;stroke-dasharray:none"
       id="rect3772"
       width="57.142857"
       height="85.714287"
       x="-48.12949"
       y="520.93359" />
    <rect
       y="520.93359"
       x="712.85712"
       height="85.714287"
       width="57.142857"
       id="rect3774"
       style="fill:#646464;fill-opacity:1;stroke:#000000;stroke-width:2;stroke-miterlimit:4;stroke-opacity:1;stroke-dasharray:none" />
    <path
       style="fill:none;stroke:#000000;stroke-width:2;stroke-linecap:butt;stroke-linejoin:miter;stroke-miterlimit:4;stroke-opacity:1;stroke-dasharray:none"
       d="m 551.42856,503.79075 44.28572,-96.42857 168.57143,0 0,-61.42857 -169.28572,0 -86.15406,-149.22321 -300.27451,0 -86.79343,150.33063 -167.492276,0 0,60.32115 167.857136,0 50,98.57143 380.71428,0"
       id="path2996"
       inkscape:connector-curvature="0" />
    <path
       style="fill:#bec1c6;fill-opacity:1;stroke:#000000;stroke-width:2;stroke-linecap:butt;stroke-linejoin:miter;stroke-miterlimit:4;stroke-opacity:1;stroke-dasharray:none"
       d="m -44.285714,363.6479 180.000004,0 85.84476,-148.68749 283.44095,0 80,142.9732 178.57143,0 0,33.57143 -180.71429,0 -51.42857,113.57143 -337.14286,0 -57.14285,-112.85715 -181.428574,0 z"
       id="path3776"
       inkscape:connector-curvature="0" />
    <rect
       style="fill:#ba5050;fill-opacity:0.92592594;stroke:#000000;stroke-width:2;stroke-miterlimit:4;stroke-opacity:1;stroke-dasharray:none"
       id="rect2998"
       width="697.14288"
       height="83.571426"
       x="18.571428"
       y="255.93361" />
    <rect
       style="fill:#60a1eb;fill-opacity:1;stroke:#000000;stroke-width:2;stroke-miterlimit:4;stroke-opacity:1;stroke-dasharray:none"
       id="rect3768"
       width="646.42859"
       height="156.42857"
       x="35.714287"
       y="503.79074" />
    <path
       style="fill:none;stroke:#000000;stroke-width:2;stroke-linecap:butt;stroke-linejoin:miter;stroke-miterlimit:4;stroke-opacity:1;stroke-dasharray:none"
       d="m 35.797281,539.52036 646.308229,0"
       id="path3778"
       inkscape:connector-curvature="0" />
    <path
       sodipodi:type="arc"
       style="fill:#646464;fill-opacity:0.6507937;stroke:#000000;stroke-width:1.875;stroke-linecap:round;stroke-linejoin:miter;stroke-miterlimit:4;stroke-opacity:1;stroke-dasharray:none;stroke-dashoffset:0"
       id="path3788"
       sodipodi:cx="-175.26146"
       sodipodi:cy="616.22882"
       sodipodi:rx="26.013966"
       sodipodi:ry="26.013966"
       d="m -149.24749,616.22882 c 0,14.36712 -11.64685,26.01397 -26.01397,26.01397 -14.36712,0 -26.01396,-11.64685 -26.01396,-26.01397 0,-14.36712 11.64684,-26.01396 26.01396,-26.01396 14.36712,0 26.01397,11.64684 26.01397,26.01396 z"
       transform="translate(28.46193,-21.374369)" />
    <g
       style="font-style:normal;font-variant:normal;font-weight:normal;font-stretch:normal;letter-spacing:normal;word-spacing:normal;text-anchor:start;fill:none;stroke:#000000;stroke-linecap:butt;stroke-linejoin:miter;stroke-miterlimit:10.43299961;stroke-opacity:1;stroke-dasharray:none;stroke-dashoffset:0"
       ns0:preamble="C:\\Users\\RASPI\\Desktop\\THESIS DOCUMENTS\\Thesis Writing\\phd\\Misc\\textext_preamble.tex"
       ns0:text="Solidification cell"
       word-spacing="normal"
       letter-spacing="normal"
       font-size-adjust="none"
       font-stretch="normal"
       font-weight="normal"
       font-variant="normal"
       font-style="normal"
       stroke-miterlimit="10.433"
       xml:space="preserve"
       transform="matrix(3.7185477,0,0,-3.7185477,-592.68549,3071.5851)"
       id="content">
<path
   id="path3925"
   d="m 223.98,707.53 0.04,-0.03 0.04,-0.03 0.04,-0.04 0.05,-0.03 0.05,-0.03 0.04,-0.03 0.05,-0.02 0.05,-0.03 0.06,-0.02 0.05,-0.03 0.06,-0.02 0.05,-0.02 0.06,-0.03 0.06,-0.01 0.12,-0.04 0.12,-0.03 0.12,-0.03 0.13,-0.02 0.12,-0.02 0.13,-0.02 0.12,-0.01 0.13,0 0.12,-0.01 c 1.62,0 2.26,0.93 2.26,1.87 0,1.08 -0.73,1.59 -1.8,1.99 l -0.3,0.11 c -0.61,0.22 -1.12,0.62 -1.12,1.17 0,0.67 0.4,1.16 1.17,1.16 0.79,0 1.23,-0.45 1.37,-1.37 h 0.29 v 1.29 c -0.31,0.25 -0.94,0.4 -1.56,0.4 -1.12,0 -2.11,-0.56 -2.11,-1.77 0,-0.96 0.77,-1.46 1.73,-1.8 l 0.17,-0.07 c 0.4,-0.15 1.27,-0.57 1.27,-1.39 0,-0.79 -0.5,-1.26 -1.32,-1.26 -0.86,0 -1.43,0.66 -1.66,1.69 h -0.29 z"
   inkscape:connector-curvature="0"
   style="fill:#000000;stroke-width:0" />
<path
   id="path3927"
   d="m 230.92,711.72 -0.14,0 -0.13,-0.01 -0.13,-0.01 -0.12,-0.02 -0.12,-0.02 -0.11,-0.03 -0.11,-0.03 -0.1,-0.04 -0.1,-0.04 -0.1,-0.04 -0.09,-0.05 -0.09,-0.06 -0.08,-0.06 -0.08,-0.06 -0.08,-0.07 -0.07,-0.08 -0.06,-0.07 -0.07,-0.09 -0.05,-0.08 -0.06,-0.09 -0.05,-0.1 -0.04,-0.1 -0.04,-0.1 -0.04,-0.11 -0.03,-0.11 -0.03,-0.11 -0.02,-0.12 -0.02,-0.12 -0.01,-0.13 -0.01,-0.13 -0.01,-0.13 0,-0.14 c 0,-1.49 0.72,-2.36 2.19,-2.36 v 0.32 c -0.84,0 -1.24,0.77 -1.24,2.04 h 0 c 0,1.26 0.4,2.03 1.24,2.03 0.85,0 1.24,-0.77 1.24,-2.03 0,-1.27 -0.39,-2.04 -1.24,-2.04 v -0.32 c 1.48,0 2.2,0.87 2.2,2.36 0,1.48 -0.72,2.35 -2.2,2.35 z"
   inkscape:connector-curvature="0"
   style="fill:#000000;stroke-width:0" />
<path
   id="path3929"
   d="m 235.31,713.87 -0.06,0.05 -1.44,-0.23 v -0.22 l 0.35,-0.04 c 0.24,-0.03 0.29,-0.08 0.29,-0.42 v -5.09 c 0,-0.47 -0.03,-0.49 -0.69,-0.53 v -0.27 H 236 v 0.27 c -0.65,0.04 -0.69,0.06 -0.69,0.53 z"
   inkscape:connector-curvature="0"
   style="fill:#000000;stroke-width:0" />
<path
   id="path3931"
   d="m 236.48,711.49 v -0.22 l 0.34,-0.05 c 0.24,-0.04 0.3,-0.08 0.3,-0.41 v -2.89 c 0,-0.47 -0.03,-0.49 -0.69,-0.53 v -0.27 h 2.24 v 0.27 c -0.65,0.04 -0.69,0.06 -0.69,0.53 v 3.75 l -0.06,0.05 z"
   inkscape:connector-curvature="0"
   style="fill:#000000;stroke-width:0" />
<path
   id="path3933"
   d="m 237.54,713.68 -0.03,0 -0.03,-0.01 -0.03,0 -0.03,0 -0.03,-0.01 -0.02,-0.01 -0.03,-0.01 -0.03,-0.01 -0.02,-0.01 -0.03,-0.01 -0.02,-0.01 -0.02,-0.02 -0.02,-0.01 -0.02,-0.02 -0.02,-0.02 -0.02,-0.01 -0.02,-0.02 -0.02,-0.02 -0.01,-0.03 -0.02,-0.02 -0.01,-0.02 -0.02,-0.02 -0.01,-0.03 -0.01,-0.02 -0.01,-0.03 -0.01,-0.03 0,-0.02 -0.01,-0.03 0,-0.03 -0.01,-0.03 0,-0.03 0,-0.03 c 0,-0.32 0.23,-0.55 0.56,-0.55 0.34,0 0.55,0.23 0.56,0.55 0,0.33 -0.22,0.57 -0.56,0.57 z"
   inkscape:connector-curvature="0"
   style="fill:#000000;stroke-width:0" />
<path
   id="path3935"
   d="m 244.14,707.12 v 0.27 c -0.65,0.04 -0.68,0.06 -0.68,0.53 v 5.95 l -0.07,0.05 -1.44,-0.23 v -0.22 l 0.35,-0.04 c 0.24,-0.03 0.3,-0.08 0.3,-0.42 v -1.51 c -0.26,0.14 -0.6,0.22 -1.02,0.22 l -0.01,-0.32 c 0.43,0 0.78,-0.2 0.94,-0.57 0.08,-0.16 0.09,-0.29 0.09,-0.54 v -1.61 c 0,-0.2 -0.01,-0.36 -0.07,-0.51 -0.18,-0.48 -0.59,-0.66 -1.06,-0.66 -0.85,0 -1.27,0.82 -1.27,1.88 0,1.19 0.43,2.01 1.37,2.01 l 0.01,0.32 c -0.75,0 -1.31,-0.24 -1.7,-0.63 -0.39,-0.41 -0.63,-1.02 -0.63,-1.81 0,-1.36 0.71,-2.27 1.91,-2.27 0.5,0 0.93,0.22 1.43,0.63 v -0.45 l 0.07,-0.07 z"
   inkscape:connector-curvature="0"
   style="fill:#000000;stroke-width:0" />
<path
   id="path3937"
   d="m 244.62,711.49 v -0.22 l 0.35,-0.05 c 0.24,-0.04 0.29,-0.08 0.29,-0.41 v -2.89 c 0,-0.47 -0.02,-0.49 -0.68,-0.53 v -0.27 h 2.23 v 0.27 c -0.65,0.04 -0.68,0.06 -0.68,0.53 v 3.75 l -0.07,0.05 z"
   inkscape:connector-curvature="0"
   style="fill:#000000;stroke-width:0" />
<path
   id="path3939"
   d="m 245.68,713.68 -0.03,0 -0.03,-0.01 -0.03,0 -0.02,0 -0.03,-0.01 -0.03,-0.01 -0.03,-0.01 -0.02,-0.01 -0.03,-0.01 -0.02,-0.01 -0.02,-0.01 -0.03,-0.02 -0.02,-0.01 -0.02,-0.02 -0.02,-0.02 -0.02,-0.01 -0.02,-0.02 -0.01,-0.02 -0.02,-0.03 -0.01,-0.02 -0.02,-0.02 -0.01,-0.02 -0.01,-0.03 -0.01,-0.02 -0.01,-0.03 -0.01,-0.03 -0.01,-0.02 0,-0.03 -0.01,-0.03 0,-0.03 0,-0.03 0,-0.03 c 0,-0.32 0.22,-0.55 0.55,-0.55 0.34,0 0.56,0.23 0.56,0.55 0,0.33 -0.22,0.57 -0.56,0.57 z"
   inkscape:connector-curvature="0"
   style="fill:#000000;stroke-width:0" />
<path
   id="path3941"
   d="m 250.56,711.25 0.03,0 0.02,0 0.02,-0.01 0.01,0 0.02,0 0.02,0 0.02,-0.01 0.01,0 0.01,-0.01 0.02,-0.01 0.01,0 0.01,-0.01 0.01,-0.01 0.01,-0.01 0.01,-0.01 0.01,-0.01 0.01,-0.02 0,-0.01 0.01,-0.01 0.01,-0.02 0,-0.02 0.01,-0.01 0,-0.02 0,-0.02 0.01,-0.02 0,-0.03 0,-0.02 0,-0.02 0.01,-0.03 0,-0.03 0,-0.03 0,-0.02 v -2.91 c 0,-0.47 -0.03,-0.49 -0.69,-0.53 v -0.27 h 2.24 v 0.27 c -0.65,0.04 -0.69,0.06 -0.69,0.53 v 3.8 c -0.3,-0.02 -0.85,-0.11 -1.59,-0.11 h -1.34 v 0.42 c 0,1.35 0.62,1.57 1.12,1.57 0.45,0 0.78,-0.28 0.96,-0.78 0.03,-0.09 0.1,-0.16 0.25,-0.16 0.2,0 0.51,0.13 0.51,0.42 0,0.4 -0.57,0.84 -1.62,0.84 -0.68,0 -1.24,-0.24 -1.58,-0.62 -0.33,-0.38 -0.5,-0.9 -0.5,-1.52 v -0.17 h -0.7 v -0.36 h 0.7 v -3.33 c 0,-0.47 -0.02,-0.49 -0.68,-0.53 v -0.27 h 2.32 v 0.27 c -0.74,0.03 -0.78,0.05 -0.78,0.52 v 3.34 z"
   inkscape:connector-curvature="0"
   style="fill:#000000;stroke-width:0" />
<path
   id="path3943"
   d="m 255.29,707.49 -0.05,0 -0.05,0 -0.05,0.01 -0.04,0 -0.05,0.01 -0.05,0.01 -0.04,0.01 -0.04,0.01 -0.08,0.03 -0.08,0.03 -0.07,0.04 -0.07,0.04 -0.07,0.05 -0.06,0.05 -0.05,0.05 -0.06,0.06 -0.05,0.07 -0.04,0.06 -0.04,0.07 -0.04,0.08 -0.04,0.07 -0.03,0.08 -0.03,0.08 -0.03,0.08 -0.02,0.08 -0.03,0.08 -0.01,0.09 -0.02,0.08 -0.02,0.09 -0.01,0.08 -0.01,0.09 0,0.08 -0.01,0.09 0,0.08 -0.01,0.09 0,0.08 c 0,1.36 0.54,1.91 1.18,1.91 0.42,0 0.68,-0.3 0.87,-0.8 0.05,-0.14 0.11,-0.23 0.28,-0.23 0.18,0 0.54,0.12 0.54,0.47 0,0.42 -0.6,0.88 -1.59,0.88 -1.67,0 -2.23,-1.18 -2.23,-2.4 0,-1.53 0.75,-2.31 2.13,-2.31 0.64,0 1.5,0.34 1.76,1.32 l -0.27,0.13 c -0.28,-0.64 -0.65,-0.97 -1.32,-0.97 z"
   inkscape:connector-curvature="0"
   style="fill:#000000;stroke-width:0" />
<path
   id="path3945"
   d="m 261.05,710.51 0,0.1 0,0.05 0,0.05 -0.01,0.05 -0.01,0.05 -0.01,0.06 -0.01,0.05 -0.01,0.05 -0.02,0.05 -0.01,0.05 -0.03,0.05 -0.02,0.05 -0.03,0.05 -0.03,0.05 -0.04,0.04 -0.04,0.05 -0.04,0.04 -0.05,0.04 -0.06,0.04 -0.05,0.03 -0.03,0.02 -0.04,0.02 -0.03,0.01 -0.04,0.02 -0.03,0.01 -0.04,0.02 -0.04,0.01 -0.04,0.01 -0.04,0.02 -0.05,0.01 -0.04,0.01 -0.05,0.01 -0.05,0.01 -0.05,0 -0.05,0.01 -0.05,0.01 -0.06,0 -0.05,0.01 -0.06,0 -0.06,0 -0.07,0 -0.06,0 c -1.03,0 -1.85,-0.54 -1.85,-1.04 0,-0.29 0.34,-0.43 0.51,-0.43 0.19,0 0.25,0.1 0.3,0.26 0.2,0.67 0.57,0.89 0.94,0.89 0.36,0 0.78,-0.18 0.78,-0.91 v -0.39 -0.37 -1.3 c 0,-0.74 -0.57,-0.93 -0.93,-0.93 -0.57,0 -0.84,0.4 -0.84,0.94 0,0.43 0.2,0.65 0.71,0.85 0.37,0.13 0.86,0.31 1.06,0.44 v 0.37 c -0.23,-0.24 -1.12,-0.47 -1.84,-0.69 -0.66,-0.21 -0.86,-0.67 -0.86,-1.1 0,-0.68 0.46,-1.3 1.32,-1.3 0.57,0.02 1.08,0.36 1.37,0.55 0.13,-0.34 0.27,-0.55 0.6,-0.55 0.33,0 0.73,0.1 1.08,0.28 l -0.06,0.22 c -0.13,-0.03 -0.33,-0.05 -0.46,-0.01 -0.17,0.03 -0.33,0.21 -0.33,0.79 z"
   inkscape:connector-curvature="0"
   style="fill:#000000;stroke-width:0" />
<path
   id="path3947"
   d="m 264.87,711.25 v 0.36 h -1.18 v 1.16 h -0.27 l -0.55,-1.16 h -0.7 v -0.36 h 0.66 v -3.19 c 0,-0.94 0.7,-1.05 1.02,-1.05 0.46,0 0.9,0.24 1.17,0.41 l -0.07,0.19 c -0.22,-0.09 -0.43,-0.12 -0.65,-0.12 -0.32,0 -0.61,0.22 -0.61,0.92 v 2.84 z"
   inkscape:connector-curvature="0"
   style="fill:#000000;stroke-width:0" />
<path
   id="path3949"
   d="m 265.37,711.49 v -0.22 l 0.34,-0.05 c 0.24,-0.04 0.3,-0.08 0.3,-0.41 v -2.89 c 0,-0.47 -0.03,-0.49 -0.69,-0.53 v -0.27 h 2.24 v 0.27 c -0.65,0.04 -0.69,0.06 -0.69,0.53 v 3.75 l -0.06,0.05 z"
   inkscape:connector-curvature="0"
   style="fill:#000000;stroke-width:0" />
<path
   id="path3951"
   d="m 266.43,713.68 -0.03,0 -0.03,-0.01 -0.03,0 -0.03,0 -0.03,-0.01 -0.02,-0.01 -0.03,-0.01 -0.03,-0.01 -0.02,-0.01 -0.03,-0.01 -0.02,-0.01 -0.02,-0.02 -0.02,-0.01 -0.02,-0.02 -0.02,-0.02 -0.02,-0.01 -0.02,-0.02 -0.02,-0.02 -0.01,-0.03 -0.02,-0.02 -0.01,-0.02 -0.02,-0.02 -0.01,-0.03 -0.01,-0.02 -0.01,-0.03 -0.01,-0.03 0,-0.02 -0.01,-0.03 0,-0.03 -0.01,-0.03 0,-0.03 0,-0.03 c 0,-0.32 0.23,-0.55 0.56,-0.55 0.34,0 0.55,0.23 0.56,0.55 0,0.33 -0.22,0.57 -0.56,0.57 z"
   inkscape:connector-curvature="0"
   style="fill:#000000;stroke-width:0" />
<path
   id="path3953"
   d="m 270.33,711.72 -0.14,0 -0.13,-0.01 -0.12,-0.01 -0.13,-0.02 -0.11,-0.02 -0.12,-0.03 -0.11,-0.03 -0.1,-0.04 -0.1,-0.04 -0.1,-0.04 -0.09,-0.05 -0.09,-0.06 -0.08,-0.06 -0.08,-0.06 -0.08,-0.07 -0.07,-0.08 -0.06,-0.07 -0.06,-0.09 -0.06,-0.08 -0.05,-0.09 -0.05,-0.1 -0.05,-0.1 -0.04,-0.1 -0.03,-0.11 -0.04,-0.11 -0.02,-0.11 -0.03,-0.12 -0.02,-0.12 -0.01,-0.13 -0.01,-0.13 -0.01,-0.13 0,-0.14 c 0,-1.49 0.72,-2.36 2.19,-2.36 v 0.32 c -0.83,0 -1.24,0.77 -1.24,2.04 h 0 c 0,1.26 0.41,2.03 1.24,2.03 0.85,0 1.25,-0.77 1.25,-2.03 0,-1.27 -0.4,-2.04 -1.25,-2.04 v -0.32 c 1.49,0 2.2,0.87 2.2,2.36 0,1.48 -0.71,2.35 -2.2,2.35 z"
   inkscape:connector-curvature="0"
   style="fill:#000000;stroke-width:0" />
<path
   id="path3955"
   d="m 277.84,710.27 0,0.08 0,0.08 -0.01,0.09 -0.01,0.07 -0.02,0.08 -0.01,0.07 -0.02,0.08 -0.02,0.06 -0.02,0.07 -0.03,0.06 -0.03,0.07 -0.03,0.05 -0.04,0.06 -0.03,0.05 -0.04,0.05 -0.05,0.05 -0.04,0.05 -0.05,0.04 -0.05,0.04 -0.05,0.04 -0.05,0.03 -0.06,0.03 -0.06,0.03 -0.06,0.03 -0.06,0.02 -0.07,0.02 -0.07,0.02 -0.07,0.01 -0.07,0.01 -0.07,0.01 -0.08,0 -0.08,0 c -0.67,0 -1.1,-0.33 -1.66,-0.69 l -0.13,0.69 -1.37,-0.23 v -0.22 l 0.35,-0.05 c 0.24,-0.04 0.29,-0.08 0.29,-0.41 v -2.89 c 0,-0.47 -0.02,-0.49 -0.68,-0.53 v -0.27 h 2.23 v 0.27 c -0.65,0.04 -0.69,0.06 -0.69,0.53 v 2.15 c 0,0.22 0.02,0.35 0.1,0.5 0.19,0.36 0.6,0.66 1.09,0.66 0.62,0 0.96,-0.35 0.96,-1.15 v -2.16 c 0,-0.47 -0.03,-0.49 -0.69,-0.53 v -0.27 h 2.24 v 0.27 c -0.65,0.04 -0.69,0.06 -0.69,0.53 z"
   inkscape:connector-curvature="0"
   style="fill:#000000;stroke-width:0" />
<path
   id="path3957"
   d="m 283.47,707.49 -0.05,0 -0.05,0 -0.05,0.01 -0.05,0 -0.04,0.01 -0.05,0.01 -0.04,0.01 -0.04,0.01 -0.09,0.03 -0.07,0.03 -0.08,0.04 -0.06,0.04 -0.07,0.05 -0.06,0.05 -0.06,0.05 -0.05,0.06 -0.05,0.07 -0.04,0.06 -0.05,0.07 -0.04,0.08 -0.03,0.07 -0.03,0.08 -0.03,0.08 -0.03,0.08 -0.03,0.08 -0.02,0.08 -0.02,0.09 -0.01,0.08 -0.02,0.09 -0.01,0.08 -0.01,0.09 -0.01,0.08 0,0.09 -0.01,0.08 0,0.09 0,0.08 c 0,1.36 0.54,1.91 1.17,1.91 0.42,0 0.69,-0.3 0.87,-0.8 0.06,-0.14 0.11,-0.23 0.29,-0.23 0.18,0 0.54,0.12 0.54,0.47 0,0.42 -0.61,0.88 -1.6,0.88 -1.66,0 -2.22,-1.18 -2.22,-2.4 0,-1.53 0.75,-2.31 2.12,-2.31 0.64,0 1.51,0.34 1.76,1.32 l -0.26,0.13 c -0.29,-0.64 -0.65,-0.97 -1.32,-0.97 z"
   inkscape:connector-curvature="0"
   style="fill:#000000;stroke-width:0" />
<path
   id="path3959"
   d="m 289.3,709.53 0.02,0 0.02,0 0.02,0 0.02,0.01 0.01,0 0.02,0 0.02,0 0.01,0 0.02,0.01 0.01,0 0.02,0.01 0.02,0 0.01,0.01 0.01,0.01 0.02,0 0.01,0.01 0.01,0.01 0.01,0.01 0.02,0.02 0.01,0.01 0.01,0.01 0,0.02 0.01,0.01 0.01,0.02 0.01,0.02 0,0.01 0,0.01 0.01,0.01 0,0.01 0,0.01 0,0.01 0,0.01 0.01,0.01 0,0.01 0,0.02 0,0.01 0,0.01 0,0.02 0,0.01 c 0,0.54 -0.17,1.84 -1.85,1.84 l -0.05,-0.32 c 0.85,0 0.95,-0.87 0.95,-1.23 0,-0.17 -0.06,-0.29 -0.31,-0.29 h -1.74 c 0,0.38 0.14,1.52 1.1,1.52 l 0.05,0.32 c -1.43,0 -2.11,-1.01 -2.11,-2.39 0,-1.45 0.62,-2.34 2.12,-2.32 1.02,0.01 1.54,0.57 1.79,1.29 l -0.28,0.15 c -0.26,-0.53 -0.6,-0.97 -1.33,-0.97 -1.13,0 -1.36,1.1 -1.34,2.05 z"
   inkscape:connector-curvature="0"
   style="fill:#000000;stroke-width:0" />
<path
   id="path3961"
   d="m 291.7,713.87 -0.06,0.05 -1.44,-0.23 v -0.22 l 0.35,-0.04 c 0.24,-0.03 0.29,-0.08 0.29,-0.42 v -5.09 c 0,-0.47 -0.02,-0.49 -0.68,-0.53 v -0.27 h 2.23 v 0.27 c -0.65,0.04 -0.69,0.06 -0.69,0.53 z"
   inkscape:connector-curvature="0"
   style="fill:#000000;stroke-width:0" />
<path
   id="path3963"
   d="m 294.26,713.87 -0.06,0.05 -1.44,-0.23 v -0.22 l 0.35,-0.04 c 0.24,-0.03 0.29,-0.08 0.29,-0.42 v -5.09 c 0,-0.47 -0.03,-0.49 -0.69,-0.53 v -0.27 h 2.24 v 0.27 c -0.65,0.04 -0.69,0.06 -0.69,0.53 z"
   inkscape:connector-curvature="0"
   style="fill:#000000;stroke-width:0" />
</g>    <path
       sodipodi:type="arc"
       style="fill:#646464;fill-opacity:0.6507937;stroke:#000000;stroke-width:2;stroke-linecap:round;stroke-linejoin:miter;stroke-miterlimit:4;stroke-opacity:1;stroke-dasharray:none;stroke-dashoffset:0"
       id="path4004"
       sodipodi:cx="256.57874"
       sodipodi:cy="241.83223"
       sodipodi:rx="20.203051"
       sodipodi:ry="20.203051"
       d="m 276.78179,241.83223 c 0,11.15784 -9.04522,20.20305 -20.20305,20.20305 -11.15784,0 -20.20306,-9.04521 -20.20306,-20.20305 0,-11.15784 9.04522,-20.20305 20.20306,-20.20305 11.15783,0 20.20305,9.04521 20.20305,20.20305 z"
       transform="translate(-203.76707,53.2113)" />
    <rect
       style="fill:#d5d7d8;fill-opacity:1;stroke:none"
       id="rect4006"
       width="11.490485"
       height="38.133259"
       x="-167.14934"
       y="233.31007"
       ry="3.395427"
       transform="matrix(0.73471036,-0.67838093,0.67838093,0.73471036,0,0)" />
    <path
       transform="translate(423.37579,53.2113)"
       d="m 276.78179,241.83223 c 0,11.15784 -9.04522,20.20305 -20.20305,20.20305 -11.15784,0 -20.20306,-9.04521 -20.20306,-20.20305 0,-11.15784 9.04522,-20.20305 20.20306,-20.20305 11.15783,0 20.20305,9.04521 20.20305,20.20305 z"
       sodipodi:ry="20.203051"
       sodipodi:rx="20.203051"
       sodipodi:cy="241.83223"
       sodipodi:cx="256.57874"
       id="path4008"
       style="fill:#646464;fill-opacity:0.6507937;stroke:#000000;stroke-width:2;stroke-linecap:round;stroke-linejoin:miter;stroke-miterlimit:4;stroke-opacity:1;stroke-dasharray:none;stroke-dashoffset:0"
       sodipodi:type="arc" />
    <rect
       transform="matrix(0.73471036,-0.67838093,0.67838093,0.73471036,0,0)"
       ry="3.395427"
       y="658.75183"
       x="293.61899"
       height="38.133259"
       width="11.490485"
       id="rect4010"
       style="fill:#d5d7d8;fill-opacity:1;stroke:none" />
    <path
       style="fill:none;stroke:#000000;stroke-width:2;stroke-linecap:butt;stroke-linejoin:miter;stroke-miterlimit:4;stroke-opacity:1;stroke-dasharray:none"
       d="m 285.71429,285.72173 0,-83.21428"
       id="path4012"
       inkscape:connector-curvature="0"
       transform="translate(-196.62421,53.2113)" />
    <path
       inkscape:connector-curvature="0"
       id="path4014"
       d="m 641.59008,338.93303 0,-83.21428"
       style="fill:none;stroke:#000000;stroke-width:2;stroke-linecap:butt;stroke-linejoin:miter;stroke-miterlimit:4;stroke-opacity:1;stroke-dasharray:none" />
    <g
       style="font-style:normal;font-variant:normal;font-weight:normal;font-stretch:normal;letter-spacing:normal;word-spacing:normal;text-anchor:start;fill:none;stroke:#000000;stroke-linecap:butt;stroke-linejoin:miter;stroke-miterlimit:10.43299961;stroke-opacity:1;stroke-dasharray:none;stroke-dashoffset:0"
       id="g4063"
       transform="matrix(3.7185477,0,0,-3.7185477,-511.39803,2944.3384)"
       xml:space="preserve"
       stroke-miterlimit="10.433"
       font-style="normal"
       font-variant="normal"
       font-weight="normal"
       font-stretch="normal"
       font-size-adjust="none"
       letter-spacing="normal"
       word-spacing="normal"
       ns0:text="Heater\n"
       ns0:preamble="C:\\Users\\RASPI\\Desktop\\THESIS DOCUMENTS\\Thesis Writing\\phd\\Misc\\textext_preamble.tex">
<path
   style="fill:#000000;stroke-width:0"
   inkscape:connector-curvature="0"
   d="m 228.69,710.25 v -2.28 c 0,-0.51 -0.01,-0.53 -0.82,-0.58 v -0.27 h 2.56 v 0.27 c -0.8,0.05 -0.83,0.07 -0.83,0.58 v 4.64 c 0,0.52 0.03,0.53 0.83,0.59 v 0.27 h -2.56 v -0.27 c 0.81,-0.06 0.82,-0.07 0.82,-0.59 v -2.01 h -3.2 v 2.01 c 0,0.52 0.02,0.53 0.82,0.59 v 0.27 h -2.56 v -0.27 c 0.81,-0.06 0.83,-0.07 0.83,-0.59 v -4.64 c 0,-0.51 -0.02,-0.53 -0.83,-0.58 v -0.27 h 2.56 v 0.27 c -0.8,0.05 -0.82,0.07 -0.82,0.58 v 2.28 z"
   id="path4065" />
<path
   style="fill:#000000;stroke-width:0"
   inkscape:connector-curvature="0"
   d="m 234.5,709.53 0.02,0 0.02,0 0.02,0 0.01,0.01 0.02,0 0.02,0 0.01,0 0.02,0 0.02,0.01 0.01,0 0.02,0.01 0.01,0 0.02,0.01 0.01,0.01 0.01,0 0.02,0.01 0.01,0.01 0.01,0.01 0.01,0.02 0.01,0.01 0.01,0.01 0.01,0.02 0.01,0.01 0.01,0.02 0.01,0.02 0,0.01 0,0.01 0,0.01 0.01,0.01 0,0.01 0,0.01 0,0.01 0,0.01 0.01,0.01 0,0.02 0,0.01 0,0.01 0,0.02 0,0.01 c 0,0.54 -0.17,1.84 -1.85,1.84 l -0.06,-0.32 c 0.86,0 0.95,-0.87 0.95,-1.23 0,-0.17 -0.05,-0.29 -0.31,-0.29 h -1.73 c 0,0.38 0.14,1.52 1.09,1.52 l 0.06,0.32 c -1.43,0 -2.11,-1.01 -2.11,-2.39 0,-1.45 0.62,-2.34 2.12,-2.32 1.01,0.01 1.54,0.57 1.78,1.29 l -0.27,0.15 c -0.26,-0.53 -0.61,-0.97 -1.33,-0.97 -1.14,0 -1.37,1.1 -1.35,2.05 z"
   id="path4067" />
<path
   style="fill:#000000;stroke-width:0"
   inkscape:connector-curvature="0"
   d="m 239.15,710.51 0,0.1 0,0.05 0,0.05 -0.01,0.05 -0.01,0.05 -0.01,0.06 -0.01,0.05 -0.01,0.05 -0.02,0.05 -0.01,0.05 -0.03,0.05 -0.02,0.05 -0.03,0.05 -0.03,0.05 -0.04,0.04 -0.04,0.05 -0.04,0.04 -0.05,0.04 -0.06,0.04 -0.05,0.03 -0.03,0.02 -0.04,0.02 -0.03,0.01 -0.04,0.02 -0.03,0.01 -0.04,0.02 -0.04,0.01 -0.04,0.01 -0.04,0.02 -0.05,0.01 -0.04,0.01 -0.05,0.01 -0.05,0.01 -0.05,0 -0.05,0.01 -0.05,0.01 -0.06,0 -0.05,0.01 -0.06,0 -0.06,0 -0.07,0 -0.06,0 c -1.03,0 -1.85,-0.54 -1.85,-1.04 0,-0.29 0.34,-0.43 0.51,-0.43 0.2,0 0.25,0.1 0.3,0.26 0.2,0.67 0.57,0.89 0.94,0.89 0.36,0 0.78,-0.18 0.78,-0.91 v -0.39 -0.37 -1.3 c 0,-0.74 -0.57,-0.93 -0.93,-0.93 -0.56,0 -0.84,0.4 -0.84,0.94 0,0.43 0.2,0.65 0.71,0.85 0.37,0.13 0.86,0.31 1.06,0.44 v 0.37 c -0.23,-0.24 -1.12,-0.47 -1.84,-0.69 -0.66,-0.21 -0.86,-0.67 -0.86,-1.1 0,-0.68 0.46,-1.3 1.32,-1.3 0.57,0.02 1.08,0.36 1.37,0.55 0.13,-0.34 0.28,-0.55 0.59,-0.55 0.35,0 0.74,0.1 1.09,0.28 l -0.06,0.22 c -0.13,-0.03 -0.33,-0.05 -0.46,-0.01 -0.17,0.03 -0.33,0.21 -0.33,0.79 z"
   id="path4069" />
<path
   style="fill:#000000;stroke-width:0"
   inkscape:connector-curvature="0"
   d="m 242.96,711.25 v 0.36 h -1.18 v 1.16 h -0.27 l -0.56,-1.16 h -0.7 v -0.36 h 0.66 v -3.19 c 0,-0.94 0.7,-1.05 1.02,-1.05 0.47,0 0.91,0.24 1.17,0.41 l -0.07,0.19 c -0.22,-0.09 -0.42,-0.12 -0.65,-0.12 -0.31,0 -0.6,0.22 -0.6,0.92 v 2.84 z"
   id="path4071" />
<path
   style="fill:#000000;stroke-width:0"
   inkscape:connector-curvature="0"
   d="m 247.16,709.53 0.02,0 0.02,0 0.02,0 0.01,0.01 0.02,0 0.02,0 0.01,0 0.02,0 0.02,0.01 0.01,0 0.02,0.01 0.01,0 0.02,0.01 0.01,0.01 0.01,0 0.02,0.01 0.01,0.01 0.01,0.01 0.01,0.02 0.01,0.01 0.01,0.01 0.01,0.02 0.01,0.01 0.01,0.02 0.01,0.02 0,0.01 0,0.01 0,0.01 0.01,0.01 0,0.01 0,0.01 0,0.01 0,0.01 0.01,0.01 0,0.02 0,0.01 0,0.01 0,0.02 0,0.01 c 0,0.54 -0.18,1.84 -1.85,1.84 l -0.06,-0.32 c 0.86,0 0.95,-0.87 0.95,-1.23 0,-0.17 -0.05,-0.29 -0.31,-0.29 h -1.73 c 0,0.38 0.14,1.52 1.09,1.52 l 0.06,0.32 c -1.43,0 -2.11,-1.01 -2.11,-2.39 0,-1.45 0.62,-2.34 2.12,-2.32 1.01,0.01 1.54,0.57 1.78,1.29 l -0.27,0.15 c -0.26,-0.53 -0.61,-0.97 -1.33,-0.97 -1.14,0 -1.37,1.1 -1.35,2.05 z"
   id="path4073" />
<path
   style="fill:#000000;stroke-width:0"
   inkscape:connector-curvature="0"
   d="m 249.56,711.72 -1.39,-0.23 v -0.22 l 0.35,-0.05 c 0.24,-0.04 0.29,-0.08 0.29,-0.41 v -2.89 c 0,-0.47 -0.05,-0.49 -0.69,-0.53 v -0.27 h 2.42 v 0.27 c -0.81,0.04 -0.87,0.06 -0.87,0.53 v 2.15 c 0,0.7 0.31,0.94 0.53,0.94 0.14,0 0.3,-0.06 0.56,-0.2 0.07,-0.04 0.14,-0.05 0.19,-0.05 0.22,0 0.42,0.23 0.42,0.52 0,0.2 -0.13,0.44 -0.49,0.44 -0.33,0 -0.6,-0.2 -1.21,-0.73 z"
   id="path4075" />
</g>    <g
       ns0:preamble="C:\\Users\\RASPI\\Desktop\\THESIS DOCUMENTS\\Thesis Writing\\phd\\Misc\\textext_preamble.tex"
       ns0:text="Peltier cooler"
       word-spacing="normal"
       letter-spacing="normal"
       font-size-adjust="none"
       font-stretch="normal"
       font-weight="normal"
       font-variant="normal"
       font-style="normal"
       stroke-miterlimit="10.433"
       xml:space="preserve"
       transform="matrix(3.7185477,0,0,-3.7185477,-560.94768,3243.0072)"
       id="g4183"
       style="font-style:normal;font-variant:normal;font-weight:normal;font-stretch:normal;letter-spacing:normal;word-spacing:normal;text-anchor:start;fill:none;stroke:#000000;stroke-linecap:butt;stroke-linejoin:miter;stroke-miterlimit:10.43299961;stroke-opacity:1;stroke-dasharray:none;stroke-dashoffset:0">
<path
   id="path4185"
   d="m 225.49,709.73 h 0.52 c 0.42,0 0.83,0.03 1.17,0.11 0.71,0.19 1.51,0.68 1.51,1.83 0,0.69 -0.3,1.17 -0.71,1.43 -0.44,0.27 -1.03,0.37 -1.67,0.37 l -0.13,-0.33 c 0.95,0 1.52,-0.54 1.52,-1.54 0,-1.14 -0.75,-1.55 -1.54,-1.55 -0.54,0 -0.67,0.02 -0.67,0.35 v 2.4 c 0,0.26 0.1,0.34 0.69,0.34 l 0.13,0.33 h -2.56 v -0.27 c 0.81,-0.06 0.83,-0.07 0.83,-0.59 v -4.64 c 0,-0.51 -0.02,-0.53 -0.83,-0.58 v -0.27 h 2.71 v 0.27 c -0.95,0.05 -0.97,0.07 -0.97,0.58 z"
   inkscape:connector-curvature="0"
   style="fill:#000000;stroke-width:0" />
<path
   id="path4187"
   d="m 232.7,709.53 0.02,0 0.02,0 0.02,0 0.01,0.01 0.02,0 0.02,0 0.01,0 0.02,0 0.02,0.01 0.01,0 0.02,0.01 0.01,0 0.02,0.01 0.01,0.01 0.01,0 0.02,0.01 0.01,0.01 0.01,0.01 0.01,0.02 0.01,0.01 0.01,0.01 0.01,0.02 0.01,0.01 0.01,0.02 0.01,0.02 0,0.01 0,0.01 0,0.01 0.01,0.01 0,0.01 0,0.01 0,0.01 0,0.01 0.01,0.01 0,0.02 0,0.01 0,0.01 0,0.02 0,0.01 c 0,0.54 -0.17,1.84 -1.85,1.84 l -0.06,-0.32 c 0.85,0 0.96,-0.87 0.96,-1.23 0,-0.17 -0.06,-0.29 -0.32,-0.29 h -1.73 c 0,0.38 0.14,1.52 1.09,1.52 l 0.06,0.32 c -1.43,0 -2.11,-1.01 -2.11,-2.39 0,-1.45 0.62,-2.34 2.12,-2.32 1.01,0.01 1.54,0.57 1.78,1.29 l -0.27,0.15 c -0.26,-0.53 -0.61,-0.97 -1.33,-0.97 -1.14,0 -1.37,1.1 -1.35,2.05 z"
   inkscape:connector-curvature="0"
   style="fill:#000000;stroke-width:0" />
<path
   id="path4189"
   d="m 235.1,713.87 -0.06,0.05 -1.44,-0.23 v -0.22 l 0.35,-0.04 c 0.24,-0.03 0.29,-0.08 0.29,-0.42 v -5.09 c 0,-0.47 -0.03,-0.49 -0.69,-0.53 v -0.27 h 2.24 v 0.27 c -0.65,0.04 -0.69,0.06 -0.69,0.53 z"
   inkscape:connector-curvature="0"
   style="fill:#000000;stroke-width:0" />
<path
   id="path4191"
   d="m 238.91,711.25 v 0.36 h -1.18 v 1.16 h -0.26 l -0.56,-1.16 h -0.7 v -0.36 h 0.66 v -3.19 c 0,-0.94 0.7,-1.05 1.02,-1.05 0.47,0 0.91,0.24 1.17,0.41 l -0.07,0.19 c -0.22,-0.09 -0.42,-0.12 -0.65,-0.12 -0.31,0 -0.61,0.22 -0.61,0.92 v 2.84 z"
   inkscape:connector-curvature="0"
   style="fill:#000000;stroke-width:0" />
<path
   id="path4193"
   d="m 239.42,711.49 v -0.22 l 0.34,-0.05 c 0.24,-0.04 0.3,-0.08 0.3,-0.41 v -2.89 c 0,-0.47 -0.03,-0.49 -0.69,-0.53 v -0.27 h 2.24 v 0.27 c -0.65,0.04 -0.69,0.06 -0.69,0.53 v 3.75 l -0.06,0.05 z"
   inkscape:connector-curvature="0"
   style="fill:#000000;stroke-width:0" />
<path
   id="path4195"
   d="m 240.48,713.68 -0.03,0 -0.03,-0.01 -0.03,0 -0.03,0 -0.03,-0.01 -0.02,-0.01 -0.03,-0.01 -0.03,-0.01 -0.02,-0.01 -0.03,-0.01 -0.02,-0.01 -0.02,-0.02 -0.02,-0.01 -0.02,-0.02 -0.02,-0.02 -0.02,-0.01 -0.02,-0.02 -0.02,-0.02 -0.01,-0.03 -0.02,-0.02 -0.01,-0.02 -0.02,-0.02 -0.01,-0.03 -0.01,-0.02 -0.01,-0.03 -0.01,-0.03 0,-0.02 -0.01,-0.03 0,-0.03 -0.01,-0.03 0,-0.03 0,-0.03 c 0,-0.32 0.23,-0.55 0.56,-0.55 0.34,0 0.55,0.23 0.56,0.55 0,0.33 -0.22,0.57 -0.56,0.57 z"
   inkscape:connector-curvature="0"
   style="fill:#000000;stroke-width:0" />
<path
   id="path4197"
   d="m 245.79,709.53 0.02,0 0.02,0 0.01,0 0.02,0.01 0.02,0 0.02,0 0.01,0 0.02,0 0.01,0.01 0.02,0 0.02,0.01 0.01,0 0.01,0.01 0.02,0.01 0.01,0 0.02,0.01 0.01,0.01 0.01,0.01 0.01,0.02 0.01,0.01 0.01,0.01 0.01,0.02 0.01,0.01 0.01,0.02 0,0.02 0.01,0.01 0,0.01 0,0.01 0,0.01 0.01,0.01 0,0.01 0,0.01 0,0.01 0,0.01 0,0.02 0,0.01 0.01,0.01 0,0.02 0,0.01 c 0,0.54 -0.18,1.84 -1.86,1.84 l -0.05,-0.32 c 0.85,0 0.95,-0.87 0.95,-1.23 0,-0.17 -0.05,-0.29 -0.31,-0.29 h -1.73 c 0,0.38 0.14,1.52 1.09,1.52 l 0.05,0.32 c -1.42,0 -2.1,-1.01 -2.1,-2.39 0,-1.45 0.62,-2.34 2.11,-2.32 1.02,0.01 1.54,0.57 1.79,1.29 l -0.27,0.15 c -0.26,-0.53 -0.61,-0.97 -1.33,-0.97 -1.14,0 -1.37,1.1 -1.35,2.05 z"
   inkscape:connector-curvature="0"
   style="fill:#000000;stroke-width:0" />
<path
   id="path4199"
   d="m 248.19,711.72 -1.39,-0.23 v -0.22 l 0.35,-0.05 c 0.23,-0.04 0.29,-0.08 0.29,-0.41 v -2.89 c 0,-0.47 -0.05,-0.49 -0.69,-0.53 v -0.27 h 2.42 v 0.27 c -0.82,0.04 -0.87,0.06 -0.87,0.53 v 2.15 c 0,0.7 0.31,0.94 0.52,0.94 0.15,0 0.31,-0.06 0.57,-0.2 0.07,-0.04 0.14,-0.05 0.18,-0.05 0.22,0 0.42,0.23 0.42,0.52 0,0.2 -0.12,0.44 -0.48,0.44 -0.33,0 -0.61,-0.2 -1.21,-0.73 z"
   inkscape:connector-curvature="0"
   style="fill:#000000;stroke-width:0" />
<path
   id="path4201"
   d="m 254.83,707.49 -0.05,0 -0.05,0 -0.05,0.01 -0.04,0 -0.05,0.01 -0.04,0.01 -0.05,0.01 -0.04,0.01 -0.08,0.03 -0.08,0.03 -0.07,0.04 -0.07,0.04 -0.06,0.05 -0.06,0.05 -0.06,0.05 -0.05,0.06 -0.05,0.07 -0.05,0.06 -0.04,0.07 -0.04,0.08 -0.04,0.07 -0.03,0.08 -0.03,0.08 -0.03,0.08 -0.02,0.08 -0.02,0.08 -0.02,0.09 -0.02,0.08 -0.01,0.09 -0.01,0.08 -0.01,0.09 -0.01,0.08 -0.01,0.09 0,0.08 0,0.09 0,0.08 c 0,1.36 0.54,1.91 1.17,1.91 0.42,0 0.69,-0.3 0.87,-0.8 0.05,-0.14 0.11,-0.23 0.28,-0.23 0.19,0 0.54,0.12 0.54,0.47 0,0.42 -0.6,0.88 -1.59,0.88 -1.67,0 -2.23,-1.18 -2.23,-2.4 0,-1.53 0.75,-2.31 2.13,-2.31 0.64,0 1.5,0.34 1.76,1.32 l -0.27,0.13 c -0.28,-0.64 -0.65,-0.97 -1.32,-0.97 z"
   inkscape:connector-curvature="0"
   style="fill:#000000;stroke-width:0" />
<path
   id="path4203"
   d="m 259.27,711.72 -0.14,0 -0.13,-0.01 -0.13,-0.01 -0.12,-0.02 -0.12,-0.02 -0.11,-0.03 -0.11,-0.03 -0.1,-0.04 -0.1,-0.04 -0.1,-0.04 -0.09,-0.05 -0.09,-0.06 -0.08,-0.06 -0.08,-0.06 -0.08,-0.07 -0.07,-0.08 -0.06,-0.07 -0.07,-0.09 -0.05,-0.08 -0.06,-0.09 -0.05,-0.1 -0.04,-0.1 -0.04,-0.1 -0.04,-0.11 -0.03,-0.11 -0.03,-0.11 -0.02,-0.12 -0.02,-0.12 -0.01,-0.13 -0.01,-0.13 -0.01,-0.13 0,-0.14 c 0,-1.49 0.72,-2.36 2.19,-2.36 v 0.32 c -0.84,0 -1.24,0.77 -1.24,2.04 h 0 c 0,1.26 0.4,2.03 1.24,2.03 0.85,0 1.24,-0.77 1.24,-2.03 0,-1.27 -0.39,-2.04 -1.24,-2.04 v -0.32 c 1.48,0 2.2,0.87 2.2,2.36 0,1.48 -0.72,2.35 -2.2,2.35 z"
   inkscape:connector-curvature="0"
   style="fill:#000000;stroke-width:0" />
<path
   id="path4205"
   d="m 264.55,711.72 -0.13,0 -0.13,-0.01 -0.13,-0.01 -0.12,-0.02 -0.12,-0.02 -0.11,-0.03 -0.11,-0.03 -0.11,-0.04 -0.1,-0.04 -0.09,-0.04 -0.1,-0.05 -0.08,-0.06 -0.09,-0.06 -0.08,-0.06 -0.07,-0.07 -0.07,-0.08 -0.07,-0.07 -0.06,-0.09 -0.06,-0.08 -0.05,-0.09 -0.05,-0.1 -0.04,-0.1 -0.04,-0.1 -0.04,-0.11 -0.03,-0.11 -0.03,-0.11 -0.02,-0.12 -0.02,-0.12 -0.02,-0.13 -0.01,-0.13 0,-0.13 -0.01,-0.14 c 0,-1.49 0.73,-2.36 2.19,-2.36 v 0.32 c -0.83,0 -1.23,0.77 -1.23,2.04 h 0 c 0,1.26 0.4,2.03 1.23,2.03 0.86,0 1.25,-0.77 1.25,-2.03 0,-1.27 -0.39,-2.04 -1.25,-2.04 v -0.32 c 1.49,0 2.2,0.87 2.2,2.36 0,1.48 -0.71,2.35 -2.2,2.35 z"
   inkscape:connector-curvature="0"
   style="fill:#000000;stroke-width:0" />
<path
   id="path4207"
   d="m 268.94,713.87 -0.06,0.05 -1.44,-0.23 v -0.22 l 0.35,-0.04 c 0.24,-0.03 0.29,-0.08 0.29,-0.42 v -5.09 c 0,-0.47 -0.03,-0.49 -0.69,-0.53 v -0.27 h 2.24 v 0.27 c -0.65,0.04 -0.69,0.06 -0.69,0.53 z"
   inkscape:connector-curvature="0"
   style="fill:#000000;stroke-width:0" />
<path
   id="path4209"
   d="m 273.81,709.53 0.02,0 0.02,0 0.01,0 0.02,0.01 0.02,0 0.02,0 0.01,0 0.02,0 0.01,0.01 0.02,0 0.02,0.01 0.01,0 0.01,0.01 0.02,0.01 0.01,0 0.02,0.01 0.01,0.01 0.01,0.01 0.01,0.02 0.01,0.01 0.01,0.01 0.01,0.02 0.01,0.01 0.01,0.02 0,0.02 0.01,0.01 0,0.01 0,0.01 0,0.01 0.01,0.01 0,0.01 0,0.01 0,0.01 0,0.01 0,0.02 0,0.01 0.01,0.01 0,0.02 0,0.01 c 0,0.54 -0.18,1.84 -1.85,1.84 l -0.06,-0.32 c 0.85,0 0.95,-0.87 0.95,-1.23 0,-0.17 -0.05,-0.29 -0.31,-0.29 h -1.73 c 0,0.38 0.14,1.52 1.09,1.52 l 0.06,0.32 c -1.44,0 -2.11,-1.01 -2.11,-2.39 0,-1.45 0.62,-2.34 2.11,-2.32 1.02,0.01 1.54,0.57 1.79,1.29 l -0.27,0.15 c -0.26,-0.53 -0.61,-0.97 -1.33,-0.97 -1.14,0 -1.37,1.1 -1.35,2.05 z"
   inkscape:connector-curvature="0"
   style="fill:#000000;stroke-width:0" />
<path
   id="path4211"
   d="m 276.22,711.72 -1.4,-0.23 v -0.22 l 0.35,-0.05 c 0.24,-0.04 0.3,-0.08 0.3,-0.41 v -2.89 c 0,-0.47 -0.05,-0.49 -0.69,-0.53 v -0.27 h 2.42 v 0.27 c -0.82,0.04 -0.87,0.06 -0.87,0.53 v 2.15 c 0,0.7 0.31,0.94 0.52,0.94 0.15,0 0.3,-0.06 0.57,-0.2 0.06,-0.04 0.14,-0.05 0.18,-0.05 0.22,0 0.42,0.23 0.42,0.52 0,0.2 -0.13,0.44 -0.48,0.44 -0.33,0 -0.61,-0.2 -1.21,-0.73 z"
   inkscape:connector-curvature="0"
   style="fill:#000000;stroke-width:0" />
</g>    <path
       transform="matrix(-1,0,0,1,688.66769,-21.374369)"
       d="m -149.24749,616.22882 c 0,14.36712 -11.64685,26.01397 -26.01397,26.01397 -14.36712,0 -26.01396,-11.64685 -26.01396,-26.01397 0,-14.36712 11.64684,-26.01396 26.01396,-26.01396 14.36712,0 26.01397,11.64684 26.01397,26.01396 z"
       sodipodi:ry="26.013966"
       sodipodi:rx="26.013966"
       sodipodi:cy="616.22882"
       sodipodi:cx="-175.26146"
       id="path3817"
       style="fill:#646464;fill-opacity:0.6507937;stroke:#000000;stroke-width:1.875;stroke-linecap:round;stroke-linejoin:miter;stroke-miterlimit:4;stroke-opacity:1;stroke-dasharray:none;stroke-dashoffset:0"
       sodipodi:type="arc" />
  </g>
</svg>
