<?xml version="1.0" encoding="UTF-8" standalone="no"?>
<!-- Created with Inkscape (http://www.inkscape.org/) -->
<svg
   xmlns:dc="http://purl.org/dc/elements/1.1/"
   xmlns:cc="http://creativecommons.org/ns#"
   xmlns:rdf="http://www.w3.org/1999/02/22-rdf-syntax-ns#"
   xmlns:svg="http://www.w3.org/2000/svg"
   xmlns="http://www.w3.org/2000/svg"
   xmlns:sodipodi="http://sodipodi.sourceforge.net/DTD/sodipodi-0.dtd"
   xmlns:inkscape="http://www.inkscape.org/namespaces/inkscape"
   width="281.32175"
   height="86.106003"
   id="svg2912"
   sodipodi:version="0.32"
   inkscape:version="0.46"
   version="1.0"
   sodipodi:docname="PRES ParisTech.svg"
   inkscape:output_extension="org.inkscape.output.svg.inkscape">
  <defs
     id="defs2914">
    <clipPath
       clipPathUnits="userSpaceOnUse"
       id="clipPath2460">
      <path
         d="M 0,0 L 595.276,0 L 595.276,841.89 L 0,841.89 L 0,0 z"
         id="path2462" />
    </clipPath>
    <clipPath
       clipPathUnits="userSpaceOnUse"
       id="clipPath2512">
      <path
         d="M 0,0 L 595.276,0 L 595.276,841.89 L 0,841.89 L 0,0 z"
         id="path2514" />
    </clipPath>
    <clipPath
       clipPathUnits="userSpaceOnUse"
       id="clipPath2526">
      <path
         d="M 0,0 L 595.276,0 L 595.276,841.89 L 0,841.89 L 0,0 z"
         id="path2528" />
    </clipPath>
    <clipPath
       clipPathUnits="userSpaceOnUse"
       id="clipPath2540">
      <path
         d="M 0,0 L 595.276,0 L 595.276,841.89 L 0,841.89 L 0,0 z"
         id="path2542" />
    </clipPath>
    <clipPath
       clipPathUnits="userSpaceOnUse"
       id="clipPath2566">
      <path
         d="M 0,0 L 595.276,0 L 595.276,841.89 L 0,841.89 L 0,0 z"
         id="path2568" />
    </clipPath>
    <clipPath
       clipPathUnits="userSpaceOnUse"
       id="clipPath2586">
      <path
         d="M 0,0 L 595.276,0 L 595.276,841.89 L 0,841.89 L 0,0 z"
         id="path2588" />
    </clipPath>
    <clipPath
       clipPathUnits="userSpaceOnUse"
       id="clipPath2610">
      <path
         d="M 0,0 L 595.276,0 L 595.276,841.89 L 0,841.89 L 0,0 z"
         id="path2612" />
    </clipPath>
    <clipPath
       clipPathUnits="userSpaceOnUse"
       id="clipPath2626">
      <path
         d="M 0,0 L 595.276,0 L 595.276,841.89 L 0,841.89 L 0,0 z"
         id="path2628" />
    </clipPath>
    <clipPath
       clipPathUnits="userSpaceOnUse"
       id="clipPath2646">
      <path
         d="M 0,0 L 595.276,0 L 595.276,841.89 L 0,841.89 L 0,0 z"
         id="path2648" />
    </clipPath>
    <clipPath
       clipPathUnits="userSpaceOnUse"
       id="clipPath2668">
      <path
         d="M 0,0 L 595.276,0 L 595.276,841.89 L 0,841.89 L 0,0 z"
         id="path2670" />
    </clipPath>
    <clipPath
       clipPathUnits="userSpaceOnUse"
       id="clipPath2694">
      <path
         d="M 0,0 L 595.276,0 L 595.276,841.89 L 0,841.89 L 0,0 z"
         id="path2696" />
    </clipPath>
    <clipPath
       clipPathUnits="userSpaceOnUse"
       id="clipPath2710">
      <path
         d="M 0,0 L 595.276,0 L 595.276,841.89 L 0,841.89 L 0,0 z"
         id="path2712" />
    </clipPath>
    <clipPath
       clipPathUnits="userSpaceOnUse"
       id="clipPath2726">
      <path
         d="M 0,0 L 595.276,0 L 595.276,841.89 L 0,841.89 L 0,0 z"
         id="path2728" />
    </clipPath>
    <clipPath
       clipPathUnits="userSpaceOnUse"
       id="clipPath2752">
      <path
         d="M 0,0 L 595.276,0 L 595.276,841.89 L 0,841.89 L 0,0 z"
         id="path2754" />
    </clipPath>
    <clipPath
       clipPathUnits="userSpaceOnUse"
       id="clipPath2772">
      <path
         d="M 0,0 L 595.276,0 L 595.276,841.89 L 0,841.89 L 0,0 z"
         id="path2774" />
    </clipPath>
    <clipPath
       clipPathUnits="userSpaceOnUse"
       id="clipPath2800">
      <path
         d="M 0,0 L 595.276,0 L 595.276,841.89 L 0,841.89 L 0,0 z"
         id="path2802" />
    </clipPath>
    <clipPath
       clipPathUnits="userSpaceOnUse"
       id="clipPath2816">
      <path
         d="M 0,0 L 595.276,0 L 595.276,841.89 L 0,841.89 L 0,0 z"
         id="path2818" />
    </clipPath>
    <clipPath
       clipPathUnits="userSpaceOnUse"
       id="clipPath2836">
      <path
         d="M 0,0 L 595.276,0 L 595.276,841.89 L 0,841.89 L 0,0 z"
         id="path2838" />
    </clipPath>
    <inkscape:perspective
       sodipodi:type="inkscape:persp3d"
       inkscape:vp_x="0 : 526.18109 : 1"
       inkscape:vp_y="0 : 1000 : 0"
       inkscape:vp_z="744.09448 : 526.18109 : 1"
       inkscape:persp3d-origin="372.04724 : 350.78739 : 1"
       id="perspective2920" />
  </defs>
  <sodipodi:namedview
     id="base"
     pagecolor="#ffffff"
     bordercolor="#666666"
     borderopacity="1.0"
     inkscape:pageopacity="0.0"
     inkscape:pageshadow="2"
     inkscape:zoom="3.298714"
     inkscape:cx="140.66088"
     inkscape:cy="43.053003"
     inkscape:document-units="px"
     inkscape:current-layer="layer1"
     showgrid="false"
     inkscape:window-width="1024"
     inkscape:window-height="712"
     inkscape:window-x="-4"
     inkscape:window-y="-4" />
  <metadata
     id="metadata2917">
    <rdf:RDF>
      <cc:Work
         rdf:about="">
        <dc:format>image/svg+xml</dc:format>
        <dc:type
           rdf:resource="http://purl.org/dc/dcmitype/StillImage" />
      </cc:Work>
    </rdf:RDF>
  </metadata>
  <g
     inkscape:label="Calque 1"
     inkscape:groupmode="layer"
     id="layer1"
     transform="translate(354.94659,7.833675)">
    <g
       transform="matrix(1.25,0,0,-1.25,-603.86396,137.44145)"
       id="g2456">
      <g
         id="g2458"
         clip-path="url(#clipPath2460)">
        <g
           id="g2464"
           transform="translate(204.9094,114.0481)">
          <path
             d="M 0,0 C 1.967,0.111 6.619,0.166 9.438,-0.057 C 14.615,-0.445 16.846,-3.45 16.846,-7.232 C 16.846,-12.184 13.045,-15.689 6.489,-16.244 C 4.262,-16.411 1.638,-16.411 0,-16.244 L 0,0 z M 0,-18.43 C 1.638,-18.43 5.898,-18.821 8.848,-18.319 C 18.085,-16.749 22.847,-13.686 22.847,-6.954 C 22.847,-0.224 18.671,2.172 5.964,2.172 L -5.729,2.172 L -5.729,-35.892 C -4.818,-35.839 -3.842,-35.752 -2.865,-35.752 C -1.953,-35.752 -1.042,-35.839 0,-35.892 L 0,-18.43 z"
             style="fill:#0098a4;fill-opacity:1;fill-rule:nonzero;stroke:none"
             id="path2466" />
        </g>
        <g
           id="g2468"
           transform="translate(244.3415,90.4537)">
          <path
             d="M 0,0 C 0,-1.528 0.072,-2.469 -0.141,-3.997 C -0.633,-7.402 -3.313,-11.162 -7.755,-11.398 C -11.491,-11.633 -13.253,-8.695 -12.971,-5.994 C -12.338,0.059 -10.01,-0.705 -2.818,1.526 L 0,2.407 L 0,0 z M 0,3.7 L -1.058,3.288 C -3.454,2.349 -3.384,2.467 -7.755,1.526 C -12.902,0.411 -18.189,-0.235 -18.469,-6.109 C -18.612,-9.812 -14.733,-12.631 -10.363,-12.866 C -6.062,-13.102 -1.762,-11.222 -0.351,-7.639 L -0.351,-12.161 L 8.249,-12.161 L 8.249,-11.162 L 5.288,-11.162 L 5.288,5.228 C 5.288,9.576 4.514,13.629 -4.793,14.04 C -7.332,14.157 -6.949,13.924 -8.78,13.687 C -10.896,13.394 -12.871,12.748 -14.28,12.219 L -14.28,4.348 L -13.012,4.348 L -11.46,7.636 C -10.122,10.457 -9.94,13.512 -5.357,13.1 C -0.774,12.689 0,10.162 0,7.46 L 0,3.7 z"
             style="fill:#0098a4;fill-opacity:1;fill-rule:nonzero;stroke:none"
             id="path2470" />
        </g>
        <g
           id="g2472"
           transform="translate(270.2197,78.2928)">
          <path
             d="M 0,0 L -12.76,0 L -12.76,0.998 L -9.587,0.998 L -9.587,24.497 L -12.901,24.497 L -12.901,25.555 L -4.652,25.555 L -4.652,20.207 C -4.301,22.148 -1.339,25.731 3.313,25.731 C 4.653,25.731 5.852,25.436 7.19,24.85 L 7.19,15.568 L 5.852,15.568 L 4.16,19.856 C 2.962,22.853 2.045,24.79 0.212,23.91 C -4.581,21.62 -4.16,16.098 -4.16,10.926 L -4.16,0.998 L 0,0.998 L 0,0 z"
             style="fill:#0098a4;fill-opacity:1;fill-rule:nonzero;stroke:none"
             id="path2474" />
        </g>
        <g
           id="g2476"
           transform="translate(280.4573,78.2928)">
          <path
             d="M 0,0 L 0,0.998 L 3.243,0.998 L 3.243,24.497 L 0.212,24.497 L 0.212,25.555 L 8.742,25.555 L 8.742,0.998 L 11.631,0.998 L 11.631,0 L 0,0 z M 8.882,31.489 C 8.882,29.843 7.261,28.668 5.428,28.668 C 3.666,28.668 2.045,29.962 2.045,31.429 C 2.045,32.899 3.594,34.31 5.358,34.31 C 7.261,34.31 8.882,33.016 8.882,31.489"
             style="fill:#0098a4;fill-opacity:1;fill-rule:nonzero;stroke:none"
             id="path2478" />
        </g>
        <g
           id="g2480"
           transform="translate(314.1468,97.856)">
          <path
             d="M 0,0 C -1.338,3.995 -2.68,5.581 -6.348,5.581 C -9.518,5.581 -13.539,4.522 -13.821,1.291 C -14.031,-1.588 -10.435,-2.763 -7.194,-3.644 C -1.693,-5.23 4.724,-6.874 4.514,-11.985 C 4.37,-16.861 -0.492,-20.446 -7.123,-20.327 C -10.929,-20.269 -15.228,-19.035 -16.711,-18.154 L -16.711,-9.753 L -15.44,-9.753 L -13.96,-13.982 C -12.338,-18.744 -10.507,-18.8 -7.614,-19.035 C -3.597,-19.388 0.988,-17.744 1.338,-14.452 C 1.834,-10.399 -4.655,-9.343 -8.743,-8.108 C -11.634,-7.227 -17.273,-5.641 -17.273,-0.823 C -17.273,4.816 -9.942,6.697 -6.065,6.697 C -2.822,6.697 0.917,5.639 2.255,4.934 L 2.255,-2.763 L 0.917,-2.763 L 0,0 z"
             style="fill:#0098a4;fill-opacity:1;fill-rule:nonzero;stroke:none"
             id="path2482" />
        </g>
        <g
           id="g2484"
           transform="translate(346.4395,116.219)">
          <path
             d="M 0,0 L -34.048,0 L -33.882,-0.995 L -33.766,-1.875 L -33.891,-2.827 L -34.058,-3.799 L -33.725,-3.757 C -30.445,-3.467 -26.362,-3.113 -19.665,-3.103 L -19.665,-37.932 L -16.547,-37.841 L -13.433,-37.932 L -13.427,-37.669 L -13.427,-3.107 C -8.802,-3.116 -4.291,-3.329 -0.023,-3.755 L 0.295,-3.787 L 0.207,-3.113 L 0.101,-1.875 L 0.196,-0.771 L 0.289,0.001 L 0,0 z"
             style="fill:#000000;fill-opacity:1;fill-rule:nonzero;stroke:none"
             id="path2486" />
        </g>
        <g
           id="g2488"
           transform="translate(364.5576,93.9051)">
          <path
             d="M 0,0 C 0.042,0.349 0.063,0.701 0.063,1.052 C 0.063,3.421 -0.861,5.785 -2.548,7.667 C -4.695,10.057 -7.76,11.358 -11.181,11.33 C -18.183,11.216 -23.596,5.508 -24.053,-2.246 C -24.262,-6.105 -22.978,-9.681 -20.441,-12.321 C -17.939,-14.921 -14.499,-16.32 -10.753,-16.262 C -4.301,-16.135 -0.395,-11.205 0.003,-6.632 L 0.094,-5.531 L -1.752,-5.531 L -1.844,-6.465 C -2.195,-9.979 -5.056,-14.803 -10.319,-14.521 C -15.37,-14.283 -17.623,-10.719 -17.623,-2.967 L -17.623,-0.224 L -0.025,-0.224 L 0,0 z M -6.435,1.403 L -17.572,1.403 C -17.485,1.892 -17.063,4.274 -17.063,4.274 C -16.607,6.885 -14.532,9.587 -11.453,9.705 C -10.172,9.766 -9.106,9.406 -8.281,8.638 C -7.197,7.628 -6.546,5.901 -6.498,3.901 C -6.498,3.901 -6.451,2.074 -6.435,1.403"
             style="fill:#000000;fill-opacity:1;fill-rule:nonzero;stroke:none"
             id="path2490" />
        </g>
        <g
           id="g2492"
           transform="translate(381.968,105.4107)">
          <path
             d="M 0,0 C -8.953,-0.32 -13.783,-7.36 -13.783,-13.825 C -13.783,-20.482 -9.319,-27.591 -1.05,-27.651 C 3.17,-27.701 8.454,-26.178 9.636,-18.623 L 9.894,-17.037 L 8.115,-17.037 L 7.723,-19.124 C 7.111,-22.237 4.834,-25.853 0.435,-25.792 C -6.329,-25.737 -7.06,-19.764 -7.212,-14.17 C -7.301,-10.627 -6.882,-5.868 -4.373,-3.338 C -3.174,-2.128 -1.583,-1.533 0.354,-1.568 C 3.379,-1.621 5.17,-3.663 6.742,-8.846 C 6.745,-8.852 7.507,-11.142 7.507,-11.142 L 9.284,-11.142 L 9.284,-1.799 L 9.142,-1.73 C 5.972,-0.179 2.421,0.067 0,0"
             style="fill:#000000;fill-opacity:1;fill-rule:nonzero;stroke:none"
             id="path2494" />
        </g>
        <g
           id="g2496"
           transform="translate(404.5965,113.5202)">
          <path
             d="M 0,0 L -8.783,0 L -8.783,-1.568 L -5.609,-1.568 L -5.609,-33.666 L -8.572,-33.666 L -8.572,-35.172 L 4.276,-35.172 L 4.276,-33.666 L 0.256,-33.666 L 0.256,-22.757 C 0.256,-14.795 2.367,-10.862 6.708,-10.733 C 7.893,-10.699 8.755,-10.961 9.343,-11.532 C 10.435,-12.595 10.465,-14.589 10.465,-16.72 L 10.465,-33.666 L 6.729,-33.666 L 6.729,-35.172 L 19.292,-35.172 L 19.292,-33.666 L 16.191,-33.666 L 16.191,-16.764 C 16.191,-11.23 14.117,-9.119 8.269,-8.697 C 4.784,-8.429 1.594,-10.569 0.256,-12.586 L 0.256,0 L 0,0 z"
             style="fill:#000000;fill-opacity:1;fill-rule:nonzero;stroke:none"
             id="path2498" />
        </g>
        <g
           id="g2500"
           transform="translate(199.1339,54.4756)">
          <path
             d="M 0,0 L 2.33,0 C 3.236,0 3.715,-0.081 4.168,-0.326 C 4.879,-0.714 5.247,-1.298 5.247,-2.001 C 5.247,-2.716 5.039,-3.247 4.487,-3.665 C 3.921,-4.084 3.31,-4.217 2.452,-4.217 L 0.981,-4.217 L 0.981,-7.007 L 0,-7.007 L 0,0 z M 0.981,-0.703 L 0.981,-3.532 L 2.39,-3.532 C 3.102,-3.532 3.42,-3.421 3.702,-3.155 C 3.997,-2.881 4.132,-2.562 4.132,-2.166 C 4.132,-1.644 3.984,-1.298 3.642,-1.051 C 3.298,-0.805 2.844,-0.703 2.047,-0.703 L 0.981,-0.703 z"
             style="fill:#000000;fill-opacity:1;fill-rule:nonzero;stroke:none"
             id="path2502" />
        </g>
      </g>
    </g>
    <g
       id="g2504"
       transform="matrix(1.25,0,0,-1.25,-340.73496,69.34695)">
      <path
         d="M 0,0 L 2.782,-7.007 L 1.643,-7.007 L 0.845,-4.852 L -2.293,-4.852 L -3.103,-7.007 L -4.119,-7.007 L -1.313,0 L 0,0 z M 0.588,-4.165 L -0.699,-0.735 L -2.025,-4.165 L 0.588,-4.165 z"
         style="fill:#000000;fill-opacity:1;fill-rule:nonzero;stroke:none"
         id="path2506" />
    </g>
    <g
       transform="matrix(1.25,0,0,-1.25,-603.86396,137.44145)"
       id="g2508">
      <g
         id="g2510"
         clip-path="url(#clipPath2512)">
        <g
           id="g2516"
           transform="translate(216.6157,54.4756)">
          <path
             d="M 0,0 L 1.962,0 C 3.114,0 3.677,-0.172 4.081,-0.448 C 4.462,-0.703 4.915,-1.173 4.915,-1.918 C 4.915,-3.073 4.022,-3.839 2.686,-3.839 L 2.561,-3.839 C 2.954,-4.106 3.236,-4.432 3.407,-4.627 C 3.765,-5.024 5.345,-7.007 5.345,-7.007 L 4.081,-7.007 C 3.837,-6.548 3.053,-5.474 1.937,-4.29 C 1.605,-3.943 1.422,-3.85 1.006,-3.839 L 1.006,-7.007 L 0,-7.007 L 0,0 z M 1.017,-0.703 L 1.017,-3.319 L 1.912,-3.319 C 2.661,-3.319 3.114,-3.206 3.432,-2.962 C 3.715,-2.746 3.862,-2.369 3.862,-1.909 C 3.862,-1.45 3.517,-1.009 3.041,-0.846 C 2.771,-0.755 2.439,-0.703 1.986,-0.703 L 1.017,-0.703 z"
             style="fill:#000000;fill-opacity:1;fill-rule:nonzero;stroke:none"
             id="path2518" />
        </g>
      </g>
    </g>
    <path
       d="M -322.25271,69.34645 L -321.02646,69.34645 L -321.02646,78.1052 L -322.25271,78.1052 L -322.25271,69.34645 z"
       style="fill:#000000;fill-opacity:1;fill-rule:nonzero;stroke:none"
       id="path2520" />
    <g
       transform="matrix(1.25,0,0,-1.25,-603.86396,137.44145)"
       id="g2522">
      <g
         id="g2524"
         clip-path="url(#clipPath2526)">
        <g
           id="g2530"
           transform="translate(235.425,53.9557)">
          <path
             d="M 0,0 L -0.44,-0.604 C -1.251,-0.163 -1.766,-0.009 -2.487,-0.009 C -3.544,-0.009 -4.168,-0.448 -4.168,-1.164 C -4.168,-1.726 -3.763,-2.042 -2.771,-2.308 L -1.803,-2.564 C -1.055,-2.759 -0.663,-2.942 -0.318,-3.27 C 0.024,-3.595 0.234,-4.066 0.234,-4.504 C 0.234,-5.16 -0.183,-5.793 -0.933,-6.191 C -1.484,-6.487 -2.048,-6.62 -2.82,-6.62 C -3.826,-6.62 -4.683,-6.415 -5.515,-5.987 L -5.075,-5.332 C -4.377,-5.752 -3.666,-5.934 -2.82,-5.934 C -2.182,-5.934 -1.838,-5.854 -1.484,-5.628 C -1.08,-5.373 -0.882,-5.037 -0.882,-4.626 C -0.882,-4.006 -1.373,-3.574 -2.39,-3.319 L -3.236,-3.105 C -3.997,-2.912 -4.401,-2.768 -4.732,-2.482 C -5.075,-2.176 -5.258,-1.787 -5.258,-1.338 C -5.258,-0.143 -4.168,0.674 -2.537,0.674 C -1.632,0.674 -0.798,0.45 0,0"
             style="fill:#000000;fill-opacity:1;fill-rule:nonzero;stroke:none"
             id="path2532" />
        </g>
      </g>
    </g>
    <path
       d="M -300.11396,69.34645 L -298.88771,69.34645 L -298.88771,78.1052 L -300.11396,78.1052 L -300.11396,69.34645 z"
       style="fill:#000000;fill-opacity:1;fill-rule:nonzero;stroke:none"
       id="path2534" />
    <g
       transform="matrix(1.25,0,0,-1.25,-603.86396,137.44145)"
       id="g2536">
      <g
         id="g2538"
         clip-path="url(#clipPath2540)">
        <g
           id="g2544"
           transform="translate(248.5371,54.4756)">
          <path
             d="M 0,0 L 1.166,0 L 3.961,-4.473 C 4.403,-5.168 4.745,-5.946 4.745,-5.946 C 4.745,-5.946 4.646,-4.82 4.633,-3.809 L 4.597,0 L 5.591,0 L 5.591,-7.007 L 4.538,-7.007 L 1.84,-2.716 C 1.301,-1.868 0.883,-1.031 0.883,-1.031 C 0.883,-1.031 0.98,-2.03 0.995,-2.94 L 1.042,-7.007 L 0,-7.007 L 0,0 z"
             style="fill:#000000;fill-opacity:1;fill-rule:nonzero;stroke:none"
             id="path2546" />
        </g>
        <g
           id="g2548"
           transform="translate(263.2107,53.9557)">
          <path
             d="M 0,0 L -0.441,-0.604 C -1.249,-0.163 -1.763,-0.009 -2.489,-0.009 C -3.544,-0.009 -4.168,-0.448 -4.168,-1.164 C -4.168,-1.726 -3.763,-2.042 -2.77,-2.308 L -1.801,-2.564 C -1.055,-2.759 -0.663,-2.942 -0.318,-3.27 C 0.023,-3.595 0.233,-4.066 0.233,-4.504 C 0.233,-5.16 -0.183,-5.793 -0.931,-6.191 C -1.484,-6.487 -2.049,-6.62 -2.82,-6.62 C -3.824,-6.62 -4.685,-6.415 -5.517,-5.987 L -5.077,-5.332 C -4.378,-5.752 -3.666,-5.934 -2.82,-5.934 C -2.184,-5.934 -1.839,-5.854 -1.484,-5.628 C -1.078,-5.373 -0.884,-5.037 -0.884,-4.626 C -0.884,-4.006 -1.372,-3.574 -2.39,-3.319 L -3.237,-3.105 C -3.995,-2.912 -4.4,-2.768 -4.732,-2.482 C -5.077,-2.176 -5.26,-1.787 -5.26,-1.338 C -5.26,-0.143 -4.168,0.674 -2.538,0.674 C -1.629,0.674 -0.798,0.45 0,0"
             style="fill:#000000;fill-opacity:1;fill-rule:nonzero;stroke:none"
             id="path2550" />
        </g>
      </g>
    </g>
    <g
       id="g2552"
       transform="matrix(1.25,0,0,-1.25,-271.31259,69.34695)">
      <path
         d="M 0,0 L 5.566,0 L 5.506,-0.703 L 3.224,-0.703 L 3.224,-7.007 L 2.255,-7.007 L 2.255,-0.703 L 0,-0.703 L 0,0 z"
         style="fill:#000000;fill-opacity:1;fill-rule:nonzero;stroke:none"
         id="path2554" />
    </g>
    <path
       d="M -260.35521,69.34645 L -259.12896,69.34645 L -259.12896,78.1052 L -260.35521,78.1052 L -260.35521,69.34645 z"
       style="fill:#000000;fill-opacity:1;fill-rule:nonzero;stroke:none"
       id="path2556" />
    <g
       id="g2558"
       transform="matrix(1.25,0,0,-1.25,-255.16146,69.34695)">
      <path
         d="M 0,0 L 5.565,0 L 5.506,-0.703 L 3.224,-0.703 L 3.224,-7.007 L 2.255,-7.007 L 2.255,-0.703 L 0,-0.703 L 0,0 z"
         style="fill:#000000;fill-opacity:1;fill-rule:nonzero;stroke:none"
         id="path2560" />
    </g>
    <g
       transform="matrix(1.25,0,0,-1.25,-603.86396,137.44145)"
       id="g2562">
      <g
         id="g2564"
         clip-path="url(#clipPath2566)">
        <g
           id="g2570"
           transform="translate(287.725,54.4756)">
          <path
             d="M 0,0 L 0.993,0 L 0.993,-4.717 C 0.993,-5.065 1.028,-5.515 1.141,-5.73 C 1.301,-6.037 1.753,-6.413 2.784,-6.413 C 3.481,-6.413 4.009,-6.26 4.266,-5.974 C 4.548,-5.658 4.586,-5.352 4.586,-4.882 L 4.586,0 L 5.578,0 L 5.578,-4.983 C 5.578,-5.832 5.443,-6.232 4.94,-6.589 C 4.426,-6.955 3.751,-7.129 2.733,-7.129 C 1.435,-7.129 0.699,-6.813 0.244,-6.118 C 0.025,-5.78 0,-5.331 0,-5.024 L 0,0 z"
             style="fill:#000000;fill-opacity:1;fill-rule:nonzero;stroke:none"
             id="path2572" />
        </g>
      </g>
    </g>
    <g
       id="g2574"
       transform="matrix(1.25,0,0,-1.25,-233.32683,69.34695)">
      <path
         d="M 0,0 L 5.564,0 L 5.505,-0.703 L 3.223,-0.703 L 3.223,-7.007 L 2.255,-7.007 L 2.255,-0.703 L 0,-0.703 L 0,0 z"
         style="fill:#000000;fill-opacity:1;fill-rule:nonzero;stroke:none"
         id="path2576" />
    </g>
    <g
       id="g2578"
       transform="matrix(1.25,0,0,-1.25,-222.56721,69.34695)">
      <path
         d="M 0,0 L 4.599,0 L 4.464,-0.695 L 1.019,-0.695 L 1.019,-2.993 L 3.9,-2.993 L 3.9,-3.717 L 1.019,-3.717 L 1.019,-6.282 L 4.721,-6.282 L 4.721,-7.007 L 0,-7.007 L 0,0 z"
         style="fill:#000000;fill-opacity:1;fill-rule:nonzero;stroke:none"
         id="path2580" />
    </g>
    <g
       transform="matrix(1.25,0,0,-1.25,-603.86396,137.44145)"
       id="g2582">
      <g
         id="g2584"
         clip-path="url(#clipPath2586)">
        <g
           id="g2590"
           transform="translate(321.2578,54.6003)">
          <path
             d="M 0,0 C 1.459,0 2.243,-0.645 2.647,-1.146 C 3.174,-1.798 3.407,-2.616 3.407,-3.74 C 3.407,-5.09 3.039,-5.936 2.183,-6.591 C 1.556,-7.06 0.918,-7.265 0.048,-7.265 C -0.98,-7.265 -1.778,-6.917 -2.343,-6.375 C -3.005,-5.741 -3.346,-4.792 -3.346,-3.597 C -3.346,-1.37 -2.071,0 0,0 M 0,-0.675 C -0.786,-0.675 -1.484,-0.992 -1.801,-1.49 C -2.097,-1.952 -2.23,-2.554 -2.23,-3.424 C -2.23,-4.475 -2.022,-5.394 -1.691,-5.864 C -1.373,-6.315 -0.588,-6.62 0.099,-6.62 C 0.784,-6.62 1.287,-6.416 1.666,-6.017 C 2.085,-5.579 2.281,-5.017 2.281,-3.862 C 2.281,-2.831 2.158,-2.126 1.874,-1.635 C 1.581,-1.115 0.967,-0.675 0,-0.675"
             style="fill:#000000;fill-opacity:1;fill-rule:nonzero;stroke:none"
             id="path2592" />
        </g>
      </g>
    </g>
    <g
       id="g2594"
       transform="matrix(1.25,0,0,-1.25,-194.21809,69.34695)">
      <path
         d="M 0,0 L 4.424,0 L 4.266,-0.695 L 1.015,-0.695 L 1.015,-2.993 L 3.714,-2.993 L 3.714,-3.677 L 1.015,-3.677 L 1.015,-7.007 L 0,-7.007 L 0,0 z"
         style="fill:#000000;fill-opacity:1;fill-rule:nonzero;stroke:none"
         id="path2596" />
    </g>
    <g
       id="g2598"
       transform="matrix(1.25,0,0,-1.25,-179.23096,69.34695)">
      <path
         d="M 0,0 L 5.566,0 L 5.505,-0.703 L 3.224,-0.703 L 3.224,-7.007 L 2.256,-7.007 L 2.256,-0.703 L 0,-0.703 L 0,0 z"
         style="fill:#000000;fill-opacity:1;fill-rule:nonzero;stroke:none"
         id="path2600" />
    </g>
    <g
       id="g2602"
       transform="matrix(1.25,0,0,-1.25,-168.28658,69.34695)">
      <path
         d="M 0,0 L 4.595,0 L 4.461,-0.695 L 1.015,-0.695 L 1.015,-2.993 L 3.896,-2.993 L 3.896,-3.717 L 1.015,-3.717 L 1.015,-6.282 L 4.717,-6.282 L 4.717,-7.007 L 0,-7.007 L 0,0 z"
         style="fill:#000000;fill-opacity:1;fill-rule:nonzero;stroke:none"
         id="path2604" />
    </g>
    <g
       transform="matrix(1.25,0,0,-1.25,-603.86396,137.44145)"
       id="g2606">
      <g
         id="g2608"
         clip-path="url(#clipPath2610)">
        <g
           id="g2614"
           transform="translate(361.5059,53.9961)">
          <path
             d="M 0,0 L -0.539,-0.542 C -1.042,-0.235 -1.518,-0.102 -2.133,-0.102 C -3.102,-0.102 -3.8,-0.52 -4.204,-1.307 C -4.45,-1.777 -4.559,-2.338 -4.559,-3.166 C -4.559,-3.841 -4.487,-4.238 -4.289,-4.648 C -3.861,-5.526 -2.992,-5.955 -2.035,-5.955 C -1.409,-5.955 -0.932,-5.822 -0.393,-5.506 L 0.146,-6.069 C -0.527,-6.434 -1.36,-6.639 -2.195,-6.639 C -3.102,-6.639 -3.996,-6.322 -4.645,-5.711 C -5.358,-5.035 -5.651,-4.086 -5.651,-3.043 C -5.651,-0.959 -4.155,0.572 -2.121,0.572 C -1.312,0.572 -0.575,0.367 0,0"
             style="fill:#000000;fill-opacity:1;fill-rule:nonzero;stroke:none"
             id="path2616" />
        </g>
      </g>
    </g>
    <g
       id="g2618"
       transform="matrix(1.25,0,0,-1.25,-148.12946,69.34695)">
      <path
         d="M 0,0 L 0.983,0 L 0.983,-2.931 L 4.525,-2.931 L 4.525,0 L 5.529,0 L 5.529,-7.007 L 4.525,-7.007 L 4.525,-3.616 L 0.983,-3.616 L 0.983,-7.007 L 0,-7.007 L 0,0 z"
         style="fill:#000000;fill-opacity:1;fill-rule:nonzero;stroke:none"
         id="path2620" />
    </g>
    <g
       transform="matrix(1.25,0,0,-1.25,-603.86396,137.44145)"
       id="g2622">
      <g
         id="g2624"
         clip-path="url(#clipPath2626)">
        <g
           id="g2630"
           transform="translate(374.2499,54.4756)">
          <path
             d="M 0,0 L 1.165,0 L 3.959,-4.473 C 4.401,-5.168 4.745,-5.946 4.745,-5.946 C 4.745,-5.946 4.645,-4.82 4.633,-3.809 L 4.597,0 L 5.589,0 L 5.589,-7.007 L 4.536,-7.007 L 1.839,-2.716 C 1.3,-1.868 0.884,-1.031 0.884,-1.031 C 0.884,-1.031 0.982,-2.03 0.994,-2.94 L 1.042,-7.007 L 0,-7.007 L 0,0 z"
             style="fill:#000000;fill-opacity:1;fill-rule:nonzero;stroke:none"
             id="path2632" />
        </g>
        <g
           id="g2634"
           transform="translate(386.7794,54.6003)">
          <path
             d="M 0,0 C 1.458,0 2.242,-0.645 2.647,-1.146 C 3.174,-1.798 3.407,-2.616 3.407,-3.74 C 3.407,-5.09 3.039,-5.936 2.182,-6.591 C 1.558,-7.06 0.918,-7.265 0.05,-7.265 C -0.981,-7.265 -1.777,-6.917 -2.343,-6.375 C -3.003,-5.741 -3.346,-4.792 -3.346,-3.597 C -3.346,-1.37 -2.072,0 0,0 M 0,-0.675 C -0.785,-0.675 -1.482,-0.992 -1.802,-1.49 C -2.097,-1.952 -2.232,-2.554 -2.232,-3.424 C -2.232,-4.475 -2.022,-5.394 -1.693,-5.864 C -1.373,-6.315 -0.589,-6.62 0.099,-6.62 C 0.784,-6.62 1.288,-6.416 1.667,-6.017 C 2.085,-5.579 2.279,-5.017 2.279,-3.862 C 2.279,-2.831 2.156,-2.126 1.874,-1.635 C 1.581,-1.115 0.969,-0.675 0,-0.675"
             style="fill:#000000;fill-opacity:1;fill-rule:nonzero;stroke:none"
             id="path2636" />
        </g>
      </g>
    </g>
    <g
       id="g2638"
       transform="matrix(1.25,0,0,-1.25,-112.13783,69.34695)">
      <path
         d="M 0,0 L 1.006,0 L 1.006,-6.302 L 4.327,-6.302 L 4.192,-7.007 L 0,-7.007 L 0,0 z"
         style="fill:#000000;fill-opacity:1;fill-rule:nonzero;stroke:none"
         id="path2640" />
    </g>
    <g
       transform="matrix(1.25,0,0,-1.25,-603.86396,137.44145)"
       id="g2642">
      <g
         id="g2644"
         clip-path="url(#clipPath2646)">
        <g
           id="g2650"
           transform="translate(403.0432,54.6003)">
          <path
             d="M 0,0 C 1.459,0 2.243,-0.645 2.647,-1.146 C 3.174,-1.798 3.407,-2.616 3.407,-3.74 C 3.407,-5.09 3.039,-5.936 2.183,-6.591 C 1.557,-7.06 0.918,-7.265 0.049,-7.265 C -0.98,-7.265 -1.777,-6.917 -2.343,-6.375 C -3.004,-5.741 -3.346,-4.792 -3.346,-3.597 C -3.346,-1.37 -2.07,0 0,0 M 0,-0.675 C -0.785,-0.675 -1.482,-0.992 -1.801,-1.49 C -2.097,-1.952 -2.232,-2.554 -2.232,-3.424 C -2.232,-4.475 -2.021,-5.394 -1.691,-5.864 C -1.373,-6.315 -0.587,-6.62 0.099,-6.62 C 0.786,-6.62 1.287,-6.416 1.668,-6.017 C 2.084,-5.579 2.281,-5.017 2.281,-3.862 C 2.281,-2.831 2.159,-2.126 1.876,-1.635 C 1.582,-1.115 0.968,-0.675 0,-0.675"
             style="fill:#000000;fill-opacity:1;fill-rule:nonzero;stroke:none"
             id="path2652" />
        </g>
        <g
           id="g2654"
           transform="translate(415.2214,53.8635)">
          <path
             d="M 0,0 L -0.453,-0.52 C -1.14,-0.134 -1.63,0.02 -2.28,0.02 C -3.261,0.02 -4.032,-0.356 -4.376,-1.165 C -4.597,-1.685 -4.707,-2.278 -4.707,-2.942 C -4.707,-3.861 -4.499,-4.607 -4.119,-5.068 C -3.738,-5.525 -2.882,-5.811 -2.083,-5.811 C -1.556,-5.811 -1.103,-5.719 -0.746,-5.536 L -0.746,-3.403 L -2.439,-3.403 L -2.635,-2.707 L 0.197,-2.707 L 0.197,-5.976 C -0.403,-6.302 -1.312,-6.506 -2.169,-6.506 C -3.224,-6.506 -4.119,-6.201 -4.757,-5.628 C -5.466,-4.986 -5.797,-4.118 -5.797,-2.911 C -5.797,-1.572 -5.368,-0.622 -4.499,0.031 C -3.898,0.481 -3.175,0.694 -2.304,0.694 C -1.409,0.694 -0.638,0.459 0,0"
             style="fill:#000000;fill-opacity:1;fill-rule:nonzero;stroke:none"
             id="path2656" />
        </g>
        <g
           id="g2658"
           transform="translate(417.7053,54.4756)">
          <path
             d="M 0,0 L 1.238,0 L 2.832,-2.675 C 3.066,-3.073 3.261,-3.462 3.261,-3.462 C 3.261,-3.462 3.471,-3.084 3.715,-2.675 L 5.332,0 L 6.486,0 L 3.751,-4.279 L 3.751,-7.007 L 2.709,-7.007 L 2.709,-4.228 L 0,0 z"
             style="fill:#000000;fill-opacity:1;fill-rule:nonzero;stroke:none"
             id="path2660" />
        </g>
      </g>
    </g>
    <path
       d="M -354.78271,54.2527 L -353.61396,54.2527 L -353.61396,63.2177 L -354.78271,63.2177 L -354.78271,54.2527 z"
       style="fill:#000000;fill-opacity:1;fill-rule:nonzero;stroke:none"
       id="path2662" />
    <g
       transform="matrix(1.25,0,0,-1.25,-603.86396,137.44145)"
       id="g2664">
      <g
         id="g2666"
         clip-path="url(#clipPath2668)">
        <g
           id="g2672"
           transform="translate(203.0709,66.5506)">
          <path
             d="M 0,0 L 1.111,0 L 3.776,-4.58 C 4.197,-5.291 4.523,-6.085 4.523,-6.085 C 4.523,-6.085 4.429,-4.934 4.42,-3.9 L 4.385,0 L 5.329,0 L 5.329,-7.172 L 4.326,-7.172 L 1.755,-2.782 C 1.24,-1.912 0.843,-1.056 0.843,-1.056 C 0.843,-1.056 0.937,-2.081 0.947,-3.009 L 0.993,-7.172 L 0,-7.172 L 0,0 z"
             style="fill:#000000;fill-opacity:1;fill-rule:nonzero;stroke:none"
             id="path2674" />
        </g>
        <g
           id="g2676"
           transform="translate(215.5813,66.0182)">
          <path
             d="M 0,0 L -0.422,-0.618 C -1.193,-0.17 -1.683,-0.013 -2.373,-0.013 C -3.379,-0.013 -3.975,-0.461 -3.975,-1.195 C -3.975,-1.768 -3.588,-2.093 -2.641,-2.364 L -1.718,-2.624 C -1.006,-2.823 -0.633,-3.013 -0.304,-3.347 C 0.024,-3.681 0.223,-4.162 0.223,-4.612 C 0.223,-5.279 -0.176,-5.928 -0.889,-6.337 C -1.414,-6.64 -1.953,-6.776 -2.69,-6.776 C -3.645,-6.776 -4.465,-6.568 -5.26,-6.127 L -4.84,-5.459 C -4.172,-5.887 -3.495,-6.075 -2.69,-6.075 C -2.081,-6.075 -1.754,-5.99 -1.414,-5.762 C -1.028,-5.502 -0.842,-5.157 -0.842,-4.737 C -0.842,-4.099 -1.311,-3.66 -2.279,-3.398 L -3.086,-3.179 C -3.81,-2.981 -4.197,-2.835 -4.512,-2.543 C -4.84,-2.227 -5.016,-1.831 -5.016,-1.37 C -5.016,-0.148 -3.975,0.689 -2.42,0.689 C -1.555,0.689 -0.762,0.459 0,0"
             style="fill:#000000;fill-opacity:1;fill-rule:nonzero;stroke:none"
             id="path2678" />
        </g>
      </g>
    </g>
    <g
       id="g2680"
       transform="matrix(1.25,0,0,-1.25,-332.32046,54.2532)">
      <path
         d="M 0,0 L 5.307,0 L 5.247,-0.721 L 3.073,-0.721 L 3.073,-7.172 L 2.15,-7.172 L 2.15,-0.721 L 0,-0.721 L 0,0 z"
         style="fill:#000000;fill-opacity:1;fill-rule:nonzero;stroke:none"
         id="path2682" />
    </g>
    <path
       d="M -323.90646,54.2527 L -322.73646,54.2527 L -322.73646,63.2177 L -323.90646,63.2177 L -323.90646,54.2527 z"
       style="fill:#000000;fill-opacity:1;fill-rule:nonzero;stroke:none"
       id="path2684" />
    <g
       id="g2686"
       transform="matrix(1.25,0,0,-1.25,-320.62058,54.2532)">
      <path
         d="M 0,0 L 5.305,0 L 5.248,-0.721 L 3.074,-0.721 L 3.074,-7.172 L 2.149,-7.172 L 2.149,-0.721 L 0,-0.721 L 0,0 z"
         style="fill:#000000;fill-opacity:1;fill-rule:nonzero;stroke:none"
         id="path2688" />
    </g>
    <g
       transform="matrix(1.25,0,0,-1.25,-603.86396,137.44145)"
       id="g2690">
      <g
         id="g2692"
         clip-path="url(#clipPath2694)">
        <g
           id="g2698"
           transform="translate(233.4752,66.5506)">
          <path
             d="M 0,0 L 0.947,0 L 0.947,-4.83 C 0.947,-5.185 0.982,-5.645 1.086,-5.865 C 1.24,-6.178 1.671,-6.567 2.654,-6.567 C 3.318,-6.567 3.823,-6.407 4.067,-6.116 C 4.337,-5.793 4.371,-5.479 4.371,-4.997 L 4.371,0 L 5.318,0 L 5.318,-5.104 C 5.318,-5.968 5.19,-6.377 4.71,-6.743 C 4.218,-7.119 3.575,-7.297 2.607,-7.297 C 1.368,-7.297 0.666,-6.974 0.234,-6.263 C 0.024,-5.918 0,-5.457 0,-5.144 L 0,0 z"
             style="fill:#000000;fill-opacity:1;fill-rule:nonzero;stroke:none"
             id="path2700" />
        </g>
      </g>
    </g>
    <g
       id="g2702"
       transform="matrix(1.25,0,0,-1.25,-303.49546,54.2532)">
      <path
         d="M 0,0 L 5.304,0 L 5.247,-0.721 L 3.073,-0.721 L 3.073,-7.172 L 2.15,-7.172 L 2.15,-0.721 L 0,-0.721 L 0,0 z"
         style="fill:#000000;fill-opacity:1;fill-rule:nonzero;stroke:none"
         id="path2704" />
    </g>
    <g
       transform="matrix(1.25,0,0,-1.25,-603.86396,137.44145)"
       id="g2706">
      <g
         id="g2708"
         clip-path="url(#clipPath2710)">
        <g
           id="g2714"
           transform="translate(250.5981,66.5506)">
          <path
             d="M 0,0 L 1.599,0 C 2.827,0 3.389,-0.052 4.172,-0.555 C 5.083,-1.141 5.527,-2.196 5.527,-3.595 C 5.527,-4.852 5.154,-5.74 4.616,-6.273 C 3.915,-6.974 3.213,-7.172 2.091,-7.172 L 0,-7.172 L 0,0 z M 0.958,-0.702 L 0.958,-6.46 L 1.917,-6.46 C 2.746,-6.46 3.517,-6.377 3.95,-5.708 C 4.313,-5.155 4.487,-4.455 4.487,-3.702 C 4.487,-2.625 4.335,-1.934 3.798,-1.36 C 3.271,-0.806 2.759,-0.702 1.917,-0.702 L 0.958,-0.702 z"
             style="fill:#000000;fill-opacity:1;fill-rule:nonzero;stroke:none"
             id="path2716" />
        </g>
      </g>
    </g>
    <g
       id="g2718"
       transform="matrix(1.25,0,0,-1.25,-280.96359,54.2532)">
      <path
         d="M 0,0 L 4.381,0 L 4.256,-0.711 L 0.971,-0.711 L 0.971,-3.065 L 3.716,-3.065 L 3.716,-3.807 L 0.971,-3.807 L 0.971,-6.431 L 4.5,-6.431 L 4.5,-7.172 L 0,-7.172 L 0,0 z"
         style="fill:#000000;fill-opacity:1;fill-rule:nonzero;stroke:none"
         id="path2720" />
    </g>
    <g
       transform="matrix(1.25,0,0,-1.25,-603.86396,137.44145)"
       id="g2722">
      <g
         id="g2724"
         clip-path="url(#clipPath2726)">
        <g
           id="g2730"
           transform="translate(269.9077,66.0182)">
          <path
             d="M 0,0 L -0.42,-0.618 C -1.191,-0.17 -1.683,-0.013 -2.373,-0.013 C -3.376,-0.013 -3.975,-0.461 -3.975,-1.195 C -3.975,-1.768 -3.588,-2.093 -2.641,-2.364 L -1.718,-2.624 C -1.006,-2.823 -0.63,-3.013 -0.304,-3.347 C 0.023,-3.681 0.223,-4.162 0.223,-4.612 C 0.223,-5.279 -0.176,-5.928 -0.887,-6.337 C -1.414,-6.64 -1.953,-6.776 -2.686,-6.776 C -3.645,-6.776 -4.464,-6.568 -5.26,-6.127 L -4.84,-5.459 C -4.172,-5.887 -3.495,-6.075 -2.686,-6.075 C -2.081,-6.075 -1.752,-5.99 -1.414,-5.762 C -1.028,-5.502 -0.842,-5.157 -0.842,-4.737 C -0.842,-4.099 -1.309,-3.66 -2.279,-3.398 L -3.085,-3.179 C -3.81,-2.981 -4.196,-2.835 -4.511,-2.543 C -4.84,-2.227 -5.014,-1.831 -5.014,-1.37 C -5.014,-0.148 -3.975,0.689 -2.42,0.689 C -1.555,0.689 -0.758,0.459 0,0"
             style="fill:#000000;fill-opacity:1;fill-rule:nonzero;stroke:none"
             id="path2732" />
        </g>
        <g
           id="g2734"
           transform="translate(280.0826,66.0182)">
          <path
             d="M 0,0 L -0.42,-0.618 C -1.191,-0.17 -1.683,-0.013 -2.373,-0.013 C -3.376,-0.013 -3.971,-0.461 -3.971,-1.195 C -3.971,-1.768 -3.586,-2.093 -2.639,-2.364 L -1.718,-2.624 C -1.003,-2.823 -0.63,-3.013 -0.304,-3.347 C 0.023,-3.681 0.223,-4.162 0.223,-4.612 C 0.223,-5.279 -0.176,-5.928 -0.887,-6.337 C -1.414,-6.64 -1.95,-6.776 -2.686,-6.776 C -3.645,-6.776 -4.464,-6.568 -5.26,-6.127 L -4.837,-5.459 C -4.172,-5.887 -3.495,-6.075 -2.686,-6.075 C -2.078,-6.075 -1.752,-5.99 -1.414,-5.762 C -1.028,-5.502 -0.84,-5.157 -0.84,-4.737 C -0.84,-4.099 -1.309,-3.66 -2.279,-3.398 L -3.084,-3.179 C -3.81,-2.981 -4.196,-2.835 -4.511,-2.543 C -4.837,-2.227 -5.014,-1.831 -5.014,-1.37 C -5.014,-0.148 -3.971,0.689 -2.42,0.689 C -1.555,0.689 -0.759,0.459 0,0"
             style="fill:#000000;fill-opacity:1;fill-rule:nonzero;stroke:none"
             id="path2736" />
        </g>
        <g
           id="g2738"
           transform="translate(286.9536,66.0586)">
          <path
             d="M 0,0 L -0.512,-0.553 C -0.992,-0.24 -1.446,-0.104 -2.031,-0.104 C -2.956,-0.104 -3.622,-0.533 -4.007,-1.339 C -4.241,-1.818 -4.346,-2.395 -4.346,-3.242 C -4.346,-3.931 -4.276,-4.338 -4.089,-4.757 C -3.68,-5.655 -2.849,-6.094 -1.939,-6.094 C -1.341,-6.094 -0.887,-5.959 -0.373,-5.636 L 0.141,-6.21 C -0.501,-6.586 -1.295,-6.796 -2.091,-6.796 C -2.956,-6.796 -3.808,-6.47 -4.429,-5.843 C -5.106,-5.153 -5.385,-4.181 -5.385,-3.116 C -5.385,-0.981 -3.961,0.586 -2.019,0.586 C -1.249,0.586 -0.548,0.376 0,0"
             style="fill:#000000;fill-opacity:1;fill-rule:nonzero;stroke:none"
             id="path2740" />
        </g>
      </g>
    </g>
    <path
       d="M -242.82021,54.2527 L -241.65271,54.2527 L -241.65271,63.2177 L -242.82021,63.2177 L -242.82021,54.2527 z"
       style="fill:#000000;fill-opacity:1;fill-rule:nonzero;stroke:none"
       id="path2742" />
    <g
       id="g2744"
       transform="matrix(1.25,0,0,-1.25,-238.52608,54.2532)">
      <path
         d="M 0,0 L 4.382,0 L 4.252,-0.711 L 0.968,-0.711 L 0.968,-3.065 L 3.714,-3.065 L 3.714,-3.807 L 0.968,-3.807 L 0.968,-6.431 L 4.498,-6.431 L 4.498,-7.172 L 0,-7.172 L 0,0 z"
         style="fill:#000000;fill-opacity:1;fill-rule:nonzero;stroke:none"
         id="path2746" />
    </g>
    <g
       transform="matrix(1.25,0,0,-1.25,-603.86396,137.44145)"
       id="g2748">
      <g
         id="g2750"
         clip-path="url(#clipPath2752)">
        <g
           id="g2756"
           transform="translate(298.8685,66.5506)">
          <path
             d="M 0,0 L 1.111,0 L 3.777,-4.58 C 4.196,-5.291 4.523,-6.085 4.523,-6.085 C 4.523,-6.085 4.429,-4.934 4.417,-3.9 L 4.384,0 L 5.331,0 L 5.331,-7.172 L 4.324,-7.172 L 1.755,-2.782 C 1.24,-1.912 0.842,-1.056 0.842,-1.056 C 0.842,-1.056 0.937,-2.081 0.947,-3.009 L 0.994,-7.172 L 0,-7.172 L 0,0 z"
             style="fill:#000000;fill-opacity:1;fill-rule:nonzero;stroke:none"
             id="path2758" />
        </g>
        <g
           id="g2760"
           transform="translate(311.4509,66.0586)">
          <path
             d="M 0,0 L -0.516,-0.553 C -0.995,-0.24 -1.451,-0.104 -2.034,-0.104 C -2.959,-0.104 -3.624,-0.533 -4.011,-1.339 C -4.244,-1.818 -4.349,-2.395 -4.349,-3.242 C -4.349,-3.931 -4.279,-4.338 -4.092,-4.757 C -3.683,-5.655 -2.852,-6.094 -1.94,-6.094 C -1.345,-6.094 -0.89,-5.959 -0.376,-5.636 L 0.138,-6.21 C -0.504,-6.586 -1.3,-6.796 -2.094,-6.796 C -2.959,-6.796 -3.812,-6.47 -4.429,-5.843 C -5.109,-5.153 -5.388,-4.181 -5.388,-3.116 C -5.388,-0.981 -3.962,0.586 -2.025,0.586 C -1.252,0.586 -0.552,0.376 0,0"
             style="fill:#000000;fill-opacity:1;fill-rule:nonzero;stroke:none"
             id="path2762" />
        </g>
      </g>
    </g>
    <g
       id="g2764"
       transform="matrix(1.25,0,0,-1.25,-212.20296,54.2532)">
      <path
         d="M 0,0 L 4.385,0 L 4.257,-0.711 L 0.972,-0.711 L 0.972,-3.065 L 3.718,-3.065 L 3.718,-3.807 L 0.972,-3.807 L 0.972,-6.431 L 4.501,-6.431 L 4.501,-7.172 L 0,-7.172 L 0,0 z"
         style="fill:#000000;fill-opacity:1;fill-rule:nonzero;stroke:none"
         id="path2766" />
    </g>
    <g
       transform="matrix(1.25,0,0,-1.25,-603.86396,137.44145)"
       id="g2768">
      <g
         id="g2770"
         clip-path="url(#clipPath2772)">
        <g
           id="g2776"
           transform="translate(324.483,66.0182)">
          <path
             d="M 0,0 L -0.421,-0.618 C -1.192,-0.17 -1.683,-0.013 -2.373,-0.013 C -3.377,-0.013 -3.974,-0.461 -3.974,-1.195 C -3.974,-1.768 -3.589,-2.093 -2.641,-2.364 L -1.719,-2.624 C -1.004,-2.823 -0.633,-3.013 -0.306,-3.347 C 0.024,-3.681 0.221,-4.162 0.221,-4.612 C 0.221,-5.279 -0.174,-5.928 -0.888,-6.337 C -1.414,-6.64 -1.951,-6.776 -2.687,-6.776 C -3.647,-6.776 -4.465,-6.568 -5.26,-6.127 L -4.838,-5.459 C -4.172,-5.887 -3.495,-6.075 -2.687,-6.075 C -2.08,-6.075 -1.754,-5.99 -1.414,-5.762 C -1.029,-5.502 -0.841,-5.157 -0.841,-4.737 C -0.841,-4.099 -1.309,-3.66 -2.281,-3.398 L -3.086,-3.179 C -3.81,-2.981 -4.196,-2.835 -4.512,-2.543 C -4.838,-2.227 -5.014,-1.831 -5.014,-1.37 C -5.014,-0.148 -3.974,0.689 -2.42,0.689 C -1.555,0.689 -0.76,0.459 0,0"
             style="fill:#000000;fill-opacity:1;fill-rule:nonzero;stroke:none"
             id="path2778" />
        </g>
      </g>
    </g>
    <g
       id="g2780"
       transform="matrix(1.25,0,0,-1.25,-191.92196,54.2532)">
      <path
         d="M 0,0 L 4.382,0 L 4.254,-0.711 L 0.97,-0.711 L 0.97,-3.065 L 3.718,-3.065 L 3.718,-3.807 L 0.97,-3.807 L 0.97,-6.431 L 4.501,-6.431 L 4.501,-7.172 L 0,-7.172 L 0,0 z"
         style="fill:#000000;fill-opacity:1;fill-rule:nonzero;stroke:none"
         id="path2782" />
    </g>
    <g
       id="g2784"
       transform="matrix(1.25,0,0,-1.25,-184.88259,54.2532)">
      <path
         d="M 0,0 L 5.306,0 L 5.249,-0.721 L 3.073,-0.721 L 3.073,-7.172 L 2.152,-7.172 L 2.152,-0.721 L 0,-0.721 L 0,0 z"
         style="fill:#000000;fill-opacity:1;fill-rule:nonzero;stroke:none"
         id="path2786" />
    </g>
    <g
       id="g2788"
       transform="matrix(1.25,0,0,-1.25,-173.56496,54.2532)">
      <path
         d="M 0,0 L 5.304,0 L 5.248,-0.721 L 3.072,-0.721 L 3.072,-7.172 L 2.147,-7.172 L 2.147,-0.721 L 0,-0.721 L 0,0 z"
         style="fill:#000000;fill-opacity:1;fill-rule:nonzero;stroke:none"
         id="path2790" />
    </g>
    <g
       id="g2792"
       transform="matrix(1.25,0,0,-1.25,-165.16846,54.2532)">
      <path
         d="M 0,0 L 4.382,0 L 4.257,-0.711 L 0.972,-0.711 L 0.972,-3.065 L 3.718,-3.065 L 3.718,-3.807 L 0.972,-3.807 L 0.972,-6.431 L 4.502,-6.431 L 4.502,-7.172 L 0,-7.172 L 0,0 z"
         style="fill:#000000;fill-opacity:1;fill-rule:nonzero;stroke:none"
         id="path2794" />
    </g>
    <g
       transform="matrix(1.25,0,0,-1.25,-603.86396,137.44145)"
       id="g2796">
      <g
         id="g2798"
         clip-path="url(#clipPath2800)">
        <g
           id="g2804"
           transform="translate(362.1973,66.0586)">
          <path
             d="M 0,0 L -0.513,-0.553 C -0.99,-0.24 -1.449,-0.104 -2.033,-0.104 C -2.956,-0.104 -3.62,-0.533 -4.009,-1.339 C -4.244,-1.818 -4.348,-2.395 -4.348,-3.242 C -4.348,-3.931 -4.278,-4.338 -4.091,-4.757 C -3.679,-5.655 -2.85,-6.094 -1.941,-6.094 C -1.344,-6.094 -0.887,-5.959 -0.374,-5.636 L 0.141,-6.21 C -0.501,-6.586 -1.296,-6.796 -2.091,-6.796 C -2.956,-6.796 -3.81,-6.47 -4.429,-5.843 C -5.106,-5.153 -5.388,-4.184 -5.388,-3.116 C -5.388,-0.981 -3.962,0.586 -2.022,0.586 C -1.25,0.586 -0.548,0.376 0,0"
             style="fill:#000000;fill-opacity:1;fill-rule:nonzero;stroke:none"
             id="path2806" />
        </g>
      </g>
    </g>
    <g
       id="g2808"
       transform="matrix(1.25,0,0,-1.25,-148.94821,54.2532)">
      <path
         d="M 0,0 L 0.936,0 L 0.936,-3.003 L 4.311,-3.003 L 4.311,0 L 5.271,0 L 5.271,-7.172 L 4.311,-7.172 L 4.311,-3.702 L 0.936,-3.702 L 0.936,-7.172 L 0,-7.172 L 0,0 z"
         style="fill:#000000;fill-opacity:1;fill-rule:nonzero;stroke:none"
         id="path2810" />
    </g>
    <g
       transform="matrix(1.25,0,0,-1.25,-603.86396,137.44145)"
       id="g2812">
      <g
         id="g2814"
         clip-path="url(#clipPath2816)">
        <g
           id="g2820"
           transform="translate(371.8023,66.5506)">
          <path
             d="M 0,0 L 1.11,0 L 3.774,-4.58 C 4.194,-5.291 4.523,-6.085 4.523,-6.085 C 4.523,-6.085 4.428,-4.934 4.417,-3.9 L 4.383,0 L 5.328,0 L 5.328,-7.172 L 4.323,-7.172 L 1.754,-2.782 C 1.238,-1.912 0.839,-1.056 0.839,-1.056 C 0.839,-1.056 0.934,-2.081 0.947,-3.009 L 0.992,-7.172 L 0,-7.172 L 0,0 z"
             style="fill:#000000;fill-opacity:1;fill-rule:nonzero;stroke:none"
             id="path2822" />
        </g>
        <g
           id="g2824"
           transform="translate(382.5552,66.6757)">
          <path
             d="M 0,0 C 1.391,0 2.139,-0.658 2.525,-1.17 C 3.027,-1.839 3.249,-2.677 3.249,-3.827 C 3.249,-5.207 2.898,-6.075 2.08,-6.743 C 1.484,-7.225 0.878,-7.434 0.049,-7.434 C -0.934,-7.434 -1.694,-7.078 -2.234,-6.523 C -2.864,-5.874 -3.192,-4.902 -3.192,-3.68 C -3.192,-1.401 -1.977,0 0,0 M 0,-0.689 C -0.747,-0.689 -1.415,-1.015 -1.719,-1.526 C -1.998,-1.996 -2.127,-2.614 -2.127,-3.501 C -2.127,-4.58 -1.928,-5.52 -1.613,-6.001 C -1.309,-6.46 -0.559,-6.776 0.094,-6.776 C 0.748,-6.776 1.227,-6.564 1.591,-6.159 C 1.986,-5.708 2.174,-5.132 2.174,-3.953 C 2.174,-2.896 2.058,-2.175 1.789,-1.673 C 1.508,-1.141 0.923,-0.689 0,-0.689"
             style="fill:#000000;fill-opacity:1;fill-rule:nonzero;stroke:none"
             id="path2826" />
        </g>
      </g>
    </g>
    <g
       id="g2828"
       transform="matrix(1.25,0,0,-1.25,-119.13221,54.2532)">
      <path
         d="M 0,0 L 0.956,0 L 0.956,-6.451 L 4.124,-6.451 L 3.995,-7.172 L 0,-7.172 L 0,0 z"
         style="fill:#000000;fill-opacity:1;fill-rule:nonzero;stroke:none"
         id="path2830" />
    </g>
    <g
       transform="matrix(1.25,0,0,-1.25,-603.86396,137.44145)"
       id="g2832">
      <g
         id="g2834"
         clip-path="url(#clipPath2836)">
        <g
           id="g2840"
           transform="translate(395.9418,66.6757)">
          <path
             d="M 0,0 C 1.392,0 2.141,-0.658 2.525,-1.17 C 3.028,-1.839 3.251,-2.677 3.251,-3.827 C 3.251,-5.207 2.898,-6.075 2.082,-6.743 C 1.484,-7.225 0.878,-7.434 0.047,-7.434 C -0.934,-7.434 -1.692,-7.078 -2.231,-6.523 C -2.861,-5.874 -3.191,-4.902 -3.191,-3.68 C -3.191,-1.401 -1.975,0 0,0 M 0,-0.689 C -0.746,-0.689 -1.413,-1.015 -1.716,-1.526 C -1.998,-1.996 -2.125,-2.614 -2.125,-3.501 C -2.125,-4.58 -1.928,-5.52 -1.613,-6.001 C -1.307,-6.46 -0.561,-6.776 0.094,-6.776 C 0.749,-6.776 1.227,-6.564 1.589,-6.159 C 1.987,-5.708 2.175,-5.132 2.175,-3.953 C 2.175,-2.896 2.057,-2.175 1.787,-1.673 C 1.508,-1.141 0.925,-0.689 0,-0.689"
             style="fill:#000000;fill-opacity:1;fill-rule:nonzero;stroke:none"
             id="path2842" />
        </g>
        <g
           id="g2844"
           transform="translate(406.4932,65.9235)">
          <path
             d="M 0,0 L -0.431,-0.532 C -1.088,-0.138 -1.555,0.02 -2.173,0.02 C -3.109,0.02 -3.843,-0.366 -4.172,-1.191 C -4.382,-1.725 -4.487,-2.332 -4.487,-3.012 C -4.487,-3.952 -4.288,-4.716 -3.927,-5.184 C -3.564,-5.657 -2.746,-5.949 -1.986,-5.949 C -1.483,-5.949 -1.052,-5.854 -0.711,-5.667 L -0.711,-3.482 L -2.324,-3.482 L -2.512,-2.771 L 0.188,-2.771 L 0.188,-6.115 C -0.386,-6.45 -1.251,-6.661 -2.067,-6.661 C -3.074,-6.661 -3.927,-6.347 -4.533,-5.761 C -5.211,-5.103 -5.527,-4.213 -5.527,-2.981 C -5.527,-1.611 -5.119,-0.638 -4.288,0.031 C -3.715,0.493 -3.025,0.712 -2.196,0.712 C -1.345,0.712 -0.608,0.471 0,0"
             style="fill:#000000;fill-opacity:1;fill-rule:nonzero;stroke:none"
             id="path2846" />
        </g>
      </g>
    </g>
    <path
       d="M -92.152714,54.2527 L -90.982714,54.2527 L -90.982714,63.2177 L -92.152714,63.2177 L -92.152714,54.2527 z"
       style="fill:#000000;fill-opacity:1;fill-rule:nonzero;stroke:none"
       id="path2848" />
    <g
       id="g2850"
       transform="matrix(1.25,0,0,-1.25,-88.040714,54.2532)">
      <path
         d="M 0,0 L 4.382,0 L 4.254,-0.711 L 0.969,-0.711 L 0.969,-3.065 L 3.715,-3.065 L 3.715,-3.807 L 0.969,-3.807 L 0.969,-6.431 L 4.5,-6.431 L 4.5,-7.172 L 0,-7.172 L 0,0 z"
         style="fill:#000000;fill-opacity:1;fill-rule:nonzero;stroke:none"
         id="path2852" />
    </g>
    <g
       id="g2862"
       transform="matrix(1.25,0,0,-1.25,-73.919084,54.9187)">
      <path
         d="M 0,0 L -0.42,-0.618 C -1.191,-0.17 -1.683,-0.013 -2.373,-0.013 C -3.376,-0.013 -3.973,-0.461 -3.973,-1.195 C -3.973,-1.768 -3.586,-2.093 -2.639,-2.364 L -1.718,-2.624 C -1.004,-2.823 -0.63,-3.013 -0.304,-3.347 C 0.025,-3.681 0.223,-4.162 0.223,-4.612 C 0.223,-5.279 -0.175,-5.928 -0.886,-6.337 C -1.413,-6.64 -1.951,-6.776 -2.688,-6.776 C -3.645,-6.776 -4.464,-6.568 -5.259,-6.127 L -4.838,-5.459 C -4.172,-5.887 -3.493,-6.075 -2.688,-6.075 C -2.08,-6.075 -1.754,-5.99 -1.413,-5.762 C -1.028,-5.502 -0.84,-5.157 -0.84,-4.737 C -0.84,-4.099 -1.311,-3.66 -2.279,-3.398 L -3.086,-3.179 C -3.811,-2.981 -4.197,-2.835 -4.511,-2.543 C -4.838,-2.227 -5.012,-1.831 -5.012,-1.37 C -5.012,-0.148 -3.973,0.689 -2.42,0.689 C -1.555,0.689 -0.759,0.459 0,0"
         style="fill:#000000;fill-opacity:1;fill-rule:nonzero;stroke:none"
         id="path2864" />
    </g>
  </g>
</svg>
