<?xml version="1.0" encoding="UTF-8" standalone="no"?>
<!-- Created with Inkscape (http://www.inkscape.org/) -->

<svg
   xmlns:ns0="http://www.iki.fi/pav/software/textext/"
   xmlns:dc="http://purl.org/dc/elements/1.1/"
   xmlns:cc="http://creativecommons.org/ns#"
   xmlns:rdf="http://www.w3.org/1999/02/22-rdf-syntax-ns#"
   xmlns:svg="http://www.w3.org/2000/svg"
   xmlns="http://www.w3.org/2000/svg"
   xmlns:xlink="http://www.w3.org/1999/xlink"
   xmlns:sodipodi="http://sodipodi.sourceforge.net/DTD/sodipodi-0.dtd"
   xmlns:inkscape="http://www.inkscape.org/namespaces/inkscape"
   width="567.0625"
   height="309.3125"
   id="svg2"
   version="1.1"
   inkscape:version="0.48.1 "
   sodipodi:docname="darcy2.svg">
  <sodipodi:namedview
     id="base"
     pagecolor="#ffffff"
     bordercolor="#666666"
     borderopacity="1.0"
     inkscape:pageopacity="0.0"
     inkscape:pageshadow="2"
     inkscape:zoom="1.5600306"
     inkscape:cx="315.18098"
     inkscape:cy="150.50374"
     inkscape:document-units="px"
     inkscape:current-layer="layer1"
     showgrid="false"
     inkscape:window-width="942"
     inkscape:window-height="1001"
     inkscape:window-x="0"
     inkscape:window-y="0"
     inkscape:window-maximized="1"
     fit-margin-top="0"
     fit-margin-left="0"
     fit-margin-right="0"
     fit-margin-bottom="0"
     showguides="true"
     inkscape:guide-bbox="true" />
  <defs
     id="defs4">
    <marker
       inkscape:stockid="Arrow2Lstart"
       orient="auto"
       refY="0.0"
       refX="0.0"
       id="Arrow2Lstart"
       style="overflow:visible">
      <path
         id="path5503"
         style="font-size:12.0;fill-rule:evenodd;stroke-width:0.62500000;stroke-linejoin:round"
         d="M 8.7185878,4.0337352 L -2.2072895,0.016013256 L 8.7185884,-4.0017078 C 6.9730900,-1.6296469 6.9831476,1.6157441 8.7185878,4.0337352 z "
         transform="scale(1.1) translate(1,0)" />
    </marker>
    <linearGradient
       inkscape:collect="always"
       id="linearGradient4125">
      <stop
         style="stop-color:#58a1c9;stop-opacity:1"
         offset="0"
         id="stop4127" />
      <stop
         style="stop-color:#ff5555;stop-opacity:1"
         offset="1"
         id="stop4129" />
    </linearGradient>
    <linearGradient
       id="linearGradient3916">
      <stop
         style="stop-color:#ffaeae;stop-opacity:1;"
         offset="0"
         id="stop3918" />
      <stop
         style="stop-color:#c6d2ff;stop-opacity:1;"
         offset="1"
         id="stop3920" />
    </linearGradient>
    <marker
       style="overflow:visible"
       id="DotM"
       refX="0"
       refY="0"
       orient="auto"
       inkscape:stockid="DotM">
      <path
         transform="matrix(0.4,0,0,0.4,2.96,0.4)"
         style="fill-rule:evenodd;stroke:#000000;stroke-width:1pt;marker-start:none;marker-end:none"
         d="m -2.5,-1 c 0,2.76 -2.24,5 -5,5 -2.76,0 -5,-2.24 -5,-5 0,-2.76 2.24,-5 5,-5 2.76,0 5,2.24 5,5 z"
         id="path4883"
         inkscape:connector-curvature="0" />
    </marker>
    <marker
       style="overflow:visible"
       id="DotL"
       refX="0"
       refY="0"
       orient="auto"
       inkscape:stockid="DotL">
      <path
         transform="matrix(0.8,0,0,0.8,5.92,0.8)"
         style="fill-rule:evenodd;stroke:#000000;stroke-width:1pt;marker-start:none;marker-end:none"
         d="m -2.5,-1 c 0,2.76 -2.24,5 -5,5 -2.76,0 -5,-2.24 -5,-5 0,-2.76 2.24,-5 5,-5 2.76,0 5,2.24 5,5 z"
         id="path4880"
         inkscape:connector-curvature="0" />
    </marker>
    <marker
       style="overflow:visible"
       id="Arrow1Lend"
       refX="0"
       refY="0"
       orient="auto"
       inkscape:stockid="Arrow1Lend">
      <path
         transform="matrix(-0.8,0,0,-0.8,-10,0)"
         style="fill-rule:evenodd;stroke:#000000;stroke-width:1pt;marker-start:none"
         d="M 0,0 5,-5 -12.5,0 5,5 0,0 z"
         id="path3968"
         inkscape:connector-curvature="0" />
    </marker>
    <marker
       style="overflow:visible"
       id="Arrow1Mend"
       refX="0"
       refY="0"
       orient="auto"
       inkscape:stockid="Arrow1Mend">
      <path
         inkscape:connector-curvature="0"
         transform="matrix(-0.4,0,0,-0.4,-4,0)"
         style="fill-rule:evenodd;stroke:#000000;stroke-width:1pt;marker-start:none"
         d="M 0,0 5,-5 -12.5,0 5,5 0,0 z"
         id="path4310" />
    </marker>
    <marker
       style="overflow:visible"
       id="Tail"
       refX="0"
       refY="0"
       orient="auto"
       inkscape:stockid="Tail">
      <g
         transform="scale(-1.2,-1.2)"
         id="g4337">
        <path
           inkscape:connector-curvature="0"
           style="fill:none;stroke:#000000;stroke-width:0.80000001;stroke-linecap:round;marker-start:none;marker-end:none"
           d="M -3.8048674,-3.9585227 0.54352094,0"
           id="path4339" />
        <path
           inkscape:connector-curvature="0"
           style="fill:none;stroke:#000000;stroke-width:0.80000001;stroke-linecap:round;marker-start:none;marker-end:none"
           d="M -1.2866832,-3.9585227 3.0617053,0"
           id="path4341" />
        <path
           inkscape:connector-curvature="0"
           style="fill:none;stroke:#000000;stroke-width:0.80000001;stroke-linecap:round;marker-start:none;marker-end:none"
           d="M 1.3053582,-3.9585227 5.6537466,0"
           id="path4343" />
        <path
           inkscape:connector-curvature="0"
           style="fill:none;stroke:#000000;stroke-width:0.80000001;stroke-linecap:round;marker-start:none;marker-end:none"
           d="M -3.8048674,4.1775838 0.54352094,0.21974226"
           id="path4345" />
        <path
           inkscape:connector-curvature="0"
           style="fill:none;stroke:#000000;stroke-width:0.80000001;stroke-linecap:round;marker-start:none;marker-end:none"
           d="M -1.2866832,4.1775838 3.0617053,0.21974226"
           id="path4347" />
        <path
           inkscape:connector-curvature="0"
           style="fill:none;stroke:#000000;stroke-width:0.80000001;stroke-linecap:round;marker-start:none;marker-end:none"
           d="M 1.3053582,4.1775838 5.6537466,0.21974226"
           id="path4349" />
      </g>
    </marker>
    <marker
       style="overflow:visible"
       id="Arrow1Mstart"
       refX="0"
       refY="0"
       orient="auto"
       inkscape:stockid="Arrow1Mstart">
      <path
         inkscape:connector-curvature="0"
         transform="matrix(0.4,0,0,0.4,4,0)"
         style="fill-rule:evenodd;stroke:#000000;stroke-width:1pt;marker-start:none"
         d="M 0,0 5,-5 -12.5,0 5,5 0,0 z"
         id="path4307" />
    </marker>
    <marker
       inkscape:stockid="Arrow2Lend"
       orient="auto"
       refY="0"
       refX="0"
       id="Arrow2Lend"
       style="overflow:visible">
      <path
         id="path4009"
         style="fill-rule:evenodd;stroke-width:0.625;stroke-linejoin:round"
         d="M 8.7185878,4.0337352 -2.2072895,0.01601326 8.7185884,-4.0017078 c -1.7454984,2.3720609 -1.7354408,5.6174519 -6e-7,8.035443 z"
         transform="matrix(-1.1,0,0,-1.1,-1.1,0)"
         inkscape:connector-curvature="0" />
    </marker>
    <marker
       inkscape:stockid="Arrow2Lend"
       orient="auto"
       refY="0"
       refX="0"
       id="marker3212"
       style="overflow:visible">
      <path
         id="path3214"
         style="fill-rule:evenodd;stroke-width:0.625;stroke-linejoin:round"
         d="M 8.7185878,4.0337352 -2.2072895,0.01601326 8.7185884,-4.0017078 c -1.7454984,2.3720609 -1.7354408,5.6174519 -6e-7,8.035443 z"
         transform="matrix(-1.1,0,0,-1.1,-1.1,0)"
         inkscape:connector-curvature="0" />
    </marker>
    <marker
       inkscape:stockid="Arrow2Lend"
       orient="auto"
       refY="0"
       refX="0"
       id="marker3216"
       style="overflow:visible">
      <path
         id="path3218"
         style="fill-rule:evenodd;stroke-width:0.625;stroke-linejoin:round"
         d="M 8.7185878,4.0337352 -2.2072895,0.01601326 8.7185884,-4.0017078 c -1.7454984,2.3720609 -1.7354408,5.6174519 -6e-7,8.035443 z"
         transform="matrix(-1.1,0,0,-1.1,-1.1,0)"
         inkscape:connector-curvature="0" />
    </marker>
    <clipPath
       id="clipPath4318"
       clipPathUnits="userSpaceOnUse">
      <path
         inkscape:connector-curvature="0"
         id="path4320"
         d="m 790.33629,382.96836 -122.73354,41.16371 -39.39595,6.81853 0,198.24244 162.38202,0 z"
         style="fill:none;stroke:#000000;stroke-width:1px;stroke-linecap:butt;stroke-linejoin:miter;stroke-opacity:1" />
    </clipPath>
    <clipPath
       id="clipPath4322"
       clipPathUnits="userSpaceOnUse">
      <path
         inkscape:connector-curvature="0"
         id="path4324"
         d="m 790.33629,382.96836 -122.73354,41.16371 -39.39595,6.81853 0,198.24244 162.38202,0 z"
         style="fill:none;stroke:#000000;stroke-width:1px;stroke-linecap:butt;stroke-linejoin:miter;stroke-opacity:1" />
    </clipPath>
    <linearGradient
       inkscape:collect="always"
       xlink:href="#linearGradient3916"
       id="linearGradient4624"
       gradientUnits="userSpaceOnUse"
       gradientTransform="translate(-2648.3288,0)"
       x1="1347.9144"
       y1="547.96124"
       x2="1298.0364"
       y2="547.96124" />
    <linearGradient
       inkscape:collect="always"
       xlink:href="#linearGradient4125"
       id="linearGradient4626"
       gradientUnits="userSpaceOnUse"
       x1="657.76672"
       y1="534.68982"
       x2="642.97186"
       y2="534.68988" />
  </defs>
  <metadata
     id="metadata7">
    <rdf:RDF>
      <cc:Work
         rdf:about="">
        <dc:format>image/svg+xml</dc:format>
        <dc:type
           rdf:resource="http://purl.org/dc/dcmitype/StillImage" />
        <dc:title></dc:title>
      </cc:Work>
    </rdf:RDF>
  </metadata>
  <g
     id="layer1"
     inkscape:groupmode="layer"
     inkscape:label="Layer 1"
     transform="translate(-1025.125,27.40625)">
    <rect
       style="fill:#aeffae;fill-opacity:1;stroke:#000000;stroke-width:1;stroke-linecap:round;stroke-linejoin:round;stroke-miterlimit:4;stroke-opacity:1;stroke-dasharray:none;stroke-dashoffset:0"
       id="rect3076"
       width="527.55377"
       height="268.01114"
       x="983.07397"
       y="369.62296" />
    <rect
       style="fill:url(#linearGradient4624);fill-opacity:1;stroke:#000000;stroke-width:1;stroke-linecap:round;stroke-linejoin:round;stroke-miterlimit:4;stroke-opacity:1;stroke-dasharray:none;stroke-dashoffset:0"
       id="rect3868"
       width="169.08421"
       height="200.343"
       x="-1408.7065"
       y="437.29108"
       transform="scale(-1,1)" />
    <rect
       style="fill:#ffaeae;fill-opacity:1;stroke:#000000;stroke-width:1;stroke-linecap:round;stroke-linejoin:round;stroke-miterlimit:4;stroke-opacity:1;stroke-dasharray:none;stroke-dashoffset:0"
       id="rect3864"
       width="269.23923"
       height="200.343"
       x="983.07397"
       y="437.29108" />
    <rect
       y="437.29108"
       x="1397.3115"
       height="200.343"
       width="113.31618"
       id="rect3870"
       style="fill:#c6d2ff;fill-opacity:1;stroke:#000000;stroke-width:1;stroke-linecap:round;stroke-linejoin:round;stroke-miterlimit:4;stroke-opacity:1;stroke-dasharray:none;stroke-dashoffset:0" />
    <g
       id="g3926"
       transform="matrix(2.3391531,-0.02672199,-0.02672199,-2.3391531,777.78024,2290.7635)"
       xml:space="preserve"
       stroke-miterlimit="10.433"
       font-style="normal"
       font-variant="normal"
       font-weight="normal"
       font-stretch="normal"
       font-size-adjust="none"
       letter-spacing="normal"
       word-spacing="normal"
       ns0:text="liquid (l)"
       ns0:preamble="C:\\Users\\RASPI\\Desktop\\THESIS DOCUMENTS\\Thesis Writing\\phd\\Misc\\textext_preamble.tex"
       style="font-style:normal;font-variant:normal;font-weight:normal;font-stretch:normal;letter-spacing:normal;word-spacing:normal;text-anchor:start;fill:none;stroke:#000000;stroke-linecap:butt;stroke-linejoin:miter;stroke-miterlimit:10.43299961;stroke-opacity:1;stroke-dasharray:none;stroke-dashoffset:0">
<path
   style="fill:#000000;stroke-width:0"
   inkscape:connector-curvature="0"
   d="m 225.32,714.46 -0.07,0.06 -1.57,-0.25 v -0.25 l 0.38,-0.04 c 0.26,-0.03 0.32,-0.08 0.32,-0.46 v -5.53 c 0,-0.51 -0.03,-0.53 -0.75,-0.58 v -0.29 h 2.43 v 0.29 c -0.71,0.05 -0.74,0.07 -0.74,0.58 z"
   id="path3928" />
<path
   style="fill:#000000;stroke-width:0"
   inkscape:connector-curvature="0"
   d="m 226.58,711.88 v -0.25 l 0.38,-0.05 c 0.26,-0.04 0.32,-0.09 0.32,-0.45 v -3.14 c 0,-0.51 -0.03,-0.53 -0.75,-0.58 v -0.29 h 2.43 v 0.29 c -0.7,0.05 -0.74,0.07 -0.74,0.58 v 4.07 l -0.07,0.06 z"
   id="path3930" />
<path
   style="fill:#000000;stroke-width:0"
   inkscape:connector-curvature="0"
   d="m 227.74,714.25 -0.03,0 -0.04,-0.01 -0.03,0 -0.03,-0.01 -0.03,0 -0.03,-0.01 -0.03,-0.01 -0.03,-0.01 -0.02,-0.01 -0.03,-0.02 -0.03,-0.01 -0.02,-0.01 -0.02,-0.02 -0.03,-0.02 -0.02,-0.02 -0.02,-0.02 -0.02,-0.02 -0.02,-0.02 -0.01,-0.02 -0.02,-0.03 -0.02,-0.02 -0.01,-0.03 -0.01,-0.03 -0.01,-0.02 -0.01,-0.03 -0.01,-0.03 -0.01,-0.03 -0.01,-0.03 0,-0.03 -0.01,-0.04 0,-0.03 0,-0.03 c 0,-0.35 0.25,-0.6 0.61,-0.6 0.37,0 0.6,0.25 0.61,0.6 0,0.36 -0.24,0.62 -0.61,0.62 z"
   id="path3932" />
<path
   style="fill:#000000;stroke-width:0"
   inkscape:connector-curvature="0"
   d="m 234.17,712.12 h -0.27 l -0.43,-0.3 c -0.37,0.2 -0.88,0.3 -1.31,0.3 l -0.08,-0.34 c 0.52,0 0.89,-0.18 1.07,-0.69 0.06,-0.16 0.09,-0.34 0.09,-0.58 v -1.68 c 0,-0.22 -0.01,-0.39 -0.08,-0.55 -0.18,-0.53 -0.56,-0.74 -1.11,-0.74 -0.99,0 -1.42,0.91 -1.42,2.03 0,1.23 0.43,2.21 1.45,2.21 l 0.08,0.34 c -0.8,0 -1.43,-0.23 -1.86,-0.68 -0.44,-0.45 -0.7,-1.1 -0.7,-2 0,-1.59 0.86,-2.44 2.07,-2.44 0.56,0 1.05,0.27 1.57,0.65 v -1.95 c 0,-0.51 -0.06,-0.53 -0.8,-0.58 v -0.29 h 2.48 v 0.29 c -0.69,0.05 -0.75,0.07 -0.75,0.58 z"
   id="path3934" />
<path
   style="fill:#000000;stroke-width:0"
   inkscape:connector-curvature="0"
   d="m 240.88,707.12 v 0.29 c -0.68,0.05 -0.74,0.07 -0.74,0.58 v 4.07 l -0.07,0.06 -1.57,-0.24 v -0.25 l 0.38,-0.05 c 0.26,-0.04 0.32,-0.09 0.32,-0.45 v -2.24 c 0,-0.28 -0.03,-0.5 -0.08,-0.6 -0.23,-0.46 -0.71,-0.75 -1.22,-0.75 -0.58,0 -1.01,0.36 -1.01,1.14 v 3.38 l -0.07,0.06 -1.56,-0.24 v -0.25 l 0.37,-0.05 c 0.26,-0.04 0.32,-0.09 0.32,-0.45 v -2.63 c 0,-1.15 0.68,-1.5 1.42,-1.5 0.84,0 1.53,0.58 1.82,0.72 l 0.1,-0.6 z"
   id="path3936" />
<path
   style="fill:#000000;stroke-width:0"
   inkscape:connector-curvature="0"
   d="m 241.4,711.88 v -0.25 l 0.38,-0.05 c 0.26,-0.04 0.32,-0.09 0.32,-0.45 v -3.14 c 0,-0.51 -0.03,-0.53 -0.75,-0.58 v -0.29 h 2.44 v 0.29 c -0.71,0.05 -0.75,0.07 -0.75,0.58 v 4.07 l -0.07,0.06 z"
   id="path3938" />
<path
   style="fill:#000000;stroke-width:0"
   inkscape:connector-curvature="0"
   d="m 242.56,714.25 -0.03,0 -0.04,-0.01 -0.03,0 -0.03,-0.01 -0.03,0 -0.03,-0.01 -0.03,-0.01 -0.03,-0.01 -0.02,-0.01 -0.03,-0.02 -0.03,-0.01 -0.02,-0.01 -0.02,-0.02 -0.03,-0.02 -0.02,-0.02 -0.02,-0.02 -0.02,-0.02 -0.02,-0.02 -0.01,-0.02 -0.02,-0.03 -0.02,-0.02 -0.01,-0.03 -0.01,-0.03 -0.01,-0.02 -0.01,-0.03 -0.01,-0.03 -0.01,-0.03 -0.01,-0.03 0,-0.03 -0.01,-0.04 0,-0.03 0,-0.03 c 0,-0.35 0.25,-0.6 0.61,-0.6 0.37,0 0.6,0.25 0.61,0.6 0,0.36 -0.24,0.62 -0.61,0.62 z"
   id="path3940" />
<path
   style="fill:#000000;stroke-width:0"
   inkscape:connector-curvature="0"
   d="m 249.75,707.12 v 0.29 c -0.71,0.05 -0.75,0.07 -0.75,0.58 v 6.47 l -0.07,0.06 -1.56,-0.25 v -0.25 l 0.37,-0.04 c 0.26,-0.03 0.32,-0.08 0.32,-0.46 v -1.63 c -0.28,0.14 -0.65,0.23 -1.1,0.23 l -0.01,-0.34 c 0.46,0 0.84,-0.22 1.02,-0.63 0.08,-0.17 0.09,-0.31 0.09,-0.58 v -1.75 c 0,-0.22 -0.01,-0.39 -0.07,-0.56 -0.2,-0.52 -0.64,-0.72 -1.15,-0.72 -0.92,0 -1.38,0.9 -1.38,2.04 0,1.3 0.47,2.2 1.49,2.2 l 0.01,0.34 c -0.82,0 -1.43,-0.26 -1.85,-0.68 -0.43,-0.45 -0.68,-1.11 -0.68,-1.98 0,-1.47 0.76,-2.46 2.08,-2.46 0.54,0 1,0.24 1.54,0.68 v -0.49 l 0.08,-0.07 z"
   id="path3942" />
<path
   style="fill:#000000;stroke-width:0"
   inkscape:connector-curvature="0"
   d="m 253.88,709.93 0,0.13 0,0.13 0,0.13 0.01,0.12 0.01,0.24 0.02,0.23 0.02,0.22 0.02,0.2 0.03,0.2 0.03,0.19 0.04,0.17 0.04,0.17 0.04,0.16 0.05,0.14 0.04,0.14 0.05,0.13 0.06,0.13 0.05,0.11 0.06,0.11 0.05,0.09 0.06,0.09 0.06,0.09 0.07,0.07 0.06,0.07 0.06,0.07 0.06,0.05 0.07,0.06 0.06,0.04 0.07,0.04 0.06,0.03 0.06,0.03 0.06,0.02 0.06,0.02 0.06,0.02 v 0.25 c -1.74,-0.07 -2.19,-2.24 -2.19,-4.09 0,-1.85 0.45,-4.01 2.19,-4.08 v 0.25 c -0.58,0.12 -1.49,0.96 -1.49,3.83 z"
   id="path3944" />
<path
   style="fill:#000000;stroke-width:0"
   inkscape:connector-curvature="0"
   d="m 257.51,714.46 -0.07,0.06 -1.57,-0.25 v -0.25 l 0.38,-0.04 c 0.26,-0.03 0.32,-0.08 0.32,-0.46 v -5.53 c 0,-0.51 -0.03,-0.53 -0.75,-0.58 v -0.29 h 2.43 v 0.29 c -0.7,0.05 -0.74,0.07 -0.74,0.58 z"
   id="path3946" />
<path
   style="fill:#000000;stroke-width:0"
   inkscape:connector-curvature="0"
   d="m 260.14,709.93 0,-0.13 0,-0.13 0,-0.13 -0.01,-0.12 -0.01,-0.12 0,-0.12 -0.02,-0.23 -0.02,-0.22 -0.03,-0.21 -0.03,-0.19 -0.03,-0.19 -0.04,-0.18 -0.04,-0.16 -0.04,-0.16 -0.05,-0.15 -0.05,-0.14 -0.05,-0.13 -0.05,-0.12 -0.06,-0.12 -0.06,-0.1 -0.06,-0.1 -0.06,-0.09 -0.06,-0.08 -0.06,-0.08 -0.06,-0.07 -0.06,-0.06 -0.07,-0.06 -0.06,-0.05 -0.06,-0.04 -0.06,-0.04 -0.06,-0.03 -0.06,-0.03 -0.06,-0.02 -0.06,-0.02 -0.05,-0.01 v -0.25 c 1.74,0.07 2.19,2.23 2.19,4.08 0,1.85 -0.45,4.02 -2.19,4.09 v -0.25 c 0.62,-0.13 1.49,-0.99 1.49,-3.84 z"
   id="path3948" />
</g>    <rect
       ry="0"
       style="fill:#c8c8c8;fill-opacity:1;stroke:#000000;stroke-width:1;stroke-miterlimit:4;stroke-opacity:1;stroke-dasharray:none"
       id="rect4077"
       width="441.5502"
       height="111.28937"
       x="1025.635"
       y="-26.910328" />
    <rect
       transform="matrix(2.1957582,0,0,0.9960782,-120.36943,-344.83227)"
       clip-path="url(#clipPath4322)"
       style="font-style:normal;font-variant:normal;font-weight:normal;font-stretch:normal;letter-spacing:normal;word-spacing:normal;text-anchor:start;fill:url(#linearGradient4626);fill-opacity:1;stroke:#000000;stroke-width:2;stroke-linecap:butt;stroke-linejoin:miter;stroke-miterlimit:10.43299961;stroke-opacity:1;stroke-dasharray:none;stroke-dashoffset:0"
       id="rect4314"
       width="39.786098"
       height="246.64032"
       x="628.04199"
       y="382.78897" />
    <rect
       transform="matrix(1.0124097,0,0,0.99996644,667.9425,-347.35885)"
       clip-path="url(#clipPath4318)"
       y="382.78897"
       x="668.04199"
       height="246.64032"
       width="121.43878"
       id="rect3023-4"
       style="font-style:normal;font-variant:normal;font-weight:normal;font-stretch:normal;letter-spacing:normal;word-spacing:normal;text-anchor:start;fill:#58a1c9;fill-opacity:1;stroke:#000000;stroke-width:0.9979521;stroke-linecap:butt;stroke-linejoin:miter;stroke-miterlimit:10.43299961;stroke-opacity:0.89417988;stroke-dasharray:none;stroke-dashoffset:0"
       ry="0.40064663"
       rx="0.17807508" />
    <rect
       style="font-style:normal;font-variant:normal;font-weight:normal;font-stretch:normal;letter-spacing:normal;word-spacing:normal;text-anchor:start;fill:#ff5555;fill-opacity:1;stroke:#000000;stroke-width:0.92078894;stroke-linecap:butt;stroke-linejoin:miter;stroke-miterlimit:4;stroke-opacity:1;stroke-dasharray:none;stroke-dashoffset:0"
       id="rect3019-1"
       width="236.36694"
       height="197.56253"
       x="1025.5853"
       y="83.870285" />
    <path
       style="font-style:normal;font-variant:normal;font-weight:normal;font-stretch:normal;letter-spacing:normal;word-spacing:normal;text-anchor:start;fill:none;stroke:#000000;stroke-width:2;stroke-linecap:butt;stroke-linejoin:miter;stroke-miterlimit:4;stroke-opacity:1;stroke-dasharray:none;stroke-dashoffset:0;marker-end:url(#Arrow2Lend)"
       d="m 1485.6008,151.83798 c 7.1088,-17.91763 12.7085,-6.10617 17.1506,0 6.9374,9.76367 9.5027,9.62741 14.6455,0 8.7284,-15.11801 12.3756,-10.19105 18.885,0 5.2697,8.82534 10.0688,11.45805 14.8382,0 l 32.1391,0"
       id="path4430-7"
       inkscape:connector-curvature="0"
       sodipodi:nodetypes="cccccc" />
    <path
       sodipodi:nodetypes="cccccc"
       inkscape:connector-curvature="0"
       id="path4800-4"
       d="m 1485.6008,185.17301 c 7.1088,-17.91763 12.7085,-6.10617 17.1506,0 6.9374,9.76367 9.5027,9.62741 14.6455,0 8.7284,-15.11801 12.3756,-10.19105 18.885,0 5.2697,8.82534 10.0688,11.45805 14.8382,0 l 32.1391,0"
       style="font-style:normal;font-variant:normal;font-weight:normal;font-stretch:normal;letter-spacing:normal;word-spacing:normal;text-anchor:start;fill:none;stroke:#000000;stroke-width:2;stroke-linecap:butt;stroke-linejoin:miter;stroke-miterlimit:4;stroke-opacity:1;stroke-dasharray:none;stroke-dashoffset:0;marker-end:url(#Arrow2Lend)" />
    <path
       style="font-style:normal;font-variant:normal;font-weight:normal;font-stretch:normal;letter-spacing:normal;word-spacing:normal;text-anchor:start;fill:none;stroke:#000000;stroke-width:2;stroke-linecap:butt;stroke-linejoin:miter;stroke-miterlimit:4;stroke-opacity:1;stroke-dasharray:none;stroke-dashoffset:0;marker-end:url(#Arrow2Lend)"
       d="m 1485.6008,222.54865 c 7.1088,-17.91763 12.7085,-6.10617 17.1506,0 6.9374,9.76367 9.5027,9.62741 14.6455,0 8.7284,-15.11801 12.3756,-10.19105 18.885,0 5.2697,8.82534 10.0688,11.45805 14.8382,0 l 32.1391,0"
       id="path4802-2"
       inkscape:connector-curvature="0"
       sodipodi:nodetypes="cccccc" />
    <path
       id="path3160-2"
       d="m 1524.9493,78.301054 v 5.678069 c 0,1.270095 -0.025,1.3199 -2.0422,1.444424 v 0.672399 h 6.3754 v -0.672399 c -1.9923,-0.124524 -2.067,-0.174329 -2.067,-1.444424 V 72.42375 c 0,-1.295002 0.075,-1.319908 2.067,-1.46933 v -0.672399 h -6.3754 v 0.672399 c 2.0172,0.149422 2.0422,0.174328 2.0422,1.46933 v 5.00567 h -7.9693 v -5.00567 c 0,-1.295002 0.05,-1.319908 2.0422,-1.46933 v -0.672399 h -6.3755 v 0.672399 c 2.0173,0.149422 2.0671,0.174328 2.0671,1.46933 v 11.555373 c 0,1.270095 -0.049,1.3199 -2.0671,1.444424 v 0.672399 h 6.3755 v -0.672399 c -1.9924,-0.124524 -2.0422,-0.174329 -2.0422,-1.444424 v -5.678069 z"
       inkscape:connector-curvature="0"
       style="font-style:normal;font-variant:normal;font-weight:normal;font-stretch:normal;letter-spacing:normal;word-spacing:normal;text-anchor:start;fill:#000000;stroke:#000000;stroke-width:0;stroke-linecap:butt;stroke-linejoin:miter;stroke-miterlimit:10.43299961;stroke-opacity:1;stroke-dasharray:none;stroke-dashoffset:0" />
    <path
       id="path3162-4"
       d="m 1539.4184,80.094126 0.049,0 0.049,0 0.05,0 0.025,-0.02493 0.049,0 0.05,0 0.025,0 0.05,0 0.049,-0.02493 0.025,0 0.05,-0.02493 0.025,0 0.049,-0.02493 0.025,-0.02493 0.025,0 0.049,-0.02493 0.025,-0.02493 0.025,-0.02493 0.025,-0.04978 0.025,-0.02493 0.025,-0.02493 0.025,-0.04978 0.025,-0.02493 0.025,-0.04978 0.025,-0.04978 0,-0.02493 0,-0.02493 0,-0.02493 0.025,-0.02493 0,-0.02493 0,-0.02493 0,-0.02493 0,-0.02493 0.025,-0.02493 0,-0.04978 0,-0.02493 0,-0.02493 0,-0.04978 0,-0.02493 c 0,-1.344807 -0.4234,-4.582303 -4.6073,-4.582303 l -0.1494,0.796923 c 2.1418,0 2.3659,2.166627 2.3659,3.063168 0,0.423368 -0.1245,0.722212 -0.772,0.722212 h -4.3084 c 0,-0.946345 0.3487,-3.78538 2.7145,-3.78538 l 0.1494,-0.796923 c -3.5612,0 -5.2547,2.515284 -5.2547,5.952015 0,3.611051 1.5441,5.827491 5.2797,5.777687 2.5153,-0.02493 3.8352,-1.419517 4.4328,-3.212598 l -0.6724,-0.373555 c -0.6474,1.3199 -1.5191,2.415667 -3.3122,2.415667 -2.839,0 -3.4118,-2.739417 -3.362,-5.10528 z"
       inkscape:connector-curvature="0"
       style="font-style:normal;font-variant:normal;font-weight:normal;font-stretch:normal;letter-spacing:normal;word-spacing:normal;text-anchor:start;fill:#000000;stroke:#000000;stroke-width:0;stroke-linecap:butt;stroke-linejoin:miter;stroke-miterlimit:10.43299961;stroke-opacity:1;stroke-dasharray:none;stroke-dashoffset:0" />
    <path
       id="path3164-8"
       d="m 1550.9986,77.653553 0,-0.249039 0,-0.124524 0,-0.124516 -0.025,-0.124515 -0.025,-0.124524 -0.025,-0.149422 -0.025,-0.124516 -0.025,-0.124524 -0.049,-0.124515 -0.025,-0.124524 -0.074,-0.124516 -0.05,-0.124524 -0.075,-0.124515 -0.074,-0.124516 -0.1,-0.09962 -0.1,-0.124524 -0.1,-0.09961 -0.1245,-0.09962 -0.1495,-0.09962 -0.1245,-0.07471 -0.074,-0.04978 -0.1,-0.04978 -0.074,-0.02493 -0.1,-0.04978 -0.074,-0.02493 -0.1,-0.04978 -0.1,-0.02493 -0.1,-0.02493 -0.1,-0.04978 -0.1245,-0.02493 -0.1,-0.02493 -0.1245,-0.02493 -0.1246,-0.02493 -0.1245,0 -0.1245,-0.02493 -0.1245,-0.02493 -0.1495,0 -0.1244,-0.02493 -0.1495,0 -0.1494,0 -0.1743,0 -0.1495,0 c -2.565,0 -4.6071,1.344806 -4.6071,2.589995 0,0.722212 0.8467,1.070869 1.2701,1.070869 0.498,0 0.6226,-0.24904 0.7471,-0.647501 0.498,-1.668557 1.4195,-2.21644 2.341,-2.21644 0.8965,0 1.9424,0.448266 1.9424,2.266244 v 0.971252 0.921438 3.237496 c 0,1.842885 -1.4195,2.316058 -2.316,2.316058 -1.3947,0 -2.0919,-0.996149 -2.0919,-2.340956 0,-1.070869 0.498,-1.618752 1.7681,-2.116831 0.9215,-0.323751 2.1417,-0.772016 2.6398,-1.095767 v -0.921438 c -0.5728,0.597688 -2.7892,1.170478 -4.5823,1.718361 -1.6436,0.522986 -2.1417,1.668557 -2.1417,2.739426 0,1.693454 1.1456,3.237496 3.2873,3.237496 1.4195,-0.04978 2.6896,-0.896541 3.4118,-1.369713 0.3238,0.846727 0.6973,1.369713 1.4694,1.369713 0.8716,0 1.8428,-0.24904 2.7144,-0.697314 l -0.1494,-0.547884 c -0.3237,0.07471 -0.8218,0.124524 -1.1455,0.02493 -0.4234,-0.07471 -0.8218,-0.522977 -0.8218,-1.967401 z"
       inkscape:connector-curvature="0"
       style="font-style:normal;font-variant:normal;font-weight:normal;font-stretch:normal;letter-spacing:normal;word-spacing:normal;text-anchor:start;fill:#000000;stroke:#000000;stroke-width:0;stroke-linecap:butt;stroke-linejoin:miter;stroke-miterlimit:10.43299961;stroke-opacity:1;stroke-dasharray:none;stroke-dashoffset:0" />
    <path
       id="path3166-6"
       d="m 1560.487,75.810668 v -0.896541 h -2.9386 v -2.888838 h -0.6724 l -1.3947,2.888838 h -1.7432 v 0.896541 h 1.6436 v 7.944322 c 0,2.340956 1.7432,2.614902 2.5402,2.614902 1.1705,0 2.2663,-0.597697 2.9137,-1.021056 l -0.1743,-0.473181 c -0.5478,0.224141 -1.046,0.298852 -1.6187,0.298852 -0.7721,0 -1.4942,-0.547883 -1.4942,-2.291151 v -7.072688 z"
       inkscape:connector-curvature="0"
       style="font-style:normal;font-variant:normal;font-weight:normal;font-stretch:normal;letter-spacing:normal;word-spacing:normal;text-anchor:start;fill:#000000;stroke:#000000;stroke-width:0;stroke-linecap:butt;stroke-linejoin:miter;stroke-miterlimit:10.43299961;stroke-opacity:1;stroke-dasharray:none;stroke-dashoffset:0" />
    <path
       id="path3168-5"
       d="m 1486.9402,94.180851 v 0.672399 c 2.0172,0.149422 2.0669,0.174328 2.0669,1.46933 v 11.55537 c 0,1.2701 -0.05,1.3199 -2.0669,1.44442 v 0.6724 h 12.1032 l 0.2739,-3.9597 h -0.6724 c -0.5229,2.78923 -1.5689,3.16278 -4.4328,3.16278 -1.0709,0 -1.8927,-0.0498 -2.3908,-0.22413 -0.4732,-0.22413 -0.5479,-0.59769 -0.5479,-1.71837 v -5.05547 h 3.1877 c 1.9425,0 2.0422,0.54788 2.2414,1.9923 h 0.6724 v -4.831339 h -0.6724 c -0.1992,1.419519 -0.2989,1.967399 -2.2414,1.967399 h -3.1877 v -5.503739 c 0,-0.747118 0.1,-0.821829 0.8218,-0.821829 h 2.2414 c 2.6149,0 3.1379,0.57279 3.4616,2.938652 h 0.6724 v -3.760473 z"
       inkscape:connector-curvature="0"
       style="font-style:normal;font-variant:normal;font-weight:normal;font-stretch:normal;letter-spacing:normal;word-spacing:normal;text-anchor:start;fill:#000000;stroke:#000000;stroke-width:0;stroke-linecap:butt;stroke-linejoin:miter;stroke-miterlimit:10.43299961;stroke-opacity:1;stroke-dasharray:none;stroke-dashoffset:0" />
    <path
       id="path3170-0"
       d="m 1504.2484,109.99477 v -0.6724 l -0.9714,-0.0996 c -0.2988,-0.0498 -0.2739,-0.29885 -0.1494,-0.54789 0.4981,-0.99615 1.2203,-2.09192 2.0173,-3.2873 h 0.025 l 2.042,3.18769 c 0.2491,0.39846 0.1744,0.59768 -0.1494,0.6475 l -0.9712,0.0996 v 0.6724 h 5.3792 v -0.6724 c -1.0459,-0.0498 -1.4195,-0.0996 -1.9923,-0.92144 -1.046,-1.51913 -2.1168,-3.11298 -3.1379,-4.70683 0.7721,-1.14557 1.6437,-2.29115 2.5402,-3.36201 0.5977,-0.722209 0.8965,-0.821827 1.9924,-0.871631 v -0.647501 h -4.2587 v 0.647501 l 0.8966,0.09962 c 0.3735,0.04978 0.3238,0.273938 0.1494,0.522981 -0.523,0.87163 -1.1207,1.81797 -1.8179,2.86394 h -0.025 l -1.9177,-2.83904 c -0.1743,-0.273943 -0.1244,-0.522983 0.1993,-0.572787 l 0.6973,-0.07471 v -0.647501 h -4.7815 v 0.647501 c 0.9214,0.04978 1.1456,0.09962 1.6934,0.846727 0.9712,1.31991 1.9425,2.81414 2.9138,4.28346 -0.8219,1.22029 -1.7184,2.51528 -2.6647,3.76048 -0.5977,0.79692 -1.0958,0.89653 -2.0919,0.97124 v 0.6724 z"
       inkscape:connector-curvature="0"
       style="font-style:normal;font-variant:normal;font-weight:normal;font-stretch:normal;letter-spacing:normal;word-spacing:normal;text-anchor:start;fill:#000000;stroke:#000000;stroke-width:0;stroke-linecap:butt;stroke-linejoin:miter;stroke-miterlimit:10.43299961;stroke-opacity:1;stroke-dasharray:none;stroke-dashoffset:0" />
    <path
       id="path3172-9"
       d="m 1518.3688,99.709498 v -0.89654 h -2.9386 v -2.888839 h -0.6724 l -1.3698,2.888839 h -1.7433 v 0.89654 h 1.6437 v 7.944312 c 0,2.34096 1.7433,2.6149 2.5402,2.6149 1.1456,0 2.2414,-0.59769 2.9138,-1.02105 l -0.1744,-0.47317 c -0.5479,0.22413 -1.0709,0.29884 -1.6188,0.29884 -0.7969,0 -1.519,-0.54788 -1.519,-2.29115 v -7.072682 z"
       inkscape:connector-curvature="0"
       style="font-style:normal;font-variant:normal;font-weight:normal;font-stretch:normal;letter-spacing:normal;word-spacing:normal;text-anchor:start;fill:#000000;stroke:#000000;stroke-width:0;stroke-linecap:butt;stroke-linejoin:miter;stroke-miterlimit:10.43299961;stroke-opacity:1;stroke-dasharray:none;stroke-dashoffset:0" />
    <path
       id="path3174-0"
       d="m 1523.0756,98.53902 -3.4616,0.572782 v 0.547883 l 0.8467,0.124524 c 0.5977,0.09962 0.7471,0.199227 0.7471,1.021051 v 7.19721 c 0,1.17047 -0.1245,1.22029 -1.7183,1.3199 v 0.6724 h 6.0266 v -0.6724 c -2.042,-0.0996 -2.1666,-0.14943 -2.1666,-1.3199 v -5.35432 c 0,-1.74327 0.7721,-2.34096 1.295,-2.34096 0.3736,0 0.7721,0.14942 1.4195,0.49807 0.1495,0.0996 0.3488,0.12452 0.4483,0.12452 0.5479,0 1.0709,-0.57278 1.0709,-1.294993 0,-0.498079 -0.3238,-1.095767 -1.2203,-1.095767 -0.8218,0 -1.4942,0.498071 -3.0134,1.81798 z"
       inkscape:connector-curvature="0"
       style="font-style:normal;font-variant:normal;font-weight:normal;font-stretch:normal;letter-spacing:normal;word-spacing:normal;text-anchor:start;fill:#000000;stroke:#000000;stroke-width:0;stroke-linecap:butt;stroke-linejoin:miter;stroke-miterlimit:10.43299961;stroke-opacity:1;stroke-dasharray:none;stroke-dashoffset:0" />
    <path
       id="path3176-0"
       d="m 1537.3206,101.55237 0,-0.24903 0,-0.12452 0,-0.12452 -0.025,-0.12452 -0.025,-0.12452 -0.025,-0.14942 -0.025,-0.12452 -0.025,-0.12452 -0.049,-0.12451 -0.025,-0.12453 -0.075,-0.12451 -0.05,-0.124525 -0.074,-0.124516 -0.074,-0.124524 -0.1,-0.09961 -0.1,-0.124524 -0.1,-0.09962 -0.1245,-0.09961 -0.1494,-0.09962 -0.1245,-0.07471 -0.074,-0.04978 -0.1,-0.04978 -0.075,-0.02493 -0.1,-0.04978 -0.074,-0.02493 -0.1,-0.04978 -0.1,-0.02493 -0.1,-0.02493 -0.1,-0.04978 -0.1246,-0.02493 -0.1,-0.02493 -0.1246,-0.02493 -0.1245,-0.02493 -0.1245,0 -0.1245,-0.02493 -0.1245,-0.02493 -0.1494,0 -0.1246,-0.02493 -0.1494,0 -0.1495,0 -0.1742,0 -0.1495,0 c -2.5651,0 -4.6072,1.344807 -4.6072,2.589999 0,0.72221 0.8468,1.07086 1.2701,1.07086 0.4732,0 0.6226,-0.24904 0.7471,-0.6475 0.4981,-1.668552 1.4195,-2.216444 2.341,-2.216444 0.8965,0 1.9425,0.448274 1.9425,2.266254 v 0.97125 0.92144 3.2375 c 0,1.84288 -1.4195,2.31605 -2.3161,2.31605 -1.3946,0 -2.0919,-0.99615 -2.0919,-2.34096 0,-1.07086 0.4981,-1.61875 1.7931,-2.11683 0.8965,-0.32375 2.1168,-0.77201 2.6149,-1.09576 v -0.92144 c -0.5728,0.59769 -2.7893,1.17048 -4.5823,1.71836 -1.6437,0.52298 -2.1417,1.66856 -2.1417,2.73942 0,1.69346 1.1455,3.23749 3.2873,3.23749 1.4195,-0.0498 2.6896,-0.89653 3.4118,-1.3697 0.3237,0.84672 0.6724,1.3697 1.4693,1.3697 0.8468,0 1.8428,-0.24903 2.7145,-0.69731 l -0.1494,-0.54787 c -0.3238,0.0747 -0.8218,0.12451 -1.1705,0.0249 -0.3984,-0.0747 -0.7969,-0.52299 -0.7969,-1.9674 z"
       inkscape:connector-curvature="0"
       style="font-style:normal;font-variant:normal;font-weight:normal;font-stretch:normal;letter-spacing:normal;word-spacing:normal;text-anchor:start;fill:#000000;stroke:#000000;stroke-width:0;stroke-linecap:butt;stroke-linejoin:miter;stroke-miterlimit:10.43299961;stroke-opacity:1;stroke-dasharray:none;stroke-dashoffset:0" />
    <path
       id="path3178-6"
       d="m 1546.2112,109.07333 -0.1244,0 -0.1246,0 -0.1245,-0.0249 -0.1,0 -0.1245,-0.0249 -0.1245,-0.0249 -0.1,-0.0249 -0.1,-0.0249 -0.1992,-0.0747 -0.1992,-0.0747 -0.1744,-0.0996 -0.1743,-0.0996 -0.1743,-0.12451 -0.1494,-0.12452 -0.1246,-0.12452 -0.1494,-0.14942 -0.1245,-0.17433 -0.1,-0.14942 -0.1,-0.17433 -0.1,-0.19923 -0.1,-0.17433 -0.074,-0.19922 -0.074,-0.19924 -0.074,-0.19922 -0.049,-0.19924 -0.074,-0.19923 -0.025,-0.22414 -0.05,-0.19923 -0.049,-0.22413 -0.025,-0.19923 -0.025,-0.22414 0,-0.19922 -0.025,-0.22414 0,-0.19923 -0.025,-0.22413 0,-0.19924 c 0,-3.38692 1.3448,-4.756629 2.9386,-4.756629 1.046,0 1.6935,0.747119 2.1667,1.992309 0.1245,0.34865 0.274,0.57279 0.6973,0.57279 0.4483,0 1.3448,-0.29885 1.3448,-1.17048 0,-1.045962 -1.4942,-2.191534 -3.9597,-2.191534 -4.159,0 -5.5535,2.938644 -5.5535,5.976914 0,3.81029 1.8677,5.75277 5.3044,5.75277 1.5939,0 3.7356,-0.84672 4.3831,-3.28729 l -0.6724,-0.32375 c -0.7222,1.59385 -1.6188,2.41566 -3.2873,2.41566 z"
       inkscape:connector-curvature="0"
       style="font-style:normal;font-variant:normal;font-weight:normal;font-stretch:normal;letter-spacing:normal;word-spacing:normal;text-anchor:start;fill:#000000;stroke:#000000;stroke-width:0;stroke-linecap:butt;stroke-linejoin:miter;stroke-miterlimit:10.43299961;stroke-opacity:1;stroke-dasharray:none;stroke-dashoffset:0" />
    <path
       id="path3180-1"
       d="m 1558.1153,99.709498 v -0.89654 h -2.9386 v -2.888839 h -0.6476 l -1.3946,2.888839 h -1.7433 v 0.89654 h 1.6437 v 7.944312 c 0,2.34096 1.7433,2.6149 2.5402,2.6149 1.1456,0 2.2414,-0.59769 2.9138,-1.02105 l -0.1744,-0.47317 c -0.5479,0.22413 -1.0709,0.29884 -1.6188,0.29884 -0.7969,0 -1.519,-0.54788 -1.519,-2.29115 v -7.072682 z"
       inkscape:connector-curvature="0"
       style="font-style:normal;font-variant:normal;font-weight:normal;font-stretch:normal;letter-spacing:normal;word-spacing:normal;text-anchor:start;fill:#000000;stroke:#000000;stroke-width:0;stroke-linecap:butt;stroke-linejoin:miter;stroke-miterlimit:10.43299961;stroke-opacity:1;stroke-dasharray:none;stroke-dashoffset:0" />
    <path
       id="path3182-3"
       d="m 1559.3605,99.111802 v 0.547883 l 0.8467,0.124524 c 0.5977,0.09962 0.7471,0.199227 0.7471,1.021051 v 7.19721 c 0,1.17047 -0.074,1.22029 -1.7183,1.3199 v 0.6724 h 5.5784 v -0.6724 c -1.6187,-0.0996 -1.7184,-0.14943 -1.7184,-1.3199 v -9.338934 l -0.1494,-0.124516 z"
       inkscape:connector-curvature="0"
       style="font-style:normal;font-variant:normal;font-weight:normal;font-stretch:normal;letter-spacing:normal;word-spacing:normal;text-anchor:start;fill:#000000;stroke:#000000;stroke-width:0;stroke-linecap:butt;stroke-linejoin:miter;stroke-miterlimit:10.43299961;stroke-opacity:1;stroke-dasharray:none;stroke-dashoffset:0" />
    <path
       id="path3184-8"
       d="m 1562.0003,93.657866 -0.074,0 -0.074,0.02493 -0.074,0 -0.074,0 -0.074,0.02493 -0.05,0.02493 -0.074,0.02493 -0.074,0.02493 -0.05,0.02493 -0.074,0.02493 -0.05,0.02493 -0.049,0.04978 -0.049,0.02493 -0.05,0.04978 -0.049,0.04978 -0.05,0.02493 -0.049,0.04978 -0.05,0.04978 -0.025,0.07471 -0.049,0.04978 -0.025,0.04978 -0.049,0.04978 -0.025,0.07471 -0.025,0.04978 -0.025,0.07471 -0.025,0.07471 0,0.04978 -0.025,0.07471 0,0.07471 -0.025,0.07471 0,0.07471 0,0.07471 c 0,0.796923 0.5727,1.369713 1.3946,1.369713 0.8467,0 1.3697,-0.57279 1.3946,-1.369713 0,-0.821821 -0.5479,-1.419517 -1.3946,-1.419517 z"
       inkscape:connector-curvature="0"
       style="font-style:normal;font-variant:normal;font-weight:normal;font-stretch:normal;letter-spacing:normal;word-spacing:normal;text-anchor:start;fill:#000000;stroke:#000000;stroke-width:0;stroke-linecap:butt;stroke-linejoin:miter;stroke-miterlimit:10.43299961;stroke-opacity:1;stroke-dasharray:none;stroke-dashoffset:0" />
    <path
       id="path3186-9"
       d="m 1571.7376,98.53902 -0.3236,0 -0.3238,0.02493 -0.3238,0.02493 -0.2988,0.04978 -0.2989,0.04978 -0.2739,0.07471 -0.274,0.07471 -0.2739,0.09962 -0.2491,0.09961 -0.2241,0.09962 -0.249,0.124516 -0.1993,0.14943 -0.2241,0.149422 -0.1992,0.149422 -0.1744,0.174329 -0.1742,0.199221 -0.1744,0.17433 -0.1494,0.22414 -0.1494,0.19922 -0.1245,0.22414 -0.1246,0.24904 -0.099,0.24903 -0.1,0.24904 -0.1,0.27395 -0.075,0.27394 -0.074,0.27394 -0.05,0.29885 -0.049,0.29884 -0.05,0.32375 -0.025,0.32375 0,0.32375 -0.025,0.34866 c 0,3.71067 1.818,5.87729 5.454,5.87729 v -0.79692 c -2.0671,0 -3.0633,-1.91758 -3.0633,-5.08037 h 0 c 0,-3.13789 0.9962,-5.055483 3.0633,-5.055483 2.1417,0 3.1129,1.917593 3.1129,5.055483 0,3.16279 -0.9712,5.08037 -3.1129,5.08037 v 0.79692 c 3.7106,0 5.4788,-2.16662 5.4788,-5.87729 0,-3.68577 -1.7682,-5.852398 -5.4788,-5.852398 z"
       inkscape:connector-curvature="0"
       style="font-style:normal;font-variant:normal;font-weight:normal;font-stretch:normal;letter-spacing:normal;word-spacing:normal;text-anchor:start;fill:#000000;stroke:#000000;stroke-width:0;stroke-linecap:butt;stroke-linejoin:miter;stroke-miterlimit:10.43299961;stroke-opacity:1;stroke-dasharray:none;stroke-dashoffset:0" />
    <path
       id="path3188-3"
       d="m 1590.4156,102.15007 0,-0.19923 0,-0.19923 -0.025,-0.22413 -0.025,-0.17433 -0.049,-0.19923 -0.025,-0.17433 -0.05,-0.19923 -0.049,-0.14942 -0.05,-0.17433 -0.074,-0.14942 -0.074,-0.17433 -0.074,-0.12452 -0.1,-0.14942 -0.074,-0.124524 -0.1,-0.124515 -0.1244,-0.124516 -0.1,-0.124524 -0.1245,-0.09962 -0.1245,-0.09961 -0.1245,-0.09962 -0.1245,-0.07471 -0.1495,-0.07471 -0.1494,-0.07471 -0.1494,-0.07471 -0.1494,-0.04978 -0.1744,-0.04978 -0.1742,-0.04978 -0.1744,-0.02493 -0.1744,-0.02493 -0.1742,-0.02493 -0.1993,0 -0.1992,0 c -1.6686,0 -2.7395,0.821821 -4.134,1.718359 l -0.3238,-1.718359 -3.4118,0.572782 v 0.547883 l 0.8716,0.124524 c 0.5977,0.09962 0.7222,0.199227 0.7222,1.02106 v 7.1972 c 0,1.17047 -0.049,1.22029 -1.6934,1.3199 v 0.6724 h 5.5535 v -0.6724 c -1.6187,-0.0996 -1.6934,-0.14943 -1.6934,-1.3199 v -5.35432 c 0,-0.54788 0.025,-0.87163 0.2241,-1.2452 0.4731,-0.89653 1.4942,-1.643646 2.7145,-1.643646 1.544,0 2.3908,0.871636 2.3908,2.863936 v 5.37923 c 0,1.17047 -0.074,1.22029 -1.7184,1.3199 v 0.6724 h 5.5784 v -0.6724 c -1.6187,-0.0996 -1.7183,-0.14943 -1.7183,-1.3199 z"
       inkscape:connector-curvature="0"
       style="font-style:normal;font-variant:normal;font-weight:normal;font-stretch:normal;letter-spacing:normal;word-spacing:normal;text-anchor:start;fill:#000000;stroke:#000000;stroke-width:0;stroke-linecap:butt;stroke-linejoin:miter;stroke-miterlimit:10.43299961;stroke-opacity:1;stroke-dasharray:none;stroke-dashoffset:0" />
    <path
       inkscape:connector-curvature="0"
       id="path4338"
       d="m 1261.7961,83.94237 82.5572,-6.64571 122.2285,-41.565169"
       style="fill:none;stroke:#000000;stroke-width:1px;stroke-linecap:butt;stroke-linejoin:miter;stroke-opacity:1"
       sodipodi:nodetypes="ccc" />
    <path
       inkscape:connector-curvature="0"
       id="path4364"
       d="m 1304.6247,281.02615 162.8871,0"
       style="fill:none;stroke:#000000;stroke-width:1px;stroke-linecap:butt;stroke-linejoin:miter;stroke-opacity:1" />
    <g
       style="font-style:normal;font-variant:normal;font-weight:normal;font-stretch:normal;letter-spacing:normal;word-spacing:normal;text-anchor:start;fill:none;stroke:#000000;stroke-linecap:butt;stroke-linejoin:miter;stroke-miterlimit:10.43299961;stroke-opacity:1;stroke-dasharray:none;stroke-dashoffset:0"
       ns0:preamble="C:\\Users\\RASPI\\Desktop\\THESIS DOCUMENTS\\Thesis Writing\\phd\\Misc\\textext_preamble.tex"
       ns0:text="liquid (l)"
       word-spacing="normal"
       letter-spacing="normal"
       font-size-adjust="none"
       font-stretch="normal"
       font-weight="normal"
       font-variant="normal"
       font-style="normal"
       stroke-miterlimit="10.433"
       xml:space="preserve"
       transform="matrix(2.3391531,-0.02672199,-0.02672199,-2.3391531,557.66753,1923.6191)"
       id="g3872">
<path
   id="path3874"
   d="m 225.32,714.46 -0.07,0.06 -1.57,-0.25 v -0.25 l 0.38,-0.04 c 0.26,-0.03 0.32,-0.08 0.32,-0.46 v -5.53 c 0,-0.51 -0.03,-0.53 -0.75,-0.58 v -0.29 h 2.43 v 0.29 c -0.71,0.05 -0.74,0.07 -0.74,0.58 z"
   inkscape:connector-curvature="0"
   style="fill:#000000;stroke-width:0" />
<path
   id="path3876"
   d="m 226.58,711.88 v -0.25 l 0.38,-0.05 c 0.26,-0.04 0.32,-0.09 0.32,-0.45 v -3.14 c 0,-0.51 -0.03,-0.53 -0.75,-0.58 v -0.29 h 2.43 v 0.29 c -0.7,0.05 -0.74,0.07 -0.74,0.58 v 4.07 l -0.07,0.06 z"
   inkscape:connector-curvature="0"
   style="fill:#000000;stroke-width:0" />
<path
   id="path3878"
   d="m 227.74,714.25 -0.03,0 -0.04,-0.01 -0.03,0 -0.03,-0.01 -0.03,0 -0.03,-0.01 -0.03,-0.01 -0.03,-0.01 -0.02,-0.01 -0.03,-0.02 -0.03,-0.01 -0.02,-0.01 -0.02,-0.02 -0.03,-0.02 -0.02,-0.02 -0.02,-0.02 -0.02,-0.02 -0.02,-0.02 -0.01,-0.02 -0.02,-0.03 -0.02,-0.02 -0.01,-0.03 -0.01,-0.03 -0.01,-0.02 -0.01,-0.03 -0.01,-0.03 -0.01,-0.03 -0.01,-0.03 0,-0.03 -0.01,-0.04 0,-0.03 0,-0.03 c 0,-0.35 0.25,-0.6 0.61,-0.6 0.37,0 0.6,0.25 0.61,0.6 0,0.36 -0.24,0.62 -0.61,0.62 z"
   inkscape:connector-curvature="0"
   style="fill:#000000;stroke-width:0" />
<path
   id="path3880"
   d="m 234.17,712.12 h -0.27 l -0.43,-0.3 c -0.37,0.2 -0.88,0.3 -1.31,0.3 l -0.08,-0.34 c 0.52,0 0.89,-0.18 1.07,-0.69 0.06,-0.16 0.09,-0.34 0.09,-0.58 v -1.68 c 0,-0.22 -0.01,-0.39 -0.08,-0.55 -0.18,-0.53 -0.56,-0.74 -1.11,-0.74 -0.99,0 -1.42,0.91 -1.42,2.03 0,1.23 0.43,2.21 1.45,2.21 l 0.08,0.34 c -0.8,0 -1.43,-0.23 -1.86,-0.68 -0.44,-0.45 -0.7,-1.1 -0.7,-2 0,-1.59 0.86,-2.44 2.07,-2.44 0.56,0 1.05,0.27 1.57,0.65 v -1.95 c 0,-0.51 -0.06,-0.53 -0.8,-0.58 v -0.29 h 2.48 v 0.29 c -0.69,0.05 -0.75,0.07 -0.75,0.58 z"
   inkscape:connector-curvature="0"
   style="fill:#000000;stroke-width:0" />
<path
   id="path3882"
   d="m 240.88,707.12 v 0.29 c -0.68,0.05 -0.74,0.07 -0.74,0.58 v 4.07 l -0.07,0.06 -1.57,-0.24 v -0.25 l 0.38,-0.05 c 0.26,-0.04 0.32,-0.09 0.32,-0.45 v -2.24 c 0,-0.28 -0.03,-0.5 -0.08,-0.6 -0.23,-0.46 -0.71,-0.75 -1.22,-0.75 -0.58,0 -1.01,0.36 -1.01,1.14 v 3.38 l -0.07,0.06 -1.56,-0.24 v -0.25 l 0.37,-0.05 c 0.26,-0.04 0.32,-0.09 0.32,-0.45 v -2.63 c 0,-1.15 0.68,-1.5 1.42,-1.5 0.84,0 1.53,0.58 1.82,0.72 l 0.1,-0.6 z"
   inkscape:connector-curvature="0"
   style="fill:#000000;stroke-width:0" />
<path
   id="path3884"
   d="m 241.4,711.88 v -0.25 l 0.38,-0.05 c 0.26,-0.04 0.32,-0.09 0.32,-0.45 v -3.14 c 0,-0.51 -0.03,-0.53 -0.75,-0.58 v -0.29 h 2.44 v 0.29 c -0.71,0.05 -0.75,0.07 -0.75,0.58 v 4.07 l -0.07,0.06 z"
   inkscape:connector-curvature="0"
   style="fill:#000000;stroke-width:0" />
<path
   id="path3886"
   d="m 242.56,714.25 -0.03,0 -0.04,-0.01 -0.03,0 -0.03,-0.01 -0.03,0 -0.03,-0.01 -0.03,-0.01 -0.03,-0.01 -0.02,-0.01 -0.03,-0.02 -0.03,-0.01 -0.02,-0.01 -0.02,-0.02 -0.03,-0.02 -0.02,-0.02 -0.02,-0.02 -0.02,-0.02 -0.02,-0.02 -0.01,-0.02 -0.02,-0.03 -0.02,-0.02 -0.01,-0.03 -0.01,-0.03 -0.01,-0.02 -0.01,-0.03 -0.01,-0.03 -0.01,-0.03 -0.01,-0.03 0,-0.03 -0.01,-0.04 0,-0.03 0,-0.03 c 0,-0.35 0.25,-0.6 0.61,-0.6 0.37,0 0.6,0.25 0.61,0.6 0,0.36 -0.24,0.62 -0.61,0.62 z"
   inkscape:connector-curvature="0"
   style="fill:#000000;stroke-width:0" />
<path
   id="path3888"
   d="m 249.75,707.12 v 0.29 c -0.71,0.05 -0.75,0.07 -0.75,0.58 v 6.47 l -0.07,0.06 -1.56,-0.25 v -0.25 l 0.37,-0.04 c 0.26,-0.03 0.32,-0.08 0.32,-0.46 v -1.63 c -0.28,0.14 -0.65,0.23 -1.1,0.23 l -0.01,-0.34 c 0.46,0 0.84,-0.22 1.02,-0.63 0.08,-0.17 0.09,-0.31 0.09,-0.58 v -1.75 c 0,-0.22 -0.01,-0.39 -0.07,-0.56 -0.2,-0.52 -0.64,-0.72 -1.15,-0.72 -0.92,0 -1.38,0.9 -1.38,2.04 0,1.3 0.47,2.2 1.49,2.2 l 0.01,0.34 c -0.82,0 -1.43,-0.26 -1.85,-0.68 -0.43,-0.45 -0.68,-1.11 -0.68,-1.98 0,-1.47 0.76,-2.46 2.08,-2.46 0.54,0 1,0.24 1.54,0.68 v -0.49 l 0.08,-0.07 z"
   inkscape:connector-curvature="0"
   style="fill:#000000;stroke-width:0" />
<path
   id="path3890"
   d="m 253.88,709.93 0,0.13 0,0.13 0,0.13 0.01,0.12 0.01,0.24 0.02,0.23 0.02,0.22 0.02,0.2 0.03,0.2 0.03,0.19 0.04,0.17 0.04,0.17 0.04,0.16 0.05,0.14 0.04,0.14 0.05,0.13 0.06,0.13 0.05,0.11 0.06,0.11 0.05,0.09 0.06,0.09 0.06,0.09 0.07,0.07 0.06,0.07 0.06,0.07 0.06,0.05 0.07,0.06 0.06,0.04 0.07,0.04 0.06,0.03 0.06,0.03 0.06,0.02 0.06,0.02 0.06,0.02 v 0.25 c -1.74,-0.07 -2.19,-2.24 -2.19,-4.09 0,-1.85 0.45,-4.01 2.19,-4.08 v 0.25 c -0.58,0.12 -1.49,0.96 -1.49,3.83 z"
   inkscape:connector-curvature="0"
   style="fill:#000000;stroke-width:0" />
<path
   id="path3892"
   d="m 257.51,714.46 -0.07,0.06 -1.57,-0.25 v -0.25 l 0.38,-0.04 c 0.26,-0.03 0.32,-0.08 0.32,-0.46 v -5.53 c 0,-0.51 -0.03,-0.53 -0.75,-0.58 v -0.29 h 2.43 v 0.29 c -0.7,0.05 -0.74,0.07 -0.74,0.58 z"
   inkscape:connector-curvature="0"
   style="fill:#000000;stroke-width:0" />
<path
   id="path3894"
   d="m 260.14,709.93 0,-0.13 0,-0.13 0,-0.13 -0.01,-0.12 -0.01,-0.12 0,-0.12 -0.02,-0.23 -0.02,-0.22 -0.03,-0.21 -0.03,-0.19 -0.03,-0.19 -0.04,-0.18 -0.04,-0.16 -0.04,-0.16 -0.05,-0.15 -0.05,-0.14 -0.05,-0.13 -0.05,-0.12 -0.06,-0.12 -0.06,-0.1 -0.06,-0.1 -0.06,-0.09 -0.06,-0.08 -0.06,-0.08 -0.06,-0.07 -0.06,-0.06 -0.07,-0.06 -0.06,-0.05 -0.06,-0.04 -0.06,-0.04 -0.06,-0.03 -0.06,-0.03 -0.06,-0.02 -0.06,-0.02 -0.05,-0.01 v -0.25 c 1.74,0.07 2.19,2.23 2.19,4.08 0,1.85 -0.45,4.02 -2.19,4.09 v -0.25 c 0.62,-0.13 1.49,-0.99 1.49,-3.84 z"
   inkscape:connector-curvature="0"
   style="fill:#000000;stroke-width:0" />
</g>    <g
       id="g3896"
       transform="matrix(2.3392501,-0.01611983,-0.01611983,-2.3392501,858.79611,1922.324)"
       xml:space="preserve"
       stroke-miterlimit="10.433"
       font-style="normal"
       font-variant="normal"
       font-weight="normal"
       font-stretch="normal"
       font-size-adjust="none"
       letter-spacing="normal"
       word-spacing="normal"
       ns0:text="solid (s)"
       ns0:preamble="C:\\Users\\RASPI\\Desktop\\THESIS DOCUMENTS\\Thesis Writing\\phd\\Misc\\textext_preamble.tex"
       style="font-style:normal;font-variant:normal;font-weight:normal;font-stretch:normal;letter-spacing:normal;word-spacing:normal;text-anchor:start;fill:none;stroke:#000000;stroke-linecap:butt;stroke-linejoin:miter;stroke-miterlimit:10.43299961;stroke-opacity:1;stroke-dasharray:none;stroke-dashoffset:0">
<path
   style="fill:#000000;stroke-width:0"
   inkscape:connector-curvature="0"
   d="m 227.09,710.62 v 1.16 c -0.33,0.24 -0.84,0.34 -1.29,0.34 -1.07,0 -1.8,-0.5 -1.81,-1.45 0.01,-0.83 0.68,-1.2 1.5,-1.45 0.45,-0.13 1.08,-0.36 1.08,-1.04 0,-0.51 -0.4,-0.83 -0.93,-0.83 -0.8,0 -1.25,0.59 -1.45,1.44 h -0.29 l 0.1,-1.31 c 0.36,-0.32 0.97,-0.48 1.55,-0.48 1.19,0 1.87,0.63 1.87,1.48 0,0.87 -0.54,1.27 -1.57,1.59 -0.4,0.13 -1.06,0.34 -1.06,0.9 0.01,0.52 0.4,0.81 0.89,0.81 0.71,0 1.05,-0.55 1.12,-1.16 z"
   id="path3898" />
<path
   style="fill:#000000;stroke-width:0"
   inkscape:connector-curvature="0"
   d="m 230.64,712.12 v -0.34 c 0.93,0 1.36,-0.84 1.36,-2.22 0,-1.37 -0.43,-2.21 -1.36,-2.21 -0.9,0 -1.34,0.84 -1.34,2.21 h 0 c 0,1.38 0.44,2.22 1.34,2.22 v 0.34 c -1.59,0 -2.38,-0.94 -2.38,-2.56 0,-1.61 0.79,-2.56 2.38,-2.56 1.62,0 2.4,0.95 2.4,2.56 0,1.62 -0.78,2.56 -2.4,2.56 z"
   id="path3900" />
<path
   style="fill:#000000;stroke-width:0"
   inkscape:connector-curvature="0"
   d="m 235.41,714.46 -0.07,0.06 -1.56,-0.25 v -0.25 l 0.37,-0.04 c 0.26,-0.03 0.32,-0.08 0.32,-0.46 v -5.53 c 0,-0.51 -0.03,-0.53 -0.74,-0.58 v -0.29 h 2.43 v 0.29 c -0.71,0.05 -0.75,0.07 -0.75,0.58 z"
   id="path3902" />
<path
   style="fill:#000000;stroke-width:0"
   inkscape:connector-curvature="0"
   d="m 236.67,711.88 v -0.25 l 0.38,-0.05 c 0.26,-0.04 0.32,-0.09 0.32,-0.45 v -3.14 c 0,-0.51 -0.03,-0.53 -0.75,-0.58 v -0.29 h 2.43 v 0.29 c -0.7,0.05 -0.75,0.07 -0.75,0.58 v 4.07 l -0.06,0.06 z"
   id="path3904" />
<path
   style="fill:#000000;stroke-width:0"
   inkscape:connector-curvature="0"
   d="m 237.83,714.25 -0.04,0 -0.03,-0.01 -0.03,0 -0.03,-0.01 -0.03,0 -0.03,-0.01 -0.03,-0.01 -0.03,-0.01 -0.03,-0.01 -0.02,-0.02 -0.03,-0.01 -0.02,-0.01 -0.03,-0.02 -0.02,-0.02 -0.02,-0.02 -0.02,-0.02 -0.02,-0.02 -0.02,-0.02 -0.02,-0.02 -0.01,-0.03 -0.02,-0.02 -0.01,-0.03 -0.02,-0.03 -0.01,-0.02 -0.01,-0.03 -0.01,-0.03 0,-0.03 -0.01,-0.03 0,-0.03 -0.01,-0.04 0,-0.03 0,-0.03 c 0,-0.35 0.25,-0.6 0.61,-0.6 0.37,0 0.6,0.25 0.6,0.6 0,0.36 -0.23,0.62 -0.6,0.62 z"
   id="path3906" />
<path
   style="fill:#000000;stroke-width:0"
   inkscape:connector-curvature="0"
   d="m 245.01,707.12 v 0.29 c -0.7,0.05 -0.74,0.07 -0.74,0.58 v 6.47 l -0.07,0.06 -1.57,-0.25 v -0.25 l 0.38,-0.04 c 0.26,-0.03 0.32,-0.08 0.32,-0.46 v -1.63 c -0.28,0.14 -0.65,0.23 -1.11,0.23 l -0.01,-0.34 c 0.47,0 0.85,-0.22 1.03,-0.63 0.08,-0.17 0.09,-0.31 0.09,-0.58 v -1.75 c 0,-0.22 -0.01,-0.39 -0.07,-0.56 -0.2,-0.52 -0.64,-0.72 -1.16,-0.72 -0.91,0 -1.37,0.9 -1.37,2.04 0,1.3 0.47,2.2 1.48,2.2 l 0.01,0.34 c -0.81,0 -1.42,-0.26 -1.84,-0.68 -0.43,-0.45 -0.69,-1.11 -0.69,-1.98 0,-1.47 0.77,-2.46 2.08,-2.46 0.54,0 1.01,0.24 1.55,0.68 v -0.49 l 0.08,-0.07 z"
   id="path3908" />
<path
   style="fill:#000000;stroke-width:0"
   inkscape:connector-curvature="0"
   d="m 249.15,709.93 0,0.13 0,0.13 0,0.13 0.01,0.12 0.01,0.24 0.01,0.23 0.03,0.22 0.02,0.2 0.03,0.2 0.03,0.19 0.04,0.17 0.04,0.17 0.04,0.16 0.04,0.14 0.05,0.14 0.05,0.13 0.05,0.13 0.06,0.11 0.05,0.11 0.06,0.09 0.06,0.09 0.06,0.09 0.06,0.07 0.07,0.07 0.06,0.07 0.06,0.05 0.07,0.06 0.06,0.04 0.06,0.04 0.07,0.03 0.06,0.03 0.06,0.02 0.06,0.02 0.06,0.02 v 0.25 c -1.74,-0.07 -2.19,-2.24 -2.19,-4.09 0,-1.85 0.45,-4.01 2.19,-4.08 v 0.25 c -0.58,0.12 -1.49,0.96 -1.49,3.83 z"
   id="path3910" />
<path
   style="fill:#000000;stroke-width:0"
   inkscape:connector-curvature="0"
   d="m 254.55,710.62 v 1.16 c -0.33,0.24 -0.84,0.34 -1.29,0.34 -1.08,0 -1.8,-0.5 -1.81,-1.45 0.01,-0.83 0.68,-1.2 1.5,-1.45 0.45,-0.13 1.08,-0.36 1.08,-1.04 0,-0.51 -0.4,-0.83 -0.93,-0.83 -0.81,0 -1.25,0.59 -1.45,1.44 h -0.29 l 0.1,-1.31 c 0.36,-0.32 0.96,-0.48 1.55,-0.48 1.19,0 1.87,0.63 1.87,1.48 0,0.87 -0.54,1.27 -1.57,1.59 -0.41,0.13 -1.07,0.34 -1.07,0.9 0.02,0.52 0.4,0.81 0.9,0.81 0.71,0 1.05,-0.55 1.12,-1.16 z"
   id="path3912" />
<path
   style="fill:#000000;stroke-width:0"
   inkscape:connector-curvature="0"
   d="m 256.98,709.93 0,-0.13 -0.01,-0.13 0,-0.13 0,-0.12 -0.01,-0.12 -0.01,-0.12 -0.01,-0.23 -0.03,-0.22 -0.02,-0.21 -0.03,-0.19 -0.04,-0.19 -0.03,-0.18 -0.04,-0.16 -0.05,-0.16 -0.04,-0.15 -0.05,-0.14 -0.06,-0.13 -0.05,-0.12 -0.05,-0.12 -0.06,-0.1 -0.06,-0.1 -0.06,-0.09 -0.06,-0.08 -0.06,-0.08 -0.07,-0.07 -0.06,-0.06 -0.06,-0.06 -0.06,-0.05 -0.07,-0.04 -0.06,-0.04 -0.06,-0.03 -0.06,-0.03 -0.06,-0.02 -0.05,-0.02 -0.06,-0.01 v -0.25 c 1.75,0.07 2.19,2.23 2.19,4.08 0,1.85 -0.44,4.02 -2.19,4.09 v -0.25 c 0.63,-0.13 1.5,-0.99 1.5,-3.84 z"
   id="path3914" />
</g>    <g
       style="font-style:normal;font-variant:normal;font-weight:normal;font-stretch:normal;letter-spacing:normal;word-spacing:normal;text-anchor:start;fill:none;stroke:#000000;stroke-linecap:butt;stroke-linejoin:miter;stroke-miterlimit:10.43299961;stroke-opacity:1;stroke-dasharray:none;stroke-dashoffset:0"
       id="g3950"
       transform="matrix(2.3393001,0.00512538,0.00512538,-2.3393001,537.74849,1653.9975)"
       xml:space="preserve"
       stroke-miterlimit="10.433"
       font-style="normal"
       font-variant="normal"
       font-weight="normal"
       font-stretch="normal"
       font-size-adjust="none"
       letter-spacing="normal"
       word-spacing="normal"
       ns0:text="air (a)"
       ns0:preamble="C:\\Users\\RASPI\\Desktop\\THESIS DOCUMENTS\\Thesis Writing\\phd\\Misc\\textext_preamble.tex">
<path
   style="fill:#000000;stroke-width:0"
   inkscape:connector-curvature="0"
   d="m 227.75,710.8 -0.01,0.11 0,0.06 0,0.05 -0.01,0.06 -0.01,0.06 -0.01,0.05 -0.01,0.06 -0.01,0.06 -0.02,0.05 -0.02,0.06 -0.02,0.05 -0.03,0.06 -0.03,0.05 -0.04,0.05 -0.04,0.05 -0.04,0.05 -0.05,0.04 -0.05,0.05 -0.06,0.04 -0.06,0.04 -0.04,0.02 -0.03,0.01 -0.04,0.02 -0.04,0.02 -0.04,0.01 -0.04,0.02 -0.04,0.01 -0.04,0.02 -0.05,0.01 -0.05,0.01 -0.05,0.01 -0.05,0.01 -0.05,0.01 -0.06,0.01 -0.05,0.01 -0.06,0.01 -0.06,0 -0.06,0.01 -0.07,0 -0.06,0 -0.07,0 -0.07,0 c -1.12,0 -2.01,-0.58 -2.01,-1.13 0,-0.32 0.37,-0.47 0.56,-0.47 0.21,0 0.27,0.11 0.32,0.28 0.22,0.74 0.62,0.98 1.02,0.98 0.39,0 0.85,-0.2 0.85,-1 v -0.42 -0.41 -1.4 c 0,-0.81 -0.62,-1.02 -1.01,-1.02 -0.61,0 -0.91,0.44 -0.91,1.03 0,0.47 0.22,0.7 0.77,0.91 0.4,0.15 0.93,0.34 1.15,0.48 v 0.41 c -0.25,-0.26 -1.22,-0.51 -2,-0.76 -0.72,-0.22 -0.93,-0.71 -0.93,-1.18 0,-0.75 0.5,-1.42 1.43,-1.42 0.62,0.02 1.17,0.39 1.49,0.6 0.14,-0.37 0.3,-0.6 0.65,-0.6 0.37,0 0.79,0.11 1.17,0.3 l -0.06,0.24 c -0.14,-0.03 -0.36,-0.05 -0.5,-0.01 -0.18,0.04 -0.35,0.23 -0.35,0.86 z"
   id="path3952" />
<path
   style="fill:#000000;stroke-width:0"
   inkscape:connector-curvature="0"
   d="m 229.01,711.88 v -0.25 l 0.38,-0.05 c 0.26,-0.04 0.32,-0.09 0.32,-0.45 v -3.14 c 0,-0.51 -0.03,-0.53 -0.75,-0.58 v -0.29 h 2.44 v 0.29 c -0.71,0.05 -0.75,0.07 -0.75,0.58 v 4.07 l -0.07,0.06 z"
   id="path3954" />
<path
   style="fill:#000000;stroke-width:0"
   inkscape:connector-curvature="0"
   d="m 230.17,714.25 -0.03,0 -0.04,-0.01 -0.03,0 -0.03,-0.01 -0.03,0 -0.03,-0.01 -0.03,-0.01 -0.03,-0.01 -0.02,-0.01 -0.03,-0.02 -0.03,-0.01 -0.02,-0.01 -0.02,-0.02 -0.03,-0.02 -0.02,-0.02 -0.02,-0.02 -0.02,-0.02 -0.02,-0.02 -0.01,-0.02 -0.02,-0.03 -0.02,-0.02 -0.01,-0.03 -0.01,-0.03 -0.01,-0.02 -0.01,-0.03 -0.01,-0.03 -0.01,-0.03 -0.01,-0.03 0,-0.03 -0.01,-0.04 0,-0.03 0,-0.03 c 0,-0.35 0.25,-0.6 0.61,-0.6 0.37,0 0.6,0.25 0.61,0.6 0,0.36 -0.24,0.62 -0.61,0.62 z"
   id="path3956" />
<path
   style="fill:#000000;stroke-width:0"
   inkscape:connector-curvature="0"
   d="m 233.42,712.12 -1.51,-0.24 v -0.25 l 0.38,-0.05 c 0.26,-0.04 0.32,-0.09 0.32,-0.45 v -3.14 c 0,-0.51 -0.05,-0.53 -0.75,-0.58 v -0.29 h 2.63 v 0.29 c -0.89,0.05 -0.95,0.07 -0.95,0.58 v 2.33 c 0,0.77 0.34,1.03 0.57,1.03 0.16,0 0.33,-0.06 0.62,-0.22 0.07,-0.04 0.15,-0.05 0.2,-0.05 0.24,0 0.46,0.25 0.46,0.56 0,0.21 -0.14,0.48 -0.53,0.48 -0.36,0 -0.66,-0.21 -1.32,-0.79 z"
   id="path3958" />
<path
   style="fill:#000000;stroke-width:0"
   inkscape:connector-curvature="0"
   d="m 239.4,709.93 0,0.13 0.01,0.13 0,0.13 0,0.12 0.01,0.24 0.02,0.23 0.02,0.22 0.03,0.2 0.03,0.2 0.03,0.19 0.03,0.17 0.04,0.17 0.05,0.16 0.04,0.14 0.05,0.14 0.05,0.13 0.05,0.13 0.06,0.11 0.05,0.11 0.06,0.09 0.06,0.09 0.06,0.09 0.06,0.07 0.06,0.07 0.07,0.07 0.06,0.05 0.06,0.06 0.07,0.04 0.06,0.04 0.06,0.03 0.07,0.03 0.06,0.02 0.06,0.02 0.06,0.02 v 0.25 c -1.75,-0.07 -2.19,-2.24 -2.19,-4.09 0,-1.85 0.44,-4.01 2.19,-4.08 v 0.25 c -0.58,0.12 -1.5,0.96 -1.5,3.83 z"
   id="path3960" />
<path
   style="fill:#000000;stroke-width:0"
   inkscape:connector-curvature="0"
   d="m 245.46,710.8 0,0.11 0,0.06 -0.01,0.05 0,0.06 -0.01,0.06 -0.01,0.05 -0.01,0.06 -0.02,0.06 -0.01,0.05 -0.03,0.06 -0.02,0.05 -0.03,0.06 -0.03,0.05 -0.03,0.05 -0.04,0.05 -0.05,0.05 -0.04,0.04 -0.06,0.05 -0.05,0.04 -0.07,0.04 -0.03,0.02 -0.04,0.01 -0.03,0.02 -0.04,0.02 -0.04,0.01 -0.04,0.02 -0.05,0.01 -0.04,0.02 -0.05,0.01 -0.04,0.01 -0.05,0.01 -0.05,0.01 -0.06,0.01 -0.05,0.01 -0.06,0.01 -0.05,0.01 -0.06,0 -0.07,0.01 -0.06,0 -0.07,0 -0.06,0 -0.07,0 c -1.13,0 -2.01,-0.58 -2.01,-1.13 0,-0.32 0.36,-0.47 0.55,-0.47 0.21,0 0.27,0.11 0.32,0.28 0.22,0.74 0.63,0.98 1.03,0.98 0.39,0 0.85,-0.2 0.85,-1 v -0.42 -0.41 -1.4 c 0,-0.81 -0.62,-1.02 -1.01,-1.02 -0.62,0 -0.92,0.44 -0.92,1.03 0,0.47 0.22,0.7 0.78,0.91 0.4,0.15 0.93,0.34 1.15,0.48 v 0.41 c -0.25,-0.26 -1.22,-0.51 -2.01,-0.76 -0.71,-0.22 -0.92,-0.71 -0.92,-1.18 0,-0.75 0.49,-1.42 1.43,-1.42 0.62,0.02 1.17,0.39 1.48,0.6 0.14,-0.37 0.3,-0.6 0.65,-0.6 0.37,0 0.8,0.11 1.18,0.3 l -0.06,0.24 c -0.14,-0.03 -0.36,-0.05 -0.51,-0.01 -0.18,0.04 -0.35,0.23 -0.35,0.86 z"
   id="path3962" />
<path
   style="fill:#000000;stroke-width:0"
   inkscape:connector-curvature="0"
   d="m 248.1,709.93 0,-0.13 -0.01,-0.13 0,-0.13 0,-0.12 -0.01,-0.12 -0.01,-0.12 -0.01,-0.23 -0.03,-0.22 -0.02,-0.21 -0.03,-0.19 -0.04,-0.19 -0.03,-0.18 -0.04,-0.16 -0.05,-0.16 -0.04,-0.15 -0.05,-0.14 -0.06,-0.13 -0.05,-0.12 -0.05,-0.12 -0.06,-0.1 -0.06,-0.1 -0.06,-0.09 -0.06,-0.08 -0.06,-0.08 -0.07,-0.07 -0.06,-0.06 -0.06,-0.06 -0.06,-0.05 -0.07,-0.04 -0.06,-0.04 -0.06,-0.03 -0.06,-0.03 -0.06,-0.02 -0.05,-0.02 -0.06,-0.01 v -0.25 c 1.75,0.07 2.19,2.23 2.19,4.08 0,1.85 -0.44,4.02 -2.19,4.09 v -0.25 c 0.63,-0.13 1.5,-0.99 1.5,-3.84 z"
   id="path3964" />
</g>    <g
       style="font-style:normal;font-variant:normal;font-weight:normal;font-stretch:normal;letter-spacing:normal;word-spacing:normal;text-anchor:start;fill:none;stroke:#000000;stroke-linecap:butt;stroke-linejoin:miter;stroke-miterlimit:10.43299961;stroke-opacity:1;stroke-dasharray:none;stroke-dashoffset:0"
       ns0:preamble="C:\\local\\ali.saad\\0_Bureau Norwich\\THESIS DOCUMENTS\\Thesis Writing\\phd\\Misc\\textext_preamble.tex"
       ns0:text="l+s"
       word-spacing="normal"
       letter-spacing="normal"
       font-size-adjust="none"
       font-stretch="normal"
       font-weight="normal"
       font-variant="normal"
       font-style="normal"
       stroke-miterlimit="10.433"
       xml:space="preserve"
       transform="matrix(2.3391531,-0.02672199,-0.02672199,-2.3391531,777.104,1923.6191)"
       id="content">
<path
   id="path3497"
   d="m 225.32,714.46 -0.07,0.06 -1.57,-0.25 v -0.25 l 0.38,-0.04 c 0.26,-0.03 0.32,-0.08 0.32,-0.46 v -5.53 c 0,-0.51 -0.03,-0.53 -0.75,-0.58 v -0.29 h 2.43 v 0.29 c -0.71,0.05 -0.74,0.07 -0.74,0.58 z"
   inkscape:connector-curvature="0"
   style="fill:#000000;stroke-width:0" />
<polygon
   id="polygon3499"
   points="229.39,709.32 231.46,709.32 231.46,709.9 229.39,709.9 229.39,712 228.72,712 228.72,709.9 226.64,709.9 226.64,709.32 228.72,709.32 228.72,707.12 229.39,707.12 "
   style="fill:#000000;stroke-width:0" />
<path
   id="path3501"
   d="m 235.55,710.62 v 1.16 c -0.33,0.24 -0.84,0.34 -1.29,0.34 -1.07,0 -1.8,-0.5 -1.81,-1.45 0.01,-0.83 0.68,-1.2 1.51,-1.45 0.44,-0.13 1.07,-0.36 1.07,-1.04 0,-0.51 -0.4,-0.83 -0.93,-0.83 -0.8,0 -1.25,0.59 -1.45,1.44 h -0.29 l 0.1,-1.31 c 0.36,-0.32 0.97,-0.48 1.55,-0.48 1.19,0 1.87,0.63 1.87,1.48 0,0.87 -0.54,1.27 -1.57,1.59 -0.41,0.13 -1.06,0.34 -1.06,0.9 0.01,0.52 0.4,0.81 0.89,0.81 0.71,0 1.05,-0.55 1.12,-1.16 z"
   inkscape:connector-curvature="0"
   style="fill:#000000;stroke-width:0" />
</g>    <path
       style="fill:none;stroke:#000000;stroke-width:1px;stroke-linecap:butt;stroke-linejoin:miter;stroke-opacity:1;marker-start:url(#Arrow2Lstart);marker-mid:none;marker-end:url(#marker3216)"
       d="m 1169.353,104.34563 62.4987,-66.344857"
       id="path4640"
       inkscape:connector-curvature="0"
       sodipodi:nodetypes="cc" />
    <path
       inkscape:connector-curvature="0"
       id="path6362"
       d="m 1308.5814,102.42259 -0.3205,-60.575738"
       style="fill:none;stroke:#000000;stroke-width:1px;stroke-linecap:butt;stroke-linejoin:miter;stroke-opacity:1;marker-start:url(#Arrow2Lstart);marker-mid:none;marker-end:url(#marker3216)"
       sodipodi:nodetypes="cc" />
    <path
       sodipodi:nodetypes="cc"
       style="fill:none;stroke:#000000;stroke-width:1px;stroke-linecap:butt;stroke-linejoin:miter;stroke-opacity:1;marker-start:url(#Arrow2Lstart);marker-mid:none;marker-end:url(#marker3216)"
       d="M 1416.8633,83.457007 1383.3089,39.979505"
       id="path6364"
       inkscape:connector-curvature="0" />
    <text
       sodipodi:linespacing="129%"
       id="text3125"
       y="171.08771"
       x="1075.0621"
       style="font-size:10.79587936px;font-style:normal;font-variant:normal;font-weight:normal;font-stretch:normal;text-align:start;line-height:128.99999619%;letter-spacing:0px;word-spacing:0px;writing-mode:lr-tb;text-anchor:start;fill:#000000;fill-opacity:1;stroke:none;font-family:Calibri;-inkscape-font-specification:Calibri"
       xml:space="preserve"><tspan
         y="171.08771"
         x="1075.0621"
         id="tspan3127"
         sodipodi:role="line">$\Kmodif^{-1} \rightarrow  0  $</tspan></text>
    <text
       xml:space="preserve"
       style="font-size:10.79587936px;font-style:normal;font-variant:normal;font-weight:normal;font-stretch:normal;text-align:start;line-height:128.99999619%;letter-spacing:0px;word-spacing:0px;writing-mode:lr-tb;text-anchor:start;fill:#000000;fill-opacity:1;stroke:none;font-family:Calibri;-inkscape-font-specification:Calibri"
       x="1246.8536"
       y="32.628883"
       id="text3129"
       sodipodi:linespacing="129%"><tspan
         sodipodi:role="line"
         id="tspan3131"
         x="1246.8536"
         y="32.628883">$\Kmodif^{-1} \rightarrow  0  $</tspan></text>
    <text
       xml:space="preserve"
       style="font-size:10.79587936px;font-style:normal;font-variant:normal;font-weight:normal;font-stretch:normal;text-align:start;line-height:128.99999619%;letter-spacing:0px;word-spacing:0px;writing-mode:lr-tb;text-anchor:start;fill:#000000;fill-opacity:1;stroke:none;font-family:Calibri;-inkscape-font-specification:Calibri"
       x="1351.9797"
       y="171.08771"
       id="text3141"
       sodipodi:linespacing="129%"><tspan
         sodipodi:role="line"
         id="tspan3143"
         x="1351.9797"
         y="171.08771">$\Kmodif^{-1} \rightarrow  \infty $</tspan></text>
    <text
       sodipodi:linespacing="129%"
       id="text3145"
       y="1267.54"
       x="296.66858"
       style="font-size:10.79587936px;font-style:normal;font-variant:normal;font-weight:normal;font-stretch:normal;text-align:start;line-height:128.99999619%;letter-spacing:0px;word-spacing:0px;writing-mode:lr-tb;text-anchor:start;fill:#000000;fill-opacity:1;stroke:none;font-family:Calibri;-inkscape-font-specification:Calibri"
       xml:space="preserve"
       transform="matrix(0.39571103,-0.91837508,0.91837508,0.39571103,0,0)"><tspan
         y="1267.54"
         x="296.66858"
         id="tspan3147"
         sodipodi:role="line">$0&lt;\Kmodif^{-1} &lt;  \infty $</tspan></text>
  </g>
</svg>
