<?xml version="1.0" encoding="UTF-8" standalone="no"?>
<!-- Created with Inkscape (http://www.inkscape.org/) -->

<svg
   xmlns:ns0="http://www.iki.fi/pav/software/textext/"
   xmlns:dc="http://purl.org/dc/elements/1.1/"
   xmlns:cc="http://creativecommons.org/ns#"
   xmlns:rdf="http://www.w3.org/1999/02/22-rdf-syntax-ns#"
   xmlns:svg="http://www.w3.org/2000/svg"
   xmlns="http://www.w3.org/2000/svg"
   xmlns:sodipodi="http://sodipodi.sourceforge.net/DTD/sodipodi-0.dtd"
   xmlns:inkscape="http://www.inkscape.org/namespaces/inkscape"
   width="425.00623"
   height="415.68054"
   id="svg2"
   version="1.1"
   inkscape:version="0.48.1 "
   sodipodi:docname="REV_triphase.svg">
  <sodipodi:namedview
     id="base"
     pagecolor="#ffffff"
     bordercolor="#666666"
     borderopacity="1.0"
     inkscape:pageopacity="0.0"
     inkscape:pageshadow="2"
     inkscape:zoom="1.5600306"
     inkscape:cx="256.29495"
     inkscape:cy="243.80365"
     inkscape:document-units="px"
     inkscape:current-layer="layer1"
     showgrid="false"
     inkscape:window-width="1920"
     inkscape:window-height="1019"
     inkscape:window-x="-9"
     inkscape:window-y="-9"
     inkscape:window-maximized="1"
     fit-margin-top="0"
     fit-margin-left="0"
     fit-margin-right="0"
     fit-margin-bottom="0" />
  <defs
     id="defs4">
    <marker
       style="overflow:visible"
       id="DotM"
       refX="0"
       refY="0"
       orient="auto"
       inkscape:stockid="DotM">
      <path
         transform="matrix(0.4,0,0,0.4,2.96,0.4)"
         style="fill-rule:evenodd;stroke:#000000;stroke-width:1pt;marker-start:none;marker-end:none"
         d="m -2.5,-1 c 0,2.76 -2.24,5 -5,5 -2.76,0 -5,-2.24 -5,-5 0,-2.76 2.24,-5 5,-5 2.76,0 5,2.24 5,5 z"
         id="path4883"
         inkscape:connector-curvature="0" />
    </marker>
    <marker
       style="overflow:visible"
       id="DotL"
       refX="0"
       refY="0"
       orient="auto"
       inkscape:stockid="DotL">
      <path
         transform="matrix(0.8,0,0,0.8,5.92,0.8)"
         style="fill-rule:evenodd;stroke:#000000;stroke-width:1pt;marker-start:none;marker-end:none"
         d="m -2.5,-1 c 0,2.76 -2.24,5 -5,5 -2.76,0 -5,-2.24 -5,-5 0,-2.76 2.24,-5 5,-5 2.76,0 5,2.24 5,5 z"
         id="path4880"
         inkscape:connector-curvature="0" />
    </marker>
    <marker
       style="overflow:visible"
       id="Arrow1Lend"
       refX="0"
       refY="0"
       orient="auto"
       inkscape:stockid="Arrow1Lend">
      <path
         transform="matrix(-0.8,0,0,-0.8,-10,0)"
         style="fill-rule:evenodd;stroke:#000000;stroke-width:1pt;marker-start:none"
         d="M 0,0 5,-5 -12.5,0 5,5 0,0 z"
         id="path3968"
         inkscape:connector-curvature="0" />
    </marker>
  </defs>
  <metadata
     id="metadata7">
    <rdf:RDF>
      <cc:Work
         rdf:about="">
        <dc:format>image/svg+xml</dc:format>
        <dc:type
           rdf:resource="http://purl.org/dc/dcmitype/StillImage" />
        <dc:title />
      </cc:Work>
    </rdf:RDF>
  </metadata>
  <g
     id="layer1"
     inkscape:groupmode="layer"
     inkscape:label="Layer 1"
     transform="translate(-174.32615,-314.41952)">
    <path
       transform="matrix(-0.98878492,0.2486496,-0.24423734,-1.0066478,943.8126,801.37726)"
       sodipodi:open="true"
       sodipodi:end="10.587943"
       sodipodi:start="4.4505896"
       d="m 488.51336,303.82409 c 74.95842,-20.08505 152.00637,24.39861 172.09142,99.35702 20.08504,74.95842 -24.39861,152.00637 -99.35703,172.09142 -74.95842,20.08505 -152.00637,-24.39861 -172.09142,-99.35703 -18.04382,-67.34046 16.01659,-137.72812 80.02021,-165.36603"
       sodipodi:ry="140.51205"
       sodipodi:rx="140.51205"
       sodipodi:cy="439.54831"
       sodipodi:cx="524.88055"
       id="path4559"
       style="fill:#a8a8ff;fill-opacity:0.18518515;stroke:none"
       sodipodi:type="arc" />
    <path
       sodipodi:type="arc"
       style="fill:#ffaeae;fill-opacity:0.18085106;stroke:none"
       id="path4461"
       sodipodi:cx="524.88055"
       sodipodi:cy="439.54831"
       sodipodi:rx="140.51205"
       sodipodi:ry="140.51205"
       d="m 488.51336,303.82409 c 74.95842,-20.08505 152.00637,24.39861 172.09142,99.35702 20.08504,74.95842 -24.39861,152.00637 -99.35703,172.09142 -74.95842,20.08505 -152.00637,-24.39861 -172.09142,-99.35703 -18.04382,-67.34046 16.01659,-137.72812 80.02021,-165.36603"
       sodipodi:start="4.4505896"
       sodipodi:end="10.587943"
       sodipodi:open="true"
       transform="matrix(-0.84412816,0.66091171,-0.66429431,-0.86317758,1138.4754,609.84428)" />
    <path
       transform="matrix(-1.0397103,0.2614558,-0.25681629,-1.0584932,1088.3165,795.67482)"
       sodipodi:open="true"
       sodipodi:end="10.587943"
       sodipodi:start="4.4505896"
       d="m 488.51336,303.82409 c 74.95842,-20.08505 152.00637,24.39861 172.09142,99.35702 20.08504,74.95842 -24.39861,152.00637 -99.35703,172.09142 -74.95842,20.08505 -152.00637,-24.39861 -172.09142,-99.35703 -18.04382,-67.34046 16.01659,-137.72812 80.02021,-165.36603"
       sodipodi:ry="140.51205"
       sodipodi:rx="140.51205"
       sodipodi:cy="439.54831"
       sodipodi:cx="524.88055"
       id="path4410"
       style="fill:#aeffae;fill-opacity:0.21808514;stroke:none"
       sodipodi:type="arc" />
    <path
       inkscape:connector-curvature="0"
       id="path3772"
       d="m 544.38659,426.39736 c -1.51909,-2.97532 -3.1205,-5.94074 -4.8233,-8.87498 -53.33127,22.42574 -95.55571,57.4808 -158.6559,66.92068 -2.69695,-2.37662 -4.61473,-4.05678 -5.50296,-5.11765 -1.8218,2.22899 -3.6582,4.37136 -5.51423,6.47115 -2.7985,0.27288 -5.62083,0.51658 -8.50445,0.68526 0.33821,1.34162 0.57415,3.88047 0.91713,7.45867 -44.65661,45.56897 -97.65458,58.92543 -147.09875,88.96561 1.69763,3.81987 3.38416,7.74617 5.29427,11.37742 47.25578,89.83643 157.91345,121.48975 245.316,82.50079 0.0383,0.0329 0.082,0.0594 0.12027,0.0922 0.37825,-0.21151 0.75961,-0.4274 1.13605,-0.64147 0.39689,-0.1806 0.78992,-0.36047 1.18588,-0.54385 -0.004,-0.0502 5e-5,-0.1013 -0.004,-0.1515 83.48518,-48.28022 122.79632,-157.74844 76.13415,-249.14235 z"
       style="fill:#ffaeae;fill-opacity:1;stroke:none"
       sodipodi:nodetypes="ccccccccsccccccc" />
    <path
       sodipodi:nodetypes="cccc"
       inkscape:connector-curvature="0"
       id="path3755"
       d="M 305.36887,346.62154 C 219.40501,390.5053 172.63144,501.28289 219.70932,593.50373 276.71027,572.01471 323.54885,535.21559 394.42331,533.82335 340.064,488.43619 313.4731,423.55004 305.36887,346.62154 z"
       style="fill:#c6d2ff;fill-opacity:1;stroke:none" />
    <path
       style="fill:#aeffae;fill-opacity:1;stroke:none"
       d="m 305.60418,346.49895 c 87.13659,-40.41035 199.65076,-6.80406 242.13943,86.89104 0.0862,0.19012 9.09266,15.00814 12.85364,34.59738 3.52805,18.37598 4.98713,40.57594 2.64197,59.81967 -81.47527,0 -88.11013,6.07111 -169.05414,6.07111 -6.85556,-8.16985 -77.83647,-54.1531 -88.5809,-187.3792 z"
       id="path3770"
       inkscape:connector-curvature="0"
       sodipodi:nodetypes="cssccc" />
    <path
       sodipodi:nodetypes="cc"
       inkscape:connector-curvature="0"
       id="path3780"
       d="m 481.67402,530.83933 -2.48346,-26.66777"
       style="fill:none;stroke:#000000;stroke-width:1px;stroke-linecap:butt;stroke-linejoin:miter;stroke-opacity:1;marker-start:none;marker-end:url(#Arrow1Lend)" />
    <path
       style="fill:none;stroke:#000000;stroke-width:1px;stroke-linecap:butt;stroke-linejoin:miter;stroke-opacity:1;marker-start:none;marker-end:url(#Arrow1Lend)"
       d="m 317.9848,415.5951 -29.28861,7.49298"
       id="path4406"
       inkscape:connector-curvature="0"
       sodipodi:nodetypes="cc" />
    <path
       sodipodi:nodetypes="cc"
       inkscape:connector-curvature="0"
       id="path4408"
       d="M 239.15686,585.52451 225.47741,557.64939"
       style="fill:none;stroke:#000000;stroke-width:1px;stroke-linecap:butt;stroke-linejoin:miter;stroke-opacity:1;marker-start:none;marker-end:url(#Arrow1Lend)" />
    <g
       ns0:preamble="C:\\Users\\RASPI\\Desktop\\THESIS DOCUMENTS\\Thesis Writing\\phd\\Misc\\textext_preamble.tex"
       ns0:text="air (a)"
       word-spacing="normal"
       letter-spacing="normal"
       font-size-adjust="none"
       font-stretch="normal"
       font-weight="normal"
       font-variant="normal"
       font-style="normal"
       stroke-miterlimit="10.433"
       xml:space="preserve"
       transform="matrix(1.9682349,1.2642794,1.2642794,-1.9682349,-857.54332,1454.7029)"
       id="content"
       style="font-style:normal;font-variant:normal;font-weight:normal;font-stretch:normal;letter-spacing:normal;word-spacing:normal;text-anchor:start;fill:none;stroke:#000000;stroke-linecap:butt;stroke-linejoin:miter;stroke-miterlimit:10.43299961;stroke-opacity:1;stroke-dasharray:none;stroke-dashoffset:0">
<path
   id="path4427"
   d="m 227.75,710.8 -0.01,0.11 0,0.06 0,0.05 -0.01,0.06 -0.01,0.06 -0.01,0.05 -0.01,0.06 -0.01,0.06 -0.02,0.05 -0.02,0.06 -0.02,0.05 -0.03,0.06 -0.03,0.05 -0.04,0.05 -0.04,0.05 -0.04,0.05 -0.05,0.04 -0.05,0.05 -0.06,0.04 -0.06,0.04 -0.04,0.02 -0.03,0.01 -0.04,0.02 -0.04,0.02 -0.04,0.01 -0.04,0.02 -0.04,0.01 -0.04,0.02 -0.05,0.01 -0.05,0.01 -0.05,0.01 -0.05,0.01 -0.05,0.01 -0.06,0.01 -0.05,0.01 -0.06,0.01 -0.06,0 -0.06,0.01 -0.07,0 -0.06,0 -0.07,0 -0.07,0 c -1.12,0 -2.01,-0.58 -2.01,-1.13 0,-0.32 0.37,-0.47 0.56,-0.47 0.21,0 0.27,0.11 0.32,0.28 0.22,0.74 0.62,0.98 1.02,0.98 0.39,0 0.85,-0.2 0.85,-1 v -0.42 -0.41 -1.4 c 0,-0.81 -0.62,-1.02 -1.01,-1.02 -0.61,0 -0.91,0.44 -0.91,1.03 0,0.47 0.22,0.7 0.77,0.91 0.4,0.15 0.93,0.34 1.15,0.48 v 0.41 c -0.25,-0.26 -1.22,-0.51 -2,-0.76 -0.72,-0.22 -0.93,-0.71 -0.93,-1.18 0,-0.75 0.5,-1.42 1.43,-1.42 0.62,0.02 1.17,0.39 1.49,0.6 0.14,-0.37 0.3,-0.6 0.65,-0.6 0.37,0 0.79,0.11 1.17,0.3 l -0.06,0.24 c -0.14,-0.03 -0.36,-0.05 -0.5,-0.01 -0.18,0.04 -0.35,0.23 -0.35,0.86 z"
   inkscape:connector-curvature="0"
   style="fill:#000000;stroke-width:0" />
<path
   id="path4429"
   d="m 229.01,711.88 v -0.25 l 0.38,-0.05 c 0.26,-0.04 0.32,-0.09 0.32,-0.45 v -3.14 c 0,-0.51 -0.03,-0.53 -0.75,-0.58 v -0.29 h 2.44 v 0.29 c -0.71,0.05 -0.75,0.07 -0.75,0.58 v 4.07 l -0.07,0.06 z"
   inkscape:connector-curvature="0"
   style="fill:#000000;stroke-width:0" />
<path
   id="path4431"
   d="m 230.17,714.25 -0.03,0 -0.04,-0.01 -0.03,0 -0.03,-0.01 -0.03,0 -0.03,-0.01 -0.03,-0.01 -0.03,-0.01 -0.02,-0.01 -0.03,-0.02 -0.03,-0.01 -0.02,-0.01 -0.02,-0.02 -0.03,-0.02 -0.02,-0.02 -0.02,-0.02 -0.02,-0.02 -0.02,-0.02 -0.01,-0.02 -0.02,-0.03 -0.02,-0.02 -0.01,-0.03 -0.01,-0.03 -0.01,-0.02 -0.01,-0.03 -0.01,-0.03 -0.01,-0.03 -0.01,-0.03 0,-0.03 -0.01,-0.04 0,-0.03 0,-0.03 c 0,-0.35 0.25,-0.6 0.61,-0.6 0.37,0 0.6,0.25 0.61,0.6 0,0.36 -0.24,0.62 -0.61,0.62 z"
   inkscape:connector-curvature="0"
   style="fill:#000000;stroke-width:0" />
<path
   id="path4433"
   d="m 233.42,712.12 -1.51,-0.24 v -0.25 l 0.38,-0.05 c 0.26,-0.04 0.32,-0.09 0.32,-0.45 v -3.14 c 0,-0.51 -0.05,-0.53 -0.75,-0.58 v -0.29 h 2.63 v 0.29 c -0.89,0.05 -0.95,0.07 -0.95,0.58 v 2.33 c 0,0.77 0.34,1.03 0.57,1.03 0.16,0 0.33,-0.06 0.62,-0.22 0.07,-0.04 0.15,-0.05 0.2,-0.05 0.24,0 0.46,0.25 0.46,0.56 0,0.21 -0.14,0.48 -0.53,0.48 -0.36,0 -0.66,-0.21 -1.32,-0.79 z"
   inkscape:connector-curvature="0"
   style="fill:#000000;stroke-width:0" />
<path
   id="path4435"
   d="m 239.4,709.93 0,0.13 0.01,0.13 0,0.13 0,0.12 0.01,0.24 0.02,0.23 0.02,0.22 0.03,0.2 0.03,0.2 0.03,0.19 0.03,0.17 0.04,0.17 0.05,0.16 0.04,0.14 0.05,0.14 0.05,0.13 0.05,0.13 0.06,0.11 0.05,0.11 0.06,0.09 0.06,0.09 0.06,0.09 0.06,0.07 0.06,0.07 0.07,0.07 0.06,0.05 0.06,0.06 0.07,0.04 0.06,0.04 0.06,0.03 0.07,0.03 0.06,0.02 0.06,0.02 0.06,0.02 v 0.25 c -1.75,-0.07 -2.19,-2.24 -2.19,-4.09 0,-1.85 0.44,-4.01 2.19,-4.08 v 0.25 c -0.58,0.12 -1.5,0.96 -1.5,3.83 z"
   inkscape:connector-curvature="0"
   style="fill:#000000;stroke-width:0" />
<path
   id="path4437"
   d="m 245.46,710.8 0,0.11 0,0.06 -0.01,0.05 0,0.06 -0.01,0.06 -0.01,0.05 -0.01,0.06 -0.02,0.06 -0.01,0.05 -0.03,0.06 -0.02,0.05 -0.03,0.06 -0.03,0.05 -0.03,0.05 -0.04,0.05 -0.05,0.05 -0.04,0.04 -0.06,0.05 -0.05,0.04 -0.07,0.04 -0.03,0.02 -0.04,0.01 -0.03,0.02 -0.04,0.02 -0.04,0.01 -0.04,0.02 -0.05,0.01 -0.04,0.02 -0.05,0.01 -0.04,0.01 -0.05,0.01 -0.05,0.01 -0.06,0.01 -0.05,0.01 -0.06,0.01 -0.05,0.01 -0.06,0 -0.07,0.01 -0.06,0 -0.07,0 -0.06,0 -0.07,0 c -1.13,0 -2.01,-0.58 -2.01,-1.13 0,-0.32 0.36,-0.47 0.55,-0.47 0.21,0 0.27,0.11 0.32,0.28 0.22,0.74 0.63,0.98 1.03,0.98 0.39,0 0.85,-0.2 0.85,-1 v -0.42 -0.41 -1.4 c 0,-0.81 -0.62,-1.02 -1.01,-1.02 -0.62,0 -0.92,0.44 -0.92,1.03 0,0.47 0.22,0.7 0.78,0.91 0.4,0.15 0.93,0.34 1.15,0.48 v 0.41 c -0.25,-0.26 -1.22,-0.51 -2.01,-0.76 -0.71,-0.22 -0.92,-0.71 -0.92,-1.18 0,-0.75 0.49,-1.42 1.43,-1.42 0.62,0.02 1.17,0.39 1.48,0.6 0.14,-0.37 0.3,-0.6 0.65,-0.6 0.37,0 0.8,0.11 1.18,0.3 l -0.06,0.24 c -0.14,-0.03 -0.36,-0.05 -0.51,-0.01 -0.18,0.04 -0.35,0.23 -0.35,0.86 z"
   inkscape:connector-curvature="0"
   style="fill:#000000;stroke-width:0" />
<path
   id="path4439"
   d="m 248.1,709.93 0,-0.13 -0.01,-0.13 0,-0.13 0,-0.12 -0.01,-0.12 -0.01,-0.12 -0.01,-0.23 -0.03,-0.22 -0.02,-0.21 -0.03,-0.19 -0.04,-0.19 -0.03,-0.18 -0.04,-0.16 -0.05,-0.16 -0.04,-0.15 -0.05,-0.14 -0.06,-0.13 -0.05,-0.12 -0.05,-0.12 -0.06,-0.1 -0.06,-0.1 -0.06,-0.09 -0.06,-0.08 -0.06,-0.08 -0.07,-0.07 -0.06,-0.06 -0.06,-0.06 -0.06,-0.05 -0.07,-0.04 -0.06,-0.04 -0.06,-0.03 -0.06,-0.03 -0.06,-0.02 -0.05,-0.02 -0.06,-0.01 v -0.25 c 1.75,0.07 2.19,2.23 2.19,4.08 0,1.85 -0.44,4.02 -2.19,4.09 v -0.25 c 0.63,-0.13 1.5,-0.99 1.5,-3.84 z"
   inkscape:connector-curvature="0"
   style="fill:#000000;stroke-width:0" />
</g>    <g
       id="g4502"
       transform="matrix(2.2816885,-0.51599295,-0.51599295,-2.2816885,257.06131,2447.04)"
       xml:space="preserve"
       stroke-miterlimit="10.433"
       font-style="normal"
       font-variant="normal"
       font-weight="normal"
       font-stretch="normal"
       font-size-adjust="none"
       letter-spacing="normal"
       word-spacing="normal"
       ns0:text="liquid (l)"
       ns0:preamble="C:\\Users\\RASPI\\Desktop\\THESIS DOCUMENTS\\Thesis Writing\\phd\\Misc\\textext_preamble.tex"
       style="font-style:normal;font-variant:normal;font-weight:normal;font-stretch:normal;letter-spacing:normal;word-spacing:normal;text-anchor:start;fill:none;stroke:#000000;stroke-linecap:butt;stroke-linejoin:miter;stroke-miterlimit:10.43299961;stroke-opacity:1;stroke-dasharray:none;stroke-dashoffset:0">
<path
   style="fill:#000000;stroke-width:0"
   inkscape:connector-curvature="0"
   d="m 225.32,714.46 -0.07,0.06 -1.57,-0.25 v -0.25 l 0.38,-0.04 c 0.26,-0.03 0.32,-0.08 0.32,-0.46 v -5.53 c 0,-0.51 -0.03,-0.53 -0.75,-0.58 v -0.29 h 2.43 v 0.29 c -0.71,0.05 -0.74,0.07 -0.74,0.58 z"
   id="path4504" />
<path
   style="fill:#000000;stroke-width:0"
   inkscape:connector-curvature="0"
   d="m 226.58,711.88 v -0.25 l 0.38,-0.05 c 0.26,-0.04 0.32,-0.09 0.32,-0.45 v -3.14 c 0,-0.51 -0.03,-0.53 -0.75,-0.58 v -0.29 h 2.43 v 0.29 c -0.7,0.05 -0.74,0.07 -0.74,0.58 v 4.07 l -0.07,0.06 z"
   id="path4506" />
<path
   style="fill:#000000;stroke-width:0"
   inkscape:connector-curvature="0"
   d="m 227.74,714.25 -0.03,0 -0.04,-0.01 -0.03,0 -0.03,-0.01 -0.03,0 -0.03,-0.01 -0.03,-0.01 -0.03,-0.01 -0.02,-0.01 -0.03,-0.02 -0.03,-0.01 -0.02,-0.01 -0.02,-0.02 -0.03,-0.02 -0.02,-0.02 -0.02,-0.02 -0.02,-0.02 -0.02,-0.02 -0.01,-0.02 -0.02,-0.03 -0.02,-0.02 -0.01,-0.03 -0.01,-0.03 -0.01,-0.02 -0.01,-0.03 -0.01,-0.03 -0.01,-0.03 -0.01,-0.03 0,-0.03 -0.01,-0.04 0,-0.03 0,-0.03 c 0,-0.35 0.25,-0.6 0.61,-0.6 0.37,0 0.6,0.25 0.61,0.6 0,0.36 -0.24,0.62 -0.61,0.62 z"
   id="path4508" />
<path
   style="fill:#000000;stroke-width:0"
   inkscape:connector-curvature="0"
   d="m 234.17,712.12 h -0.27 l -0.43,-0.3 c -0.37,0.2 -0.88,0.3 -1.31,0.3 l -0.08,-0.34 c 0.52,0 0.89,-0.18 1.07,-0.69 0.06,-0.16 0.09,-0.34 0.09,-0.58 v -1.68 c 0,-0.22 -0.01,-0.39 -0.08,-0.55 -0.18,-0.53 -0.56,-0.74 -1.11,-0.74 -0.99,0 -1.42,0.91 -1.42,2.03 0,1.23 0.43,2.21 1.45,2.21 l 0.08,0.34 c -0.8,0 -1.43,-0.23 -1.86,-0.68 -0.44,-0.45 -0.7,-1.1 -0.7,-2 0,-1.59 0.86,-2.44 2.07,-2.44 0.56,0 1.05,0.27 1.57,0.65 v -1.95 c 0,-0.51 -0.06,-0.53 -0.8,-0.58 v -0.29 h 2.48 v 0.29 c -0.69,0.05 -0.75,0.07 -0.75,0.58 z"
   id="path4510" />
<path
   style="fill:#000000;stroke-width:0"
   inkscape:connector-curvature="0"
   d="m 240.88,707.12 v 0.29 c -0.68,0.05 -0.74,0.07 -0.74,0.58 v 4.07 l -0.07,0.06 -1.57,-0.24 v -0.25 l 0.38,-0.05 c 0.26,-0.04 0.32,-0.09 0.32,-0.45 v -2.24 c 0,-0.28 -0.03,-0.5 -0.08,-0.6 -0.23,-0.46 -0.71,-0.75 -1.22,-0.75 -0.58,0 -1.01,0.36 -1.01,1.14 v 3.38 l -0.07,0.06 -1.56,-0.24 v -0.25 l 0.37,-0.05 c 0.26,-0.04 0.32,-0.09 0.32,-0.45 v -2.63 c 0,-1.15 0.68,-1.5 1.42,-1.5 0.84,0 1.53,0.58 1.82,0.72 l 0.1,-0.6 z"
   id="path4512" />
<path
   style="fill:#000000;stroke-width:0"
   inkscape:connector-curvature="0"
   d="m 241.4,711.88 v -0.25 l 0.38,-0.05 c 0.26,-0.04 0.32,-0.09 0.32,-0.45 v -3.14 c 0,-0.51 -0.03,-0.53 -0.75,-0.58 v -0.29 h 2.44 v 0.29 c -0.71,0.05 -0.75,0.07 -0.75,0.58 v 4.07 l -0.07,0.06 z"
   id="path4514" />
<path
   style="fill:#000000;stroke-width:0"
   inkscape:connector-curvature="0"
   d="m 242.56,714.25 -0.03,0 -0.04,-0.01 -0.03,0 -0.03,-0.01 -0.03,0 -0.03,-0.01 -0.03,-0.01 -0.03,-0.01 -0.02,-0.01 -0.03,-0.02 -0.03,-0.01 -0.02,-0.01 -0.02,-0.02 -0.03,-0.02 -0.02,-0.02 -0.02,-0.02 -0.02,-0.02 -0.02,-0.02 -0.01,-0.02 -0.02,-0.03 -0.02,-0.02 -0.01,-0.03 -0.01,-0.03 -0.01,-0.02 -0.01,-0.03 -0.01,-0.03 -0.01,-0.03 -0.01,-0.03 0,-0.03 -0.01,-0.04 0,-0.03 0,-0.03 c 0,-0.35 0.25,-0.6 0.61,-0.6 0.37,0 0.6,0.25 0.61,0.6 0,0.36 -0.24,0.62 -0.61,0.62 z"
   id="path4516" />
<path
   style="fill:#000000;stroke-width:0"
   inkscape:connector-curvature="0"
   d="m 249.75,707.12 v 0.29 c -0.71,0.05 -0.75,0.07 -0.75,0.58 v 6.47 l -0.07,0.06 -1.56,-0.25 v -0.25 l 0.37,-0.04 c 0.26,-0.03 0.32,-0.08 0.32,-0.46 v -1.63 c -0.28,0.14 -0.65,0.23 -1.1,0.23 l -0.01,-0.34 c 0.46,0 0.84,-0.22 1.02,-0.63 0.08,-0.17 0.09,-0.31 0.09,-0.58 v -1.75 c 0,-0.22 -0.01,-0.39 -0.07,-0.56 -0.2,-0.52 -0.64,-0.72 -1.15,-0.72 -0.92,0 -1.38,0.9 -1.38,2.04 0,1.3 0.47,2.2 1.49,2.2 l 0.01,0.34 c -0.82,0 -1.43,-0.26 -1.85,-0.68 -0.43,-0.45 -0.68,-1.11 -0.68,-1.98 0,-1.47 0.76,-2.46 2.08,-2.46 0.54,0 1,0.24 1.54,0.68 v -0.49 l 0.08,-0.07 z"
   id="path4518" />
<path
   style="fill:#000000;stroke-width:0"
   inkscape:connector-curvature="0"
   d="m 253.88,709.93 0,0.13 0,0.13 0,0.13 0.01,0.12 0.01,0.24 0.02,0.23 0.02,0.22 0.02,0.2 0.03,0.2 0.03,0.19 0.04,0.17 0.04,0.17 0.04,0.16 0.05,0.14 0.04,0.14 0.05,0.13 0.06,0.13 0.05,0.11 0.06,0.11 0.05,0.09 0.06,0.09 0.06,0.09 0.07,0.07 0.06,0.07 0.06,0.07 0.06,0.05 0.07,0.06 0.06,0.04 0.07,0.04 0.06,0.03 0.06,0.03 0.06,0.02 0.06,0.02 0.06,0.02 v 0.25 c -1.74,-0.07 -2.19,-2.24 -2.19,-4.09 0,-1.85 0.45,-4.01 2.19,-4.08 v 0.25 c -0.58,0.12 -1.49,0.96 -1.49,3.83 z"
   id="path4520" />
<path
   style="fill:#000000;stroke-width:0"
   inkscape:connector-curvature="0"
   d="m 257.51,714.46 -0.07,0.06 -1.57,-0.25 v -0.25 l 0.38,-0.04 c 0.26,-0.03 0.32,-0.08 0.32,-0.46 v -5.53 c 0,-0.51 -0.03,-0.53 -0.75,-0.58 v -0.29 h 2.43 v 0.29 c -0.7,0.05 -0.74,0.07 -0.74,0.58 z"
   id="path4522" />
<path
   style="fill:#000000;stroke-width:0"
   inkscape:connector-curvature="0"
   d="m 260.14,709.93 0,-0.13 0,-0.13 0,-0.13 -0.01,-0.12 -0.01,-0.12 0,-0.12 -0.02,-0.23 -0.02,-0.22 -0.03,-0.21 -0.03,-0.19 -0.03,-0.19 -0.04,-0.18 -0.04,-0.16 -0.04,-0.16 -0.05,-0.15 -0.05,-0.14 -0.05,-0.13 -0.05,-0.12 -0.06,-0.12 -0.06,-0.1 -0.06,-0.1 -0.06,-0.09 -0.06,-0.08 -0.06,-0.08 -0.06,-0.07 -0.06,-0.06 -0.07,-0.06 -0.06,-0.05 -0.06,-0.04 -0.06,-0.04 -0.06,-0.03 -0.06,-0.03 -0.06,-0.02 -0.06,-0.02 -0.05,-0.01 v -0.25 c 1.74,0.07 2.19,2.23 2.19,4.08 0,1.85 -0.45,4.02 -2.19,4.09 v -0.25 c 0.62,-0.13 1.49,-0.99 1.49,-3.84 z"
   id="path4524" />
</g>    <g
       style="font-style:normal;font-variant:normal;font-weight:normal;font-stretch:normal;letter-spacing:normal;word-spacing:normal;text-anchor:start;fill:none;stroke:#000000;stroke-linecap:butt;stroke-linejoin:miter;stroke-miterlimit:10.43299961;stroke-opacity:1;stroke-dasharray:none;stroke-dashoffset:0"
       ns0:preamble="C:\\Users\\RASPI\\Desktop\\THESIS DOCUMENTS\\Thesis Writing\\phd\\Misc\\textext_preamble.tex"
       ns0:text="solid (s)"
       word-spacing="normal"
       letter-spacing="normal"
       font-size-adjust="none"
       font-stretch="normal"
       font-weight="normal"
       font-variant="normal"
       font-style="normal"
       stroke-miterlimit="10.433"
       xml:space="preserve"
       transform="matrix(0.87531774,-2.1693708,-2.1693708,-0.87531774,1535.2184,1579.1213)"
       id="g4621">
<path
   id="path4623"
   d="m 227.09,710.62 v 1.16 c -0.33,0.24 -0.84,0.34 -1.29,0.34 -1.07,0 -1.8,-0.5 -1.81,-1.45 0.01,-0.83 0.68,-1.2 1.5,-1.45 0.45,-0.13 1.08,-0.36 1.08,-1.04 0,-0.51 -0.4,-0.83 -0.93,-0.83 -0.8,0 -1.25,0.59 -1.45,1.44 h -0.29 l 0.1,-1.31 c 0.36,-0.32 0.97,-0.48 1.55,-0.48 1.19,0 1.87,0.63 1.87,1.48 0,0.87 -0.54,1.27 -1.57,1.59 -0.4,0.13 -1.06,0.34 -1.06,0.9 0.01,0.52 0.4,0.81 0.89,0.81 0.71,0 1.05,-0.55 1.12,-1.16 z"
   inkscape:connector-curvature="0"
   style="fill:#000000;stroke-width:0" />
<path
   id="path4625"
   d="m 230.64,712.12 v -0.34 c 0.93,0 1.36,-0.84 1.36,-2.22 0,-1.37 -0.43,-2.21 -1.36,-2.21 -0.9,0 -1.34,0.84 -1.34,2.21 h 0 c 0,1.38 0.44,2.22 1.34,2.22 v 0.34 c -1.59,0 -2.38,-0.94 -2.38,-2.56 0,-1.61 0.79,-2.56 2.38,-2.56 1.62,0 2.4,0.95 2.4,2.56 0,1.62 -0.78,2.56 -2.4,2.56 z"
   inkscape:connector-curvature="0"
   style="fill:#000000;stroke-width:0" />
<path
   id="path4627"
   d="m 235.41,714.46 -0.07,0.06 -1.56,-0.25 v -0.25 l 0.37,-0.04 c 0.26,-0.03 0.32,-0.08 0.32,-0.46 v -5.53 c 0,-0.51 -0.03,-0.53 -0.74,-0.58 v -0.29 h 2.43 v 0.29 c -0.71,0.05 -0.75,0.07 -0.75,0.58 z"
   inkscape:connector-curvature="0"
   style="fill:#000000;stroke-width:0" />
<path
   id="path4629"
   d="m 236.67,711.88 v -0.25 l 0.38,-0.05 c 0.26,-0.04 0.32,-0.09 0.32,-0.45 v -3.14 c 0,-0.51 -0.03,-0.53 -0.75,-0.58 v -0.29 h 2.43 v 0.29 c -0.7,0.05 -0.75,0.07 -0.75,0.58 v 4.07 l -0.06,0.06 z"
   inkscape:connector-curvature="0"
   style="fill:#000000;stroke-width:0" />
<path
   id="path4631"
   d="m 237.83,714.25 -0.04,0 -0.03,-0.01 -0.03,0 -0.03,-0.01 -0.03,0 -0.03,-0.01 -0.03,-0.01 -0.03,-0.01 -0.03,-0.01 -0.02,-0.02 -0.03,-0.01 -0.02,-0.01 -0.03,-0.02 -0.02,-0.02 -0.02,-0.02 -0.02,-0.02 -0.02,-0.02 -0.02,-0.02 -0.02,-0.02 -0.01,-0.03 -0.02,-0.02 -0.01,-0.03 -0.02,-0.03 -0.01,-0.02 -0.01,-0.03 -0.01,-0.03 0,-0.03 -0.01,-0.03 0,-0.03 -0.01,-0.04 0,-0.03 0,-0.03 c 0,-0.35 0.25,-0.6 0.61,-0.6 0.37,0 0.6,0.25 0.6,0.6 0,0.36 -0.23,0.62 -0.6,0.62 z"
   inkscape:connector-curvature="0"
   style="fill:#000000;stroke-width:0" />
<path
   id="path4633"
   d="m 245.01,707.12 v 0.29 c -0.7,0.05 -0.74,0.07 -0.74,0.58 v 6.47 l -0.07,0.06 -1.57,-0.25 v -0.25 l 0.38,-0.04 c 0.26,-0.03 0.32,-0.08 0.32,-0.46 v -1.63 c -0.28,0.14 -0.65,0.23 -1.11,0.23 l -0.01,-0.34 c 0.47,0 0.85,-0.22 1.03,-0.63 0.08,-0.17 0.09,-0.31 0.09,-0.58 v -1.75 c 0,-0.22 -0.01,-0.39 -0.07,-0.56 -0.2,-0.52 -0.64,-0.72 -1.16,-0.72 -0.91,0 -1.37,0.9 -1.37,2.04 0,1.3 0.47,2.2 1.48,2.2 l 0.01,0.34 c -0.81,0 -1.42,-0.26 -1.84,-0.68 -0.43,-0.45 -0.69,-1.11 -0.69,-1.98 0,-1.47 0.77,-2.46 2.08,-2.46 0.54,0 1.01,0.24 1.55,0.68 v -0.49 l 0.08,-0.07 z"
   inkscape:connector-curvature="0"
   style="fill:#000000;stroke-width:0" />
<path
   id="path4635"
   d="m 249.15,709.93 0,0.13 0,0.13 0,0.13 0.01,0.12 0.01,0.24 0.01,0.23 0.03,0.22 0.02,0.2 0.03,0.2 0.03,0.19 0.04,0.17 0.04,0.17 0.04,0.16 0.04,0.14 0.05,0.14 0.05,0.13 0.05,0.13 0.06,0.11 0.05,0.11 0.06,0.09 0.06,0.09 0.06,0.09 0.06,0.07 0.07,0.07 0.06,0.07 0.06,0.05 0.07,0.06 0.06,0.04 0.06,0.04 0.07,0.03 0.06,0.03 0.06,0.02 0.06,0.02 0.06,0.02 v 0.25 c -1.74,-0.07 -2.19,-2.24 -2.19,-4.09 0,-1.85 0.45,-4.01 2.19,-4.08 v 0.25 c -0.58,0.12 -1.49,0.96 -1.49,3.83 z"
   inkscape:connector-curvature="0"
   style="fill:#000000;stroke-width:0" />
<path
   id="path4637"
   d="m 254.55,710.62 v 1.16 c -0.33,0.24 -0.84,0.34 -1.29,0.34 -1.08,0 -1.8,-0.5 -1.81,-1.45 0.01,-0.83 0.68,-1.2 1.5,-1.45 0.45,-0.13 1.08,-0.36 1.08,-1.04 0,-0.51 -0.4,-0.83 -0.93,-0.83 -0.81,0 -1.25,0.59 -1.45,1.44 h -0.29 l 0.1,-1.31 c 0.36,-0.32 0.96,-0.48 1.55,-0.48 1.19,0 1.87,0.63 1.87,1.48 0,0.87 -0.54,1.27 -1.57,1.59 -0.41,0.13 -1.07,0.34 -1.07,0.9 0.02,0.52 0.4,0.81 0.9,0.81 0.71,0 1.05,-0.55 1.12,-1.16 z"
   inkscape:connector-curvature="0"
   style="fill:#000000;stroke-width:0" />
<path
   id="path4639"
   d="m 256.98,709.93 0,-0.13 -0.01,-0.13 0,-0.13 0,-0.12 -0.01,-0.12 -0.01,-0.12 -0.01,-0.23 -0.03,-0.22 -0.02,-0.21 -0.03,-0.19 -0.04,-0.19 -0.03,-0.18 -0.04,-0.16 -0.05,-0.16 -0.04,-0.15 -0.05,-0.14 -0.06,-0.13 -0.05,-0.12 -0.05,-0.12 -0.06,-0.1 -0.06,-0.1 -0.06,-0.09 -0.06,-0.08 -0.06,-0.08 -0.07,-0.07 -0.06,-0.06 -0.06,-0.06 -0.06,-0.05 -0.07,-0.04 -0.06,-0.04 -0.06,-0.03 -0.06,-0.03 -0.06,-0.02 -0.05,-0.02 -0.06,-0.01 v -0.25 c 1.75,0.07 2.19,2.23 2.19,4.08 0,1.85 -0.44,4.02 -2.19,4.09 v -0.25 c 0.63,-0.13 1.5,-0.99 1.5,-3.84 z"
   inkscape:connector-curvature="0"
   style="fill:#000000;stroke-width:0" />
</g>    <g
       style="font-style:normal;font-variant:normal;font-weight:normal;font-stretch:normal;letter-spacing:normal;word-spacing:normal;text-anchor:start;fill:none;stroke:#000000;stroke-linecap:butt;stroke-linejoin:miter;stroke-miterlimit:10.43299961;stroke-opacity:1;stroke-dasharray:none;stroke-dashoffset:0"
       id="g3165"
       transform="matrix(2.3607356,0,0,-2.3607356,-338.73882,2280.4981)"
       xml:space="preserve"
       stroke-miterlimit="10.433"
       font-style="normal"
       font-variant="normal"
       font-weight="normal"
       font-stretch="normal"
       font-size-adjust="none"
       letter-spacing="normal"
       word-spacing="normal"
       ns0:text="$\\liqsol$"
       ns0:preamble="C:\\local\\ali.saad\\0_Bureau Norwich\\THESIS DOCUMENTS\\Thesis Writing\\phd\\Misc\\textext_preamble.tex">
<path
   style="fill:#000000;stroke-width:0"
   inkscape:connector-curvature="0"
   d="m 226,713.93 0,0 0,0 0,0 0,0 0,0 0,0.01 0,0 0,0 0,0.01 0,0 0,0.01 0,0 0,0.01 -0.01,0 0,0.01 0,0 0,0.01 -0.01,0 0,0.01 0,0 -0.01,0 0,0.01 0,0 -0.01,0 0,0 0,0.01 -0.01,0 0,0 0,0 -0.01,0 0,0 0,0.01 -0.01,0 0,0 -0.01,0 0,0 0,0 -0.01,0 0,0 -0.01,0.01 0,0 -0.01,0 -0.01,0 0,0 -0.01,0 c -0.23,0 -0.95,-0.08 -1.21,-0.1 -0.08,-0.01 -0.19,-0.02 -0.19,-0.21 0,-0.11 0.1,-0.11 0.25,-0.11 0.48,0 0.49,-0.09 0.49,-0.17 l -0.03,-0.2 -1.26,-4.98 c -0.03,-0.11 -0.05,-0.18 -0.05,-0.34 0,-0.57 0.44,-0.92 0.91,-0.92 0.33,0 0.57,0.2 0.74,0.56 0.18,0.38 0.3,0.96 0.3,0.98 0,0.1 -0.09,0.1 -0.12,0.1 -0.1,0 -0.11,-0.04 -0.14,-0.18 -0.16,-0.65 -0.35,-1.24 -0.75,-1.24 -0.3,0 -0.3,0.32 -0.3,0.46 0,0.24 0.01,0.29 0.06,0.48 z"
   id="path3167" />
<polygon
   style="fill:#000000;stroke-width:0"
   points="227.34,709.97 227.34,709.27 229.78,709.27 229.78,709.97 "
   id="polygon3169" />
<path
   style="fill:#000000;stroke-width:0"
   inkscape:connector-curvature="0"
   d="m 234.4,710.85 -0.03,0 -0.02,-0.01 -0.03,0 -0.02,0 -0.02,-0.01 -0.03,-0.01 -0.02,-0.01 -0.02,0 -0.02,-0.01 -0.02,-0.02 -0.02,-0.01 -0.02,-0.01 -0.02,-0.01 -0.02,-0.02 -0.02,-0.01 -0.01,-0.02 -0.02,-0.01 -0.01,-0.02 -0.02,-0.02 -0.01,-0.01 -0.01,-0.02 -0.01,-0.02 -0.01,-0.02 -0.01,-0.02 -0.01,-0.02 -0.01,-0.02 0,-0.02 -0.01,-0.02 0,-0.02 -0.01,-0.02 0,-0.02 0,-0.02 c 0,-0.14 0.09,-0.29 0.31,-0.29 0.22,0 0.46,0.17 0.46,0.56 0,0.45 -0.43,0.86 -1.19,0.86 -1.31,0 -1.68,-1.02 -1.68,-1.46 0,-0.78 0.74,-0.92 1.03,-0.98 0.51,-0.1 1.03,-0.21 1.03,-0.76 0,-0.26 -0.23,-1.1 -1.42,-1.1 -0.14,0 -0.91,0 -1.14,0.53 0.38,-0.05 0.63,0.25 0.63,0.53 0,0.23 -0.16,0.35 -0.37,0.35 -0.26,0 -0.56,-0.21 -0.56,-0.66 0,-0.57 0.57,-0.97 1.43,-0.97 1.61,0 2,1.21 2,1.66 0,0.36 -0.19,0.6 -0.31,0.72 -0.27,0.28 -0.56,0.33 -0.99,0.42 -0.36,0.08 -0.76,0.15 -0.76,0.6 0,0.29 0.24,0.9 1.11,0.9 0.25,0 0.75,-0.07 0.9,-0.46 z"
   id="path3171" />
</g>    <g
       id="g3389"
       transform="matrix(2.3607356,0,0,-2.3607356,-238.09977,2006.1445)"
       xml:space="preserve"
       stroke-miterlimit="10.433"
       font-style="normal"
       font-variant="normal"
       font-weight="normal"
       font-stretch="normal"
       font-size-adjust="none"
       letter-spacing="normal"
       word-spacing="normal"
       ns0:text="\\solair"
       ns0:preamble="C:\\local\\ali.saad\\0_Bureau Norwich\\THESIS DOCUMENTS\\Thesis Writing\\phd\\Misc\\textext_preamble.tex"
       style="font-style:normal;font-variant:normal;font-weight:normal;font-stretch:normal;letter-spacing:normal;word-spacing:normal;text-anchor:start;fill:none;stroke:#000000;stroke-linecap:butt;stroke-linejoin:miter;stroke-miterlimit:10.43299961;stroke-opacity:1;stroke-dasharray:none;stroke-dashoffset:0">
<path
   d="m 227.33,710.85 -0.03,0 -0.02,-0.01 -0.03,0 -0.02,0 -0.03,-0.01 -0.02,-0.01 -0.02,-0.01 -0.02,0 -0.03,-0.01 -0.02,-0.02 -0.02,-0.01 -0.02,-0.01 -0.01,-0.01 -0.02,-0.02 -0.02,-0.01 -0.02,-0.02 -0.01,-0.01 -0.02,-0.02 -0.01,-0.02 -0.01,-0.01 -0.01,-0.02 -0.02,-0.02 -0.01,-0.02 0,-0.02 -0.01,-0.02 -0.01,-0.02 -0.01,-0.02 0,-0.02 0,-0.02 -0.01,-0.02 0,-0.02 0,-0.02 c 0,-0.14 0.09,-0.29 0.31,-0.29 0.22,0 0.46,0.17 0.46,0.56 0,0.45 -0.43,0.86 -1.19,0.86 -1.31,0 -1.68,-1.02 -1.68,-1.46 0,-0.78 0.74,-0.92 1.02,-0.98 0.52,-0.1 1.04,-0.21 1.04,-0.76 0,-0.26 -0.23,-1.1 -1.43,-1.1 -0.13,0 -0.9,0 -1.13,0.53 0.38,-0.05 0.63,0.25 0.63,0.53 0,0.23 -0.16,0.35 -0.37,0.35 -0.26,0 -0.56,-0.21 -0.56,-0.66 0,-0.57 0.57,-0.97 1.43,-0.97 1.61,0 2,1.21 2,1.66 0,0.36 -0.19,0.6 -0.31,0.72 -0.27,0.28 -0.56,0.33 -1,0.42 -0.36,0.08 -0.75,0.15 -0.75,0.6 0,0.29 0.23,0.9 1.11,0.9 0.25,0 0.75,-0.07 0.9,-0.46 z"
   id="path3391"
   inkscape:connector-curvature="0"
   style="fill:#000000;stroke-width:0" />
<polygon
   points="228.84,709.97 228.84,709.27 231.28,709.27 231.28,709.97 "
   id="polygon3393"
   style="fill:#000000;stroke-width:0" />
<path
   d="m 235.72,710.89 -0.02,0.03 -0.01,0.04 -0.02,0.03 -0.02,0.03 -0.02,0.03 -0.02,0.03 -0.02,0.03 -0.02,0.03 -0.03,0.03 -0.02,0.03 -0.02,0.03 -0.03,0.02 -0.02,0.03 -0.03,0.02 -0.03,0.02 -0.03,0.03 -0.02,0.02 -0.03,0.02 -0.03,0.01 -0.04,0.02 -0.03,0.02 -0.03,0.01 -0.03,0.02 -0.04,0.01 -0.03,0.01 -0.04,0.01 -0.04,0.01 -0.03,0 -0.04,0.01 -0.04,0 -0.04,0.01 -0.05,0 0.01,-0.22 c 0.65,0 0.79,-0.82 0.79,-0.88 0,-0.06 -0.02,-0.12 -0.03,-0.17 l -0.5,-1.95 c -0.05,-0.18 -0.05,-0.2 -0.2,-0.37 -0.43,-0.55 -0.84,-0.71 -1.12,-0.71 -0.5,0 -0.64,0.55 -0.64,0.94 0,0.5 0.32,1.72 0.55,2.18 0.31,0.59 0.76,0.96 1.15,0.96 l -0.01,0.22 c -1.16,0 -2.4,-1.47 -2.4,-2.92 0,-0.94 0.55,-1.6 1.33,-1.6 0.2,0 0.7,0.04 1.29,0.75 0.08,-0.42 0.43,-0.75 0.91,-0.75 0.35,0 0.58,0.23 0.74,0.55 0.17,0.36 0.3,0.97 0.3,0.99 0,0.1 -0.09,0.1 -0.12,0.1 -0.1,0 -0.11,-0.04 -0.14,-0.18 -0.17,-0.65 -0.35,-1.24 -0.76,-1.24 -0.27,0 -0.3,0.26 -0.3,0.46 0,0.22 0.02,0.3 0.13,0.74 0.11,0.42 0.13,0.52 0.22,0.89 l 0.36,1.4 c 0.07,0.28 0.07,0.3 0.07,0.34 0,0.17 -0.12,0.27 -0.29,0.27 -0.24,0 -0.39,-0.22 -0.42,-0.44 z"
   id="path3395"
   inkscape:connector-curvature="0"
   style="fill:#000000;stroke-width:0" />
</g>    <g
       style="font-style:normal;font-variant:normal;font-weight:normal;font-stretch:normal;letter-spacing:normal;word-spacing:normal;text-anchor:start;fill:none;stroke:#000000;stroke-linecap:butt;stroke-linejoin:miter;stroke-miterlimit:10.43299961;stroke-opacity:1;stroke-dasharray:none;stroke-dashoffset:0"
       ns0:preamble="C:\\local\\ali.saad\\0_Bureau Norwich\\THESIS DOCUMENTS\\Thesis Writing\\phd\\Misc\\textext_preamble.tex"
       ns0:text="\\liqair"
       word-spacing="normal"
       letter-spacing="normal"
       font-size-adjust="none"
       font-stretch="normal"
       font-weight="normal"
       font-variant="normal"
       font-style="normal"
       stroke-miterlimit="10.433"
       xml:space="preserve"
       transform="matrix(2.3607356,0,0,-2.3607356,43.304971,2207.4226)"
       id="g3511">
<path
   id="path3513"
   d="m 226,713.93 0,0 0,0 0,0 0,0 0,0 0,0.01 0,0 0,0 0,0.01 0,0 0,0.01 0,0 0,0.01 -0.01,0 0,0.01 0,0 0,0.01 -0.01,0 0,0.01 0,0 -0.01,0 0,0.01 0,0 -0.01,0 0,0 0,0.01 -0.01,0 0,0 0,0 -0.01,0 0,0 0,0.01 -0.01,0 0,0 -0.01,0 0,0 0,0 -0.01,0 0,0 -0.01,0.01 0,0 -0.01,0 -0.01,0 0,0 -0.01,0 c -0.23,0 -0.95,-0.08 -1.21,-0.1 -0.08,-0.01 -0.19,-0.02 -0.19,-0.21 0,-0.11 0.1,-0.11 0.25,-0.11 0.48,0 0.49,-0.09 0.49,-0.17 l -0.03,-0.2 -1.26,-4.98 c -0.03,-0.11 -0.05,-0.18 -0.05,-0.34 0,-0.57 0.44,-0.92 0.91,-0.92 0.33,0 0.57,0.2 0.74,0.56 0.18,0.38 0.3,0.96 0.3,0.98 0,0.1 -0.09,0.1 -0.12,0.1 -0.1,0 -0.11,-0.04 -0.14,-0.18 -0.16,-0.65 -0.35,-1.24 -0.75,-1.24 -0.3,0 -0.3,0.32 -0.3,0.46 0,0.24 0.01,0.29 0.06,0.48 z"
   inkscape:connector-curvature="0"
   style="fill:#000000;stroke-width:0" />
<polygon
   id="polygon3515"
   points="229.78,709.97 227.34,709.97 227.34,709.27 229.78,709.27 "
   style="fill:#000000;stroke-width:0" />
<path
   id="path3517"
   d="m 234.22,710.89 -0.02,0.03 -0.01,0.04 -0.02,0.03 -0.02,0.03 -0.02,0.03 -0.02,0.03 -0.02,0.03 -0.02,0.03 -0.03,0.03 -0.02,0.03 -0.02,0.03 -0.03,0.02 -0.02,0.03 -0.03,0.02 -0.03,0.02 -0.03,0.03 -0.02,0.02 -0.03,0.02 -0.03,0.01 -0.04,0.02 -0.03,0.02 -0.03,0.01 -0.03,0.02 -0.04,0.01 -0.03,0.01 -0.04,0.01 -0.04,0.01 -0.03,0 -0.04,0.01 -0.04,0 -0.04,0.01 -0.05,0 0.01,-0.22 c 0.65,0 0.79,-0.82 0.79,-0.88 0,-0.06 -0.02,-0.12 -0.03,-0.17 l -0.5,-1.95 c -0.05,-0.18 -0.05,-0.2 -0.2,-0.37 -0.43,-0.55 -0.84,-0.71 -1.12,-0.71 -0.5,0 -0.64,0.55 -0.64,0.94 0,0.5 0.32,1.72 0.55,2.18 0.31,0.59 0.76,0.96 1.15,0.96 l -0.01,0.22 c -1.16,0 -2.4,-1.47 -2.4,-2.92 0,-0.94 0.55,-1.6 1.33,-1.6 0.2,0 0.7,0.04 1.29,0.75 0.08,-0.42 0.43,-0.75 0.91,-0.75 0.35,0 0.58,0.23 0.74,0.55 0.17,0.36 0.3,0.97 0.3,0.99 0,0.1 -0.09,0.1 -0.12,0.1 -0.1,0 -0.11,-0.04 -0.14,-0.18 -0.17,-0.65 -0.35,-1.24 -0.76,-1.24 -0.27,0 -0.3,0.26 -0.3,0.46 0,0.22 0.02,0.3 0.13,0.74 0.11,0.42 0.13,0.52 0.22,0.89 l 0.36,1.4 c 0.07,0.28 0.07,0.3 0.07,0.34 0,0.17 -0.12,0.27 -0.29,0.27 -0.24,0 -0.39,-0.22 -0.42,-0.44 z"
   inkscape:connector-curvature="0"
   style="fill:#000000;stroke-width:0" />
</g>    <g
       id="g3641"
       transform="matrix(2.3607356,0,0,-2.3607356,-292.21038,2279.15)"
       xml:space="preserve"
       stroke-miterlimit="10.433"
       font-style="normal"
       font-variant="normal"
       font-weight="normal"
       font-stretch="normal"
       font-size-adjust="none"
       letter-spacing="normal"
       word-spacing="normal"
       ns0:text="$\\vliqsol$"
       ns0:preamble="C:\\local\\ali.saad\\0_Bureau Norwich\\THESIS DOCUMENTS\\Thesis Writing\\phd\\Misc\\textext_preamble.tex"
       style="font-style:normal;font-variant:normal;font-weight:normal;font-stretch:normal;letter-spacing:normal;word-spacing:normal;text-anchor:start;fill:none;stroke:#000000;stroke-linecap:butt;stroke-linejoin:miter;stroke-miterlimit:10.43299961;stroke-opacity:1;stroke-dasharray:none;stroke-dashoffset:0">
<path
   style="fill:#000000;stroke-width:0"
   inkscape:connector-curvature="0"
   d="m 228.39,713.05 -0.01,-0.01 -0.02,-0.02 -0.01,-0.01 -0.02,-0.01 -0.02,-0.02 -0.01,-0.02 -0.02,-0.01 -0.02,-0.02 -0.02,-0.02 -0.02,-0.02 -0.04,-0.04 -0.04,-0.03 -0.03,-0.04 -0.02,-0.03 -0.02,-0.02 -0.02,-0.02 -0.01,-0.02 -0.02,-0.02 -0.02,-0.02 -0.01,-0.02 -0.01,-0.02 -0.01,-0.02 -0.01,-0.02 -0.01,-0.02 -0.01,-0.02 -0.01,-0.01 0,-0.02 -0.01,-0.02 0,-0.02 c 0,-0.1 0.1,-0.2 0.2,-0.2 0.09,0 0.14,0.07 0.19,0.13 0.12,0.15 0.35,0.43 0.79,0.65 0.07,0.04 0.17,0.09 0.17,0.21 0,0.1 -0.07,0.15 -0.14,0.2 -0.22,0.15 -0.33,0.33 -0.41,0.57 -0.02,0.09 -0.06,0.22 -0.2,0.22 -0.14,0 -0.2,-0.13 -0.2,-0.21 0,-0.05 0.08,-0.37 0.24,-0.58 h -3.36 c -0.16,0 -0.34,0 -0.34,-0.2 0,-0.2 0.18,-0.2 0.34,-0.2 z"
   id="path3643" />
<path
   style="fill:#000000;stroke-width:0"
   inkscape:connector-curvature="0"
   d="m 228.1,710.83 -0.01,0.02 0,0.03 0,0.02 0,0.03 0,0.02 0,0.02 0,0.02 -0.01,0.02 0,0.04 -0.01,0.04 -0.01,0.04 -0.01,0.03 -0.01,0.04 -0.01,0.03 -0.01,0.03 -0.02,0.03 -0.01,0.02 -0.02,0.03 -0.01,0.02 -0.02,0.02 -0.01,0.02 -0.02,0.02 -0.02,0.01 -0.02,0.02 -0.01,0.01 -0.02,0.01 -0.02,0.01 -0.02,0.01 -0.02,0.01 -0.02,0.01 -0.01,0 -0.02,0.01 -0.02,0 -0.02,0 -0.02,0.01 -0.01,0 c -0.25,0 -0.49,-0.26 -0.49,-0.48 0,-0.13 0.05,-0.19 0.16,-0.3 0.21,-0.2 0.34,-0.46 0.34,-0.82 0,-0.42 -0.61,-2.7 -1.78,-2.7 -0.51,0 -0.73,0.35 -0.73,0.87 0,0.56 0.27,1.28 0.57,2.11 0.07,0.17 0.12,0.31 0.12,0.5 0,0.45 -0.31,0.82 -0.81,0.82 -0.94,0 -1.32,-1.45 -1.32,-1.54 0,-0.1 0.1,-0.1 0.12,-0.1 0.1,0 0.11,0.02 0.16,0.18 0.29,1.01 0.72,1.24 1.01,1.24 0.08,0 0.25,0 0.25,-0.32 0,-0.25 -0.1,-0.52 -0.17,-0.7 -0.44,-1.15 -0.57,-1.61 -0.57,-2.04 0,-1.08 0.88,-1.24 1.33,-1.24 1.68,0 2.25,3.3 2.25,3.82 z"
   id="path3645" />
<path
   style="fill:#000000;stroke-width:0"
   inkscape:connector-curvature="0"
   d="m 230.59,715.37 0,0 0,0 0,0 0,0 0,0 0,0 0,0.01 0,0 0,0 0,0 0.01,0.01 0,0 0,0 0,0.01 0,0 0,0.01 0,0 0,0.01 0.01,0.01 0,0.01 0,0 0,0.01 0,0 0,0 0,0.01 0,0 0,0.01 0.01,0 0,0 0,0 0,0 0,0 0,0 0,0.01 0,0 0,0 0,0 0,0 0,0 0,0 c 0,0.04 -0.03,0.1 -0.11,0.1 -0.14,0 -0.72,-0.06 -0.9,-0.07 -0.05,-0.01 -0.14,-0.02 -0.14,-0.16 0,-0.1 0.09,-0.1 0.17,-0.1 0.34,0 0.34,-0.05 0.34,-0.1 0,-0.05 -0.02,-0.1 -0.03,-0.16 l -0.87,-3.44 c -0.02,-0.07 -0.03,-0.15 -0.03,-0.22 0,-0.45 0.4,-0.66 0.74,-0.66 0.16,0 0.37,0.05 0.56,0.37 0.14,0.25 0.24,0.67 0.24,0.69 0,0.1 -0.09,0.1 -0.11,0.1 -0.1,0 -0.11,-0.05 -0.14,-0.17 -0.09,-0.35 -0.22,-0.8 -0.52,-0.8 -0.19,0 -0.24,0.18 -0.24,0.35 0,0.07 0.02,0.2 0.04,0.28 z"
   id="path3647" />
<polygon
   style="fill:#000000;stroke-width:0"
   points="231.92,712.89 234.36,712.89 234.36,713.59 231.92,713.59 "
   id="polygon3649" />
<path
   style="fill:#000000;stroke-width:0"
   inkscape:connector-curvature="0"
   d="m 238.09,713.36 -0.01,0 -0.02,-0.01 -0.02,0 -0.01,-0.01 -0.02,-0.01 -0.01,0 -0.02,-0.01 -0.01,-0.01 -0.01,-0.01 -0.02,-0.01 -0.01,-0.01 -0.01,-0.01 -0.01,-0.01 -0.01,-0.01 -0.01,-0.01 -0.01,-0.01 -0.01,-0.01 -0.01,-0.01 -0.01,-0.01 -0.01,-0.01 0,-0.02 -0.01,-0.01 0,-0.01 -0.01,-0.01 0,-0.02 -0.01,-0.01 0,-0.01 0,-0.02 -0.01,-0.01 0,-0.01 0,-0.01 0,-0.02 c 0,-0.16 0.14,-0.22 0.23,-0.22 0.07,0 0.34,0.04 0.34,0.4 0,0.45 -0.51,0.6 -0.93,0.6 -1.09,0 -1.29,-0.8 -1.29,-1.02 0,-0.25 0.15,-0.42 0.25,-0.5 0.18,-0.14 0.31,-0.17 0.79,-0.26 0.14,-0.02 0.59,-0.11 0.59,-0.46 0,-0.11 -0.08,-0.38 -0.37,-0.55 -0.27,-0.16 -0.61,-0.16 -0.7,-0.16 -0.28,0 -0.67,0.07 -0.83,0.3 0.23,0.02 0.38,0.2 0.38,0.39 0,0.18 -0.13,0.26 -0.27,0.26 -0.2,0 -0.41,-0.16 -0.41,-0.47 0,-0.41 0.45,-0.67 1.13,-0.67 1.28,0 1.52,0.88 1.52,1.15 0,0.64 -0.71,0.77 -0.97,0.81 -0.06,0.02 -0.23,0.05 -0.28,0.06 -0.25,0.05 -0.38,0.2 -0.38,0.35 0,0.16 0.13,0.35 0.28,0.44 0.19,0.12 0.43,0.14 0.55,0.14 0.15,0 0.51,-0.02 0.66,-0.26 z"
   id="path3651" />
</g>    <g
       style="font-style:normal;font-variant:normal;font-weight:normal;font-stretch:normal;letter-spacing:normal;word-spacing:normal;text-anchor:start;fill:none;stroke:#000000;stroke-linecap:butt;stroke-linejoin:miter;stroke-miterlimit:10.43299961;stroke-opacity:1;stroke-dasharray:none;stroke-dashoffset:0"
       ns0:preamble="C:\\local\\ali.saad\\0_Bureau Norwich\\THESIS DOCUMENTS\\Thesis Writing\\phd\\Misc\\textext_preamble.tex"
       ns0:text="$\\vliqair$"
       word-spacing="normal"
       letter-spacing="normal"
       font-size-adjust="none"
       font-stretch="normal"
       font-weight="normal"
       font-variant="normal"
       font-style="normal"
       stroke-miterlimit="10.433"
       xml:space="preserve"
       transform="matrix(2.3607356,0,0,-2.3607356,-63.057649,2223.8628)"
       id="g3791">
<path
   id="path3793"
   d="m 228.39,713.05 -0.01,-0.01 -0.02,-0.02 -0.01,-0.01 -0.02,-0.01 -0.02,-0.02 -0.01,-0.02 -0.02,-0.01 -0.02,-0.02 -0.02,-0.02 -0.02,-0.02 -0.04,-0.04 -0.04,-0.03 -0.03,-0.04 -0.02,-0.03 -0.02,-0.02 -0.02,-0.02 -0.01,-0.02 -0.02,-0.02 -0.02,-0.02 -0.01,-0.02 -0.01,-0.02 -0.01,-0.02 -0.01,-0.02 -0.01,-0.02 -0.01,-0.02 -0.01,-0.01 0,-0.02 -0.01,-0.02 0,-0.02 c 0,-0.1 0.1,-0.2 0.2,-0.2 0.09,0 0.14,0.07 0.19,0.13 0.12,0.15 0.35,0.43 0.79,0.65 0.07,0.04 0.17,0.09 0.17,0.21 0,0.1 -0.07,0.15 -0.14,0.2 -0.22,0.15 -0.33,0.33 -0.41,0.57 -0.02,0.09 -0.06,0.22 -0.2,0.22 -0.14,0 -0.2,-0.13 -0.2,-0.21 0,-0.05 0.08,-0.37 0.24,-0.58 h -3.36 c -0.16,0 -0.34,0 -0.34,-0.2 0,-0.2 0.18,-0.2 0.34,-0.2 z"
   inkscape:connector-curvature="0"
   style="fill:#000000;stroke-width:0" />
<path
   id="path3795"
   d="m 228.1,710.83 -0.01,0.02 0,0.03 0,0.02 0,0.03 0,0.02 0,0.02 0,0.02 -0.01,0.02 0,0.04 -0.01,0.04 -0.01,0.04 -0.01,0.03 -0.01,0.04 -0.01,0.03 -0.01,0.03 -0.02,0.03 -0.01,0.02 -0.02,0.03 -0.01,0.02 -0.02,0.02 -0.01,0.02 -0.02,0.02 -0.02,0.01 -0.02,0.02 -0.01,0.01 -0.02,0.01 -0.02,0.01 -0.02,0.01 -0.02,0.01 -0.02,0.01 -0.01,0 -0.02,0.01 -0.02,0 -0.02,0 -0.02,0.01 -0.01,0 c -0.25,0 -0.49,-0.26 -0.49,-0.48 0,-0.13 0.05,-0.19 0.16,-0.3 0.21,-0.2 0.34,-0.46 0.34,-0.82 0,-0.42 -0.61,-2.7 -1.78,-2.7 -0.51,0 -0.73,0.35 -0.73,0.87 0,0.56 0.27,1.28 0.57,2.11 0.07,0.17 0.12,0.31 0.12,0.5 0,0.45 -0.31,0.82 -0.81,0.82 -0.94,0 -1.32,-1.45 -1.32,-1.54 0,-0.1 0.1,-0.1 0.12,-0.1 0.1,0 0.11,0.02 0.16,0.18 0.29,1.01 0.72,1.24 1.01,1.24 0.08,0 0.25,0 0.25,-0.32 0,-0.25 -0.1,-0.52 -0.17,-0.7 -0.44,-1.15 -0.57,-1.61 -0.57,-2.04 0,-1.08 0.88,-1.24 1.33,-1.24 1.68,0 2.25,3.3 2.25,3.82 z"
   inkscape:connector-curvature="0"
   style="fill:#000000;stroke-width:0" />
<path
   id="path3797"
   d="m 230.59,715.37 0,0 0,0 0,0 0,0 0,0 0,0 0,0.01 0,0 0,0 0,0 0.01,0.01 0,0 0,0 0,0.01 0,0 0,0.01 0,0 0,0.01 0.01,0.01 0,0.01 0,0 0,0.01 0,0 0,0 0,0.01 0,0 0,0.01 0.01,0 0,0 0,0 0,0 0,0 0,0 0,0.01 0,0 0,0 0,0 0,0 0,0 0,0 c 0,0.04 -0.03,0.1 -0.11,0.1 -0.14,0 -0.72,-0.06 -0.9,-0.07 -0.05,-0.01 -0.14,-0.02 -0.14,-0.16 0,-0.1 0.09,-0.1 0.17,-0.1 0.34,0 0.34,-0.05 0.34,-0.1 0,-0.05 -0.02,-0.1 -0.03,-0.16 l -0.87,-3.44 c -0.02,-0.07 -0.03,-0.15 -0.03,-0.22 0,-0.45 0.4,-0.66 0.74,-0.66 0.16,0 0.37,0.05 0.56,0.37 0.14,0.25 0.24,0.67 0.24,0.69 0,0.1 -0.09,0.1 -0.11,0.1 -0.1,0 -0.11,-0.05 -0.14,-0.17 -0.09,-0.35 -0.22,-0.8 -0.52,-0.8 -0.19,0 -0.24,0.18 -0.24,0.35 0,0.07 0.02,0.2 0.04,0.28 z"
   inkscape:connector-curvature="0"
   style="fill:#000000;stroke-width:0" />
<polygon
   id="polygon3799"
   points="234.36,713.59 231.92,713.59 231.92,712.89 234.36,712.89 "
   style="fill:#000000;stroke-width:0" />
<path
   id="path3801"
   d="m 238.03,713.4 -0.01,0.02 -0.02,0.02 -0.01,0.03 -0.02,0.02 -0.02,0.02 -0.01,0.02 -0.02,0.01 -0.02,0.02 -0.01,0.02 -0.02,0.02 -0.02,0.02 -0.02,0.01 -0.02,0.02 -0.02,0.01 -0.03,0.02 -0.02,0.01 -0.02,0.02 -0.02,0.01 -0.03,0.01 -0.02,0.01 -0.03,0.01 -0.02,0.01 -0.03,0.01 -0.03,0.01 -0.02,0.01 -0.03,0 -0.03,0.01 -0.03,0 -0.03,0.01 -0.03,0 -0.03,0 -0.03,0 v -0.19 c 0.49,0 0.62,-0.53 0.62,-0.61 0,-0.03 -0.01,-0.08 -0.02,-0.1 l -0.33,-1.3 c -0.04,-0.2 -0.2,-0.33 -0.35,-0.47 -0.06,-0.05 -0.34,-0.28 -0.64,-0.28 -0.26,0 -0.51,0.18 -0.51,0.68 0,0.37 0.2,1.14 0.36,1.42 0.32,0.55 0.68,0.66 0.87,0.66 v 0.19 c -0.89,0 -1.8,-0.98 -1.8,-1.98 0,-0.68 0.46,-1.16 1.06,-1.16 0.37,0 0.71,0.21 0.99,0.49 0.13,-0.42 0.53,-0.49 0.71,-0.49 0.26,0 0.43,0.15 0.55,0.37 0.16,0.27 0.25,0.67 0.25,0.69 0,0.1 -0.09,0.1 -0.11,0.1 -0.1,0 -0.11,-0.03 -0.16,-0.22 -0.08,-0.33 -0.21,-0.75 -0.51,-0.75 -0.18,0 -0.22,0.16 -0.22,0.35 0,0.11 0.05,0.36 0.1,0.55 0.05,0.18 0.12,0.47 0.15,0.62 l 0.14,0.53 c 0.05,0.18 0.13,0.51 0.13,0.55 0,0.15 -0.13,0.22 -0.24,0.22 -0.12,0 -0.28,-0.08 -0.32,-0.28 z"
   inkscape:connector-curvature="0"
   style="fill:#000000;stroke-width:0" />
</g>    <g
       id="g3953"
       transform="matrix(2.3607356,0,0,-2.3607356,-204.81589,2090.2478)"
       xml:space="preserve"
       stroke-miterlimit="10.433"
       font-style="normal"
       font-variant="normal"
       font-weight="normal"
       font-stretch="normal"
       font-size-adjust="none"
       letter-spacing="normal"
       word-spacing="normal"
       ns0:text="$\\vsolair$"
       ns0:preamble="C:\\local\\ali.saad\\0_Bureau Norwich\\THESIS DOCUMENTS\\Thesis Writing\\phd\\Misc\\textext_preamble.tex"
       style="font-style:normal;font-variant:normal;font-weight:normal;font-stretch:normal;letter-spacing:normal;word-spacing:normal;text-anchor:start;fill:none;stroke:#000000;stroke-linecap:butt;stroke-linejoin:miter;stroke-miterlimit:10.43299961;stroke-opacity:1;stroke-dasharray:none;stroke-dashoffset:0">
<path
   style="fill:#000000;stroke-width:0"
   inkscape:connector-curvature="0"
   d="m 228.39,713.05 -0.01,-0.01 -0.02,-0.02 -0.01,-0.01 -0.02,-0.01 -0.02,-0.02 -0.01,-0.02 -0.02,-0.01 -0.02,-0.02 -0.02,-0.02 -0.02,-0.02 -0.04,-0.04 -0.04,-0.03 -0.03,-0.04 -0.02,-0.03 -0.02,-0.02 -0.02,-0.02 -0.01,-0.02 -0.02,-0.02 -0.02,-0.02 -0.01,-0.02 -0.01,-0.02 -0.01,-0.02 -0.01,-0.02 -0.01,-0.02 -0.01,-0.02 -0.01,-0.01 0,-0.02 -0.01,-0.02 0,-0.02 c 0,-0.1 0.1,-0.2 0.2,-0.2 0.09,0 0.14,0.07 0.19,0.13 0.12,0.15 0.35,0.43 0.79,0.65 0.07,0.04 0.17,0.09 0.17,0.21 0,0.1 -0.07,0.15 -0.14,0.2 -0.22,0.15 -0.33,0.33 -0.41,0.57 -0.02,0.09 -0.06,0.22 -0.2,0.22 -0.14,0 -0.2,-0.13 -0.2,-0.21 0,-0.05 0.08,-0.37 0.24,-0.58 h -3.36 c -0.16,0 -0.34,0 -0.34,-0.2 0,-0.2 0.18,-0.2 0.34,-0.2 z"
   id="path3955" />
<path
   style="fill:#000000;stroke-width:0"
   inkscape:connector-curvature="0"
   d="m 228.1,710.83 -0.01,0.02 0,0.03 0,0.02 0,0.03 0,0.02 0,0.02 0,0.02 -0.01,0.02 0,0.04 -0.01,0.04 -0.01,0.04 -0.01,0.03 -0.01,0.04 -0.01,0.03 -0.01,0.03 -0.02,0.03 -0.01,0.02 -0.02,0.03 -0.01,0.02 -0.02,0.02 -0.01,0.02 -0.02,0.02 -0.02,0.01 -0.02,0.02 -0.01,0.01 -0.02,0.01 -0.02,0.01 -0.02,0.01 -0.02,0.01 -0.02,0.01 -0.01,0 -0.02,0.01 -0.02,0 -0.02,0 -0.02,0.01 -0.01,0 c -0.25,0 -0.49,-0.26 -0.49,-0.48 0,-0.13 0.05,-0.19 0.16,-0.3 0.21,-0.2 0.34,-0.46 0.34,-0.82 0,-0.42 -0.61,-2.7 -1.78,-2.7 -0.51,0 -0.73,0.35 -0.73,0.87 0,0.56 0.27,1.28 0.57,2.11 0.07,0.17 0.12,0.31 0.12,0.5 0,0.45 -0.31,0.82 -0.81,0.82 -0.94,0 -1.32,-1.45 -1.32,-1.54 0,-0.1 0.1,-0.1 0.12,-0.1 0.1,0 0.11,0.02 0.16,0.18 0.29,1.01 0.72,1.24 1.01,1.24 0.08,0 0.25,0 0.25,-0.32 0,-0.25 -0.1,-0.52 -0.17,-0.7 -0.44,-1.15 -0.57,-1.61 -0.57,-2.04 0,-1.08 0.88,-1.24 1.33,-1.24 1.68,0 2.25,3.3 2.25,3.82 z"
   id="path3957" />
<path
   style="fill:#000000;stroke-width:0"
   inkscape:connector-curvature="0"
   d="m 231.63,713.36 -0.02,0 -0.02,-0.01 -0.01,0 -0.02,-0.01 -0.01,-0.01 -0.02,0 -0.01,-0.01 -0.01,-0.01 -0.02,-0.01 -0.01,-0.01 -0.01,-0.01 -0.01,-0.01 -0.02,-0.01 -0.01,-0.01 -0.01,-0.01 -0.01,-0.01 -0.01,-0.01 0,-0.01 -0.01,-0.01 -0.01,-0.01 -0.01,-0.02 0,-0.01 -0.01,-0.01 0,-0.01 -0.01,-0.02 0,-0.01 -0.01,-0.01 0,-0.02 0,-0.01 0,-0.01 0,-0.01 0,-0.02 c 0,-0.16 0.14,-0.22 0.23,-0.22 0.06,0 0.33,0.04 0.33,0.4 0,0.45 -0.5,0.6 -0.93,0.6 -1.09,0 -1.28,-0.8 -1.28,-1.02 0,-0.25 0.15,-0.42 0.24,-0.5 0.19,-0.14 0.31,-0.17 0.79,-0.26 0.15,-0.02 0.59,-0.11 0.59,-0.46 0,-0.11 -0.07,-0.38 -0.36,-0.55 -0.28,-0.16 -0.62,-0.16 -0.7,-0.16 -0.28,0 -0.68,0.07 -0.84,0.3 0.23,0.02 0.38,0.2 0.38,0.39 0,0.18 -0.12,0.26 -0.27,0.26 -0.2,0 -0.4,-0.16 -0.4,-0.47 0,-0.41 0.44,-0.67 1.12,-0.67 1.28,0 1.52,0.88 1.52,1.15 0,0.64 -0.7,0.77 -0.96,0.81 -0.06,0.02 -0.24,0.05 -0.28,0.06 -0.26,0.05 -0.38,0.2 -0.38,0.35 0,0.16 0.12,0.35 0.27,0.44 0.19,0.12 0.44,0.14 0.56,0.14 0.14,0 0.51,-0.02 0.66,-0.26 z"
   id="path3959" />
<polygon
   style="fill:#000000;stroke-width:0"
   points="233.12,712.89 235.56,712.89 235.56,713.59 233.12,713.59 "
   id="polygon3961" />
<path
   style="fill:#000000;stroke-width:0"
   inkscape:connector-curvature="0"
   d="m 239.23,713.4 -0.01,0.02 -0.02,0.02 -0.01,0.03 -0.02,0.02 -0.02,0.02 -0.01,0.02 -0.02,0.01 -0.02,0.02 -0.01,0.02 -0.02,0.02 -0.02,0.02 -0.02,0.01 -0.02,0.02 -0.02,0.01 -0.03,0.02 -0.02,0.01 -0.02,0.02 -0.02,0.01 -0.03,0.01 -0.02,0.01 -0.03,0.01 -0.02,0.01 -0.03,0.01 -0.03,0.01 -0.02,0.01 -0.03,0 -0.03,0.01 -0.03,0 -0.03,0.01 -0.03,0 -0.03,0 -0.03,0 v -0.19 c 0.49,0 0.62,-0.53 0.62,-0.61 0,-0.03 -0.01,-0.08 -0.02,-0.1 l -0.33,-1.3 c -0.04,-0.2 -0.2,-0.33 -0.35,-0.47 -0.06,-0.05 -0.34,-0.28 -0.64,-0.28 -0.26,0 -0.51,0.18 -0.51,0.68 0,0.37 0.2,1.14 0.36,1.42 0.32,0.55 0.68,0.66 0.87,0.66 v 0.19 c -0.89,0 -1.8,-0.98 -1.8,-1.98 0,-0.68 0.46,-1.16 1.06,-1.16 0.37,0 0.71,0.21 0.99,0.49 0.13,-0.42 0.53,-0.49 0.72,-0.49 0.25,0 0.42,0.15 0.54,0.37 0.16,0.27 0.25,0.67 0.25,0.69 0,0.1 -0.09,0.1 -0.11,0.1 -0.1,0 -0.11,-0.03 -0.15,-0.22 -0.09,-0.33 -0.22,-0.75 -0.52,-0.75 -0.18,0 -0.23,0.16 -0.23,0.35 0,0.11 0.06,0.36 0.11,0.55 0.05,0.18 0.12,0.47 0.15,0.62 l 0.14,0.53 c 0.05,0.18 0.13,0.51 0.13,0.55 0,0.15 -0.13,0.22 -0.24,0.22 -0.12,0 -0.28,-0.08 -0.32,-0.28 z"
   id="path3963" />
</g>    <path
       sodipodi:nodetypes="cc"
       inkscape:connector-curvature="0"
       id="path4039"
       d="m 444.60813,434.2655 62.49528,21.78143"
       style="fill:none;stroke:#000000;stroke-width:1px;stroke-linecap:butt;stroke-linejoin:miter;stroke-opacity:1;marker-start:url(#DotM);marker-end:url(#Arrow1Lend)" />
    <g
       style="font-style:normal;font-variant:normal;font-weight:normal;font-stretch:normal;letter-spacing:normal;word-spacing:normal;text-anchor:start;fill:none;stroke:#000000;stroke-linecap:butt;stroke-linejoin:miter;stroke-miterlimit:10.43299961;stroke-opacity:1;stroke-dasharray:none;stroke-dashoffset:0"
       ns0:preamble="C:\\local\\ali.saad\\0_Bureau Norwich\\THESIS DOCUMENTS\\Thesis Writing\\phd\\Misc\\textext_preamble.tex"
       ns0:text="$\\va$"
       word-spacing="normal"
       letter-spacing="normal"
       font-size-adjust="none"
       font-stretch="normal"
       font-weight="normal"
       font-variant="normal"
       font-style="normal"
       stroke-miterlimit="10.433"
       xml:space="preserve"
       transform="matrix(2.3607356,0,0,-2.3607356,-111.2459,2106.5976)"
       id="g5542">
<path
   id="path5544"
   d="m 228.39,713.05 -0.01,-0.01 -0.02,-0.02 -0.01,-0.01 -0.02,-0.01 -0.02,-0.02 -0.01,-0.02 -0.02,-0.01 -0.02,-0.02 -0.02,-0.02 -0.02,-0.02 -0.04,-0.04 -0.04,-0.03 -0.03,-0.04 -0.02,-0.03 -0.02,-0.02 -0.02,-0.02 -0.01,-0.02 -0.02,-0.02 -0.02,-0.02 -0.01,-0.02 -0.01,-0.02 -0.01,-0.02 -0.01,-0.02 -0.01,-0.02 -0.01,-0.02 -0.01,-0.01 0,-0.02 -0.01,-0.02 0,-0.02 c 0,-0.1 0.1,-0.2 0.2,-0.2 0.09,0 0.14,0.07 0.19,0.13 0.12,0.15 0.35,0.43 0.79,0.65 0.07,0.04 0.17,0.09 0.17,0.21 0,0.1 -0.07,0.15 -0.14,0.2 -0.22,0.15 -0.33,0.33 -0.41,0.57 -0.02,0.09 -0.06,0.22 -0.2,0.22 -0.14,0 -0.2,-0.13 -0.2,-0.21 0,-0.05 0.08,-0.37 0.24,-0.58 h -3.36 c -0.16,0 -0.34,0 -0.34,-0.2 0,-0.2 0.18,-0.2 0.34,-0.2 z"
   inkscape:connector-curvature="0"
   style="fill:#000000;stroke-width:0" />
<path
   id="path5546"
   d="m 228.1,710.83 -0.01,0.02 0,0.03 0,0.02 0,0.03 0,0.02 0,0.02 0,0.02 -0.01,0.02 0,0.04 -0.01,0.04 -0.01,0.04 -0.01,0.03 -0.01,0.04 -0.01,0.03 -0.01,0.03 -0.02,0.03 -0.01,0.02 -0.02,0.03 -0.01,0.02 -0.02,0.02 -0.01,0.02 -0.02,0.02 -0.02,0.01 -0.02,0.02 -0.01,0.01 -0.02,0.01 -0.02,0.01 -0.02,0.01 -0.02,0.01 -0.02,0.01 -0.01,0 -0.02,0.01 -0.02,0 -0.02,0 -0.02,0.01 -0.01,0 c -0.25,0 -0.49,-0.26 -0.49,-0.48 0,-0.13 0.05,-0.19 0.16,-0.3 0.21,-0.2 0.34,-0.46 0.34,-0.82 0,-0.42 -0.61,-2.7 -1.78,-2.7 -0.51,0 -0.73,0.35 -0.73,0.87 0,0.56 0.27,1.28 0.57,2.11 0.07,0.17 0.12,0.31 0.12,0.5 0,0.45 -0.31,0.82 -0.81,0.82 -0.94,0 -1.32,-1.45 -1.32,-1.54 0,-0.1 0.1,-0.1 0.12,-0.1 0.1,0 0.11,0.02 0.16,0.18 0.29,1.01 0.72,1.24 1.01,1.24 0.08,0 0.25,0 0.25,-0.32 0,-0.25 -0.1,-0.52 -0.17,-0.7 -0.44,-1.15 -0.57,-1.61 -0.57,-2.04 0,-1.08 0.88,-1.24 1.33,-1.24 1.68,0 2.25,3.3 2.25,3.82 z"
   inkscape:connector-curvature="0"
   style="fill:#000000;stroke-width:0" />
<path
   id="path5548"
   d="m 231.57,713.4 -0.02,0.02 -0.01,0.02 -0.02,0.03 -0.01,0.02 -0.02,0.02 -0.02,0.02 -0.01,0.01 -0.02,0.02 -0.02,0.02 -0.02,0.02 -0.02,0.02 -0.02,0.01 -0.02,0.02 -0.02,0.01 -0.02,0.02 -0.02,0.01 -0.03,0.02 -0.02,0.01 -0.02,0.01 -0.03,0.01 -0.02,0.01 -0.03,0.01 -0.02,0.01 -0.03,0.01 -0.03,0.01 -0.02,0 -0.03,0.01 -0.03,0 -0.03,0.01 -0.03,0 -0.03,0 -0.03,0 v -0.19 c 0.49,0 0.62,-0.53 0.62,-0.61 0,-0.03 -0.02,-0.08 -0.02,-0.1 l -0.33,-1.3 c -0.05,-0.2 -0.2,-0.33 -0.36,-0.47 -0.06,-0.05 -0.34,-0.28 -0.64,-0.28 -0.26,0 -0.51,0.18 -0.51,0.68 0,0.37 0.21,1.14 0.37,1.42 0.32,0.55 0.67,0.66 0.87,0.66 v 0.19 c -0.9,0 -1.8,-0.98 -1.8,-1.98 0,-0.68 0.45,-1.16 1.05,-1.16 0.38,0 0.71,0.21 0.99,0.49 0.13,-0.42 0.54,-0.49 0.72,-0.49 0.25,0 0.43,0.15 0.55,0.37 0.15,0.27 0.24,0.67 0.24,0.69 0,0.1 -0.09,0.1 -0.11,0.1 -0.09,0 -0.1,-0.03 -0.15,-0.22 -0.08,-0.33 -0.22,-0.75 -0.51,-0.75 -0.18,0 -0.23,0.16 -0.23,0.35 0,0.11 0.06,0.36 0.11,0.55 0.04,0.18 0.11,0.47 0.15,0.62 l 0.14,0.53 c 0.04,0.18 0.12,0.51 0.12,0.55 0,0.15 -0.12,0.22 -0.23,0.22 -0.12,0 -0.28,-0.08 -0.32,-0.28 z"
   inkscape:connector-curvature="0"
   style="fill:#000000;stroke-width:0" />
</g>    <path
       style="fill:none;stroke:#000000;stroke-width:1px;stroke-linecap:butt;stroke-linejoin:miter;stroke-opacity:1;marker-start:url(#DotM);marker-end:url(#Arrow1Lend)"
       d="m 389.30858,609.52477 -25.58766,61.03575"
       id="path5633"
       inkscape:connector-curvature="0"
       sodipodi:nodetypes="cc" />
    <path
       sodipodi:nodetypes="cc"
       inkscape:connector-curvature="0"
       id="path5643"
       d="m 268.6995,506.70195 62.49528,-21.78143"
       style="fill:none;stroke:#000000;stroke-width:1px;stroke-linecap:butt;stroke-linejoin:miter;stroke-opacity:1;marker-start:url(#DotM);marker-end:url(#Arrow1Lend)" />
    <g
       id="g5744"
       transform="matrix(2.3607356,0,0,-2.3607356,-140.88575,2269.1392)"
       xml:space="preserve"
       stroke-miterlimit="10.433"
       font-style="normal"
       font-variant="normal"
       font-weight="normal"
       font-stretch="normal"
       font-size-adjust="none"
       letter-spacing="normal"
       word-spacing="normal"
       ns0:text="$\\vl$"
       ns0:preamble="C:\\local\\ali.saad\\0_Bureau Norwich\\THESIS DOCUMENTS\\Thesis Writing\\phd\\Misc\\textext_preamble.tex"
       style="font-style:normal;font-variant:normal;font-weight:normal;font-stretch:normal;letter-spacing:normal;word-spacing:normal;text-anchor:start;fill:none;stroke:#000000;stroke-linecap:butt;stroke-linejoin:miter;stroke-miterlimit:10.43299961;stroke-opacity:1;stroke-dasharray:none;stroke-dashoffset:0">
<path
   d="m 228.39,713.05 -0.01,-0.01 -0.02,-0.02 -0.01,-0.01 -0.02,-0.01 -0.02,-0.02 -0.01,-0.02 -0.02,-0.01 -0.02,-0.02 -0.02,-0.02 -0.02,-0.02 -0.04,-0.04 -0.04,-0.03 -0.03,-0.04 -0.02,-0.03 -0.02,-0.02 -0.02,-0.02 -0.01,-0.02 -0.02,-0.02 -0.02,-0.02 -0.01,-0.02 -0.01,-0.02 -0.01,-0.02 -0.01,-0.02 -0.01,-0.02 -0.01,-0.02 -0.01,-0.01 0,-0.02 -0.01,-0.02 0,-0.02 c 0,-0.1 0.1,-0.2 0.2,-0.2 0.09,0 0.14,0.07 0.19,0.13 0.12,0.15 0.35,0.43 0.79,0.65 0.07,0.04 0.17,0.09 0.17,0.21 0,0.1 -0.07,0.15 -0.14,0.2 -0.22,0.15 -0.33,0.33 -0.41,0.57 -0.02,0.09 -0.06,0.22 -0.2,0.22 -0.14,0 -0.2,-0.13 -0.2,-0.21 0,-0.05 0.08,-0.37 0.24,-0.58 h -3.36 c -0.16,0 -0.34,0 -0.34,-0.2 0,-0.2 0.18,-0.2 0.34,-0.2 z"
   id="path5746"
   inkscape:connector-curvature="0"
   style="fill:#000000;stroke-width:0" />
<path
   d="m 228.1,710.83 -0.01,0.02 0,0.03 0,0.02 0,0.03 0,0.02 0,0.02 0,0.02 -0.01,0.02 0,0.04 -0.01,0.04 -0.01,0.04 -0.01,0.03 -0.01,0.04 -0.01,0.03 -0.01,0.03 -0.02,0.03 -0.01,0.02 -0.02,0.03 -0.01,0.02 -0.02,0.02 -0.01,0.02 -0.02,0.02 -0.02,0.01 -0.02,0.02 -0.01,0.01 -0.02,0.01 -0.02,0.01 -0.02,0.01 -0.02,0.01 -0.02,0.01 -0.01,0 -0.02,0.01 -0.02,0 -0.02,0 -0.02,0.01 -0.01,0 c -0.25,0 -0.49,-0.26 -0.49,-0.48 0,-0.13 0.05,-0.19 0.16,-0.3 0.21,-0.2 0.34,-0.46 0.34,-0.82 0,-0.42 -0.61,-2.7 -1.78,-2.7 -0.51,0 -0.73,0.35 -0.73,0.87 0,0.56 0.27,1.28 0.57,2.11 0.07,0.17 0.12,0.31 0.12,0.5 0,0.45 -0.31,0.82 -0.81,0.82 -0.94,0 -1.32,-1.45 -1.32,-1.54 0,-0.1 0.1,-0.1 0.12,-0.1 0.1,0 0.11,0.02 0.16,0.18 0.29,1.01 0.72,1.24 1.01,1.24 0.08,0 0.25,0 0.25,-0.32 0,-0.25 -0.1,-0.52 -0.17,-0.7 -0.44,-1.15 -0.57,-1.61 -0.57,-2.04 0,-1.08 0.88,-1.24 1.33,-1.24 1.68,0 2.25,3.3 2.25,3.82 z"
   id="path5748"
   inkscape:connector-curvature="0"
   style="fill:#000000;stroke-width:0" />
<path
   d="m 230.59,715.37 0,0 0,0 0,0 0,0 0,0 0,0 0,0.01 0,0 0,0 0,0 0.01,0.01 0,0 0,0 0,0.01 0,0 0,0.01 0,0 0,0.01 0.01,0.01 0,0.01 0,0 0,0.01 0,0 0,0 0,0.01 0,0 0,0.01 0.01,0 0,0 0,0 0,0 0,0 0,0 0,0.01 0,0 0,0 0,0 0,0 0,0 0,0 c 0,0.04 -0.03,0.1 -0.11,0.1 -0.14,0 -0.72,-0.06 -0.9,-0.07 -0.05,-0.01 -0.14,-0.02 -0.14,-0.16 0,-0.1 0.09,-0.1 0.17,-0.1 0.34,0 0.34,-0.05 0.34,-0.1 0,-0.05 -0.02,-0.1 -0.03,-0.16 l -0.87,-3.44 c -0.02,-0.07 -0.03,-0.15 -0.03,-0.22 0,-0.45 0.4,-0.66 0.74,-0.66 0.16,0 0.37,0.05 0.56,0.37 0.14,0.25 0.24,0.67 0.24,0.69 0,0.1 -0.09,0.1 -0.11,0.1 -0.1,0 -0.11,-0.05 -0.14,-0.17 -0.09,-0.35 -0.22,-0.8 -0.52,-0.8 -0.19,0 -0.24,0.18 -0.24,0.35 0,0.07 0.02,0.2 0.04,0.28 z"
   id="path5750"
   inkscape:connector-curvature="0"
   style="fill:#000000;stroke-width:0" />
</g>    <g
       style="font-style:normal;font-variant:normal;font-weight:normal;font-stretch:normal;letter-spacing:normal;word-spacing:normal;text-anchor:start;fill:none;stroke:#000000;stroke-linecap:butt;stroke-linejoin:miter;stroke-miterlimit:10.43299961;stroke-opacity:1;stroke-dasharray:none;stroke-dashoffset:0"
       ns0:preamble="C:\\local\\ali.saad\\0_Bureau Norwich\\THESIS DOCUMENTS\\Thesis Writing\\phd\\Misc\\textext_preamble.tex"
       ns0:text="$\\vs$"
       word-spacing="normal"
       letter-spacing="normal"
       font-size-adjust="none"
       font-stretch="normal"
       font-weight="normal"
       font-variant="normal"
       font-style="normal"
       stroke-miterlimit="10.433"
       xml:space="preserve"
       transform="matrix(2.3607356,0,0,-2.3607356,-288.06106,2186.2119)"
       id="g5936">
<path
   id="path5938"
   d="m 228.39,713.05 -0.01,-0.01 -0.02,-0.02 -0.01,-0.01 -0.02,-0.01 -0.02,-0.02 -0.01,-0.02 -0.02,-0.01 -0.02,-0.02 -0.02,-0.02 -0.02,-0.02 -0.04,-0.04 -0.04,-0.03 -0.03,-0.04 -0.02,-0.03 -0.02,-0.02 -0.02,-0.02 -0.01,-0.02 -0.02,-0.02 -0.02,-0.02 -0.01,-0.02 -0.01,-0.02 -0.01,-0.02 -0.01,-0.02 -0.01,-0.02 -0.01,-0.02 -0.01,-0.01 0,-0.02 -0.01,-0.02 0,-0.02 c 0,-0.1 0.1,-0.2 0.2,-0.2 0.09,0 0.14,0.07 0.19,0.13 0.12,0.15 0.35,0.43 0.79,0.65 0.07,0.04 0.17,0.09 0.17,0.21 0,0.1 -0.07,0.15 -0.14,0.2 -0.22,0.15 -0.33,0.33 -0.41,0.57 -0.02,0.09 -0.06,0.22 -0.2,0.22 -0.14,0 -0.2,-0.13 -0.2,-0.21 0,-0.05 0.08,-0.37 0.24,-0.58 h -3.36 c -0.16,0 -0.34,0 -0.34,-0.2 0,-0.2 0.18,-0.2 0.34,-0.2 z"
   inkscape:connector-curvature="0"
   style="fill:#000000;stroke-width:0" />
<path
   id="path5940"
   d="m 228.1,710.83 -0.01,0.02 0,0.03 0,0.02 0,0.03 0,0.02 0,0.02 0,0.02 -0.01,0.02 0,0.04 -0.01,0.04 -0.01,0.04 -0.01,0.03 -0.01,0.04 -0.01,0.03 -0.01,0.03 -0.02,0.03 -0.01,0.02 -0.02,0.03 -0.01,0.02 -0.02,0.02 -0.01,0.02 -0.02,0.02 -0.02,0.01 -0.02,0.02 -0.01,0.01 -0.02,0.01 -0.02,0.01 -0.02,0.01 -0.02,0.01 -0.02,0.01 -0.01,0 -0.02,0.01 -0.02,0 -0.02,0 -0.02,0.01 -0.01,0 c -0.25,0 -0.49,-0.26 -0.49,-0.48 0,-0.13 0.05,-0.19 0.16,-0.3 0.21,-0.2 0.34,-0.46 0.34,-0.82 0,-0.42 -0.61,-2.7 -1.78,-2.7 -0.51,0 -0.73,0.35 -0.73,0.87 0,0.56 0.27,1.28 0.57,2.11 0.07,0.17 0.12,0.31 0.12,0.5 0,0.45 -0.31,0.82 -0.81,0.82 -0.94,0 -1.32,-1.45 -1.32,-1.54 0,-0.1 0.1,-0.1 0.12,-0.1 0.1,0 0.11,0.02 0.16,0.18 0.29,1.01 0.72,1.24 1.01,1.24 0.08,0 0.25,0 0.25,-0.32 0,-0.25 -0.1,-0.52 -0.17,-0.7 -0.44,-1.15 -0.57,-1.61 -0.57,-2.04 0,-1.08 0.88,-1.24 1.33,-1.24 1.68,0 2.25,3.3 2.25,3.82 z"
   inkscape:connector-curvature="0"
   style="fill:#000000;stroke-width:0" />
<path
   id="path5942"
   d="m 231.63,713.36 -0.02,0 -0.02,-0.01 -0.01,0 -0.02,-0.01 -0.01,-0.01 -0.02,0 -0.01,-0.01 -0.01,-0.01 -0.02,-0.01 -0.01,-0.01 -0.01,-0.01 -0.01,-0.01 -0.02,-0.01 -0.01,-0.01 -0.01,-0.01 -0.01,-0.01 -0.01,-0.01 0,-0.01 -0.01,-0.01 -0.01,-0.01 -0.01,-0.02 0,-0.01 -0.01,-0.01 0,-0.01 -0.01,-0.02 0,-0.01 -0.01,-0.01 0,-0.02 0,-0.01 0,-0.01 0,-0.01 0,-0.02 c 0,-0.16 0.14,-0.22 0.23,-0.22 0.06,0 0.33,0.04 0.33,0.4 0,0.45 -0.5,0.6 -0.93,0.6 -1.09,0 -1.28,-0.8 -1.28,-1.02 0,-0.25 0.15,-0.42 0.24,-0.5 0.19,-0.14 0.31,-0.17 0.79,-0.26 0.15,-0.02 0.59,-0.11 0.59,-0.46 0,-0.11 -0.07,-0.38 -0.36,-0.55 -0.28,-0.16 -0.62,-0.16 -0.7,-0.16 -0.28,0 -0.68,0.07 -0.84,0.3 0.23,0.02 0.38,0.2 0.38,0.39 0,0.18 -0.12,0.26 -0.27,0.26 -0.2,0 -0.4,-0.16 -0.4,-0.47 0,-0.41 0.44,-0.67 1.12,-0.67 1.28,0 1.52,0.88 1.52,1.15 0,0.64 -0.7,0.77 -0.96,0.81 -0.06,0.02 -0.24,0.05 -0.28,0.06 -0.26,0.05 -0.38,0.2 -0.38,0.35 0,0.16 0.12,0.35 0.27,0.44 0.19,0.12 0.44,0.14 0.56,0.14 0.14,0 0.51,-0.02 0.66,-0.26 z"
   inkscape:connector-curvature="0"
   style="fill:#000000;stroke-width:0" />
</g>    <path
       style="fill:none;stroke:#000000;stroke-width:1.5;stroke-linecap:butt;stroke-linejoin:miter;stroke-miterlimit:4;stroke-opacity:1;stroke-dasharray:4.5, 4.5;stroke-dashoffset:0"
       d="m 394.22697,533.82737 25.9494,0.11332 30.25542,-1.3598 31.84184,-1.92637 32.52175,-1.92638 35.19384,-0.83485 13.02058,-0.20031"
       id="path6039"
       inkscape:connector-curvature="0" />
    <path
       sodipodi:type="arc"
       style="fill:none;stroke:#000000;stroke-width:1.02141345;stroke-linecap:round;stroke-linejoin:round;stroke-miterlimit:4;stroke-opacity:1;stroke-dasharray:none;stroke-dashoffset:0"
       id="path6043"
       sodipodi:cx="375.63367"
       sodipodi:cy="535.38513"
       sodipodi:rx="169.86847"
       sodipodi:ry="203.52165"
       d="m 308.55302,348.40467 c 86.1909,-44.38724 186.09546,3.3438 223.14308,106.61025 37.04762,103.26646 -2.79088,222.96343 -88.98178,267.35067 -86.19091,44.38724 -186.09547,-3.34379 -223.14309,-106.61025 -37.00375,-103.14417 2.69375,-222.70842 88.72049,-267.21579"
       sodipodi:start="4.3064326"
       sodipodi:end="10.587943"
       sodipodi:open="true"
       transform="matrix(1.0697957,0,0,0.89597522,-18.849635,31.353673)" />
    <path
       inkscape:connector-curvature="0"
       id="path6045"
       d="m 219.72006,594.11157 c 58.8596,-26.23005 112.83001,-60.29952 171.84237,-60.29952"
       style="fill:none;stroke:#000000;stroke-width:1;stroke-linecap:butt;stroke-linejoin:miter;stroke-miterlimit:4;stroke-opacity:1;stroke-dasharray:1,3;stroke-dashoffset:0"
       sodipodi:nodetypes="cc" />
    <path
       sodipodi:nodetypes="cssssc"
       style="fill:none;stroke:#000000;stroke-width:1.5;stroke-linecap:butt;stroke-linejoin:miter;stroke-miterlimit:4;stroke-opacity:1;stroke-dasharray:4.5, 4.5;stroke-dashoffset:0"
       d="m 305.64971,347.35004 c 0.69152,7.90133 1.47556,16.49416 3.04714,25.16279 1.19566,6.59514 2.02391,13.31427 3.51337,19.72602 1.51613,6.52652 3.2665,12.66335 4.60172,18.50704 6.08031,26.61085 26.31119,76.81991 63.10359,109.64296 4.61129,4.1138 5.7033,6.23169 11.68819,11.12156"
       id="path6047"
       inkscape:connector-curvature="0" />
  </g>
</svg>
