<?xml version="1.0" encoding="UTF-8" standalone="no"?>
<!-- Created with Inkscape (http://www.inkscape.org/) -->

<svg
   xmlns:ns0="http://www.iki.fi/pav/software/textext/"
   xmlns:dc="http://purl.org/dc/elements/1.1/"
   xmlns:cc="http://creativecommons.org/ns#"
   xmlns:rdf="http://www.w3.org/1999/02/22-rdf-syntax-ns#"
   xmlns:svg="http://www.w3.org/2000/svg"
   xmlns="http://www.w3.org/2000/svg"
   xmlns:sodipodi="http://sodipodi.sourceforge.net/DTD/sodipodi-0.dtd"
   xmlns:inkscape="http://www.inkscape.org/namespaces/inkscape"
   width="744.09448819"
   height="1052.3622047"
   id="svg2"
   version="1.1"
   inkscape:version="0.48.1 "
   sodipodi:docname="New document 1">
  <sodipodi:namedview
     id="base"
     pagecolor="#ffffff"
     bordercolor="#666666"
     borderopacity="1.0"
     inkscape:pageopacity="0.0"
     inkscape:pageshadow="2"
     inkscape:zoom="1.1031082"
     inkscape:cx="407.08157"
     inkscape:cy="496.97056"
     inkscape:document-units="px"
     inkscape:current-layer="layer1"
     showgrid="false"
     inkscape:window-width="1920"
     inkscape:window-height="1018"
     inkscape:window-x="-8"
     inkscape:window-y="-8"
     inkscape:window-maximized="1" />
  <defs
     id="defs4">
    <marker
       style="overflow:visible;"
       id="Arrow1Lend"
       refX="0.0"
       refY="0.0"
       orient="auto"
       inkscape:stockid="Arrow1Lend">
      <path
         transform="scale(0.8) rotate(180) translate(12.5,0)"
         style="fill-rule:evenodd;stroke:#000000;stroke-width:1.0pt;marker-start:none;"
         d="M 0.0,0.0 L 5.0,-5.0 L -12.5,0.0 L 5.0,5.0 L 0.0,0.0 z "
         id="path3968" />
    </marker>
  </defs>
  <metadata
     id="metadata7">
    <rdf:RDF>
      <cc:Work
         rdf:about="">
        <dc:format>image/svg+xml</dc:format>
        <dc:type
           rdf:resource="http://purl.org/dc/dcmitype/StillImage" />
        <dc:title></dc:title>
      </cc:Work>
    </rdf:RDF>
  </metadata>
  <g
     id="layer1"
     inkscape:groupmode="layer"
     inkscape:label="Layer 1">
    <path
       transform="matrix(-1.0397103,0.2614558,-0.25681629,-1.0584932,973.18724,825.59032)"
       sodipodi:open="true"
       sodipodi:end="10.587943"
       sodipodi:start="4.4505896"
       d="m 488.51336,303.82409 a 140.51205,140.51205 0 1 1 -19.33682,6.72538"
       sodipodi:ry="140.51205"
       sodipodi:rx="140.51205"
       sodipodi:cy="439.54831"
       sodipodi:cx="524.88055"
       id="path4559"
       style="fill:#a8a8ff;fill-opacity:0.30319148;stroke:none"
       sodipodi:type="arc" />
    <path
       sodipodi:type="arc"
       style="fill:#ffaeae;fill-opacity:0.18085106;stroke:none"
       id="path4461"
       sodipodi:cx="524.88055"
       sodipodi:cy="439.54831"
       sodipodi:rx="140.51205"
       sodipodi:ry="140.51205"
       d="m 488.51336,303.82409 a 140.51205,140.51205 0 1 1 -19.33682,6.72538"
       sodipodi:start="4.4505896"
       sodipodi:end="10.587943"
       sodipodi:open="true"
       transform="matrix(-0.84412816,0.66091171,-0.66429431,-0.86317758,1138.4754,609.84428)" />
    <path
       transform="matrix(-1.0397103,0.2614558,-0.25681629,-1.0584932,1088.3165,795.67482)"
       sodipodi:open="true"
       sodipodi:end="10.587943"
       sodipodi:start="4.4505896"
       d="m 488.51336,303.82409 a 140.51205,140.51205 0 1 1 -19.33682,6.72538"
       sodipodi:ry="140.51205"
       sodipodi:rx="140.51205"
       sodipodi:cy="439.54831"
       sodipodi:cx="524.88055"
       id="path4410"
       style="fill:#aeffae;fill-opacity:0.21808514;stroke:none"
       sodipodi:type="arc" />
    <path
       inkscape:connector-curvature="0"
       id="path3772"
       d="m 544.38659,426.39736 c -1.51909,-2.97532 -3.1205,-5.94074 -4.8233,-8.87498 -53.33127,22.42574 -95.55571,57.4808 -158.6559,66.92068 -2.69695,-2.37662 -4.61473,-4.05678 -5.50296,-5.11765 -1.8218,2.22899 -3.6582,4.37136 -5.51423,6.47115 -2.7985,0.27288 -5.62083,0.51658 -8.50445,0.68526 0.33821,1.34162 0.57415,3.88047 0.91713,7.45867 -44.65661,45.56897 -97.81483,59.20587 -147.259,89.24605 43.69643,98.3227 159.8351,134.16269 250.77052,93.59777 0.0383,0.0329 0.082,0.0594 0.12027,0.0922 0.37825,-0.21151 0.75961,-0.4274 1.13605,-0.64147 0.39689,-0.1806 0.78992,-0.36047 1.18588,-0.54385 -0.004,-0.0502 5e-5,-0.1013 -0.004,-0.1515 83.48518,-48.28022 122.79632,-157.74844 76.13415,-249.14235 z"
       style="fill:#ffaeae;fill-opacity:1;stroke:#000000;stroke-width:0.625;stroke-linecap:butt;stroke-linejoin:miter;stroke-opacity:1;stroke-miterlimit:4;stroke-dasharray:none" />
    <path
       sodipodi:nodetypes="cccc"
       inkscape:connector-curvature="0"
       id="path3755"
       d="M 305.80089,346.89067 C 219.83703,390.77443 172.95014,501.15541 220.02802,593.37625 277.02897,571.88723 323.54885,535.21559 394.42331,533.82335 340.064,488.43619 313.90512,423.81917 305.80089,346.89067 z"
       style="fill:#c6d2ff;fill-opacity:1;stroke:#000000;stroke-width:0.62500000000000000;stroke-linecap:butt;stroke-linejoin:miter;stroke-opacity:1;stroke-miterlimit:4;stroke-dasharray:none" />
    <path
       style="fill:#aeffae;fill-opacity:1;stroke:#000000;stroke-width:0.625;stroke-linecap:butt;stroke-linejoin:miter;stroke-opacity:1;stroke-miterlimit:4;stroke-dasharray:none"
       d="m 305.92469,346.81946 c 87.13659,-40.41035 199.33025,-7.12457 241.81892,86.57053 0.0862,0.19012 9.09266,15.00814 12.85364,34.59738 3.52805,18.37598 4.90701,40.89645 2.56185,60.14018 -81.47527,0 -87.7095,6.07111 -168.65351,6.07111 -6.85556,-8.16985 -77.83647,-54.1531 -88.5809,-187.3792 z"
       id="path3770"
       inkscape:connector-curvature="0"
       sodipodi:nodetypes="cssccc" />
    <path
       sodipodi:nodetypes="cc"
       inkscape:connector-curvature="0"
       id="path3780"
       d="m 479.55406,530.65451 0,41.24708"
       style="fill:none;stroke:#000000;stroke-width:1px;stroke-linecap:butt;stroke-linejoin:miter;stroke-opacity:1;marker-start:none;marker-end:url(#Arrow1Lend)" />
    <path
       style="fill:none;stroke:#000000;stroke-width:1px;stroke-linecap:butt;stroke-linejoin:miter;stroke-opacity:1;marker-start:none;marker-end:url(#Arrow1Lend)"
       d="m 316.84003,410.06458 -37.8636,16.36056"
       id="path4406"
       inkscape:connector-curvature="0"
       sodipodi:nodetypes="cc" />
    <path
       sodipodi:nodetypes="cc"
       inkscape:connector-curvature="0"
       id="path4408"
       d="m 277.24393,567.70923 16.39904,37.84694"
       style="fill:none;stroke:#000000;stroke-width:1px;stroke-linecap:butt;stroke-linejoin:miter;stroke-opacity:1;marker-start:none;marker-end:url(#Arrow1Lend)" />
    <g
       ns0:preamble="C:\\Users\\RASPI\\Desktop\\THESIS DOCUMENTS\\Thesis Writing\\phd\\Misc\\textext_preamble.tex"
       ns0:text="air (a)"
       word-spacing="normal"
       letter-spacing="normal"
       font-size-adjust="none"
       font-stretch="normal"
       font-weight="normal"
       font-variant="normal"
       font-style="normal"
       stroke-miterlimit="10.433"
       xml:space="preserve"
       transform="matrix(1.9682349,1.2642794,1.2642794,-1.9682349,-857.54332,1454.7029)"
       id="content"
       style="font-style:normal;font-variant:normal;font-weight:normal;font-stretch:normal;letter-spacing:normal;word-spacing:normal;text-anchor:start;fill:none;stroke:#000000;stroke-linecap:butt;stroke-linejoin:miter;stroke-miterlimit:10.43299961;stroke-opacity:1;stroke-dasharray:none;stroke-dashoffset:0">
<path
   id="path4427"
   d="m 227.75,710.8 -0.01,0.11 0,0.06 0,0.05 -0.01,0.06 -0.01,0.06 -0.01,0.05 -0.01,0.06 -0.01,0.06 -0.02,0.05 -0.02,0.06 -0.02,0.05 -0.03,0.06 -0.03,0.05 -0.04,0.05 -0.04,0.05 -0.04,0.05 -0.05,0.04 -0.05,0.05 -0.06,0.04 -0.06,0.04 -0.04,0.02 -0.03,0.01 -0.04,0.02 -0.04,0.02 -0.04,0.01 -0.04,0.02 -0.04,0.01 -0.04,0.02 -0.05,0.01 -0.05,0.01 -0.05,0.01 -0.05,0.01 -0.05,0.01 -0.06,0.01 -0.05,0.01 -0.06,0.01 -0.06,0 -0.06,0.01 -0.07,0 -0.06,0 -0.07,0 -0.07,0 c -1.12,0 -2.01,-0.58 -2.01,-1.13 0,-0.32 0.37,-0.47 0.56,-0.47 0.21,0 0.27,0.11 0.32,0.28 0.22,0.74 0.62,0.98 1.02,0.98 0.39,0 0.85,-0.2 0.85,-1 v -0.42 -0.41 -1.4 c 0,-0.81 -0.62,-1.02 -1.01,-1.02 -0.61,0 -0.91,0.44 -0.91,1.03 0,0.47 0.22,0.7 0.77,0.91 0.4,0.15 0.93,0.34 1.15,0.48 v 0.41 c -0.25,-0.26 -1.22,-0.51 -2,-0.76 -0.72,-0.22 -0.93,-0.71 -0.93,-1.18 0,-0.75 0.5,-1.42 1.43,-1.42 0.62,0.02 1.17,0.39 1.49,0.6 0.14,-0.37 0.3,-0.6 0.65,-0.6 0.37,0 0.79,0.11 1.17,0.3 l -0.06,0.24 c -0.14,-0.03 -0.36,-0.05 -0.5,-0.01 -0.18,0.04 -0.35,0.23 -0.35,0.86 z"
   inkscape:connector-curvature="0"
   style="fill:#000000;stroke-width:0" />
<path
   id="path4429"
   d="m 229.01,711.88 v -0.25 l 0.38,-0.05 c 0.26,-0.04 0.32,-0.09 0.32,-0.45 v -3.14 c 0,-0.51 -0.03,-0.53 -0.75,-0.58 v -0.29 h 2.44 v 0.29 c -0.71,0.05 -0.75,0.07 -0.75,0.58 v 4.07 l -0.07,0.06 z"
   inkscape:connector-curvature="0"
   style="fill:#000000;stroke-width:0" />
<path
   id="path4431"
   d="m 230.17,714.25 -0.03,0 -0.04,-0.01 -0.03,0 -0.03,-0.01 -0.03,0 -0.03,-0.01 -0.03,-0.01 -0.03,-0.01 -0.02,-0.01 -0.03,-0.02 -0.03,-0.01 -0.02,-0.01 -0.02,-0.02 -0.03,-0.02 -0.02,-0.02 -0.02,-0.02 -0.02,-0.02 -0.02,-0.02 -0.01,-0.02 -0.02,-0.03 -0.02,-0.02 -0.01,-0.03 -0.01,-0.03 -0.01,-0.02 -0.01,-0.03 -0.01,-0.03 -0.01,-0.03 -0.01,-0.03 0,-0.03 -0.01,-0.04 0,-0.03 0,-0.03 c 0,-0.35 0.25,-0.6 0.61,-0.6 0.37,0 0.6,0.25 0.61,0.6 0,0.36 -0.24,0.62 -0.61,0.62 z"
   inkscape:connector-curvature="0"
   style="fill:#000000;stroke-width:0" />
<path
   id="path4433"
   d="m 233.42,712.12 -1.51,-0.24 v -0.25 l 0.38,-0.05 c 0.26,-0.04 0.32,-0.09 0.32,-0.45 v -3.14 c 0,-0.51 -0.05,-0.53 -0.75,-0.58 v -0.29 h 2.63 v 0.29 c -0.89,0.05 -0.95,0.07 -0.95,0.58 v 2.33 c 0,0.77 0.34,1.03 0.57,1.03 0.16,0 0.33,-0.06 0.62,-0.22 0.07,-0.04 0.15,-0.05 0.2,-0.05 0.24,0 0.46,0.25 0.46,0.56 0,0.21 -0.14,0.48 -0.53,0.48 -0.36,0 -0.66,-0.21 -1.32,-0.79 z"
   inkscape:connector-curvature="0"
   style="fill:#000000;stroke-width:0" />
<path
   id="path4435"
   d="m 239.4,709.93 0,0.13 0.01,0.13 0,0.13 0,0.12 0.01,0.24 0.02,0.23 0.02,0.22 0.03,0.2 0.03,0.2 0.03,0.19 0.03,0.17 0.04,0.17 0.05,0.16 0.04,0.14 0.05,0.14 0.05,0.13 0.05,0.13 0.06,0.11 0.05,0.11 0.06,0.09 0.06,0.09 0.06,0.09 0.06,0.07 0.06,0.07 0.07,0.07 0.06,0.05 0.06,0.06 0.07,0.04 0.06,0.04 0.06,0.03 0.07,0.03 0.06,0.02 0.06,0.02 0.06,0.02 v 0.25 c -1.75,-0.07 -2.19,-2.24 -2.19,-4.09 0,-1.85 0.44,-4.01 2.19,-4.08 v 0.25 c -0.58,0.12 -1.5,0.96 -1.5,3.83 z"
   inkscape:connector-curvature="0"
   style="fill:#000000;stroke-width:0" />
<path
   id="path4437"
   d="m 245.46,710.8 0,0.11 0,0.06 -0.01,0.05 0,0.06 -0.01,0.06 -0.01,0.05 -0.01,0.06 -0.02,0.06 -0.01,0.05 -0.03,0.06 -0.02,0.05 -0.03,0.06 -0.03,0.05 -0.03,0.05 -0.04,0.05 -0.05,0.05 -0.04,0.04 -0.06,0.05 -0.05,0.04 -0.07,0.04 -0.03,0.02 -0.04,0.01 -0.03,0.02 -0.04,0.02 -0.04,0.01 -0.04,0.02 -0.05,0.01 -0.04,0.02 -0.05,0.01 -0.04,0.01 -0.05,0.01 -0.05,0.01 -0.06,0.01 -0.05,0.01 -0.06,0.01 -0.05,0.01 -0.06,0 -0.07,0.01 -0.06,0 -0.07,0 -0.06,0 -0.07,0 c -1.13,0 -2.01,-0.58 -2.01,-1.13 0,-0.32 0.36,-0.47 0.55,-0.47 0.21,0 0.27,0.11 0.32,0.28 0.22,0.74 0.63,0.98 1.03,0.98 0.39,0 0.85,-0.2 0.85,-1 v -0.42 -0.41 -1.4 c 0,-0.81 -0.62,-1.02 -1.01,-1.02 -0.62,0 -0.92,0.44 -0.92,1.03 0,0.47 0.22,0.7 0.78,0.91 0.4,0.15 0.93,0.34 1.15,0.48 v 0.41 c -0.25,-0.26 -1.22,-0.51 -2.01,-0.76 -0.71,-0.22 -0.92,-0.71 -0.92,-1.18 0,-0.75 0.49,-1.42 1.43,-1.42 0.62,0.02 1.17,0.39 1.48,0.6 0.14,-0.37 0.3,-0.6 0.65,-0.6 0.37,0 0.8,0.11 1.18,0.3 l -0.06,0.24 c -0.14,-0.03 -0.36,-0.05 -0.51,-0.01 -0.18,0.04 -0.35,0.23 -0.35,0.86 z"
   inkscape:connector-curvature="0"
   style="fill:#000000;stroke-width:0" />
<path
   id="path4439"
   d="m 248.1,709.93 0,-0.13 -0.01,-0.13 0,-0.13 0,-0.12 -0.01,-0.12 -0.01,-0.12 -0.01,-0.23 -0.03,-0.22 -0.02,-0.21 -0.03,-0.19 -0.04,-0.19 -0.03,-0.18 -0.04,-0.16 -0.05,-0.16 -0.04,-0.15 -0.05,-0.14 -0.06,-0.13 -0.05,-0.12 -0.05,-0.12 -0.06,-0.1 -0.06,-0.1 -0.06,-0.09 -0.06,-0.08 -0.06,-0.08 -0.07,-0.07 -0.06,-0.06 -0.06,-0.06 -0.06,-0.05 -0.07,-0.04 -0.06,-0.04 -0.06,-0.03 -0.06,-0.03 -0.06,-0.02 -0.05,-0.02 -0.06,-0.01 v -0.25 c 1.75,0.07 2.19,2.23 2.19,4.08 0,1.85 -0.44,4.02 -2.19,4.09 v -0.25 c 0.63,-0.13 1.5,-0.99 1.5,-3.84 z"
   inkscape:connector-curvature="0"
   style="fill:#000000;stroke-width:0" />
</g>    <g
       id="g4502"
       transform="matrix(2.2816885,-0.51599295,-0.51599295,-2.2816885,257.06131,2447.04)"
       xml:space="preserve"
       stroke-miterlimit="10.433"
       font-style="normal"
       font-variant="normal"
       font-weight="normal"
       font-stretch="normal"
       font-size-adjust="none"
       letter-spacing="normal"
       word-spacing="normal"
       ns0:text="liquid (l)"
       ns0:preamble="C:\\Users\\RASPI\\Desktop\\THESIS DOCUMENTS\\Thesis Writing\\phd\\Misc\\textext_preamble.tex"
       style="font-style:normal;font-variant:normal;font-weight:normal;font-stretch:normal;letter-spacing:normal;word-spacing:normal;text-anchor:start;fill:none;stroke:#000000;stroke-linecap:butt;stroke-linejoin:miter;stroke-miterlimit:10.43299961;stroke-opacity:1;stroke-dasharray:none;stroke-dashoffset:0">
<path
   style="fill:#000000;stroke-width:0"
   inkscape:connector-curvature="0"
   d="m 225.32,714.46 -0.07,0.06 -1.57,-0.25 v -0.25 l 0.38,-0.04 c 0.26,-0.03 0.32,-0.08 0.32,-0.46 v -5.53 c 0,-0.51 -0.03,-0.53 -0.75,-0.58 v -0.29 h 2.43 v 0.29 c -0.71,0.05 -0.74,0.07 -0.74,0.58 z"
   id="path4504" />
<path
   style="fill:#000000;stroke-width:0"
   inkscape:connector-curvature="0"
   d="m 226.58,711.88 v -0.25 l 0.38,-0.05 c 0.26,-0.04 0.32,-0.09 0.32,-0.45 v -3.14 c 0,-0.51 -0.03,-0.53 -0.75,-0.58 v -0.29 h 2.43 v 0.29 c -0.7,0.05 -0.74,0.07 -0.74,0.58 v 4.07 l -0.07,0.06 z"
   id="path4506" />
<path
   style="fill:#000000;stroke-width:0"
   inkscape:connector-curvature="0"
   d="m 227.74,714.25 -0.03,0 -0.04,-0.01 -0.03,0 -0.03,-0.01 -0.03,0 -0.03,-0.01 -0.03,-0.01 -0.03,-0.01 -0.02,-0.01 -0.03,-0.02 -0.03,-0.01 -0.02,-0.01 -0.02,-0.02 -0.03,-0.02 -0.02,-0.02 -0.02,-0.02 -0.02,-0.02 -0.02,-0.02 -0.01,-0.02 -0.02,-0.03 -0.02,-0.02 -0.01,-0.03 -0.01,-0.03 -0.01,-0.02 -0.01,-0.03 -0.01,-0.03 -0.01,-0.03 -0.01,-0.03 0,-0.03 -0.01,-0.04 0,-0.03 0,-0.03 c 0,-0.35 0.25,-0.6 0.61,-0.6 0.37,0 0.6,0.25 0.61,0.6 0,0.36 -0.24,0.62 -0.61,0.62 z"
   id="path4508" />
<path
   style="fill:#000000;stroke-width:0"
   inkscape:connector-curvature="0"
   d="m 234.17,712.12 h -0.27 l -0.43,-0.3 c -0.37,0.2 -0.88,0.3 -1.31,0.3 l -0.08,-0.34 c 0.52,0 0.89,-0.18 1.07,-0.69 0.06,-0.16 0.09,-0.34 0.09,-0.58 v -1.68 c 0,-0.22 -0.01,-0.39 -0.08,-0.55 -0.18,-0.53 -0.56,-0.74 -1.11,-0.74 -0.99,0 -1.42,0.91 -1.42,2.03 0,1.23 0.43,2.21 1.45,2.21 l 0.08,0.34 c -0.8,0 -1.43,-0.23 -1.86,-0.68 -0.44,-0.45 -0.7,-1.1 -0.7,-2 0,-1.59 0.86,-2.44 2.07,-2.44 0.56,0 1.05,0.27 1.57,0.65 v -1.95 c 0,-0.51 -0.06,-0.53 -0.8,-0.58 v -0.29 h 2.48 v 0.29 c -0.69,0.05 -0.75,0.07 -0.75,0.58 z"
   id="path4510" />
<path
   style="fill:#000000;stroke-width:0"
   inkscape:connector-curvature="0"
   d="m 240.88,707.12 v 0.29 c -0.68,0.05 -0.74,0.07 -0.74,0.58 v 4.07 l -0.07,0.06 -1.57,-0.24 v -0.25 l 0.38,-0.05 c 0.26,-0.04 0.32,-0.09 0.32,-0.45 v -2.24 c 0,-0.28 -0.03,-0.5 -0.08,-0.6 -0.23,-0.46 -0.71,-0.75 -1.22,-0.75 -0.58,0 -1.01,0.36 -1.01,1.14 v 3.38 l -0.07,0.06 -1.56,-0.24 v -0.25 l 0.37,-0.05 c 0.26,-0.04 0.32,-0.09 0.32,-0.45 v -2.63 c 0,-1.15 0.68,-1.5 1.42,-1.5 0.84,0 1.53,0.58 1.82,0.72 l 0.1,-0.6 z"
   id="path4512" />
<path
   style="fill:#000000;stroke-width:0"
   inkscape:connector-curvature="0"
   d="m 241.4,711.88 v -0.25 l 0.38,-0.05 c 0.26,-0.04 0.32,-0.09 0.32,-0.45 v -3.14 c 0,-0.51 -0.03,-0.53 -0.75,-0.58 v -0.29 h 2.44 v 0.29 c -0.71,0.05 -0.75,0.07 -0.75,0.58 v 4.07 l -0.07,0.06 z"
   id="path4514" />
<path
   style="fill:#000000;stroke-width:0"
   inkscape:connector-curvature="0"
   d="m 242.56,714.25 -0.03,0 -0.04,-0.01 -0.03,0 -0.03,-0.01 -0.03,0 -0.03,-0.01 -0.03,-0.01 -0.03,-0.01 -0.02,-0.01 -0.03,-0.02 -0.03,-0.01 -0.02,-0.01 -0.02,-0.02 -0.03,-0.02 -0.02,-0.02 -0.02,-0.02 -0.02,-0.02 -0.02,-0.02 -0.01,-0.02 -0.02,-0.03 -0.02,-0.02 -0.01,-0.03 -0.01,-0.03 -0.01,-0.02 -0.01,-0.03 -0.01,-0.03 -0.01,-0.03 -0.01,-0.03 0,-0.03 -0.01,-0.04 0,-0.03 0,-0.03 c 0,-0.35 0.25,-0.6 0.61,-0.6 0.37,0 0.6,0.25 0.61,0.6 0,0.36 -0.24,0.62 -0.61,0.62 z"
   id="path4516" />
<path
   style="fill:#000000;stroke-width:0"
   inkscape:connector-curvature="0"
   d="m 249.75,707.12 v 0.29 c -0.71,0.05 -0.75,0.07 -0.75,0.58 v 6.47 l -0.07,0.06 -1.56,-0.25 v -0.25 l 0.37,-0.04 c 0.26,-0.03 0.32,-0.08 0.32,-0.46 v -1.63 c -0.28,0.14 -0.65,0.23 -1.1,0.23 l -0.01,-0.34 c 0.46,0 0.84,-0.22 1.02,-0.63 0.08,-0.17 0.09,-0.31 0.09,-0.58 v -1.75 c 0,-0.22 -0.01,-0.39 -0.07,-0.56 -0.2,-0.52 -0.64,-0.72 -1.15,-0.72 -0.92,0 -1.38,0.9 -1.38,2.04 0,1.3 0.47,2.2 1.49,2.2 l 0.01,0.34 c -0.82,0 -1.43,-0.26 -1.85,-0.68 -0.43,-0.45 -0.68,-1.11 -0.68,-1.98 0,-1.47 0.76,-2.46 2.08,-2.46 0.54,0 1,0.24 1.54,0.68 v -0.49 l 0.08,-0.07 z"
   id="path4518" />
<path
   style="fill:#000000;stroke-width:0"
   inkscape:connector-curvature="0"
   d="m 253.88,709.93 0,0.13 0,0.13 0,0.13 0.01,0.12 0.01,0.24 0.02,0.23 0.02,0.22 0.02,0.2 0.03,0.2 0.03,0.19 0.04,0.17 0.04,0.17 0.04,0.16 0.05,0.14 0.04,0.14 0.05,0.13 0.06,0.13 0.05,0.11 0.06,0.11 0.05,0.09 0.06,0.09 0.06,0.09 0.07,0.07 0.06,0.07 0.06,0.07 0.06,0.05 0.07,0.06 0.06,0.04 0.07,0.04 0.06,0.03 0.06,0.03 0.06,0.02 0.06,0.02 0.06,0.02 v 0.25 c -1.74,-0.07 -2.19,-2.24 -2.19,-4.09 0,-1.85 0.45,-4.01 2.19,-4.08 v 0.25 c -0.58,0.12 -1.49,0.96 -1.49,3.83 z"
   id="path4520" />
<path
   style="fill:#000000;stroke-width:0"
   inkscape:connector-curvature="0"
   d="m 257.51,714.46 -0.07,0.06 -1.57,-0.25 v -0.25 l 0.38,-0.04 c 0.26,-0.03 0.32,-0.08 0.32,-0.46 v -5.53 c 0,-0.51 -0.03,-0.53 -0.75,-0.58 v -0.29 h 2.43 v 0.29 c -0.7,0.05 -0.74,0.07 -0.74,0.58 z"
   id="path4522" />
<path
   style="fill:#000000;stroke-width:0"
   inkscape:connector-curvature="0"
   d="m 260.14,709.93 0,-0.13 0,-0.13 0,-0.13 -0.01,-0.12 -0.01,-0.12 0,-0.12 -0.02,-0.23 -0.02,-0.22 -0.03,-0.21 -0.03,-0.19 -0.03,-0.19 -0.04,-0.18 -0.04,-0.16 -0.04,-0.16 -0.05,-0.15 -0.05,-0.14 -0.05,-0.13 -0.05,-0.12 -0.06,-0.12 -0.06,-0.1 -0.06,-0.1 -0.06,-0.09 -0.06,-0.08 -0.06,-0.08 -0.06,-0.07 -0.06,-0.06 -0.07,-0.06 -0.06,-0.05 -0.06,-0.04 -0.06,-0.04 -0.06,-0.03 -0.06,-0.03 -0.06,-0.02 -0.06,-0.02 -0.05,-0.01 v -0.25 c 1.74,0.07 2.19,2.23 2.19,4.08 0,1.85 -0.45,4.02 -2.19,4.09 v -0.25 c 0.62,-0.13 1.49,-0.99 1.49,-3.84 z"
   id="path4524" />
</g>    <g
       style="font-style:normal;font-variant:normal;font-weight:normal;font-stretch:normal;letter-spacing:normal;word-spacing:normal;text-anchor:start;fill:none;stroke:#000000;stroke-linecap:butt;stroke-linejoin:miter;stroke-miterlimit:10.43299961;stroke-opacity:1;stroke-dasharray:none;stroke-dashoffset:0"
       ns0:preamble="C:\\Users\\RASPI\\Desktop\\THESIS DOCUMENTS\\Thesis Writing\\phd\\Misc\\textext_preamble.tex"
       ns0:text="solid (s)"
       word-spacing="normal"
       letter-spacing="normal"
       font-size-adjust="none"
       font-stretch="normal"
       font-weight="normal"
       font-variant="normal"
       font-style="normal"
       stroke-miterlimit="10.433"
       xml:space="preserve"
       transform="matrix(0.57360901,-2.2678897,-2.2678897,-0.57360901,1665.5753,1408.1446)"
       id="g4621">
<path
   id="path4623"
   d="m 227.09,710.62 v 1.16 c -0.33,0.24 -0.84,0.34 -1.29,0.34 -1.07,0 -1.8,-0.5 -1.81,-1.45 0.01,-0.83 0.68,-1.2 1.5,-1.45 0.45,-0.13 1.08,-0.36 1.08,-1.04 0,-0.51 -0.4,-0.83 -0.93,-0.83 -0.8,0 -1.25,0.59 -1.45,1.44 h -0.29 l 0.1,-1.31 c 0.36,-0.32 0.97,-0.48 1.55,-0.48 1.19,0 1.87,0.63 1.87,1.48 0,0.87 -0.54,1.27 -1.57,1.59 -0.4,0.13 -1.06,0.34 -1.06,0.9 0.01,0.52 0.4,0.81 0.89,0.81 0.71,0 1.05,-0.55 1.12,-1.16 z"
   inkscape:connector-curvature="0"
   style="fill:#000000;stroke-width:0" />
<path
   id="path4625"
   d="m 230.64,712.12 v -0.34 c 0.93,0 1.36,-0.84 1.36,-2.22 0,-1.37 -0.43,-2.21 -1.36,-2.21 -0.9,0 -1.34,0.84 -1.34,2.21 h 0 c 0,1.38 0.44,2.22 1.34,2.22 v 0.34 c -1.59,0 -2.38,-0.94 -2.38,-2.56 0,-1.61 0.79,-2.56 2.38,-2.56 1.62,0 2.4,0.95 2.4,2.56 0,1.62 -0.78,2.56 -2.4,2.56 z"
   inkscape:connector-curvature="0"
   style="fill:#000000;stroke-width:0" />
<path
   id="path4627"
   d="m 235.41,714.46 -0.07,0.06 -1.56,-0.25 v -0.25 l 0.37,-0.04 c 0.26,-0.03 0.32,-0.08 0.32,-0.46 v -5.53 c 0,-0.51 -0.03,-0.53 -0.74,-0.58 v -0.29 h 2.43 v 0.29 c -0.71,0.05 -0.75,0.07 -0.75,0.58 z"
   inkscape:connector-curvature="0"
   style="fill:#000000;stroke-width:0" />
<path
   id="path4629"
   d="m 236.67,711.88 v -0.25 l 0.38,-0.05 c 0.26,-0.04 0.32,-0.09 0.32,-0.45 v -3.14 c 0,-0.51 -0.03,-0.53 -0.75,-0.58 v -0.29 h 2.43 v 0.29 c -0.7,0.05 -0.75,0.07 -0.75,0.58 v 4.07 l -0.06,0.06 z"
   inkscape:connector-curvature="0"
   style="fill:#000000;stroke-width:0" />
<path
   id="path4631"
   d="m 237.83,714.25 -0.04,0 -0.03,-0.01 -0.03,0 -0.03,-0.01 -0.03,0 -0.03,-0.01 -0.03,-0.01 -0.03,-0.01 -0.03,-0.01 -0.02,-0.02 -0.03,-0.01 -0.02,-0.01 -0.03,-0.02 -0.02,-0.02 -0.02,-0.02 -0.02,-0.02 -0.02,-0.02 -0.02,-0.02 -0.02,-0.02 -0.01,-0.03 -0.02,-0.02 -0.01,-0.03 -0.02,-0.03 -0.01,-0.02 -0.01,-0.03 -0.01,-0.03 0,-0.03 -0.01,-0.03 0,-0.03 -0.01,-0.04 0,-0.03 0,-0.03 c 0,-0.35 0.25,-0.6 0.61,-0.6 0.37,0 0.6,0.25 0.6,0.6 0,0.36 -0.23,0.62 -0.6,0.62 z"
   inkscape:connector-curvature="0"
   style="fill:#000000;stroke-width:0" />
<path
   id="path4633"
   d="m 245.01,707.12 v 0.29 c -0.7,0.05 -0.74,0.07 -0.74,0.58 v 6.47 l -0.07,0.06 -1.57,-0.25 v -0.25 l 0.38,-0.04 c 0.26,-0.03 0.32,-0.08 0.32,-0.46 v -1.63 c -0.28,0.14 -0.65,0.23 -1.11,0.23 l -0.01,-0.34 c 0.47,0 0.85,-0.22 1.03,-0.63 0.08,-0.17 0.09,-0.31 0.09,-0.58 v -1.75 c 0,-0.22 -0.01,-0.39 -0.07,-0.56 -0.2,-0.52 -0.64,-0.72 -1.16,-0.72 -0.91,0 -1.37,0.9 -1.37,2.04 0,1.3 0.47,2.2 1.48,2.2 l 0.01,0.34 c -0.81,0 -1.42,-0.26 -1.84,-0.68 -0.43,-0.45 -0.69,-1.11 -0.69,-1.98 0,-1.47 0.77,-2.46 2.08,-2.46 0.54,0 1.01,0.24 1.55,0.68 v -0.49 l 0.08,-0.07 z"
   inkscape:connector-curvature="0"
   style="fill:#000000;stroke-width:0" />
<path
   id="path4635"
   d="m 249.15,709.93 0,0.13 0,0.13 0,0.13 0.01,0.12 0.01,0.24 0.01,0.23 0.03,0.22 0.02,0.2 0.03,0.2 0.03,0.19 0.04,0.17 0.04,0.17 0.04,0.16 0.04,0.14 0.05,0.14 0.05,0.13 0.05,0.13 0.06,0.11 0.05,0.11 0.06,0.09 0.06,0.09 0.06,0.09 0.06,0.07 0.07,0.07 0.06,0.07 0.06,0.05 0.07,0.06 0.06,0.04 0.06,0.04 0.07,0.03 0.06,0.03 0.06,0.02 0.06,0.02 0.06,0.02 v 0.25 c -1.74,-0.07 -2.19,-2.24 -2.19,-4.09 0,-1.85 0.45,-4.01 2.19,-4.08 v 0.25 c -0.58,0.12 -1.49,0.96 -1.49,3.83 z"
   inkscape:connector-curvature="0"
   style="fill:#000000;stroke-width:0" />
<path
   id="path4637"
   d="m 254.55,710.62 v 1.16 c -0.33,0.24 -0.84,0.34 -1.29,0.34 -1.08,0 -1.8,-0.5 -1.81,-1.45 0.01,-0.83 0.68,-1.2 1.5,-1.45 0.45,-0.13 1.08,-0.36 1.08,-1.04 0,-0.51 -0.4,-0.83 -0.93,-0.83 -0.81,0 -1.25,0.59 -1.45,1.44 h -0.29 l 0.1,-1.31 c 0.36,-0.32 0.96,-0.48 1.55,-0.48 1.19,0 1.87,0.63 1.87,1.48 0,0.87 -0.54,1.27 -1.57,1.59 -0.41,0.13 -1.07,0.34 -1.07,0.9 0.02,0.52 0.4,0.81 0.9,0.81 0.71,0 1.05,-0.55 1.12,-1.16 z"
   inkscape:connector-curvature="0"
   style="fill:#000000;stroke-width:0" />
<path
   id="path4639"
   d="m 256.98,709.93 0,-0.13 -0.01,-0.13 0,-0.13 0,-0.12 -0.01,-0.12 -0.01,-0.12 -0.01,-0.23 -0.03,-0.22 -0.02,-0.21 -0.03,-0.19 -0.04,-0.19 -0.03,-0.18 -0.04,-0.16 -0.05,-0.16 -0.04,-0.15 -0.05,-0.14 -0.06,-0.13 -0.05,-0.12 -0.05,-0.12 -0.06,-0.1 -0.06,-0.1 -0.06,-0.09 -0.06,-0.08 -0.06,-0.08 -0.07,-0.07 -0.06,-0.06 -0.06,-0.06 -0.06,-0.05 -0.07,-0.04 -0.06,-0.04 -0.06,-0.03 -0.06,-0.03 -0.06,-0.02 -0.05,-0.02 -0.06,-0.01 v -0.25 c 1.75,0.07 2.19,2.23 2.19,4.08 0,1.85 -0.44,4.02 -2.19,4.09 v -0.25 c 0.63,-0.13 1.5,-0.99 1.5,-3.84 z"
   inkscape:connector-curvature="0"
   style="fill:#000000;stroke-width:0" />
</g>  </g>
</svg>
