<?xml version="1.0" encoding="UTF-8" standalone="no"?>
<!-- Created with Inkscape (http://www.inkscape.org/) -->

<svg
   xmlns:dc="http://purl.org/dc/elements/1.1/"
   xmlns:cc="http://creativecommons.org/ns#"
   xmlns:rdf="http://www.w3.org/1999/02/22-rdf-syntax-ns#"
   xmlns:svg="http://www.w3.org/2000/svg"
   xmlns="http://www.w3.org/2000/svg"
   xmlns:xlink="http://www.w3.org/1999/xlink"
   xmlns:sodipodi="http://sodipodi.sourceforge.net/DTD/sodipodi-0.dtd"
   xmlns:inkscape="http://www.inkscape.org/namespaces/inkscape"
   width="316.21875"
   height="451.96875"
   id="svg2"
   version="1.1"
   inkscape:version="0.48.1 "
   sodipodi:docname="ingot_air_liq_mush_sol.svg">
  <sodipodi:namedview
     id="base"
     pagecolor="#ffffff"
     bordercolor="#666666"
     borderopacity="1.0"
     inkscape:pageopacity="0.0"
     inkscape:pageshadow="2"
     inkscape:zoom="0.98994949"
     inkscape:cx="28.483819"
     inkscape:cy="279.73717"
     inkscape:document-units="px"
     inkscape:current-layer="layer1"
     showgrid="false"
     inkscape:window-width="1920"
     inkscape:window-height="1018"
     inkscape:window-x="-8"
     inkscape:window-y="-8"
     inkscape:window-maximized="1"
     fit-margin-top="0"
     fit-margin-left="0"
     fit-margin-right="0"
     fit-margin-bottom="0" />
  <defs
     id="defs4">
    <marker
       inkscape:stockid="Arrow1Lend"
       orient="auto"
       refY="0"
       refX="0"
       id="Arrow1Lend"
       style="overflow:visible">
      <path
         id="path3816"
         d="M 0,0 5,-5 -12.5,0 5,5 0,0 z"
         style="fill-rule:evenodd;stroke:#000000;stroke-width:1pt"
         transform="matrix(-0.8,0,0,-0.8,-10,0)"
         inkscape:connector-curvature="0" />
    </marker>
    <linearGradient
       inkscape:collect="always"
       id="linearGradient5699">
      <stop
         style="stop-color:#000000;stop-opacity:1;"
         offset="0"
         id="stop5701" />
      <stop
         style="stop-color:#000000;stop-opacity:0;"
         offset="1"
         id="stop5703" />
    </linearGradient>
    <linearGradient
       inkscape:collect="always"
       id="linearGradient5673">
      <stop
         style="stop-color:#000000;stop-opacity:1;"
         offset="0"
         id="stop5675" />
      <stop
         style="stop-color:#000000;stop-opacity:0;"
         offset="1"
         id="stop5677" />
    </linearGradient>
    <linearGradient
       inkscape:collect="always"
       id="linearGradient5665">
      <stop
         style="stop-color:#eb3a00;stop-opacity:1"
         offset="0"
         id="stop5667" />
      <stop
         style="stop-color:#000000;stop-opacity:0;"
         offset="1"
         id="stop5669" />
    </linearGradient>
    <linearGradient
       id="linearGradient5405">
      <stop
         style="stop-color:#00aaaa;stop-opacity:0.66666669;"
         offset="0"
         id="stop5407" />
      <stop
         id="stop5415"
         offset="0.55385339"
         style="stop-color:#0064aa;stop-opacity:0.49803922;" />
      <stop
         style="stop-color:#0064aa;stop-opacity:0;"
         offset="1"
         id="stop5409" />
    </linearGradient>
    <linearGradient
       id="linearGradient5391">
      <stop
         style="stop-color:#0064aa;stop-opacity:1;"
         offset="0"
         id="stop5393" />
      <stop
         style="stop-color:#0064aa;stop-opacity:0;"
         offset="1"
         id="stop5395" />
    </linearGradient>
    <linearGradient
       id="linearGradient5363">
      <stop
         style="stop-color:#0064aa;stop-opacity:0.66666669;"
         offset="0"
         id="stop5365" />
      <stop
         style="stop-color:#aa0000;stop-opacity:0.66666669;"
         offset="1"
         id="stop5367" />
    </linearGradient>
    <linearGradient
       id="linearGradient3851">
      <stop
         style="stop-color:#ffff00;stop-opacity:1;"
         offset="0"
         id="stop3853" />
      <stop
         style="stop-color:#ffff00;stop-opacity:0;"
         offset="1"
         id="stop3855" />
    </linearGradient>
    <linearGradient
       inkscape:collect="always"
       xlink:href="#linearGradient5665"
       id="linearGradient5671"
       x1="-751.42859"
       y1="708.07648"
       x2="-820"
       y2="683.79077"
       gradientUnits="userSpaceOnUse" />
    <linearGradient
       inkscape:collect="always"
       xlink:href="#linearGradient5673"
       id="linearGradient5683"
       x1="-825.01331"
       y1="737.38824"
       x2="-751.42859"
       y2="708.07648"
       gradientUnits="userSpaceOnUse" />
    <linearGradient
       inkscape:collect="always"
       xlink:href="#linearGradient5699"
       id="linearGradient5705"
       x1="-913.35339"
       y1="713.15839"
       x2="-758.49988"
       y2="713.15839"
       gradientUnits="userSpaceOnUse" />
    <marker
       style="overflow:visible"
       id="Arrow1Lend-1"
       refX="0"
       refY="0"
       orient="auto"
       inkscape:stockid="Arrow1Lend">
      <path
         transform="matrix(-0.8,0,0,-0.8,-10,0)"
         style="fill-rule:evenodd;stroke:#000000;stroke-width:1pt"
         d="M 0,0 5,-5 -12.5,0 5,5 0,0 z"
         id="path3816-7"
         inkscape:connector-curvature="0" />
    </marker>
    <marker
       style="overflow:visible"
       id="marker3145"
       refX="0"
       refY="0"
       orient="auto"
       inkscape:stockid="Arrow1Lend">
      <path
         transform="matrix(-0.8,0,0,-0.8,-10,0)"
         style="fill-rule:evenodd;stroke:#000000;stroke-width:1pt"
         d="M 0,0 5,-5 -12.5,0 5,5 0,0 z"
         id="path3147"
         inkscape:connector-curvature="0" />
    </marker>
    <marker
       style="overflow:visible"
       id="marker3149"
       refX="0"
       refY="0"
       orient="auto"
       inkscape:stockid="Arrow1Lend">
      <path
         transform="matrix(-0.8,0,0,-0.8,-10,0)"
         style="fill-rule:evenodd;stroke:#000000;stroke-width:1pt"
         d="M 0,0 5,-5 -12.5,0 5,5 0,0 z"
         id="path3151"
         inkscape:connector-curvature="0" />
    </marker>
    <marker
       style="overflow:visible"
       id="marker3153"
       refX="0"
       refY="0"
       orient="auto"
       inkscape:stockid="Arrow1Lend">
      <path
         transform="matrix(-0.8,0,0,-0.8,-10,0)"
         style="fill-rule:evenodd;stroke:#000000;stroke-width:1pt"
         d="M 0,0 5,-5 -12.5,0 5,5 0,0 z"
         id="path3155"
         inkscape:connector-curvature="0" />
    </marker>
    <marker
       style="overflow:visible"
       id="marker3157"
       refX="0"
       refY="0"
       orient="auto"
       inkscape:stockid="Arrow1Lend">
      <path
         transform="matrix(-0.8,0,0,-0.8,-10,0)"
         style="fill-rule:evenodd;stroke:#000000;stroke-width:1pt"
         d="M 0,0 5,-5 -12.5,0 5,5 0,0 z"
         id="path3159"
         inkscape:connector-curvature="0" />
    </marker>
    <marker
       style="overflow:visible"
       id="marker3161"
       refX="0"
       refY="0"
       orient="auto"
       inkscape:stockid="Arrow1Lend">
      <path
         transform="matrix(-0.8,0,0,-0.8,-10,0)"
         style="fill-rule:evenodd;stroke:#000000;stroke-width:1pt"
         d="M 0,0 5,-5 -12.5,0 5,5 0,0 z"
         id="path3163"
         inkscape:connector-curvature="0" />
    </marker>
    <marker
       style="overflow:visible"
       id="marker3165"
       refX="0"
       refY="0"
       orient="auto"
       inkscape:stockid="Arrow1Lend">
      <path
         transform="matrix(-0.8,0,0,-0.8,-10,0)"
         style="fill-rule:evenodd;stroke:#000000;stroke-width:1pt"
         d="M 0,0 5,-5 -12.5,0 5,5 0,0 z"
         id="path3167"
         inkscape:connector-curvature="0" />
    </marker>
    <marker
       style="overflow:visible"
       id="marker3169"
       refX="0"
       refY="0"
       orient="auto"
       inkscape:stockid="Arrow1Lend">
      <path
         transform="matrix(-0.8,0,0,-0.8,-10,0)"
         style="fill-rule:evenodd;stroke:#000000;stroke-width:1pt"
         d="M 0,0 5,-5 -12.5,0 5,5 0,0 z"
         id="path3171"
         inkscape:connector-curvature="0" />
    </marker>
    <marker
       style="overflow:visible"
       id="marker3173"
       refX="0"
       refY="0"
       orient="auto"
       inkscape:stockid="Arrow1Lend">
      <path
         transform="matrix(-0.8,0,0,-0.8,-10,0)"
         style="fill-rule:evenodd;stroke:#000000;stroke-width:1pt"
         d="M 0,0 5,-5 -12.5,0 5,5 0,0 z"
         id="path3175"
         inkscape:connector-curvature="0" />
    </marker>
    <marker
       style="overflow:visible"
       id="marker3177"
       refX="0"
       refY="0"
       orient="auto"
       inkscape:stockid="Arrow1Lend">
      <path
         transform="matrix(-0.8,0,0,-0.8,-10,0)"
         style="fill-rule:evenodd;stroke:#000000;stroke-width:1pt"
         d="M 0,0 5,-5 -12.5,0 5,5 0,0 z"
         id="path3179"
         inkscape:connector-curvature="0" />
    </marker>
    <marker
       style="overflow:visible"
       id="marker3181"
       refX="0"
       refY="0"
       orient="auto"
       inkscape:stockid="Arrow1Lend">
      <path
         transform="matrix(-0.8,0,0,-0.8,-10,0)"
         style="fill-rule:evenodd;stroke:#000000;stroke-width:1pt"
         d="M 0,0 5,-5 -12.5,0 5,5 0,0 z"
         id="path3183"
         inkscape:connector-curvature="0" />
    </marker>
    <marker
       style="overflow:visible"
       id="marker3185"
       refX="0"
       refY="0"
       orient="auto"
       inkscape:stockid="Arrow1Lend">
      <path
         transform="matrix(-0.8,0,0,-0.8,-10,0)"
         style="fill-rule:evenodd;stroke:#000000;stroke-width:1pt"
         d="M 0,0 5,-5 -12.5,0 5,5 0,0 z"
         id="path3187"
         inkscape:connector-curvature="0" />
    </marker>
    <marker
       style="overflow:visible"
       id="marker3189"
       refX="0"
       refY="0"
       orient="auto"
       inkscape:stockid="Arrow1Lend">
      <path
         transform="matrix(-0.8,0,0,-0.8,-10,0)"
         style="fill-rule:evenodd;stroke:#000000;stroke-width:1pt"
         d="M 0,0 5,-5 -12.5,0 5,5 0,0 z"
         id="path3191"
         inkscape:connector-curvature="0" />
    </marker>
    <marker
       style="overflow:visible"
       id="marker3193"
       refX="0"
       refY="0"
       orient="auto"
       inkscape:stockid="Arrow1Lend">
      <path
         transform="matrix(-0.8,0,0,-0.8,-10,0)"
         style="fill-rule:evenodd;stroke:#000000;stroke-width:1pt"
         d="M 0,0 5,-5 -12.5,0 5,5 0,0 z"
         id="path3195"
         inkscape:connector-curvature="0" />
    </marker>
    <marker
       style="overflow:visible"
       id="marker3197"
       refX="0"
       refY="0"
       orient="auto"
       inkscape:stockid="Arrow1Lend">
      <path
         transform="matrix(-0.8,0,0,-0.8,-10,0)"
         style="fill-rule:evenodd;stroke:#000000;stroke-width:1pt"
         d="M 0,0 5,-5 -12.5,0 5,5 0,0 z"
         id="path3199"
         inkscape:connector-curvature="0" />
    </marker>
    <marker
       style="overflow:visible"
       id="marker3201"
       refX="0"
       refY="0"
       orient="auto"
       inkscape:stockid="Arrow1Lend">
      <path
         transform="matrix(-0.8,0,0,-0.8,-10,0)"
         style="fill-rule:evenodd;stroke:#000000;stroke-width:1pt"
         d="M 0,0 5,-5 -12.5,0 5,5 0,0 z"
         id="path3203"
         inkscape:connector-curvature="0" />
    </marker>
    <marker
       style="overflow:visible"
       id="marker3205"
       refX="0"
       refY="0"
       orient="auto"
       inkscape:stockid="Arrow1Lend">
      <path
         transform="matrix(-0.8,0,0,-0.8,-10,0)"
         style="fill-rule:evenodd;stroke:#000000;stroke-width:1pt"
         d="M 0,0 5,-5 -12.5,0 5,5 0,0 z"
         id="path3207"
         inkscape:connector-curvature="0" />
    </marker>
    <marker
       style="overflow:visible"
       id="marker3209"
       refX="0"
       refY="0"
       orient="auto"
       inkscape:stockid="Arrow1Lend">
      <path
         transform="matrix(-0.8,0,0,-0.8,-10,0)"
         style="fill-rule:evenodd;stroke:#000000;stroke-width:1pt"
         d="M 0,0 5,-5 -12.5,0 5,5 0,0 z"
         id="path3211"
         inkscape:connector-curvature="0" />
    </marker>
    <marker
       style="overflow:visible"
       id="marker3213"
       refX="0"
       refY="0"
       orient="auto"
       inkscape:stockid="Arrow1Lend">
      <path
         transform="matrix(-0.8,0,0,-0.8,-10,0)"
         style="fill-rule:evenodd;stroke:#000000;stroke-width:1pt"
         d="M 0,0 5,-5 -12.5,0 5,5 0,0 z"
         id="path3215"
         inkscape:connector-curvature="0" />
    </marker>
    <marker
       style="overflow:visible"
       id="marker3217"
       refX="0"
       refY="0"
       orient="auto"
       inkscape:stockid="Arrow1Lend">
      <path
         transform="matrix(-0.8,0,0,-0.8,-10,0)"
         style="fill-rule:evenodd;stroke:#000000;stroke-width:1pt"
         d="M 0,0 5,-5 -12.5,0 5,5 0,0 z"
         id="path3219"
         inkscape:connector-curvature="0" />
    </marker>
    <marker
       style="overflow:visible"
       id="Arrow1Lend-0"
       refX="0"
       refY="0"
       orient="auto"
       inkscape:stockid="Arrow1Lend">
      <path
         transform="matrix(-0.8,0,0,-0.8,-10,0)"
         style="fill-rule:evenodd;stroke:#000000;stroke-width:1pt"
         d="M 0,0 5,-5 -12.5,0 5,5 0,0 z"
         id="path3816-9"
         inkscape:connector-curvature="0" />
    </marker>
    <marker
       style="overflow:visible"
       id="marker3254"
       refX="0"
       refY="0"
       orient="auto"
       inkscape:stockid="Arrow1Lend">
      <path
         transform="matrix(-0.8,0,0,-0.8,-10,0)"
         style="fill-rule:evenodd;stroke:#000000;stroke-width:1pt"
         d="M 0,0 5,-5 -12.5,0 5,5 0,0 z"
         id="path3256"
         inkscape:connector-curvature="0" />
    </marker>
    <marker
       style="overflow:visible"
       id="marker3258"
       refX="0"
       refY="0"
       orient="auto"
       inkscape:stockid="Arrow1Lend">
      <path
         transform="matrix(-0.8,0,0,-0.8,-10,0)"
         style="fill-rule:evenodd;stroke:#000000;stroke-width:1pt"
         d="M 0,0 5,-5 -12.5,0 5,5 0,0 z"
         id="path3260"
         inkscape:connector-curvature="0" />
    </marker>
  </defs>
  <metadata
     id="metadata7">
    <rdf:RDF>
      <cc:Work
         rdf:about="">
        <dc:format>image/svg+xml</dc:format>
        <dc:type
           rdf:resource="http://purl.org/dc/dcmitype/StillImage" />
        <dc:title />
      </cc:Work>
    </rdf:RDF>
  </metadata>
  <g
     inkscape:label="Layer 1"
     inkscape:groupmode="layer"
     id="layer1"
     transform="translate(57.125,-316.40625)">
    <path
       style="fill:#ff0000;fill-opacity:0.66666667;stroke:#000000;stroke-width:0.85571581;stroke-linecap:round;stroke-linejoin:bevel;stroke-miterlimit:10.43299961;stroke-opacity:1;stroke-dasharray:none;stroke-dashoffset:0"
       d="M 14.636183,552.71106 C 8.1641929,489.88335 4.0583429,471.48755 -8.0190971,451.20651 -17.190007,435.80627 -32.471877,425.93088 -49.684667,424.28158 l -6.60454,-0.63285 0,-14.68151 -0.0893,-15.12795 c 25.3956,32.3734 114.794821,16.16072 161.191077,16.16072 53.56489,0 113.52109,16.31102 153.00788,-16.10888 l 0.23676,15.08441 0,14.68981 -6.21383,0.67295 c -25.42359,2.75333 -41.61594,18.79601 -50.65043,50.18221 -8.11861,34.8883 -8.47506,54.95373 -11.93679,92.29287 -6.40875,53.01628 -20.31241,89.75374 -85.80891,89.75374 -66.088717,0 -78.378137,-29.86472 -88.811077,-103.85604 z"
       id="path3807"
       inkscape:connector-curvature="0"
       sodipodi:nodetypes="csscccccccsccscc" />
    <rect
       style="fill:#bebebe;fill-opacity:1;stroke:#000000;stroke-width:1;stroke-linecap:round;stroke-linejoin:miter;stroke-miterlimit:4;stroke-opacity:1;stroke-dasharray:none;stroke-dashoffset:0"
       id="rect4029"
       width="315.1676"
       height="101.01525"
       x="-56.588894"
       y="316.90088" />
    <path
       style="fill:#0064aa;fill-opacity:0.66666667;stroke:#000000;stroke-width:0.93554628;stroke-linecap:round;stroke-linejoin:bevel;stroke-miterlimit:10.43299961;stroke-opacity:1;stroke-dasharray:none;stroke-dashoffset:0"
       d="m -56.373579,603.9057 0.06479,-164.01312 8.571739,7.67889 c 25.034429,22.42681 35.436616,55.98339 41.7397788,134.64907 5.51202347,68.79198 7.8271469,79.96156 21.5202692,103.82706 12.367298,21.55478 30.768992,34.33328 57.526967,39.94786 15.938906,3.34445 51.790405,2.99973 67.109705,-0.64524 31.8728,-7.58363 50.58817,-23.74299 62.85088,-54.26713 5.69408,-14.17365 7.93979,-30.71919 9.57392,-70.53706 2.55104,-62.16004 4.81532,-85.72439 10.15433,-105.67699 5.13757,-19.19978 12.48747,-36.57935 24.81909,-46.63991 l 10.21843,-8.33655 0.0659,164.01312 0.0659,164.01315 -157.17321,0 -157.173207,0 0.06479,-164.01315 z"
       id="path3809"
       inkscape:connector-curvature="0"
       sodipodi:nodetypes="ccsssssssssccccccc" />
    <path
       style="fill:#ffff00;fill-opacity:0.66666667;stroke:#000000;stroke-opacity:1"
       d="M 84.753672,727.53922 C 62.563309,727.182 39.195728,715.15251 27.091521,701.10205 18.485723,691.11251 8.6024833,675.60312 4.790938,663.26329 0.73423472,650.12973 -0.66926675,637.43475 -4.9078582,590.9493 -10.572366,528.82538 -14.417365,506.07252 -23.249471,483.62187 -29.307087,468.22383 -38.945131,454.17626 -51.704913,443.82 l -4.911212,-3.9861 0.0067,-8.40149 0.417061,-8.30678 4.084492,-0.17568 c 1.818326,-0.0782 11.179191,1.56921 16.507883,3.73237 22.164337,8.99752 35.66621573,30.58404 42.35562,68.85494 0.8720028,4.98886 3.1579162,21.98293 4.861547,36.23681 8.010324,67.02075 15.202635,91.20172 33.122424,107.23534 8.278634,7.40725 18.480377,12.1854 31.42388,14.7179 11.316488,2.21414 40.894998,2.23587 52.093928,0.0382 20.79549,-4.08078 37.27355,-14.94767 45.99433,-30.66449 9.42391,-16.98403 13.23407,-36.91648 17.46394,-81.39248 5.8314,-61.31577 11.75691,-85.03872 26.86974,-101.99432 5.00424,-5.61444 8.87059,-7.41217 16.25777,-11.12159 5.00366,-2.51256 16.39134,-4.79259 20.73321,-4.79259 0.68607,0 2.76493,-1.12671 2.71703,2.54039 l -0.53758,13.29243 -7.96883,6.29982 c -7.79349,6.1612 -15.12879,17.55151 -20.11803,27.96192 -11.04428,23.0446 -13.14519,45.69133 -16.52348,119.73555 -2.62749,57.58852 -6.13361,73.5966 -19.24027,94.65559 -11.50019,18.47779 -27.90101,30.00584 -51.00226,36.05419 -25.68801,4.96925 -28.54886,3.63914 -58.149285,3.19929 z"
       id="path3787"
       inkscape:connector-curvature="0"
       sodipodi:nodetypes="cssssscccssssssssssssscsssscc" />
    <g
       id="g3773"
       transform="matrix(1.0991668,0,0,1,-36.911303,26)" />
    <text
       xml:space="preserve"
       style="font-size:40px;font-style:normal;font-variant:normal;font-weight:normal;font-stretch:normal;text-align:start;line-height:128.99999619%;letter-spacing:0px;word-spacing:0px;writing-mode:lr-tb;text-anchor:start;fill:#000000;fill-opacity:1;stroke:none;font-family:Calibri;-inkscape-font-specification:Calibri"
       x="60.113552"
       y="372.42661"
       id="text3014"
       sodipodi:linespacing="129%"><tspan
         sodipodi:role="line"
         id="tspan3016"
         x="60.113552"
         y="372.42661"
         style="font-size:32px" /></text>
    <g
       id="g5070"
       transform="matrix(0.81237028,0,0,0.81237028,-57.25825,260.5695)">
      <path
         id="path3761"
         d="m 74.59438,204.92318 c 0,0 -8.26739,15.56032 -8.26739,15.56032"
         style="fill:none;stroke:#000000;stroke-width:0.47720012;stroke-linecap:butt;stroke-linejoin:miter;stroke-miterlimit:4;stroke-opacity:1;stroke-dasharray:none;marker-end:url(#Arrow1Lend)"
         inkscape:connector-curvature="0" />
      <path
         id="path3763"
         d="m 87.44837,208.90447 c 0,0 -7.39714,15.56032 -7.39714,15.56032"
         style="fill:none;stroke:#000000;stroke-width:0.47720012;stroke-linecap:butt;stroke-linejoin:miter;stroke-miterlimit:4;stroke-opacity:1;stroke-dasharray:none;marker-end:url(#Arrow1Lend)"
         inkscape:connector-curvature="0" />
      <path
         id="path3765"
         d="m 100.30236,211.39085 c 0,0 -6.52689,15.56032 -6.52689,15.56032"
         style="fill:none;stroke:#000000;stroke-width:0.47720012;stroke-linecap:butt;stroke-linejoin:miter;stroke-miterlimit:4;stroke-opacity:1;stroke-dasharray:none;marker-end:url(#Arrow1Lend)"
         inkscape:connector-curvature="0" />
      <path
         id="path3767"
         d="m 113.15635,214.86706 c 0,0 -5.65663,15.56032 -5.65663,15.56032"
         style="fill:none;stroke:#000000;stroke-width:0.47720012;stroke-linecap:butt;stroke-linejoin:miter;stroke-miterlimit:4;stroke-opacity:1;stroke-dasharray:none;marker-end:url(#Arrow1Lend)"
         inkscape:connector-curvature="0" />
      <path
         id="path3769"
         d="m 126.01034,216.84835 c 0,0 -4.78638,15.56032 -4.78638,15.56032"
         style="fill:none;stroke:#000000;stroke-width:0.47720012;stroke-linecap:butt;stroke-linejoin:miter;stroke-miterlimit:4;stroke-opacity:1;stroke-dasharray:none;marker-end:url(#Arrow1Lend)"
         inkscape:connector-curvature="0" />
      <path
         id="path3771"
         d="m 138.86433,218.82964 c 0,0 -3.91613,15.56032 -3.91613,15.56032"
         style="fill:none;stroke:#000000;stroke-width:0.47720012;stroke-linecap:butt;stroke-linejoin:miter;stroke-miterlimit:4;stroke-opacity:1;stroke-dasharray:none;marker-end:url(#Arrow1Lend)"
         inkscape:connector-curvature="0" />
      <path
         id="path3773"
         d="m 151.71832,218.81094 c 0,0 -3.04588,15.56032 -3.04588,15.56032"
         style="fill:none;stroke:#000000;stroke-width:0.47720012;stroke-linecap:butt;stroke-linejoin:miter;stroke-miterlimit:4;stroke-opacity:1;stroke-dasharray:none;marker-end:url(#Arrow1Lend)"
         inkscape:connector-curvature="0" />
      <path
         id="path3775"
         d="m 164.57231,220.79223 c 0,0 -2.17563,15.56032 -2.17563,15.56032"
         style="fill:none;stroke:#000000;stroke-width:0.47720012;stroke-linecap:butt;stroke-linejoin:miter;stroke-miterlimit:4;stroke-opacity:1;stroke-dasharray:none;marker-end:url(#Arrow1Lend)"
         inkscape:connector-curvature="0" />
      <path
         id="path3777"
         d="m 177.4263,220.77352 c 0,0 -1.30538,15.56032 -1.30538,15.56032"
         style="fill:none;stroke:#000000;stroke-width:0.47720012;stroke-linecap:butt;stroke-linejoin:miter;stroke-miterlimit:4;stroke-opacity:1;stroke-dasharray:none;marker-end:url(#Arrow1Lend)"
         inkscape:connector-curvature="0" />
      <path
         id="path3779"
         d="m 190.28029,220.75481 c 0,0 -0.43513,15.56032 -0.43513,15.56032"
         style="fill:none;stroke:#000000;stroke-width:0.47720012;stroke-linecap:butt;stroke-linejoin:miter;stroke-miterlimit:4;stroke-opacity:1;stroke-dasharray:none;marker-end:url(#Arrow1Lend)"
         inkscape:connector-curvature="0" />
      <path
         id="path3781"
         d="m 203.13428,220.73611 c 0,0 0.43513,15.56032 0.43513,15.56032"
         style="fill:none;stroke:#000000;stroke-width:0.47720012;stroke-linecap:butt;stroke-linejoin:miter;stroke-miterlimit:4;stroke-opacity:1;stroke-dasharray:none;marker-end:url(#Arrow1Lend)"
         inkscape:connector-curvature="0" />
      <path
         id="path3783"
         d="m 215.98827,220.7174 c 0,0 1.30538,15.56032 1.30538,15.56032"
         style="fill:none;stroke:#000000;stroke-width:0.47720012;stroke-linecap:butt;stroke-linejoin:miter;stroke-miterlimit:4;stroke-opacity:1;stroke-dasharray:none;marker-end:url(#Arrow1Lend)"
         inkscape:connector-curvature="0" />
      <path
         id="path3785"
         d="m 228.84226,220.69869 c 0,0 2.17563,15.56032 2.17563,15.56032"
         style="fill:none;stroke:#000000;stroke-width:0.47720012;stroke-linecap:butt;stroke-linejoin:miter;stroke-miterlimit:4;stroke-opacity:1;stroke-dasharray:none;marker-end:url(#Arrow1Lend)"
         inkscape:connector-curvature="0" />
      <path
         id="path3787-4"
         d="m 241.69625,220.67998 c 0,0 3.04588,15.56032 3.04588,15.56032"
         style="fill:none;stroke:#000000;stroke-width:0.47720012;stroke-linecap:butt;stroke-linejoin:miter;stroke-miterlimit:4;stroke-opacity:1;stroke-dasharray:none;marker-end:url(#Arrow1Lend)"
         inkscape:connector-curvature="0" />
      <path
         id="path3789"
         d="m 254.55024,218.66128 c 0,0 3.91613,15.56032 3.91613,15.56032"
         style="fill:none;stroke:#000000;stroke-width:0.47720012;stroke-linecap:butt;stroke-linejoin:miter;stroke-miterlimit:4;stroke-opacity:1;stroke-dasharray:none;marker-end:url(#Arrow1Lend)"
         inkscape:connector-curvature="0" />
      <path
         id="path3791"
         d="m 267.40423,216.64257 c 0,0 4.78638,15.56032 4.78638,15.56032"
         style="fill:none;stroke:#000000;stroke-width:0.47720012;stroke-linecap:butt;stroke-linejoin:miter;stroke-miterlimit:4;stroke-opacity:1;stroke-dasharray:none;marker-end:url(#Arrow1Lend)"
         inkscape:connector-curvature="0" />
      <path
         id="path3793"
         d="m 280.25822,214.62386 c 0,0 5.65663,15.56032 5.65663,15.56032"
         style="fill:none;stroke:#000000;stroke-width:0.47720012;stroke-linecap:butt;stroke-linejoin:miter;stroke-miterlimit:4;stroke-opacity:1;stroke-dasharray:none;marker-end:url(#Arrow1Lend)"
         inkscape:connector-curvature="0" />
      <path
         id="path3795"
         d="m 293.11221,212.60515 c 0,0 6.52688,15.56032 6.52688,15.56032"
         style="fill:none;stroke:#000000;stroke-width:0.47720012;stroke-linecap:butt;stroke-linejoin:miter;stroke-miterlimit:4;stroke-opacity:1;stroke-dasharray:none;marker-end:url(#Arrow1Lend)"
         inkscape:connector-curvature="0" />
      <path
         id="path3797"
         d="m 305.9662,208.58645 c 0,0 7.39713,15.56032 7.39713,15.56032"
         style="fill:none;stroke:#000000;stroke-width:0.47720012;stroke-linecap:butt;stroke-linejoin:miter;stroke-miterlimit:4;stroke-opacity:1;stroke-dasharray:none;marker-end:url(#Arrow1Lend)"
         inkscape:connector-curvature="0" />
      <path
         id="path3799"
         d="m 318.82019,202.56774 c 0,0 8.26738,15.56032 8.26738,15.56032"
         style="fill:none;stroke:#000000;stroke-width:0.47720012;stroke-linecap:butt;stroke-linejoin:miter;stroke-miterlimit:4;stroke-opacity:1;stroke-dasharray:none;marker-end:url(#Arrow1Lend)"
         inkscape:connector-curvature="0" />
    </g>
    <path
       id="path3958"
       d="m 103.3346,613.75624 c 0,0 0,30.04945 0,30.04945"
       style="fill:none;stroke:#000000;stroke-width:0.79466045;stroke-linecap:butt;stroke-linejoin:miter;stroke-miterlimit:4;stroke-opacity:1;stroke-dasharray:none;marker-end:url(#Arrow1Lend)"
       inkscape:connector-curvature="0" />
    <path
       inkscape:connector-curvature="0"
       style="fill:none;stroke:#000000;stroke-width:0.79466045;stroke-linecap:butt;stroke-linejoin:miter;stroke-miterlimit:4;stroke-opacity:1;stroke-dasharray:none;marker-end:url(#Arrow1Lend)"
       d="m 157.3346,595.75624 c 0,0 0,30.04945 0,30.04945"
       id="path3964" />
    <path
       inkscape:connector-curvature="0"
       style="fill:none;stroke:#000000;stroke-width:0.79466045;stroke-linecap:butt;stroke-linejoin:miter;stroke-miterlimit:4;stroke-opacity:1;stroke-dasharray:none;marker-end:url(#Arrow1Lend)"
       d="m 51.334601,595.75624 c 0,0 0,30.04945 0,30.04945"
       id="path3976" />
    <text
       sodipodi:linespacing="129%"
       id="text3981"
       y="757.34692"
       x="59.399265"
       style="font-size:40px;font-style:normal;font-variant:normal;font-weight:normal;font-stretch:normal;text-align:start;line-height:128.99999619%;letter-spacing:0px;word-spacing:0px;writing-mode:lr-tb;text-anchor:start;fill:#000000;fill-opacity:1;stroke:none;font-family:Calibri;-inkscape-font-specification:Calibri"
       xml:space="preserve"><tspan
         style="font-size:32px"
         y="757.34692"
         x="59.399265"
         id="tspan3983"
         sodipodi:role="line">solid(s)</tspan></text>
    <text
       sodipodi:linespacing="129%"
       id="text3031-1"
       y="538.49915"
       x="101.71957"
       style="font-size:40px;font-style:normal;font-variant:normal;font-weight:normal;font-stretch:normal;text-align:start;line-height:128.99999619%;letter-spacing:0px;word-spacing:0px;writing-mode:lr-tb;text-anchor:start;fill:#000000;fill-opacity:1;stroke:none;font-family:Calibri;-inkscape-font-specification:Calibri"
       xml:space="preserve"><tspan
         style="font-size:32px"
         y="538.49915"
         x="101.71957"
         id="tspan3033-7"
         sodipodi:role="line">l</tspan></text>
    <text
       xml:space="preserve"
       style="font-size:40px;font-style:normal;font-variant:normal;font-weight:normal;font-stretch:normal;text-align:start;line-height:128.99999619%;letter-spacing:0px;word-spacing:0px;writing-mode:lr-tb;text-anchor:start;fill:#000000;fill-opacity:1;stroke:none;font-family:Calibri;-inkscape-font-specification:Calibri"
       x="100.20863"
       y="346.54041"
       id="text3796-4"
       sodipodi:linespacing="129%"><tspan
         sodipodi:role="line"
         id="tspan3798-0"
         x="100.20863"
         y="346.54041"
         style="font-size:32px">a</tspan></text>
    <text
       sodipodi:linespacing="129%"
       id="text3031-1-7"
       y="698.5238"
       x="86.938324"
       style="font-size:40px;font-style:normal;font-variant:normal;font-weight:normal;font-stretch:normal;text-align:start;line-height:128.99999619%;letter-spacing:0px;word-spacing:0px;writing-mode:lr-tb;text-anchor:start;fill:#000000;fill-opacity:1;stroke:none;font-family:Calibri;-inkscape-font-specification:Calibri"
       xml:space="preserve"><tspan
         style="font-size:32px"
         y="698.5238"
         x="86.938324"
         id="tspan3033-7-2"
         sodipodi:role="line">l+s</tspan></text>
  </g>
</svg>
