<?xml version="1.0" encoding="UTF-8" standalone="no"?>
<!-- Created with Inkscape (http://www.inkscape.org/) -->

<svg
   xmlns:dc="http://purl.org/dc/elements/1.1/"
   xmlns:cc="http://creativecommons.org/ns#"
   xmlns:rdf="http://www.w3.org/1999/02/22-rdf-syntax-ns#"
   xmlns:svg="http://www.w3.org/2000/svg"
   xmlns="http://www.w3.org/2000/svg"
   xmlns:xlink="http://www.w3.org/1999/xlink"
   xmlns:sodipodi="http://sodipodi.sourceforge.net/DTD/sodipodi-0.dtd"
   xmlns:inkscape="http://www.inkscape.org/namespaces/inkscape"
   width="320.65625"
   height="459.96875"
   id="svg2"
   version="1.1"
   inkscape:version="0.48.1 "
   sodipodi:docname="ingot_air_sol.svg">
  <sodipodi:namedview
     id="base"
     pagecolor="#ffffff"
     bordercolor="#666666"
     borderopacity="1.0"
     inkscape:pageopacity="0.0"
     inkscape:pageshadow="2"
     inkscape:zoom="0.98994949"
     inkscape:cx="35.539126"
     inkscape:cy="271.6376"
     inkscape:document-units="px"
     inkscape:current-layer="layer1"
     showgrid="false"
     inkscape:window-width="1920"
     inkscape:window-height="1018"
     inkscape:window-x="-8"
     inkscape:window-y="-8"
     inkscape:window-maximized="1"
     fit-margin-top="0"
     fit-margin-left="0"
     fit-margin-right="0"
     fit-margin-bottom="0" />
  <defs
     id="defs4">
    <marker
       inkscape:stockid="Arrow1Lend"
       orient="auto"
       refY="0"
       refX="0"
       id="Arrow1Lend"
       style="overflow:visible">
      <path
         id="path3816"
         d="M 0,0 5,-5 -12.5,0 5,5 0,0 z"
         style="fill-rule:evenodd;stroke:#000000;stroke-width:1pt"
         transform="matrix(-0.8,0,0,-0.8,-10,0)"
         inkscape:connector-curvature="0" />
    </marker>
    <linearGradient
       inkscape:collect="always"
       id="linearGradient5699">
      <stop
         style="stop-color:#000000;stop-opacity:1;"
         offset="0"
         id="stop5701" />
      <stop
         style="stop-color:#000000;stop-opacity:0;"
         offset="1"
         id="stop5703" />
    </linearGradient>
    <linearGradient
       inkscape:collect="always"
       id="linearGradient5673">
      <stop
         style="stop-color:#000000;stop-opacity:1;"
         offset="0"
         id="stop5675" />
      <stop
         style="stop-color:#000000;stop-opacity:0;"
         offset="1"
         id="stop5677" />
    </linearGradient>
    <linearGradient
       inkscape:collect="always"
       id="linearGradient5665">
      <stop
         style="stop-color:#eb3a00;stop-opacity:1"
         offset="0"
         id="stop5667" />
      <stop
         style="stop-color:#000000;stop-opacity:0;"
         offset="1"
         id="stop5669" />
    </linearGradient>
    <linearGradient
       id="linearGradient5405">
      <stop
         style="stop-color:#00aaaa;stop-opacity:0.66666669;"
         offset="0"
         id="stop5407" />
      <stop
         id="stop5415"
         offset="0.55385339"
         style="stop-color:#0064aa;stop-opacity:0.49803922;" />
      <stop
         style="stop-color:#0064aa;stop-opacity:0;"
         offset="1"
         id="stop5409" />
    </linearGradient>
    <linearGradient
       id="linearGradient5391">
      <stop
         style="stop-color:#0064aa;stop-opacity:1;"
         offset="0"
         id="stop5393" />
      <stop
         style="stop-color:#0064aa;stop-opacity:0;"
         offset="1"
         id="stop5395" />
    </linearGradient>
    <linearGradient
       id="linearGradient5363">
      <stop
         style="stop-color:#0064aa;stop-opacity:0.66666669;"
         offset="0"
         id="stop5365" />
      <stop
         style="stop-color:#aa0000;stop-opacity:0.66666669;"
         offset="1"
         id="stop5367" />
    </linearGradient>
    <linearGradient
       id="linearGradient3851">
      <stop
         style="stop-color:#ffff00;stop-opacity:1;"
         offset="0"
         id="stop3853" />
      <stop
         style="stop-color:#ffff00;stop-opacity:0;"
         offset="1"
         id="stop3855" />
    </linearGradient>
    <linearGradient
       inkscape:collect="always"
       xlink:href="#linearGradient5665"
       id="linearGradient5671"
       x1="-751.42859"
       y1="708.07648"
       x2="-820"
       y2="683.79077"
       gradientUnits="userSpaceOnUse" />
    <linearGradient
       inkscape:collect="always"
       xlink:href="#linearGradient5673"
       id="linearGradient5683"
       x1="-825.01331"
       y1="737.38824"
       x2="-751.42859"
       y2="708.07648"
       gradientUnits="userSpaceOnUse" />
    <linearGradient
       inkscape:collect="always"
       xlink:href="#linearGradient5699"
       id="linearGradient5705"
       x1="-913.35339"
       y1="713.15839"
       x2="-758.49988"
       y2="713.15839"
       gradientUnits="userSpaceOnUse" />
    <marker
       style="overflow:visible"
       id="Arrow1Lend-1"
       refX="0"
       refY="0"
       orient="auto"
       inkscape:stockid="Arrow1Lend">
      <path
         transform="matrix(-0.8,0,0,-0.8,-10,0)"
         style="fill-rule:evenodd;stroke:#000000;stroke-width:1pt"
         d="M 0,0 5,-5 -12.5,0 5,5 0,0 z"
         id="path3816-7"
         inkscape:connector-curvature="0" />
    </marker>
    <marker
       style="overflow:visible"
       id="marker3145"
       refX="0"
       refY="0"
       orient="auto"
       inkscape:stockid="Arrow1Lend">
      <path
         transform="matrix(-0.8,0,0,-0.8,-10,0)"
         style="fill-rule:evenodd;stroke:#000000;stroke-width:1pt"
         d="M 0,0 5,-5 -12.5,0 5,5 0,0 z"
         id="path3147"
         inkscape:connector-curvature="0" />
    </marker>
    <marker
       style="overflow:visible"
       id="marker3149"
       refX="0"
       refY="0"
       orient="auto"
       inkscape:stockid="Arrow1Lend">
      <path
         transform="matrix(-0.8,0,0,-0.8,-10,0)"
         style="fill-rule:evenodd;stroke:#000000;stroke-width:1pt"
         d="M 0,0 5,-5 -12.5,0 5,5 0,0 z"
         id="path3151"
         inkscape:connector-curvature="0" />
    </marker>
    <marker
       style="overflow:visible"
       id="marker3153"
       refX="0"
       refY="0"
       orient="auto"
       inkscape:stockid="Arrow1Lend">
      <path
         transform="matrix(-0.8,0,0,-0.8,-10,0)"
         style="fill-rule:evenodd;stroke:#000000;stroke-width:1pt"
         d="M 0,0 5,-5 -12.5,0 5,5 0,0 z"
         id="path3155"
         inkscape:connector-curvature="0" />
    </marker>
    <marker
       style="overflow:visible"
       id="marker3157"
       refX="0"
       refY="0"
       orient="auto"
       inkscape:stockid="Arrow1Lend">
      <path
         transform="matrix(-0.8,0,0,-0.8,-10,0)"
         style="fill-rule:evenodd;stroke:#000000;stroke-width:1pt"
         d="M 0,0 5,-5 -12.5,0 5,5 0,0 z"
         id="path3159"
         inkscape:connector-curvature="0" />
    </marker>
    <marker
       style="overflow:visible"
       id="marker3161"
       refX="0"
       refY="0"
       orient="auto"
       inkscape:stockid="Arrow1Lend">
      <path
         transform="matrix(-0.8,0,0,-0.8,-10,0)"
         style="fill-rule:evenodd;stroke:#000000;stroke-width:1pt"
         d="M 0,0 5,-5 -12.5,0 5,5 0,0 z"
         id="path3163"
         inkscape:connector-curvature="0" />
    </marker>
    <marker
       style="overflow:visible"
       id="marker3165"
       refX="0"
       refY="0"
       orient="auto"
       inkscape:stockid="Arrow1Lend">
      <path
         transform="matrix(-0.8,0,0,-0.8,-10,0)"
         style="fill-rule:evenodd;stroke:#000000;stroke-width:1pt"
         d="M 0,0 5,-5 -12.5,0 5,5 0,0 z"
         id="path3167"
         inkscape:connector-curvature="0" />
    </marker>
    <marker
       style="overflow:visible"
       id="marker3169"
       refX="0"
       refY="0"
       orient="auto"
       inkscape:stockid="Arrow1Lend">
      <path
         transform="matrix(-0.8,0,0,-0.8,-10,0)"
         style="fill-rule:evenodd;stroke:#000000;stroke-width:1pt"
         d="M 0,0 5,-5 -12.5,0 5,5 0,0 z"
         id="path3171"
         inkscape:connector-curvature="0" />
    </marker>
    <marker
       style="overflow:visible"
       id="marker3173"
       refX="0"
       refY="0"
       orient="auto"
       inkscape:stockid="Arrow1Lend">
      <path
         transform="matrix(-0.8,0,0,-0.8,-10,0)"
         style="fill-rule:evenodd;stroke:#000000;stroke-width:1pt"
         d="M 0,0 5,-5 -12.5,0 5,5 0,0 z"
         id="path3175"
         inkscape:connector-curvature="0" />
    </marker>
    <marker
       style="overflow:visible"
       id="marker3177"
       refX="0"
       refY="0"
       orient="auto"
       inkscape:stockid="Arrow1Lend">
      <path
         transform="matrix(-0.8,0,0,-0.8,-10,0)"
         style="fill-rule:evenodd;stroke:#000000;stroke-width:1pt"
         d="M 0,0 5,-5 -12.5,0 5,5 0,0 z"
         id="path3179"
         inkscape:connector-curvature="0" />
    </marker>
    <marker
       style="overflow:visible"
       id="marker3181"
       refX="0"
       refY="0"
       orient="auto"
       inkscape:stockid="Arrow1Lend">
      <path
         transform="matrix(-0.8,0,0,-0.8,-10,0)"
         style="fill-rule:evenodd;stroke:#000000;stroke-width:1pt"
         d="M 0,0 5,-5 -12.5,0 5,5 0,0 z"
         id="path3183"
         inkscape:connector-curvature="0" />
    </marker>
    <marker
       style="overflow:visible"
       id="marker3185"
       refX="0"
       refY="0"
       orient="auto"
       inkscape:stockid="Arrow1Lend">
      <path
         transform="matrix(-0.8,0,0,-0.8,-10,0)"
         style="fill-rule:evenodd;stroke:#000000;stroke-width:1pt"
         d="M 0,0 5,-5 -12.5,0 5,5 0,0 z"
         id="path3187"
         inkscape:connector-curvature="0" />
    </marker>
    <marker
       style="overflow:visible"
       id="marker3189"
       refX="0"
       refY="0"
       orient="auto"
       inkscape:stockid="Arrow1Lend">
      <path
         transform="matrix(-0.8,0,0,-0.8,-10,0)"
         style="fill-rule:evenodd;stroke:#000000;stroke-width:1pt"
         d="M 0,0 5,-5 -12.5,0 5,5 0,0 z"
         id="path3191"
         inkscape:connector-curvature="0" />
    </marker>
    <marker
       style="overflow:visible"
       id="marker3193"
       refX="0"
       refY="0"
       orient="auto"
       inkscape:stockid="Arrow1Lend">
      <path
         transform="matrix(-0.8,0,0,-0.8,-10,0)"
         style="fill-rule:evenodd;stroke:#000000;stroke-width:1pt"
         d="M 0,0 5,-5 -12.5,0 5,5 0,0 z"
         id="path3195"
         inkscape:connector-curvature="0" />
    </marker>
    <marker
       style="overflow:visible"
       id="marker3197"
       refX="0"
       refY="0"
       orient="auto"
       inkscape:stockid="Arrow1Lend">
      <path
         transform="matrix(-0.8,0,0,-0.8,-10,0)"
         style="fill-rule:evenodd;stroke:#000000;stroke-width:1pt"
         d="M 0,0 5,-5 -12.5,0 5,5 0,0 z"
         id="path3199"
         inkscape:connector-curvature="0" />
    </marker>
    <marker
       style="overflow:visible"
       id="marker3201"
       refX="0"
       refY="0"
       orient="auto"
       inkscape:stockid="Arrow1Lend">
      <path
         transform="matrix(-0.8,0,0,-0.8,-10,0)"
         style="fill-rule:evenodd;stroke:#000000;stroke-width:1pt"
         d="M 0,0 5,-5 -12.5,0 5,5 0,0 z"
         id="path3203"
         inkscape:connector-curvature="0" />
    </marker>
    <marker
       style="overflow:visible"
       id="marker3205"
       refX="0"
       refY="0"
       orient="auto"
       inkscape:stockid="Arrow1Lend">
      <path
         transform="matrix(-0.8,0,0,-0.8,-10,0)"
         style="fill-rule:evenodd;stroke:#000000;stroke-width:1pt"
         d="M 0,0 5,-5 -12.5,0 5,5 0,0 z"
         id="path3207"
         inkscape:connector-curvature="0" />
    </marker>
    <marker
       style="overflow:visible"
       id="marker3209"
       refX="0"
       refY="0"
       orient="auto"
       inkscape:stockid="Arrow1Lend">
      <path
         transform="matrix(-0.8,0,0,-0.8,-10,0)"
         style="fill-rule:evenodd;stroke:#000000;stroke-width:1pt"
         d="M 0,0 5,-5 -12.5,0 5,5 0,0 z"
         id="path3211"
         inkscape:connector-curvature="0" />
    </marker>
    <marker
       style="overflow:visible"
       id="marker3213"
       refX="0"
       refY="0"
       orient="auto"
       inkscape:stockid="Arrow1Lend">
      <path
         transform="matrix(-0.8,0,0,-0.8,-10,0)"
         style="fill-rule:evenodd;stroke:#000000;stroke-width:1pt"
         d="M 0,0 5,-5 -12.5,0 5,5 0,0 z"
         id="path3215"
         inkscape:connector-curvature="0" />
    </marker>
    <marker
       style="overflow:visible"
       id="marker3217"
       refX="0"
       refY="0"
       orient="auto"
       inkscape:stockid="Arrow1Lend">
      <path
         transform="matrix(-0.8,0,0,-0.8,-10,0)"
         style="fill-rule:evenodd;stroke:#000000;stroke-width:1pt"
         d="M 0,0 5,-5 -12.5,0 5,5 0,0 z"
         id="path3219"
         inkscape:connector-curvature="0" />
    </marker>
    <marker
       style="overflow:visible"
       id="Arrow1Lend-0"
       refX="0"
       refY="0"
       orient="auto"
       inkscape:stockid="Arrow1Lend">
      <path
         transform="matrix(-0.8,0,0,-0.8,-10,0)"
         style="fill-rule:evenodd;stroke:#000000;stroke-width:1pt"
         d="M 0,0 5,-5 -12.5,0 5,5 0,0 z"
         id="path3816-9"
         inkscape:connector-curvature="0" />
    </marker>
    <marker
       style="overflow:visible"
       id="marker3254"
       refX="0"
       refY="0"
       orient="auto"
       inkscape:stockid="Arrow1Lend">
      <path
         transform="matrix(-0.8,0,0,-0.8,-10,0)"
         style="fill-rule:evenodd;stroke:#000000;stroke-width:1pt"
         d="M 0,0 5,-5 -12.5,0 5,5 0,0 z"
         id="path3256"
         inkscape:connector-curvature="0" />
    </marker>
    <marker
       style="overflow:visible"
       id="marker3258"
       refX="0"
       refY="0"
       orient="auto"
       inkscape:stockid="Arrow1Lend">
      <path
         transform="matrix(-0.8,0,0,-0.8,-10,0)"
         style="fill-rule:evenodd;stroke:#000000;stroke-width:1pt"
         d="M 0,0 5,-5 -12.5,0 5,5 0,0 z"
         id="path3260"
         inkscape:connector-curvature="0" />
    </marker>
    <clipPath
       clipPathUnits="userSpaceOnUse"
       id="clipPath4111">
      <path
         inkscape:connector-curvature="0"
         style="fill:#0065a9;fill-opacity:0.66666667;stroke:none"
         clip-path="none"
         d="m -639.96996,132.2177 0,0.34375 c 0.40278,-0.0155 8.26241,-0.0754 18.125,0 14.30727,0.1085 28.36406,0.0117 34.15625,-0.0625 7.51452,-0.0962 100.43649,0.0137 106.90626,0.0312 18.62268,0.0506 37.81582,-6.5e-4 55.09375,0.0312 l 99.28125,0 0,-0.34375 -313.56251,0 z m 313.56251,0.34375 0,0.40625 0.1875,-0.40625 -0.1875,0 z m 0,0.40625 -1.8125,4.03125 c -0.82969,1.83261 -16.90917,19.26959 -27.15625,29.8125 -19.88692,20.46105 -77.51756,40.14983 -143.46876,36.96875 -41.97293,-2.0245 -77.52257,-10.98827 -104.15625,-27.5 -5.14687,-3.19083 -13.36778,-9.5715 -20.5625,-17.09375 -3.84167,-4.01656 -7.49536,-8.62152 -9.9375,-12.6875 -1.17275,-1.75095 -5.01681,-7.75335 -6.46875,-11.28125 l 0,373.4375 313.56251,0 0,-375.6875 z m -313.56251,2.25 0,-2.65625 c -10e-4,4e-5 -0.0302,-4e-5 -0.0312,0 -0.80274,-0.0395 -0.62872,1.05266 0.0312,2.65625 z"
         id="path4113" />
    </clipPath>
    <clipPath
       clipPathUnits="userSpaceOnUse"
       id="clipPath4111-1">
      <path
         inkscape:connector-curvature="0"
         style="fill:#0065a9;fill-opacity:0.66666667;stroke:none"
         clip-path="none"
         d="m -639.96996,132.2177 0,0.34375 c 0.40278,-0.0155 8.26241,-0.0754 18.125,0 14.30727,0.1085 28.36406,0.0117 34.15625,-0.0625 7.51452,-0.0962 100.43649,0.0137 106.90626,0.0312 18.62268,0.0506 37.81582,-6.5e-4 55.09375,0.0312 l 99.28125,0 0,-0.34375 -313.56251,0 z m 313.56251,0.34375 0,0.40625 0.1875,-0.40625 -0.1875,0 z m 0,0.40625 -1.8125,4.03125 c -0.82969,1.83261 -16.90917,19.26959 -27.15625,29.8125 -19.88692,20.46105 -77.51756,40.14983 -143.46876,36.96875 -41.97293,-2.0245 -77.52257,-10.98827 -104.15625,-27.5 -5.14687,-3.19083 -13.36778,-9.5715 -20.5625,-17.09375 -3.84167,-4.01656 -7.49536,-8.62152 -9.9375,-12.6875 -1.17275,-1.75095 -5.01681,-7.75335 -6.46875,-11.28125 l 0,373.4375 313.56251,0 0,-375.6875 z m -313.56251,2.25 0,-2.65625 c -10e-4,4e-5 -0.0302,-4e-5 -0.0312,0 -0.80274,-0.0395 -0.62872,1.05266 0.0312,2.65625 z"
         id="path4113-7" />
    </clipPath>
  </defs>
  <metadata
     id="metadata7">
    <rdf:RDF>
      <cc:Work
         rdf:about="">
        <dc:format>image/svg+xml</dc:format>
        <dc:type
           rdf:resource="http://purl.org/dc/dcmitype/StillImage" />
        <dc:title />
      </cc:Work>
    </rdf:RDF>
  </metadata>
  <g
     inkscape:label="Layer 1"
     inkscape:groupmode="layer"
     id="layer1"
     transform="translate(9.71875,-315.1875)">
    <path
       style="fill:#bebebe;fill-opacity:1;stroke:#000000;stroke-width:1.01113188px;stroke-linecap:butt;stroke-linejoin:miter;stroke-opacity:1"
       d="m 310.35205,431.59923 0,-115.91906 -319.5617351,0.47855 0.9735548,127.62608 C 8.0233767,444.52608 27.53285,449.08364 41.584257,454.14074 169.59146,665.8743 208.30407,517.52263 310.35205,431.59923 z"
       id="path4655"
       inkscape:connector-curvature="0"
       sodipodi:nodetypes="cccccc" />
    <g
       id="g3773"
       transform="matrix(1.0991668,0,0,1,-36.911303,26)" />
    <text
       xml:space="preserve"
       style="font-size:40px;font-style:normal;font-variant:normal;font-weight:normal;font-stretch:normal;text-align:start;line-height:128.99999619%;letter-spacing:0px;word-spacing:0px;writing-mode:lr-tb;text-anchor:start;fill:#000000;fill-opacity:1;stroke:none;font-family:Calibri;-inkscape-font-specification:Calibri"
       x="60.113552"
       y="372.42661"
       id="text3014"
       sodipodi:linespacing="129%"><tspan
         sodipodi:role="line"
         id="tspan3016"
         x="60.113552"
         y="372.42661"
         style="font-size:32px" /></text>
    <path
       style="fill:none;stroke:#000000;stroke-width:0.97414678;stroke-linecap:butt;stroke-linejoin:miter;stroke-miterlimit:4;stroke-opacity:1;stroke-dasharray:none"
       d="m -9.1168421,316.50061 0,456.86292 319.0869121,0 0,-457.70009 z"
       id="path3282"
       inkscape:connector-curvature="0" />
    <text
       sodipodi:linespacing="129%"
       id="text4659"
       y="358.93842"
       x="143.13541"
       style="font-size:40.44527435px;font-style:normal;font-variant:normal;font-weight:normal;font-stretch:normal;text-align:start;line-height:128.99999619%;letter-spacing:0px;word-spacing:0px;writing-mode:lr-tb;text-anchor:start;fill:#000000;fill-opacity:1;stroke:none;font-family:Calibri;-inkscape-font-specification:Calibri"
       xml:space="preserve"><tspan
         style="font-size:32.35622025px"
         y="358.93842"
         x="143.13541"
         id="tspan4661"
         sodipodi:role="line">a</tspan></text>
    <path
       style="fill:#5096c4;fill-opacity:1;stroke:#000000;stroke-width:0.83544362;stroke-linecap:butt;stroke-linejoin:miter;stroke-miterlimit:4;stroke-opacity:1;stroke-dasharray:none"
       d="m -8.0964056,437.05674 15.2742,0.91294 8.9020996,1.00203 14.22197,2.96428 9.36479,3.14902 12.01525,5.66821 c 48.11165,29.1241 36.211199,49.22462 70.066296,91.98021 5.38165,5.44659 9.8871,4.69843 19.41461,7.54629 9.70349,2.90046 16.4863,5.21995 29.99774,1.22416 10.86304,-3.21257 20.20184,-3.30075 25.36769,-10.03314 41.72866,-64.92496 34.98279,-101.67352 113.99604,-110.06417 l -1.57465,343.31699 -317.0016556,0 z"
       id="path3284"
       inkscape:connector-curvature="0"
       sodipodi:nodetypes="cccccccssccccc" />
    <text
       xml:space="preserve"
       style="font-size:40.44527435px;font-style:normal;font-variant:normal;font-weight:normal;font-stretch:normal;text-align:start;line-height:128.99999619%;letter-spacing:0px;word-spacing:0px;writing-mode:lr-tb;text-anchor:start;fill:#000000;fill-opacity:1;stroke:none;font-family:Calibri;-inkscape-font-specification:Calibri"
       x="144.11494"
       y="755.25305"
       id="text4671"
       sodipodi:linespacing="129%"><tspan
         sodipodi:role="line"
         id="tspan4673"
         x="144.11494"
         y="755.25305"
         style="font-size:32.35622025px">s</tspan></text>
  </g>
</svg>
