<?xml version="1.0" encoding="UTF-8" standalone="no"?>
<!-- Created with Inkscape (http://www.inkscape.org/) -->

<svg
   xmlns:ns0="http://www.iki.fi/pav/software/textext/"
   xmlns:osb="http://www.openswatchbook.org/uri/2009/osb"
   xmlns:dc="http://purl.org/dc/elements/1.1/"
   xmlns:cc="http://creativecommons.org/ns#"
   xmlns:rdf="http://www.w3.org/1999/02/22-rdf-syntax-ns#"
   xmlns:svg="http://www.w3.org/2000/svg"
   xmlns="http://www.w3.org/2000/svg"
   xmlns:xlink="http://www.w3.org/1999/xlink"
   xmlns:sodipodi="http://sodipodi.sourceforge.net/DTD/sodipodi-0.dtd"
   xmlns:inkscape="http://www.inkscape.org/namespaces/inkscape"
   width="598.9715"
   height="326.125"
   id="svg2"
   version="1.1"
   inkscape:version="0.48.1 "
   sodipodi:docname="Proteburance.svg">
  <sodipodi:namedview
     id="base"
     pagecolor="#ffffff"
     bordercolor="#666666"
     borderopacity="1.0"
     inkscape:pageopacity="0.0"
     inkscape:pageshadow="2"
     inkscape:zoom="0.7"
     inkscape:cx="598.25284"
     inkscape:cy="10.838466"
     inkscape:document-units="px"
     inkscape:current-layer="g7187"
     showgrid="false"
     fit-margin-top="0"
     fit-margin-left="0"
     fit-margin-right="0"
     fit-margin-bottom="0"
     inkscape:window-width="1920"
     inkscape:window-height="1019"
     inkscape:window-x="-9"
     inkscape:window-y="-9"
     inkscape:window-maximized="1" />
  <defs
     id="defs4">
    <linearGradient
       id="linearGradient7050"
       inkscape:collect="always">
      <stop
         id="stop7052"
         offset="0"
         style="stop-color:#000000;stop-opacity:1;" />
      <stop
         id="stop7054"
         offset="1"
         style="stop-color:#000000;stop-opacity:0;" />
    </linearGradient>
    <linearGradient
       id="linearGradient6395">
      <stop
         style="stop-color:#d0fdff;stop-opacity:1;"
         offset="0"
         id="stop6397" />
      <stop
         style="stop-color:#003b89;stop-opacity:1;"
         offset="1"
         id="stop6399" />
    </linearGradient>
    <linearGradient
       id="linearGradient6355">
      <stop
         style="stop-color:#000000;stop-opacity:1;"
         offset="0"
         id="stop6357" />
      <stop
         style="stop-color:#000000;stop-opacity:0;"
         offset="1"
         id="stop6359" />
    </linearGradient>
    <linearGradient
       id="linearGradient6325"
       osb:paint="gradient">
      <stop
         style="stop-color:#7da7ff;stop-opacity:1;"
         offset="0"
         id="stop6327" />
      <stop
         style="stop-color:#7da7ff;stop-opacity:0;"
         offset="1"
         id="stop6329" />
    </linearGradient>
    <marker
       style="overflow:visible"
       id="DotM"
       refX="0"
       refY="0"
       orient="auto"
       inkscape:stockid="DotM">
      <path
         inkscape:connector-curvature="0"
         transform="matrix(0.4,0,0,0.4,2.96,0.4)"
         style="fill-rule:evenodd;stroke:#000000;stroke-width:1pt;marker-start:none;marker-end:none"
         d="m -2.5,-1 c 0,2.76 -2.24,5 -5,5 -2.76,0 -5,-2.24 -5,-5 0,-2.76 2.24,-5 5,-5 2.76,0 5,2.24 5,5 z"
         id="path4100" />
    </marker>
    <marker
       style="overflow:visible"
       id="DotL"
       refX="0"
       refY="0"
       orient="auto"
       inkscape:stockid="DotL">
      <path
         inkscape:connector-curvature="0"
         transform="matrix(0.8,0,0,0.8,5.92,0.8)"
         style="fill-rule:evenodd;stroke:#000000;stroke-width:1pt;marker-start:none;marker-end:none"
         d="m -2.5,-1 c 0,2.76 -2.24,5 -5,5 -2.76,0 -5,-2.24 -5,-5 0,-2.76 2.24,-5 5,-5 2.76,0 5,2.24 5,5 z"
         id="path4097" />
    </marker>
    <marker
       style="overflow:visible"
       id="Arrow1Lend"
       refX="0"
       refY="0"
       orient="auto"
       inkscape:stockid="Arrow1Lend">
      <path
         inkscape:connector-curvature="0"
         transform="matrix(-0.8,0,0,-0.8,-10,0)"
         style="fill-rule:evenodd;stroke:#000000;stroke-width:1pt;marker-start:none"
         d="M 0,0 5,-5 -12.5,0 5,5 0,0 z"
         id="path4038" />
    </marker>
    <linearGradient
       id="linearGradient3755">
      <stop
         id="stop3757"
         offset="0"
         style="stop-color:#ffff1b;stop-opacity:1;" />
      <stop
         id="stop3759"
         offset="1"
         style="stop-color:#c62900;stop-opacity:1;" />
    </linearGradient>
    <linearGradient
       gradientTransform="translate(-145.71429,13.571429)"
       y2="503.56482"
       x2="297.84991"
       y1="305.88196"
       x1="297.84991"
       gradientUnits="userSpaceOnUse"
       id="linearGradient3812"
       xlink:href="#linearGradient3755"
       inkscape:collect="always" />
    <linearGradient
       inkscape:collect="always"
       xlink:href="#linearGradient3755"
       id="linearGradient6351"
       x1="353.99991"
       y1="348.80502"
       x2="353.99991"
       y2="515.36768"
       gradientUnits="userSpaceOnUse"
       spreadMethod="reflect"
       gradientTransform="translate(18,0)" />
    <linearGradient
       inkscape:collect="always"
       xlink:href="#linearGradient6395"
       id="linearGradient6401"
       x1="127.78429"
       y1="298.74695"
       x2="127.78429"
       y2="235.93654"
       gradientUnits="userSpaceOnUse" />
    <linearGradient
       inkscape:collect="always"
       xlink:href="#linearGradient6395"
       id="linearGradient6417"
       x1="314.26932"
       y1="561.23956"
       x2="314.26932"
       y2="491.19028"
       gradientUnits="userSpaceOnUse" />
    <linearGradient
       gradientUnits="userSpaceOnUse"
       y2="518.18188"
       x2="493.98621"
       y1="518.18188"
       x1="260.32712"
       id="linearGradient7056"
       xlink:href="#linearGradient7050"
       inkscape:collect="always" />
  </defs>
  <metadata
     id="metadata7">
    <rdf:RDF>
      <cc:Work
         rdf:about="">
        <dc:format>image/svg+xml</dc:format>
        <dc:type
           rdf:resource="http://purl.org/dc/dcmitype/StillImage" />
        <dc:title />
      </cc:Work>
    </rdf:RDF>
  </metadata>
  <g
     transform="translate(-10.457067,-264.8661)"
     id="layer1"
     inkscape:groupmode="layer"
     inkscape:label="Layer 1">
    <rect
       y="317.46136"
       x="10.707067"
       height="200.76984"
       width="258.33295"
       id="rect2985"
       style="opacity:0.94690265;fill:url(#linearGradient3812);fill-opacity:1;stroke:#000000;stroke-width:0.5;stroke-miterlimit:4;stroke-opacity:1;stroke-dasharray:none" />
    <path
       id="rect3769"
       d="m 236.9375,235.40625 c -2.84025,0.11687 -5.8246,7.74449 -10.03125,22.53125 l -59.9375,0 c -4.70436,-16.34814 -7.99297,-15.9799 -13.3125,0 l -67.6875,0 c -2.997796,-7.71649 -5.591436,-7.5874 -8.875,0 l -49.34375,0 c -4.425799,-14.84692 -7.702465,-14.54327 -12.6875,0 l -15.0625,0 0,42.65625 258.34375,0 0,-42.65625 -12.25,0 c -3.61959,-15.25157 -6.31587,-22.64812 -9.15625,-22.53125 z"
       style="fill:url(#linearGradient6401);fill-opacity:1;stroke:#000000;stroke-width:0.5;stroke-miterlimit:4;stroke-opacity:1;stroke-dasharray:none"
       transform="translate(10.707067,260.29428)"
       inkscape:connector-curvature="0" />
    <path
       style="fill:none;stroke:#000000;stroke-width:0.5;stroke-linecap:butt;stroke-linejoin:miter;stroke-miterlimit:4;stroke-opacity:1;stroke-dasharray:none;marker-start:none;marker-end:url(#Arrow1Lend)"
       d="m 59.599003,484.15136 0.505068,32.32489"
       id="path4476"
       inkscape:connector-curvature="0"
       sodipodi:nodetypes="cc" />
    <path
       sodipodi:nodetypes="cc"
       inkscape:connector-curvature="0"
       id="path4486"
       d="m 269.47348,560.43714 0.26523,-282.04313"
       style="fill:none;stroke:#000000;stroke-width:1px;stroke-linecap:butt;stroke-linejoin:miter;stroke-opacity:1;marker-end:url(#Arrow1Lend)" />
    <path
       sodipodi:nodetypes="cc"
       style="fill:none;stroke:#000000;stroke-width:1px;stroke-linecap:butt;stroke-linejoin:miter;stroke-opacity:1;marker-end:url(#Arrow1Lend)"
       d="m 269.20565,560.62333 275.83524,0"
       id="path4670"
       inkscape:connector-curvature="0" />
    <path
       sodipodi:nodetypes="cc"
       inkscape:connector-curvature="0"
       id="path4672"
       d="M 459.03364,517.0583 C 397.56884,509.01882 311.3806,502.56434 311.3806,335.98846"
       style="fill:none;stroke:url(#linearGradient6351);stroke-width:1.5;stroke-linecap:butt;stroke-linejoin:miter;stroke-miterlimit:4;stroke-opacity:1;stroke-dasharray:none" />
    <path
       sodipodi:nodetypes="cc"
       style="fill:none;stroke:#000000;stroke-width:0.75;stroke-linecap:butt;stroke-linejoin:miter;stroke-miterlimit:4;stroke-opacity:1;stroke-dasharray:2.25, 2.25;stroke-dashoffset:0"
       d="m 310.18728,336.57212 0,224.71098"
       id="path4684"
       inkscape:connector-curvature="0" />
    <path
       inkscape:connector-curvature="0"
       id="path4696"
       d="m 248.06355,494.87832 126.97299,0"
       style="fill:none;stroke:#000000;stroke-width:0.75;stroke-linecap:butt;stroke-linejoin:miter;stroke-miterlimit:4;stroke-opacity:1;stroke-dasharray:2.25, 2.25;stroke-dashoffset:0;marker-start:url(#DotM);marker-mid:none;marker-end:url(#DotM)"
       sodipodi:nodetypes="cc" />
    <path
       sodipodi:nodetypes="cc"
       inkscape:connector-curvature="0"
       id="path5631"
       d="m 170.67043,476.29422 0.50507,25.89632"
       style="fill:none;stroke:#000000;stroke-width:0.5;stroke-linecap:butt;stroke-linejoin:miter;stroke-miterlimit:4;stroke-opacity:1;stroke-dasharray:none;marker-start:none;marker-end:url(#Arrow1Lend)" />
    <g
       ns0:preamble="C:\\local\\ali.saad\\phd\\Misc\\textext_preamble.tex"
       ns0:text="Local \\\\ Protuberance \\\\ \\\\\nInterface \\\\ \\\\\nSolid \\\\ \\\\\nLiquid \\\\ \\\\ \nComposition \\\\ \\\\ \nPosition \\\\  from interface \\\\ \\\\"
       word-spacing="normal"
       letter-spacing="normal"
       font-size-adjust="none"
       font-stretch="normal"
       font-weight="normal"
       font-variant="normal"
       font-style="normal"
       stroke-miterlimit="10.433"
       xml:space="preserve"
       transform="matrix(2,0,0,-2,-663.57143,1491.4286)"
       id="content"
       style="font-style:normal;font-variant:normal;font-weight:normal;font-stretch:normal;letter-spacing:normal;word-spacing:normal;text-anchor:start;fill:none;stroke:#000000;stroke-linecap:butt;stroke-linejoin:miter;stroke-miterlimit:10.43299961;stroke-opacity:1;stroke-dasharray:none;stroke-dashoffset:0">
<path
   id="path6055"
   d="m 408.21784,522.35829 0,0.0323 0,0.0259 0,0.0259 0,0.0259 0,0.0259 0,0.0194 0.007,0.0194 0,0.0194 0.007,0.0194 0.007,0.0194 0.007,0.0129 0.007,0.013 0.007,0.013 0.013,0.013 0.0129,0.007 0.013,0.013 0.013,0.007 0.013,0.007 0.0194,0.007 0.013,0.007 0.007,0 0.0129,0.007 0.013,0 0.007,0.007 0.013,0 0.013,0.007 0.0129,0 0.0194,0 0.013,0.007 0.0129,0 0.0194,0 0.0129,0.007 0.0194,0 0.0194,0 0.0129,0 0.0194,0.007 0.0194,0 0.0194,0 0.0259,0 0.0194,0.007 0.0258,0 0.0194,0 0.0259,0 0.0258,0.007 0.0259,0 v 0.17467 h -1.69486 v -0.17467 c 0.52399,-0.0388 0.53693,-0.0453 0.53693,-0.38166 v -3.00158 c 0,-0.32992 -0.013,-0.34285 -0.53693,-0.3752 v -0.17466 h 3.07921 l 0.0712,1.06091 h -0.17467 c -0.12291,-0.77628 -0.44635,-0.8539 -1.06737,-0.8539 -0.29757,0 -0.51105,0.013 -0.64043,0.0582 -0.12291,0.0582 -0.14231,0.15525 -0.14231,0.44636 z"
   inkscape:connector-curvature="0"
   style="fill:#000000;stroke-width:0" />
<path
   id="path6057"
   d="m 411.96334,521.78255 -0.0906,0 -0.0841,-0.007 -0.0841,-0.007 -0.0776,-0.0129 -0.0776,-0.013 -0.0712,-0.0194 -0.0712,-0.0194 -0.0647,-0.0259 -0.0647,-0.0259 -0.0647,-0.0259 -0.0582,-0.0323 -0.0582,-0.0388 -0.0517,-0.0388 -0.0517,-0.0388 -0.0518,-0.0453 -0.0453,-0.0517 -0.0388,-0.0453 -0.0453,-0.0582 -0.0323,-0.0517 -0.0388,-0.0582 -0.0323,-0.0647 -0.0258,-0.0647 -0.0259,-0.0647 -0.0259,-0.0712 -0.0194,-0.0712 -0.0194,-0.0712 -0.013,-0.0776 -0.0129,-0.0776 -0.007,-0.0841 -0.007,-0.0841 -0.007,-0.0841 0,-0.0906 c 0,-0.96387 0.46576,-1.52666 1.41669,-1.52666 v 0.207 c -0.54339,0 -0.80214,0.49811 -0.80214,1.31966 h 0 c 0,0.81508 0.25875,1.31319 0.80214,1.31319 0.54986,0 0.80215,-0.49811 0.80215,-1.31319 0,-0.82155 -0.25229,-1.31966 -0.80215,-1.31966 v -0.207 c 0.9574,0 1.42316,0.56279 1.42316,1.52666 0,0.9574 -0.46576,1.5202 -1.42316,1.5202 z"
   inkscape:connector-curvature="0"
   style="fill:#000000;stroke-width:0" />
<path
   id="path6059"
   d="m 415.45656,519.0462 -0.0323,0 -0.0323,0 -0.0323,0.007 -0.0258,0 -0.0323,0.007 -0.0259,0.007 -0.0323,0.007 -0.0258,0.007 -0.0517,0.0194 -0.0517,0.0194 -0.0453,0.0259 -0.0453,0.0259 -0.0388,0.0323 -0.0388,0.0323 -0.0388,0.0323 -0.0323,0.0388 -0.0323,0.0453 -0.0323,0.0388 -0.0259,0.0453 -0.0258,0.0517 -0.0259,0.0453 -0.0194,0.0517 -0.0194,0.0517 -0.0194,0.0517 -0.013,0.0517 -0.0129,0.0517 -0.013,0.0582 -0.0129,0.0517 -0.007,0.0582 -0.007,0.0518 -0.007,0.0582 -0.007,0.0518 -0.007,0.0582 0,0.0517 0,0.0582 0,0.0517 c 0,0.87977 0.34933,1.23556 0.75687,1.23556 0.2717,0 0.44635,-0.19406 0.56279,-0.51751 0.0323,-0.0906 0.0712,-0.14878 0.18113,-0.14878 0.12291,0 0.34932,0.0776 0.34932,0.30403 0,0.27169 -0.38813,0.56927 -1.02855,0.56927 -1.08031,0 -1.44257,-0.76333 -1.44257,-1.55254 0,-0.98975 0.48517,-1.49432 1.37788,-1.49432 0.41401,0 0.97033,0.21994 1.13853,0.85389 l -0.17467,0.0841 c -0.18112,-0.41401 -0.42047,-0.62749 -0.85389,-0.62749 z"
   inkscape:connector-curvature="0"
   style="fill:#000000;stroke-width:0" />
<path
   id="path6061"
   d="m 419.18266,520.99981 0,0.0647 -0.007,0.0323 0,0.0323 0,0.0323 -0.007,0.0324 -0.007,0.0388 -0.007,0.0323 -0.007,0.0323 -0.0129,0.0323 -0.013,0.0323 -0.0129,0.0324 -0.0194,0.0323 -0.0194,0.0323 -0.0194,0.0323 -0.0194,0.0259 -0.0259,0.0323 -0.0323,0.0259 -0.0323,0.0259 -0.0323,0.0259 -0.0388,0.0194 -0.0194,0.013 -0.0194,0.013 -0.0259,0.007 -0.0194,0.013 -0.0259,0.007 -0.0258,0.013 -0.0194,0.007 -0.0323,0.007 -0.0259,0.013 -0.0259,0.007 -0.0323,0.007 -0.0259,0.007 -0.0323,0.007 -0.0323,0 -0.0324,0.007 -0.0388,0.007 -0.0323,0 -0.0388,0.007 -0.0388,0 -0.0388,0 -0.0388,0 -0.0388,0 c -0.67277,0 -1.20322,-0.34932 -1.20322,-0.67276 0,-0.18761 0.21994,-0.27817 0.33638,-0.27817 0.12291,0 0.16173,0.0647 0.1876,0.16819 0.12938,0.43342 0.3752,0.57573 0.61455,0.57573 0.22641,0 0.4981,-0.11643 0.4981,-0.58866 v -0.25229 -0.23935 -0.84096 c 0,-0.4787 -0.36226,-0.60161 -0.59514,-0.60161 -0.36873,0 -0.54338,0.25875 -0.54338,0.60808 0,0.27816 0.12937,0.42047 0.45929,0.54985 0.23935,0.0841 0.54986,0.20054 0.67923,0.28464 v 0.23935 c -0.14878,-0.15526 -0.71805,-0.30404 -1.19028,-0.44636 -0.42694,-0.13585 -0.54985,-0.43342 -0.54985,-0.71158 0,-0.43989 0.29756,-0.84096 0.85389,-0.84096 0.36873,0.013 0.69218,0.23288 0.87977,0.35579 0.0841,-0.21995 0.18113,-0.35579 0.38814,-0.35579 0.21994,0 0.47223,0.0647 0.69864,0.18113 l -0.0323,0.14232 c -0.0841,-0.0194 -0.21347,-0.0324 -0.30404,-0.007 -0.10351,0.0194 -0.20701,0.13584 -0.20701,0.51104 z"
   inkscape:connector-curvature="0"
   style="fill:#000000;stroke-width:0" />
<path
   id="path6063"
   d="m 420.8387,523.17337 -0.0388,0.0323 -0.93152,-0.14878 v -0.14232 l 0.2264,-0.0259 c 0.15526,-0.0194 0.18761,-0.0517 0.18761,-0.27169 v -3.29268 c 0,-0.30404 -0.0194,-0.31698 -0.44636,-0.34285 v -0.17466 h 1.44904 v 0.17466 c -0.42048,0.0259 -0.44636,0.0388 -0.44636,0.34285 z"
   inkscape:connector-curvature="0"
   style="fill:#000000;stroke-width:0" />
<path
   id="path6065"
   d="m 398.28343,512.29634 h 0.33638 c 0.2717,0 0.53692,0.0259 0.75687,0.0776 0.45928,0.11644 0.9768,0.43989 0.9768,1.17734 0,0.45282 -0.19407,0.76333 -0.45929,0.92505 -0.28463,0.18114 -0.6663,0.23935 -1.08031,0.23935 l -0.0841,-0.207 c 0.61455,0 0.98328,-0.34932 0.98328,-0.99622 0,-0.74392 -0.48517,-1.00915 -0.99622,-1.00915 -0.34932,0 -0.43341,0.013 -0.43341,0.23289 v 1.55254 c 0,0.16819 0.0647,0.21994 0.44635,0.21994 l 0.0841,0.207 h -1.65605 v -0.17465 c 0.52399,-0.0324 0.53693,-0.0453 0.53693,-0.3752 v -3.00158 c 0,-0.32992 -0.013,-0.34286 -0.53693,-0.38167 v -0.16819 h 1.75308 v 0.16819 c -0.61454,0.0388 -0.62748,0.0517 -0.62748,0.38167 z"
   inkscape:connector-curvature="0"
   style="fill:#000000;stroke-width:0" />
<path
   id="path6067"
   d="m 401.56317,513.59012 -0.90565,-0.14878 v -0.14878 l 0.22641,-0.0259 c 0.15525,-0.0259 0.19407,-0.0582 0.19407,-0.27169 v -1.86304 c 0,-0.30405 -0.0323,-0.31699 -0.44635,-0.34933 v -0.16819 h 1.56548 v 0.16819 c -0.53046,0.0323 -0.5628,0.0453 -0.5628,0.34933 v 1.38434 c 0,0.4593 0.20054,0.60808 0.33638,0.60808 0.097,0 0.19407,-0.0323 0.36873,-0.12938 0.0388,-0.0194 0.0906,-0.0259 0.11644,-0.0259 0.14232,0 0.27169,0.14231 0.27169,0.32992 0,0.12937 -0.0776,0.29109 -0.3105,0.29109 -0.21348,0 -0.39461,-0.12937 -0.78274,-0.4787 z"
   inkscape:connector-curvature="0"
   style="fill:#000000;stroke-width:0" />
<path
   id="path6069"
   d="m 404.42243,513.59012 -0.0906,0 -0.0841,-0.007 -0.0841,-0.007 -0.0776,-0.013 -0.0776,-0.013 -0.0712,-0.0194 -0.0712,-0.0194 -0.0712,-0.0259 -0.0647,-0.0259 -0.0582,-0.0324 -0.0647,-0.0323 -0.0517,-0.0323 -0.0582,-0.0453 -0.0517,-0.0388 -0.0453,-0.0453 -0.0453,-0.0453 -0.0453,-0.0517 -0.0388,-0.0518 -0.0388,-0.0582 -0.0323,-0.0582 -0.0323,-0.0582 -0.0259,-0.0647 -0.0259,-0.0712 -0.0259,-0.0647 -0.0194,-0.0712 -0.0194,-0.0776 -0.013,-0.0776 -0.0129,-0.0776 -0.013,-0.0841 -0.007,-0.0841 0,-0.0841 -0.007,-0.0906 c 0,-0.9574 0.47223,-1.5202 1.42316,-1.5202 v 0.20701 c -0.54338,0 -0.80214,0.49811 -0.80214,1.31319 h 0 c 0,0.82155 0.25876,1.31965 0.80214,1.31965 0.54986,0 0.80215,-0.4981 0.80215,-1.31965 0,-0.81508 -0.25229,-1.31319 -0.80215,-1.31319 v -0.20701 c 0.9574,0 1.4167,0.5628 1.4167,1.5202 0,0.96386 -0.4593,1.52666 -1.4167,1.52666 z"
   inkscape:connector-curvature="0"
   style="fill:#000000;stroke-width:0" />
<path
   id="path6071"
   d="m 408.06443,513.27961 v 0.23935 h -0.76333 v 0.74393 h -0.17466 l -0.36226,-0.74393 h -0.44635 v -0.23935 h 0.42694 v -2.06358 c 0,-0.60161 0.44636,-0.67277 0.65336,-0.67277 0.30404,0 0.58867,0.15525 0.76334,0.25876 l -0.0518,0.12291 c -0.14231,-0.0582 -0.27169,-0.0776 -0.42047,-0.0776 -0.20054,0 -0.38815,0.14232 -0.38815,0.59514 v 1.83717 z"
   inkscape:connector-curvature="0"
   style="fill:#000000;stroke-width:0" />
<path
   id="path6073"
   d="m 411.66762,510.61442 v 0.16819 c -0.40754,0.0323 -0.44635,0.0453 -0.44635,0.34933 v 2.41937 l -0.0388,0.0388 -0.93153,-0.14878 v -0.14879 l 0.22641,-0.0259 c 0.15525,-0.0259 0.1876,-0.0582 0.1876,-0.27169 v -1.3326 c 0,-0.16819 -0.0194,-0.29757 -0.0453,-0.35579 -0.13585,-0.27169 -0.42049,-0.44636 -0.73099,-0.44636 -0.34285,0 -0.59514,0.21348 -0.59514,0.67924 v 2.01184 l -0.0453,0.0388 -0.93153,-0.14879 v -0.14878 l 0.22642,-0.0259 c 0.15525,-0.0259 0.19407,-0.0582 0.19407,-0.27169 v -1.56548 c 0,-0.67924 0.40107,-0.88624 0.84095,-0.88624 0.50458,0 0.91212,0.34285 1.08031,0.42695 l 0.0582,-0.3558 z"
   inkscape:connector-curvature="0"
   style="fill:#000000;stroke-width:0" />
<path
   id="path6075"
   d="m 412.40508,510.54326 0.23935,0.22642 c 0.207,-0.11645 0.45282,-0.22642 0.89918,-0.22642 l 0.007,0.20701 c -0.31698,0 -0.5434,0.16172 -0.65337,0.45282 -0.0323,0.10997 -0.0388,0.23288 -0.0388,0.3752 v 0.93799 c 0,0.14879 0.013,0.23935 0.0582,0.33639 0.14231,0.28463 0.38813,0.414 0.72452,0.414 0.23935,0 0.76333,-0.14231 0.76333,-1.17086 0,-0.87331 -0.26523,-1.34554 -0.8539,-1.34554 l -0.007,-0.20701 c 0.78921,0 1.47491,0.3752 1.47491,1.58489 0,0.36873 -0.0776,1.46197 -1.14499,1.46197 -0.44636,0 -0.79568,-0.29109 -1.01563,-0.42047 v 1.80482 l -0.0453,0.0388 -0.93153,-0.14878 v -0.14879 l 0.22642,-0.0259 c 0.15525,-0.013 0.18759,-0.0453 0.18759,-0.27169 v -3.82961 z"
   inkscape:connector-curvature="0"
   style="fill:#000000;stroke-width:0" />
<path
   id="path6077"
   d="m 417.92307,512.17343 0.0129,0 0.007,0 0.013,0 0.0129,0 0.013,0 0.007,0 0.0129,0.007 0.013,0 0.007,0 0.0129,0.007 0.007,0 0.013,0.007 0.007,0 0.013,0.007 0.007,0.007 0.007,0.007 0.013,0.007 0.007,0.007 0.007,0.007 0.007,0.007 0.007,0.013 0.007,0.007 0.007,0.013 0,0.007 0.007,0.013 0,0.007 0.007,0.007 0,0.007 0,0.007 0,0.007 0.007,0.007 0,0.013 0,0.007 0,0.007 0,0.007 0,0.013 0,0.007 0,0.007 0,0.0129 c 0,0.34932 -0.10997,1.19028 -1.19675,1.19028 l -0.0323,-0.20701 c 0.54986,0 0.61454,-0.56279 0.61454,-0.79567 0,-0.10997 -0.0323,-0.1876 -0.20053,-0.1876 h -1.11912 c 0,0.23935 0.0841,0.98327 0.70511,0.98327 l 0.0323,0.20701 c -0.92505,0 -1.36494,-0.65983 -1.36494,-1.54607 0,-0.93799 0.40755,-1.51372 1.37141,-1.50079 0.65983,0.007 0.99622,0.36873 1.15794,0.83449 l -0.18113,0.097 c -0.16173,-0.34285 -0.38814,-0.62749 -0.86037,-0.62749 -0.73098,0 -0.87977,0.71158 -0.86683,1.32613 z"
   inkscape:connector-curvature="0"
   style="fill:#000000;stroke-width:0" />
<path
   id="path6079"
   d="m 419.48208,513.59012 -0.90565,-0.14878 v -0.14878 l 0.22641,-0.0259 c 0.15525,-0.0259 0.1876,-0.0582 0.1876,-0.27169 v -1.86304 c 0,-0.30405 -0.0259,-0.31699 -0.43989,-0.34933 v -0.16819 h 1.56548 v 0.16819 c -0.53045,0.0323 -0.56926,0.0453 -0.56926,0.34933 v 1.38434 c 0,0.4593 0.207,0.60808 0.34285,0.60808 0.0906,0 0.19406,-0.0323 0.36873,-0.12938 0.0388,-0.0194 0.0841,-0.0259 0.11644,-0.0259 0.14231,0 0.27169,0.14231 0.27169,0.32992 0,0.12937 -0.0841,0.29109 -0.31051,0.29109 -0.21994,0 -0.3946,-0.12937 -0.7892,-0.4787 z"
   inkscape:connector-curvature="0"
   style="fill:#000000;stroke-width:0" />
<path
   id="path6081"
   d="m 423.16936,512.80092 0,0.0647 0,0.0324 0,0.0323 -0.007,0.0388 -0.007,0.0323 -0.007,0.0323 -0.007,0.0323 -0.007,0.0388 -0.0129,0.0324 -0.007,0.0323 -0.0194,0.0323 -0.013,0.0323 -0.0194,0.0323 -0.0194,0.0259 -0.0259,0.0323 -0.0258,0.0259 -0.0259,0.0259 -0.0323,0.0259 -0.0388,0.0259 -0.0323,0.0259 -0.0194,0.0129 -0.0259,0.007 -0.0194,0.013 -0.0259,0.007 -0.0194,0.013 -0.0259,0.007 -0.0259,0.0129 -0.0259,0.007 -0.0259,0.007 -0.0323,0.007 -0.0259,0.007 -0.0324,0.007 -0.0323,0.007 -0.0323,0.007 -0.0323,0.007 -0.0323,0 -0.0388,0.007 -0.0324,0 -0.0388,0 -0.0388,0.007 -0.0453,0 -0.0388,0 c -0.67276,0 -1.19674,-0.34932 -1.19674,-0.67923 0,-0.1876 0.21994,-0.27817 0.32991,-0.27817 0.12938,0 0.16173,0.0647 0.19407,0.1682 0.12938,0.43988 0.36873,0.5822 0.60808,0.5822 0.23288,0 0.50458,-0.11644 0.50458,-0.59514 v -0.24582 -0.24581 -0.8345 c 0,-0.4787 -0.36873,-0.60808 -0.60161,-0.60808 -0.36873,0 -0.54339,0.26523 -0.54339,0.61455 0,0.27816 0.12938,0.42048 0.45929,0.54339 0.23935,0.0906 0.55633,0.20054 0.68571,0.28464 v 0.24581 c -0.14879,-0.15526 -0.72452,-0.30404 -1.19029,-0.45282 -0.42694,-0.12938 -0.55632,-0.42695 -0.55632,-0.70512 0,-0.44635 0.29757,-0.84096 0.8539,-0.84096 0.36873,0.013 0.69863,0.22642 0.88624,0.35579 0.0841,-0.21994 0.17465,-0.35579 0.38813,-0.35579 0.21995,0 0.47223,0.0647 0.69865,0.17467 l -0.0388,0.14231 c -0.0841,-0.013 -0.21348,-0.0259 -0.29758,-0.007 -0.10997,0.0259 -0.21347,0.13585 -0.21347,0.51105 z"
   inkscape:connector-curvature="0"
   style="fill:#000000;stroke-width:0" />
<path
   id="path6083"
   d="m 426.84371,512.64566 -0.007,0.0582 0,0.0517 -0.007,0.0517 -0.007,0.0517 -0.007,0.0517 -0.013,0.0453 -0.007,0.0453 -0.0194,0.0453 -0.0129,0.0453 -0.0194,0.0388 -0.0194,0.0388 -0.0194,0.0388 -0.0194,0.0388 -0.0259,0.0323 -0.0258,0.0323 -0.0259,0.0323 -0.0324,0.0259 -0.0258,0.0323 -0.0323,0.0194 -0.0323,0.0259 -0.0388,0.0259 -0.0388,0.0194 -0.0324,0.0194 -0.0388,0.0129 -0.0453,0.013 -0.0388,0.013 -0.0453,0.013 -0.0453,0.007 -0.0453,0.013 -0.0518,0 -0.0453,0.007 -0.0517,0 c -0.43989,0 -0.71159,-0.21347 -1.08032,-0.45282 l -0.0841,0.45282 -0.87978,-0.14878 v -0.14878 l 0.22642,-0.0259 c 0.14878,-0.0259 0.18759,-0.0582 0.18759,-0.2717 v -1.86304 c 0,-0.30404 -0.0194,-0.31698 -0.44635,-0.34933 v -0.16819 h 1.44904 v 0.16819 c -0.42048,0.0323 -0.44636,0.0453 -0.44636,0.34933 v 1.38434 c 0,0.14879 0.013,0.23288 0.0582,0.32345 0.12291,0.23288 0.39461,0.42695 0.70511,0.42695 0.40108,0 0.62102,-0.22641 0.62102,-0.73745 v -1.39729 c 0,-0.30404 -0.013,-0.31698 -0.43988,-0.34933 v -0.16819 h 1.44256 v 0.16819 c -0.42048,0.0323 -0.43988,0.0453 -0.43988,0.34933 z"
   inkscape:connector-curvature="0"
   style="fill:#000000;stroke-width:0" />
<path
   id="path6085"
   d="m 429.14664,510.8473 -0.0323,0 -0.0323,0.007 -0.0323,0 -0.0259,0.007 -0.0323,0 -0.0323,0.007 -0.0258,0.007 -0.0259,0.007 -0.0518,0.0194 -0.0517,0.0194 -0.0453,0.0258 -0.0453,0.0323 -0.0453,0.0259 -0.0388,0.0323 -0.0323,0.0388 -0.0388,0.0388 -0.0323,0.0388 -0.0259,0.0453 -0.0259,0.0453 -0.0259,0.0453 -0.0259,0.0453 -0.0194,0.0518 -0.0194,0.0517 -0.0194,0.0517 -0.0129,0.0517 -0.0194,0.0582 -0.007,0.0518 -0.0129,0.0582 -0.013,0.0518 -0.007,0.0582 -0.007,0.0517 0,0.0582 -0.007,0.0517 0,0.0582 -0.007,0.0517 0,0.0517 c 0,0.88624 0.34932,1.24203 0.76333,1.24203 0.27169,0 0.43989,-0.19406 0.5628,-0.51751 0.0323,-0.097 0.0712,-0.15525 0.18113,-0.15525 0.11644,0 0.34932,0.0776 0.34932,0.30404 0,0.27169 -0.38813,0.57573 -1.02856,0.57573 -1.08031,0 -1.44257,-0.76333 -1.44257,-1.55254 0,-0.98974 0.48517,-1.49432 1.37788,-1.49432 0.41401,0 0.97034,0.21995 1.13853,0.8539 l -0.17466,0.0841 c -0.1876,-0.42049 -0.42048,-0.63396 -0.8539,-0.63396 z"
   inkscape:connector-curvature="0"
   style="fill:#000000;stroke-width:0" />
<path
   id="path6087"
   d="m 432.92449,512.17343 0.0129,0 0.007,0 0.013,0 0.0129,0 0.013,0 0.007,0 0.0129,0.007 0.013,0 0.007,0 0.0129,0.007 0.007,0 0.013,0.007 0.007,0 0.0129,0.007 0.007,0.007 0.007,0.007 0.013,0.007 0.007,0.007 0.007,0.007 0.007,0.007 0.007,0.013 0.007,0.007 0.007,0.013 0,0.007 0.007,0.013 0,0.007 0.007,0.007 0,0.007 0,0.007 0,0.007 0.007,0.007 0,0.013 0,0.007 0,0.007 0,0.007 0,0.013 0,0.007 0,0.007 0,0.0129 c 0,0.34932 -0.10997,1.19028 -1.19675,1.19028 l -0.0323,-0.20701 c 0.54986,0 0.61454,-0.56279 0.61454,-0.79567 0,-0.10997 -0.0388,-0.1876 -0.20053,-0.1876 h -1.11912 c 0,0.23935 0.0841,0.98327 0.70511,0.98327 l 0.0323,0.20701 c -0.92506,0 -1.36494,-0.65983 -1.36494,-1.54607 0,-0.93799 0.40754,-1.51372 1.37141,-1.50079 0.65983,0.007 0.99621,0.36873 1.15793,0.83449 l -0.18112,0.097 c -0.16173,-0.34285 -0.38813,-0.62749 -0.86037,-0.62749 -0.73098,0 -0.87977,0.71158 -0.86683,1.32613 z"
   inkscape:connector-curvature="0"
   style="fill:#000000;stroke-width:0" />
<path
   id="path6089"
   d="m 350.59107,510.30826 0,0.0259 0,0.0324 0,0.0259 0,0.0259 0,0.0194 0,0.0259 0.007,0.0194 0,0.0194 0.007,0.0194 0.007,0.013 0.007,0.013 0.007,0.013 0.007,0.0129 0.007,0.013 0.013,0.013 0.0129,0.007 0.013,0.013 0.0129,0.007 0.0194,0.007 0.007,0 0.013,0.007 0.007,0 0.0129,0.007 0.013,0 0.013,0.007 0.007,0 0.013,0 0.013,0.007 0.0194,0 0.0129,0 0.013,0.007 0.0129,0 0.0194,0 0.0129,0.007 0.0194,0 0.0194,0 0.0194,0 0.0194,0.007 0.0194,0 0.0194,0 0.0194,0 0.0194,0.007 0.0258,0 0.0194,0 0.0259,0 v 0.17465 h -1.65605 v -0.17465 c 0.52398,-0.0323 0.53692,-0.0453 0.53692,-0.3752 v -3.00158 c 0,-0.32992 -0.0129,-0.34286 -0.53692,-0.38167 v -0.172 h 1.65605 v 0.16818 c -0.51752,0.0388 -0.53046,0.0518 -0.53046,0.38167 z"
   inkscape:connector-curvature="0"
   style="fill:#000000;stroke-width:0" />
<path
   id="path6091"
   d="m 354.34951,508.78806 0,0.0582 0,0.0517 -0.007,0.0517 -0.007,0.0517 -0.007,0.0518 -0.0129,0.0453 -0.013,0.0453 -0.0129,0.0453 -0.013,0.0453 -0.0194,0.0388 -0.0194,0.0388 -0.0194,0.0388 -0.0194,0.0388 -0.0258,0.0323 -0.0259,0.0323 -0.0259,0.0323 -0.0323,0.0259 -0.0323,0.0323 -0.0323,0.0194 -0.0323,0.0259 -0.0323,0.0259 -0.0388,0.0194 -0.0388,0.0194 -0.0388,0.013 -0.0388,0.013 -0.0453,0.013 -0.0388,0.013 -0.0453,0.007 -0.0518,0.013 -0.0453,0 -0.0517,0.007 -0.0453,0 c -0.43989,0 -0.71158,-0.21347 -1.08031,-0.45281 l -0.0841,0.45281 -0.88624,-0.14878 v -0.14878 l 0.22641,-0.0323 c 0.15526,-0.0194 0.19407,-0.0517 0.19407,-0.26523 v -1.86952 c 0,-0.29757 -0.0194,-0.31051 -0.44635,-0.34286 v -0.16881 h 1.44904 v 0.16818 c -0.42696,0.0323 -0.44636,0.0453 -0.44636,0.34286 v 1.39081 c 0,0.14879 0.0129,0.23288 0.0582,0.32345 0.12291,0.23288 0.38814,0.42695 0.70512,0.42695 0.40107,0 0.62101,-0.21994 0.62101,-0.73746 v -1.40375 c 0,-0.29758 -0.0194,-0.31051 -0.43988,-0.34286 v -0.16818 h 1.44256 v 0.16818 c -0.42047,0.0323 -0.44635,0.0453 -0.44635,0.34286 z"
   inkscape:connector-curvature="0"
   style="fill:#000000;stroke-width:0" />
<path
   id="path6093"
   d="m 356.82064,509.42202 v 0.23935 h -0.76333 v 0.74392 h -0.17467 l -0.36226,-0.74392 h -0.44635 v -0.23935 h 0.42695 v -2.06359 c 0,-0.6016 0.44636,-0.67277 0.65336,-0.67277 0.30404,0 0.58867,0.15525 0.76333,0.25876 l -0.0518,0.12291 c -0.14232,-0.0582 -0.2717,-0.0776 -0.42048,-0.0776 -0.20054,0 -0.38813,0.14232 -0.38813,0.59514 v 1.83718 z"
   inkscape:connector-curvature="0"
   style="fill:#000000;stroke-width:0" />
<path
   id="path6095"
   d="m 359.53758,508.31583 0.013,0 0.007,0 0.0129,0 0.013,0 0.013,0 0.007,0 0.013,0.007 0.013,0 0.007,0 0.013,0.007 0.007,0 0.013,0.007 0.007,0 0.013,0.007 0.007,0.007 0.007,0.007 0.013,0.007 0.007,0.007 0.007,0.007 0.007,0.007 0.007,0.013 0.007,0.007 0.007,0.013 0,0.007 0.007,0.013 0,0.007 0.007,0.007 0,0.007 0,0.007 0,0.007 0.007,0.007 0,0.013 0,0.007 0,0.007 0,0.007 0,0.013 0,0.007 0,0.007 0,0.0129 c 0,0.34932 -0.10997,1.19028 -1.19675,1.19028 l -0.0323,-0.207 c 0.54985,0 0.61455,-0.5628 0.61455,-0.79568 0,-0.10997 -0.0323,-0.1876 -0.20054,-0.1876 h -1.11912 c 0,0.23935 0.0841,0.98328 0.70511,0.98328 l 0.0323,0.207 c -0.92505,0 -1.36494,-0.65983 -1.36494,-1.54607 0,-0.93799 0.40754,-1.51372 1.37141,-1.50079 0.65983,0.007 0.99621,0.36873 1.15794,0.8345 l -0.18113,0.097 c -0.16172,-0.34932 -0.38814,-0.63396 -0.86037,-0.63396 -0.73099,0 -0.87977,0.71805 -0.86683,1.3326 z"
   inkscape:connector-curvature="0"
   style="fill:#000000;stroke-width:0" />
<path
   id="path6097"
   d="m 361.09659,509.73252 -0.90564,-0.14878 v -0.14878 l 0.22641,-0.0323 c 0.15525,-0.0194 0.1876,-0.0517 0.1876,-0.26523 v -1.86951 c 0,-0.29758 -0.0259,-0.31051 -0.43989,-0.34286 v -0.16821 h 1.56548 v 0.16818 c -0.53045,0.0323 -0.56279,0.0453 -0.56279,0.34286 v 1.39081 c 0,0.4593 0.20053,0.60808 0.33637,0.60808 0.0906,0 0.19407,-0.0323 0.36873,-0.12938 0.0388,-0.0194 0.0841,-0.0259 0.11644,-0.0259 0.14232,0 0.2717,0.14878 0.2717,0.32992 0,0.12937 -0.0841,0.29109 -0.31698,0.29109 -0.21347,0 -0.38813,-0.12937 -0.77626,-0.47223 z"
   inkscape:connector-curvature="0"
   style="fill:#000000;stroke-width:0" />
<path
   id="path6099"
   d="m 363.5095,509.42202 h 0.72452 v 0.23935 h -0.72452 l -0.0194,0.6663 c -0.0194,0.56279 0.18759,0.62101 0.28463,0.62101 0.12291,0 0.25228,-0.0582 0.40107,-0.40754 0.0323,-0.0582 0.0712,-0.097 0.16173,-0.097 0.11644,0 0.29109,0.097 0.29109,0.27816 0,0.19407 -0.25228,0.43342 -0.72452,0.43342 -0.32344,0 -0.60807,-0.14879 -0.75039,-0.3752 -0.13584,-0.207 -0.20054,-0.52399 -0.20054,-0.91212 v -0.207 h -0.45282 v -0.23935 h 0.45282 v -2.15415 c 0,-0.29758 -0.0129,-0.31051 -0.43988,-0.34286 v -0.16818 h 1.56548 v 0.16818 c -0.54339,0.0259 -0.56927,0.0388 -0.56927,0.34286 z"
   inkscape:connector-curvature="0"
   style="fill:#000000;stroke-width:0" />
<path
   id="path6101"
   d="m 366.78278,508.94332 -0.007,0.0647 0,0.0323 0,0.0323 -0.007,0.0388 0,0.0323 -0.007,0.0323 -0.007,0.0324 -0.013,0.0388 -0.007,0.0323 -0.013,0.0323 -0.0129,0.0323 -0.0194,0.0323 -0.0194,0.0324 -0.0194,0.0259 -0.0259,0.0323 -0.0259,0.0259 -0.0259,0.0259 -0.0323,0.0323 -0.0323,0.0194 -0.0388,0.0259 -0.0194,0.013 -0.0258,0.007 -0.0194,0.0129 -0.0194,0.007 -0.0259,0.013 -0.0259,0.007 -0.0259,0.013 -0.0259,0.007 -0.0258,0.007 -0.0259,0.007 -0.0323,0.007 -0.0323,0.007 -0.0259,0.007 -0.0388,0.007 -0.0323,0.007 -0.0323,0 -0.0388,0.007 -0.0323,0 -0.0388,0 -0.0388,0.007 -0.0388,0 -0.0453,0 c -0.6663,0 -1.19675,-0.34932 -1.19675,-0.67924 0,-0.18759 0.21994,-0.27816 0.33639,-0.27816 0.1229,0 0.15525,0.0647 0.18759,0.16819 0.12938,0.43989 0.3752,0.58221 0.60808,0.58221 0.23288,0 0.50457,-0.12291 0.50457,-0.59515 v -0.24581 -0.24582 -0.8345 c 0,-0.4787 -0.36873,-0.60807 -0.59514,-0.60807 -0.36873,0 -0.54985,0.26522 -0.54985,0.61454 0,0.27817 0.12937,0.42049 0.46576,0.5434 0.23288,0.0906 0.54985,0.20053 0.67923,0.28463 v 0.24582 c -0.14878,-0.15526 -0.72452,-0.30404 -1.19027,-0.45283 -0.42696,-0.12938 -0.54987,-0.42695 -0.54987,-0.70511 0,-0.44635 0.29758,-0.84096 0.8539,-0.84096 0.36226,0.0129 0.69218,0.23289 0.87977,0.35579 0.0841,-0.21994 0.18114,-0.35579 0.38814,-0.35579 0.21994,0 0.47223,0.0647 0.69864,0.17466 l -0.0388,0.14231 c -0.0776,-0.0194 -0.207,-0.0259 -0.29756,-0.007 -0.10998,0.0259 -0.20701,0.13584 -0.20701,0.51104 z"
   inkscape:connector-curvature="0"
   style="fill:#000000;stroke-width:0" />
<path
   id="path6103"
   d="m 369.09218,506.9897 -0.0323,0 -0.0323,0.007 -0.0323,0 -0.0259,0.007 -0.0323,0 -0.0323,0.007 -0.0258,0.007 -0.0259,0.007 -0.0518,0.0194 -0.0517,0.0194 -0.0453,0.0259 -0.0453,0.0324 -0.0453,0.0259 -0.0388,0.0323 -0.0323,0.0388 -0.0388,0.0388 -0.0323,0.0388 -0.0259,0.0453 -0.0258,0.0453 -0.0259,0.0453 -0.0259,0.0453 -0.0194,0.0517 -0.0194,0.0518 -0.0194,0.0517 -0.0129,0.0517 -0.0194,0.0582 -0.007,0.0517 -0.013,0.0582 -0.0129,0.0517 -0.007,0.0582 -0.007,0.0518 0,0.0582 -0.007,0.0517 0,0.0582 -0.007,0.0517 0,0.0517 c 0,0.88624 0.34932,1.24203 0.76333,1.24203 0.2717,0 0.43989,-0.20053 0.5628,-0.51751 0.0323,-0.097 0.0712,-0.15526 0.18113,-0.15526 0.11644,0 0.34932,0.0776 0.34932,0.30404 0,0.2717 -0.38814,0.57573 -1.02856,0.57573 -1.08031,0 -1.44257,-0.76333 -1.44257,-1.55254 0,-0.98974 0.48517,-1.49432 1.37788,-1.49432 0.41402,0 0.97034,0.21995 1.13854,0.8539 l -0.17467,0.0841 c -0.18112,-0.42048 -0.42047,-0.63395 -0.8539,-0.63395 z"
   inkscape:connector-curvature="0"
   style="fill:#000000;stroke-width:0" />
<path
   id="path6105"
   d="m 372.86356,508.31583 0.0129,0 0.013,0 0.007,0 0.013,0 0.013,0 0.0129,0 0.007,0.007 0.013,0 0.007,0 0.013,0.007 0.013,0 0.007,0.007 0.007,0 0.013,0.007 0.007,0.007 0.0129,0.007 0.007,0.007 0.007,0.007 0.007,0.007 0.007,0.007 0.007,0.013 0.007,0.007 0.007,0.013 0.007,0.007 0,0.013 0.007,0.007 0,0.007 0,0.007 0,0.007 0.007,0.007 0,0.007 0,0.013 0,0.007 0,0.007 0,0.007 0,0.013 0.007,0.007 0,0.007 0,0.0129 c 0,0.34932 -0.11644,1.19028 -1.20322,1.19028 l -0.0323,-0.207 c 0.54986,0 0.61455,-0.5628 0.61455,-0.79568 0,-0.10997 -0.0323,-0.1876 -0.20054,-0.1876 h -1.11912 c 0,0.23935 0.0906,0.98328 0.70511,0.98328 l 0.0323,0.207 c -0.91858,0 -1.35847,-0.65983 -1.35847,-1.54607 0,-0.93799 0.40107,-1.51372 1.36494,-1.50079 0.65984,0.007 0.99622,0.36873 1.15794,0.8345 l -0.17466,0.097 c -0.16819,-0.34932 -0.3946,-0.63396 -0.86037,-0.63396 -0.73745,0 -0.88624,0.71805 -0.8733,1.3326 z"
   inkscape:connector-curvature="0"
   style="fill:#000000;stroke-width:0" />
<path
   id="path6107"
   d="m 389.33714,470.97429 0.04,-0.03 0.04,-0.04 0.04,-0.03 0.05,-0.03 0.05,-0.03 0.04,-0.03 0.05,-0.03 0.05,-0.02 0.06,-0.03 0.05,-0.02 0.06,-0.03 0.05,-0.02 0.06,-0.02 0.06,-0.02 0.12,-0.04 0.12,-0.03 0.12,-0.03 0.13,-0.02 0.12,-0.02 0.13,-0.01 0.12,-0.01 0.13,-0.01 0.12,0 c 1.62,0 2.26,0.93 2.26,1.86 0,1.08 -0.73,1.59 -1.8,1.99 l -0.3,0.11 c -0.61,0.23 -1.12,0.62 -1.12,1.17 0,0.67 0.4,1.17 1.17,1.17 0.79,0 1.23,-0.45 1.37,-1.38 h 0.29 v 1.29 c -0.31,0.25 -0.94,0.41 -1.56,0.41 -1.12,0 -2.11,-0.56 -2.11,-1.77 0,-0.96 0.77,-1.47 1.73,-1.81 l 0.17,-0.06 c 0.4,-0.16 1.27,-0.58 1.27,-1.39 0,-0.79 -0.5,-1.27 -1.32,-1.27 -0.86,0 -1.43,0.67 -1.66,1.7 h -0.29 z"
   inkscape:connector-curvature="0"
   style="fill:#000000;stroke-width:0" />
<path
   id="path6109"
   d="m 396.27714,475.16429 -0.14,0 -0.13,-0.01 -0.13,-0.01 -0.12,-0.02 -0.12,-0.02 -0.11,-0.03 -0.11,-0.03 -0.1,-0.04 -0.1,-0.04 -0.1,-0.05 -0.09,-0.05 -0.09,-0.05 -0.08,-0.07 -0.08,-0.06 -0.08,-0.07 -0.07,-0.07 -0.06,-0.08 -0.07,-0.08 -0.05,-0.09 -0.06,-0.09 -0.05,-0.09 -0.04,-0.1 -0.04,-0.11 -0.04,-0.1 -0.03,-0.11 -0.03,-0.12 -0.02,-0.12 -0.02,-0.12 -0.01,-0.13 -0.01,-0.13 -0.01,-0.13 0,-0.14 c 0,-1.48 0.72,-2.35 2.19,-2.35 v 0.32 c -0.84,0 -1.24,0.77 -1.24,2.03 h 0 c 0,1.27 0.4,2.04 1.24,2.04 0.85,0 1.24,-0.77 1.24,-2.04 0,-1.26 -0.39,-2.03 -1.24,-2.03 v -0.32 c 1.48,0 2.2,0.87 2.2,2.35 0,1.49 -0.72,2.36 -2.2,2.36 z"
   inkscape:connector-curvature="0"
   style="fill:#000000;stroke-width:0" />
<path
   id="path6111"
   d="m 400.66714,477.30429 -0.06,0.06 -1.44,-0.23 v -0.23 l 0.35,-0.04 c 0.24,-0.02 0.29,-0.07 0.29,-0.42 v -5.08 c 0,-0.47 -0.03,-0.49 -0.69,-0.54 v -0.26 h 2.24 v 0.26 c -0.65,0.05 -0.69,0.07 -0.69,0.54 z"
   inkscape:connector-curvature="0"
   style="fill:#000000;stroke-width:0" />
<path
   id="path6113"
   d="m 401.83714,474.93429 v -0.23 l 0.34,-0.04 c 0.24,-0.04 0.3,-0.09 0.3,-0.42 v -2.88 c 0,-0.47 -0.03,-0.49 -0.69,-0.54 v -0.26 h 2.24 v 0.26 c -0.65,0.05 -0.69,0.07 -0.69,0.54 v 3.74 l -0.06,0.06 z"
   inkscape:connector-curvature="0"
   style="fill:#000000;stroke-width:0" />
<path
   id="path6115"
   d="m 402.89714,477.11429 -0.03,0 -0.03,0 -0.03,-0.01 -0.03,0 -0.03,-0.01 -0.02,0 -0.03,-0.01 -0.03,-0.01 -0.02,-0.01 -0.03,-0.01 -0.02,-0.02 -0.02,-0.01 -0.02,-0.02 -0.02,-0.01 -0.02,-0.02 -0.02,-0.02 -0.02,-0.02 -0.02,-0.02 -0.01,-0.02 -0.02,-0.02 -0.01,-0.03 -0.02,-0.02 -0.01,-0.02 -0.01,-0.03 -0.01,-0.03 -0.01,-0.02 0,-0.03 -0.01,-0.03 0,-0.03 -0.01,-0.03 0,-0.03 0,-0.03 c 0,-0.32 0.23,-0.55 0.56,-0.55 0.34,0 0.55,0.23 0.56,0.55 0,0.33 -0.22,0.57 -0.56,0.57 z"
   inkscape:connector-curvature="0"
   style="fill:#000000;stroke-width:0" />
<path
   id="path6117"
   d="m 409.49714,470.56429 v 0.26 c -0.65,0.05 -0.68,0.07 -0.68,0.54 v 5.94 l -0.07,0.06 -1.44,-0.23 v -0.23 l 0.35,-0.04 c 0.24,-0.02 0.3,-0.07 0.3,-0.42 v -1.5 c -0.26,0.14 -0.6,0.22 -1.02,0.22 l -0.01,-0.32 c 0.43,0 0.78,-0.2 0.94,-0.58 0.08,-0.15 0.09,-0.28 0.09,-0.53 v -1.61 c 0,-0.21 -0.01,-0.36 -0.07,-0.52 -0.18,-0.47 -0.59,-0.66 -1.06,-0.66 -0.85,0 -1.27,0.83 -1.27,1.88 0,1.19 0.43,2.02 1.37,2.02 l 0.01,0.32 c -0.75,0 -1.31,-0.24 -1.7,-0.63 -0.39,-0.42 -0.63,-1.02 -0.63,-1.82 0,-1.35 0.71,-2.26 1.91,-2.26 0.5,0 0.93,0.22 1.43,0.62 v -0.45 l 0.07,-0.06 z"
   inkscape:connector-curvature="0"
   style="fill:#000000;stroke-width:0" />
<path
   id="path6119"
   d="m 386.91857,576.78714 0,0.04 0,0.05 0,0.04 0,0.04 0,0.03 0,0.04 0.01,0.03 0,0.03 0.01,0.03 0.01,0.02 0.01,0.02 0.01,0.02 0.01,0.02 0.02,0.02 0.02,0.02 0.02,0.01 0.02,0.02 0.02,0.01 0.03,0.01 0.02,0 0.01,0.01 0.02,0 0.02,0.01 0.01,0 0.02,0.01 0.02,0 0.02,0 0.03,0.01 0.02,0 0.02,0 0.03,0.01 0.02,0 0.03,0 0.03,0.01 0.02,0 0.03,0 0.03,0 0.03,0.01 0.04,0 0.03,0 0.04,0 0.03,0.01 0.04,0 0.04,0 0.04,0 v 0.27 h -2.62 v -0.27 c 0.81,-0.05 0.83,-0.07 0.83,-0.58 v -4.64 c 0,-0.51 -0.02,-0.53 -0.83,-0.59 v -0.26 h 4.76 l 0.11,1.64 h -0.27 c -0.19,-1.2 -0.69,-1.32 -1.65,-1.32 -0.46,0 -0.79,0.02 -0.99,0.09 -0.19,0.08 -0.22,0.24 -0.22,0.69 z"
   inkscape:connector-curvature="0"
   style="fill:#000000;stroke-width:0" />
<path
   id="path6121"
   d="m 390.40857,575.66714 v -0.23 l 0.34,-0.05 c 0.24,-0.03 0.3,-0.08 0.3,-0.41 v -2.89 c 0,-0.46 -0.03,-0.48 -0.69,-0.53 v -0.26 h 2.24 v 0.26 c -0.65,0.05 -0.69,0.07 -0.69,0.53 v 3.75 l -0.06,0.06 z"
   inkscape:connector-curvature="0"
   style="fill:#000000;stroke-width:0" />
<path
   id="path6123"
   d="m 391.46857,577.84714 -0.03,0 -0.03,0 -0.03,-0.01 -0.03,0 -0.03,-0.01 -0.02,0 -0.03,-0.01 -0.03,-0.01 -0.02,-0.01 -0.03,-0.01 -0.02,-0.02 -0.02,-0.01 -0.02,-0.02 -0.02,-0.01 -0.02,-0.02 -0.02,-0.02 -0.02,-0.02 -0.02,-0.02 -0.01,-0.02 -0.02,-0.02 -0.01,-0.03 -0.02,-0.02 -0.01,-0.02 -0.01,-0.03 -0.01,-0.03 -0.01,-0.02 0,-0.03 -0.01,-0.03 0,-0.03 -0.01,-0.03 0,-0.03 0,-0.03 c 0,-0.32 0.23,-0.55 0.56,-0.55 0.34,0 0.55,0.23 0.56,0.55 0,0.33 -0.22,0.57 -0.56,0.57 z"
   inkscape:connector-curvature="0"
   style="fill:#000000;stroke-width:0" />
<path
   id="path6125"
   d="m 397.39857,575.89714 h -0.25 l -0.39,-0.28 c -0.35,0.19 -0.82,0.28 -1.21,0.28 l -0.07,-0.32 c 0.47,0 0.81,-0.17 0.99,-0.63 0.05,-0.15 0.07,-0.32 0.07,-0.54 v -1.54 c 0,-0.21 -0.01,-0.36 -0.07,-0.51 -0.17,-0.48 -0.52,-0.68 -1.02,-0.68 -0.91,0 -1.3,0.84 -1.3,1.87 0,1.13 0.39,2.03 1.33,2.03 l 0.07,0.32 c -0.73,0 -1.31,-0.22 -1.71,-0.63 -0.41,-0.42 -0.65,-1.01 -0.65,-1.84 0,-1.46 0.8,-2.24 1.91,-2.24 0.51,0 0.96,0.25 1.44,0.59 v -1.79 c 0,-0.47 -0.05,-0.49 -0.73,-0.54 v -0.26 h 2.28 v 0.26 c -0.63,0.05 -0.69,0.07 -0.69,0.54 z"
   inkscape:connector-curvature="0"
   style="fill:#000000;stroke-width:0" />
<path
   id="path6127"
   d="m 403.57857,571.29714 v 0.26 c -0.64,0.05 -0.69,0.07 -0.69,0.53 v 3.75 l -0.06,0.06 -1.44,-0.23 v -0.23 l 0.34,-0.05 c 0.24,-0.03 0.3,-0.08 0.3,-0.41 v -2.06 c 0,-0.26 -0.03,-0.46 -0.08,-0.55 -0.21,-0.42 -0.65,-0.69 -1.12,-0.69 -0.53,0 -0.93,0.33 -0.93,1.05 v 3.11 l -0.06,0.06 -1.44,-0.23 v -0.23 l 0.35,-0.05 c 0.23,-0.03 0.29,-0.08 0.29,-0.41 v -2.42 c 0,-1.05 0.62,-1.37 1.3,-1.37 0.78,0 1.41,0.53 1.68,0.66 l 0.09,-0.55 z"
   inkscape:connector-curvature="0"
   style="fill:#000000;stroke-width:0" />
<path
   id="path6129"
   d="m 404.05857,575.66714 v -0.23 l 0.35,-0.05 c 0.24,-0.03 0.3,-0.08 0.3,-0.41 v -2.89 c 0,-0.46 -0.03,-0.48 -0.69,-0.53 v -0.26 h 2.23 v 0.26 c -0.65,0.05 -0.68,0.07 -0.68,0.53 v 3.75 l -0.07,0.06 z"
   inkscape:connector-curvature="0"
   style="fill:#000000;stroke-width:0" />
<path
   id="path6131"
   d="m 405.12857,577.84714 -0.03,0 -0.03,0 -0.03,-0.01 -0.03,0 -0.03,-0.01 -0.03,0 -0.02,-0.01 -0.03,-0.01 -0.02,-0.01 -0.03,-0.01 -0.02,-0.02 -0.02,-0.01 -0.03,-0.02 -0.02,-0.01 -0.02,-0.02 -0.02,-0.02 -0.01,-0.02 -0.02,-0.02 -0.02,-0.02 -0.01,-0.02 -0.02,-0.03 -0.01,-0.02 -0.01,-0.02 -0.01,-0.03 -0.01,-0.03 -0.01,-0.02 -0.01,-0.03 0,-0.03 -0.01,-0.03 0,-0.03 0,-0.03 0,-0.03 c 0,-0.32 0.23,-0.55 0.56,-0.55 0.34,0 0.55,0.23 0.56,0.55 0,0.33 -0.22,0.57 -0.56,0.57 z"
   inkscape:connector-curvature="0"
   style="fill:#000000;stroke-width:0" />
<path
   id="path6133"
   d="m 411.73857,571.29714 v 0.26 c -0.65,0.05 -0.69,0.07 -0.69,0.53 v 5.95 l -0.06,0.06 -1.44,-0.23 v -0.23 l 0.35,-0.04 c 0.24,-0.02 0.29,-0.07 0.29,-0.42 v -1.5 c -0.26,0.14 -0.6,0.22 -1.02,0.22 l -0.01,-0.32 c 0.43,0 0.78,-0.2 0.95,-0.58 0.07,-0.16 0.08,-0.28 0.08,-0.53 v -1.61 c 0,-0.21 -0.01,-0.36 -0.06,-0.52 -0.19,-0.47 -0.59,-0.66 -1.07,-0.66 -0.84,0 -1.26,0.83 -1.26,1.88 0,1.19 0.43,2.02 1.36,2.02 l 0.01,0.32 c -0.75,0 -1.31,-0.24 -1.69,-0.63 -0.4,-0.42 -0.64,-1.02 -0.64,-1.82 0,-1.36 0.71,-2.26 1.92,-2.26 0.49,0 0.93,0.22 1.42,0.62 v -0.45 l 0.07,-0.06 z"
   inkscape:connector-curvature="0"
   style="fill:#000000;stroke-width:0" />
<path
   id="path6135"
   d="m 588.16347,458.50715 -0.04,0.02 -0.04,0.02 -0.04,0.01 -0.04,0.02 -0.05,0.02 -0.05,0.01 -0.05,0.02 -0.05,0.02 -0.05,0.01 -0.05,0.02 -0.11,0.03 -0.12,0.03 -0.12,0.02 -0.13,0.02 -0.13,0.03 -0.13,0.01 -0.14,0.02 -0.15,0.01 -0.14,0.01 -0.15,0.01 -0.16,0 c -1.13,0 -2.03,-0.33 -2.58,-0.95 -0.53,-0.58 -0.84,-1.37 -0.84,-2.41 0,-1.07 0.32,-1.93 0.87,-2.48 0.57,-0.57 1.47,-0.78 2.5,-0.78 0.73,0 1.57,0.2 2.01,0.44 l 0.13,1.53 h -0.27 c -0.26,-0.95 -0.73,-1.65 -1.93,-1.65 -1.89,0 -2.28,1.86 -2.28,2.97 0,1.5 0.59,3.02 2.3,3.01 0.93,0 1.59,-0.39 1.76,-1.47 h 0.27 z"
   inkscape:connector-curvature="0"
   style="fill:#000000;stroke-width:0" />
<path
   id="path6137"
   d="m 591.16347,456.98715 -0.14,0 -0.13,-0.01 -0.12,-0.01 -0.13,-0.02 -0.11,-0.02 -0.12,-0.03 -0.11,-0.03 -0.1,-0.04 -0.1,-0.04 -0.1,-0.05 -0.09,-0.05 -0.09,-0.05 -0.08,-0.06 -0.08,-0.07 -0.08,-0.07 -0.07,-0.07 -0.06,-0.08 -0.06,-0.08 -0.06,-0.09 -0.05,-0.09 -0.05,-0.09 -0.05,-0.1 -0.04,-0.11 -0.03,-0.1 -0.04,-0.11 -0.02,-0.12 -0.03,-0.12 -0.02,-0.12 -0.01,-0.13 -0.01,-0.13 -0.01,-0.13 0,-0.14 c 0,-1.48 0.72,-2.35 2.19,-2.35 v 0.32 c -0.83,0 -1.24,0.77 -1.24,2.03 h 0 c 0,1.27 0.41,2.04 1.24,2.04 0.85,0 1.25,-0.77 1.25,-2.04 0,-1.26 -0.4,-2.03 -1.25,-2.03 v -0.32 c 1.48,0 2.2,0.87 2.2,2.35 0,1.49 -0.72,2.36 -2.2,2.36 z"
   inkscape:connector-curvature="0"
   style="fill:#000000;stroke-width:0" />
<path
   id="path6139"
   d="m 594.15347,456.75715 v -0.23 l 0.35,-0.04 c 0.23,-0.04 0.29,-0.09 0.29,-0.42 v -2.88 c 0,-0.47 -0.03,-0.49 -0.69,-0.54 v -0.26 h 2.24 v 0.26 c -0.65,0.05 -0.69,0.07 -0.69,0.54 v 2.14 c 0,0.23 0.01,0.36 0.07,0.49 0.18,0.36 0.58,0.67 1.09,0.67 0.78,0 0.88,-0.57 0.88,-1.14 v -2.16 c 0,-0.47 -0.03,-0.49 -0.69,-0.54 v -0.26 h 2.23 v 0.26 c -0.65,0.05 -0.68,0.07 -0.68,0.54 v 2.14 c 0,0.23 0.01,0.36 0.06,0.5 0.14,0.37 0.53,0.66 1.05,0.66 0.57,0.02 0.92,-0.35 0.92,-1.14 v -2.16 c 0,-0.47 -0.03,-0.49 -0.69,-0.54 v -0.26 h 2.24 v 0.26 c -0.65,0.05 -0.69,0.07 -0.69,0.54 v 2.34 c 0,0.93 -0.49,1.46 -1.36,1.46 -0.75,0 -1.3,-0.5 -1.62,-0.71 -0.22,0.43 -0.57,0.71 -1.21,0.71 -0.7,0 -1.28,-0.46 -1.6,-0.7 l -0.08,0.7 z"
   inkscape:connector-curvature="0"
   style="fill:#000000;stroke-width:0" />
<path
   id="path6141"
   d="m 602.54347,456.75715 v -0.23 l 0.35,-0.04 c 0.24,-0.04 0.29,-0.09 0.29,-0.42 v -4.99 c 0,-0.47 -0.04,-0.49 -0.68,-0.54 v -0.26 h 2.37 v 0.26 c -0.77,0.05 -0.82,0.07 -0.82,0.54 v 1.41 c 0.19,-0.11 0.62,-0.21 1.04,-0.21 l 0.01,0.32 c -0.48,0 -0.84,0.25 -0.99,0.67 -0.05,0.16 -0.06,0.35 -0.06,0.56 v 1.5 c 0,0.23 0.03,0.36 0.12,0.52 0.21,0.42 0.6,0.64 1.09,0.64 0.36,0 1.18,-0.23 1.18,-1.81 0,-1.35 -0.42,-2.08 -1.34,-2.08 l -0.01,-0.32 c 1.24,0 2.3,0.57 2.3,2.45 0,0.66 -0.12,2.26 -1.79,2.26 -0.66,0 -1.2,-0.45 -1.55,-0.68 l -0.12,0.68 z"
   inkscape:connector-curvature="0"
   style="fill:#000000;stroke-width:0" />
<path
   id="path6143"
   d="m 610.47347,456.98715 -0.13,0 -0.13,-0.01 -0.13,-0.01 -0.12,-0.02 -0.12,-0.02 -0.11,-0.03 -0.11,-0.03 -0.11,-0.04 -0.1,-0.04 -0.1,-0.05 -0.09,-0.05 -0.09,-0.05 -0.08,-0.06 -0.08,-0.07 -0.07,-0.07 -0.07,-0.07 -0.07,-0.08 -0.06,-0.08 -0.06,-0.09 -0.05,-0.09 -0.05,-0.09 -0.05,-0.1 -0.04,-0.11 -0.03,-0.1 -0.03,-0.11 -0.03,-0.12 -0.02,-0.12 -0.02,-0.12 -0.02,-0.13 -0.01,-0.13 -0.01,-0.13 0,-0.14 c 0,-1.48 0.73,-2.35 2.19,-2.35 v 0.32 c -0.83,0 -1.24,0.77 -1.24,2.03 h 0 c 0,1.27 0.41,2.04 1.24,2.04 0.86,0 1.25,-0.77 1.25,-2.04 0,-1.26 -0.39,-2.03 -1.25,-2.03 v -0.32 c 1.49,0 2.2,0.87 2.2,2.35 0,1.49 -0.71,2.36 -2.2,2.36 z"
   inkscape:connector-curvature="0"
   style="fill:#000000;stroke-width:0" />
<path
   id="path6145"
   d="m 616.49347,455.59715 v 1.08 c -0.3,0.22 -0.77,0.31 -1.18,0.31 -0.99,0 -1.66,-0.47 -1.67,-1.34 0.01,-0.76 0.62,-1.1 1.39,-1.33 0.41,-0.13 0.98,-0.34 0.98,-0.96 0,-0.47 -0.36,-0.76 -0.85,-0.76 -0.74,0 -1.15,0.54 -1.34,1.32 h -0.26 l 0.09,-1.2 c 0.33,-0.3 0.89,-0.44 1.43,-0.44 1.09,0 1.71,0.57 1.71,1.35 0,0.81 -0.49,1.18 -1.44,1.47 -0.37,0.12 -0.98,0.31 -0.98,0.83 0.01,0.47 0.37,0.74 0.83,0.74 0.65,0 0.96,-0.51 1.03,-1.07 z"
   inkscape:connector-curvature="0"
   style="fill:#000000;stroke-width:0" />
<path
   id="path6147"
   d="m 617.46347,456.75715 v -0.23 l 0.35,-0.04 c 0.23,-0.04 0.29,-0.09 0.29,-0.42 v -2.88 c 0,-0.47 -0.03,-0.49 -0.69,-0.54 v -0.26 h 2.24 v 0.26 c -0.65,0.05 -0.69,0.07 -0.69,0.54 v 3.74 l -0.06,0.06 z"
   inkscape:connector-curvature="0"
   style="fill:#000000;stroke-width:0" />
<path
   id="path6149"
   d="m 618.52347,458.93715 -0.03,0 -0.03,0 -0.03,-0.01 -0.03,0 -0.03,-0.01 -0.02,0 -0.03,-0.01 -0.03,-0.01 -0.02,-0.01 -0.03,-0.01 -0.02,-0.02 -0.02,-0.01 -0.02,-0.02 -0.02,-0.01 -0.02,-0.02 -0.02,-0.02 -0.02,-0.02 -0.02,-0.02 -0.01,-0.02 -0.02,-0.02 -0.01,-0.03 -0.02,-0.02 -0.01,-0.02 -0.01,-0.03 -0.01,-0.03 -0.01,-0.02 0,-0.03 -0.01,-0.03 0,-0.03 -0.01,-0.03 0,-0.03 0,-0.03 c 0,-0.32 0.23,-0.55 0.56,-0.55 0.34,0 0.55,0.23 0.56,0.55 0,0.33 -0.22,0.57 -0.56,0.57 z"
   inkscape:connector-curvature="0"
   style="fill:#000000;stroke-width:0" />
<path
   id="path6151"
   d="m 622.78347,456.50715 v 0.37 h -1.18 v 1.15 h -0.27 l -0.55,-1.15 h -0.7 v -0.37 h 0.66 v -3.19 c 0,-0.93 0.7,-1.04 1.02,-1.04 0.46,0 0.9,0.24 1.17,0.4 l -0.07,0.19 c -0.22,-0.09 -0.42,-0.12 -0.65,-0.12 -0.32,0 -0.61,0.22 -0.61,0.92 v 2.84 z"
   inkscape:connector-curvature="0"
   style="fill:#000000;stroke-width:0" />
<path
   id="path6153"
   d="m 623.28347,456.75715 v -0.23 l 0.35,-0.04 c 0.23,-0.04 0.29,-0.09 0.29,-0.42 v -2.88 c 0,-0.47 -0.03,-0.49 -0.69,-0.54 v -0.26 h 2.24 v 0.26 c -0.65,0.05 -0.69,0.07 -0.69,0.54 v 3.74 l -0.06,0.06 z"
   inkscape:connector-curvature="0"
   style="fill:#000000;stroke-width:0" />
<path
   id="path6155"
   d="m 624.34347,458.93715 -0.03,0 -0.03,0 -0.03,-0.01 -0.03,0 -0.03,-0.01 -0.02,0 -0.03,-0.01 -0.03,-0.01 -0.02,-0.01 -0.03,-0.01 -0.02,-0.02 -0.02,-0.01 -0.02,-0.02 -0.02,-0.01 -0.02,-0.02 -0.02,-0.02 -0.02,-0.02 -0.02,-0.02 -0.01,-0.02 -0.02,-0.02 -0.01,-0.03 -0.02,-0.02 -0.01,-0.02 -0.01,-0.03 -0.01,-0.03 -0.01,-0.02 0,-0.03 -0.01,-0.03 0,-0.03 -0.01,-0.03 0,-0.03 0,-0.03 c 0,-0.32 0.23,-0.55 0.56,-0.55 0.34,0 0.55,0.23 0.56,0.55 0,0.33 -0.22,0.57 -0.56,0.57 z"
   inkscape:connector-curvature="0"
   style="fill:#000000;stroke-width:0" />
<path
   id="path6157"
   d="m 628.25347,456.98715 -0.14,0 -0.13,-0.01 -0.13,-0.01 -0.12,-0.02 -0.12,-0.02 -0.11,-0.03 -0.11,-0.03 -0.1,-0.04 -0.1,-0.04 -0.1,-0.05 -0.09,-0.05 -0.09,-0.05 -0.08,-0.06 -0.08,-0.07 -0.08,-0.07 -0.07,-0.07 -0.06,-0.08 -0.07,-0.08 -0.05,-0.09 -0.06,-0.09 -0.05,-0.09 -0.04,-0.1 -0.04,-0.11 -0.04,-0.1 -0.03,-0.11 -0.03,-0.12 -0.02,-0.12 -0.02,-0.12 -0.01,-0.13 -0.01,-0.13 -0.01,-0.13 0,-0.14 c 0,-1.48 0.72,-2.35 2.19,-2.35 v 0.32 c -0.84,0 -1.24,0.77 -1.24,2.03 h 0 c 0,1.27 0.4,2.04 1.24,2.04 0.85,0 1.24,-0.77 1.24,-2.04 0,-1.26 -0.39,-2.03 -1.24,-2.03 v -0.32 c 1.48,0 2.2,0.87 2.2,2.35 0,1.49 -0.72,2.36 -2.2,2.36 z"
   inkscape:connector-curvature="0"
   style="fill:#000000;stroke-width:0" />
<path
   id="path6159"
   d="m 635.75347,455.52715 0,0.09 0,0.08 -0.01,0.08 -0.01,0.08 -0.02,0.08 -0.01,0.07 -0.02,0.07 -0.02,0.07 -0.02,0.07 -0.03,0.06 -0.03,0.06 -0.03,0.06 -0.04,0.06 -0.03,0.05 -0.04,0.05 -0.05,0.05 -0.04,0.04 -0.05,0.05 -0.05,0.03 -0.05,0.04 -0.05,0.04 -0.06,0.03 -0.06,0.03 -0.06,0.02 -0.06,0.02 -0.07,0.02 -0.07,0.02 -0.07,0.01 -0.07,0.02 -0.07,0 -0.08,0.01 -0.08,0 c -0.67,0 -1.1,-0.33 -1.66,-0.7 l -0.13,0.7 -1.37,-0.23 v -0.23 l 0.35,-0.04 c 0.24,-0.04 0.29,-0.09 0.29,-0.42 v -2.88 c 0,-0.47 -0.02,-0.49 -0.68,-0.54 v -0.26 h 2.23 v 0.26 c -0.65,0.05 -0.68,0.07 -0.68,0.54 v 2.14 c 0,0.23 0.01,0.36 0.09,0.5 0.19,0.36 0.6,0.66 1.09,0.66 0.62,0 0.96,-0.35 0.96,-1.14 v -2.16 c 0,-0.47 -0.03,-0.49 -0.69,-0.54 v -0.26 h 2.24 v 0.26 c -0.65,0.05 -0.69,0.07 -0.69,0.54 z"
   inkscape:connector-curvature="0"
   style="fill:#000000;stroke-width:0" />
<path
   id="path6161"
   d="m 412.99,609.29142 h 0.52 c 0.42,0 0.83,0.04 1.17,0.12 0.71,0.18 1.51,0.68 1.51,1.82 0,0.7 -0.3,1.18 -0.71,1.43 -0.44,0.28 -1.03,0.37 -1.67,0.37 l -0.13,-0.32 c 0.95,0 1.52,-0.54 1.52,-1.54 0,-1.15 -0.75,-1.56 -1.54,-1.56 -0.54,0 -0.67,0.02 -0.67,0.36 v 2.4 c 0,0.26 0.1,0.34 0.69,0.34 l 0.13,0.32 h -2.56 v -0.27 c 0.81,-0.05 0.83,-0.07 0.83,-0.58 v -4.64 c 0,-0.51 -0.02,-0.53 -0.83,-0.59 v -0.26 h 2.71 v 0.26 c -0.95,0.06 -0.97,0.08 -0.97,0.59 z"
   inkscape:connector-curvature="0"
   style="fill:#000000;stroke-width:0" />
<path
   id="path6163"
   d="m 418.8,611.29142 -0.14,0 -0.13,-0.01 -0.12,-0.01 -0.13,-0.02 -0.11,-0.02 -0.12,-0.03 -0.11,-0.03 -0.1,-0.04 -0.1,-0.04 -0.1,-0.05 -0.09,-0.05 -0.09,-0.05 -0.08,-0.07 -0.08,-0.06 -0.08,-0.07 -0.07,-0.07 -0.06,-0.08 -0.06,-0.08 -0.06,-0.09 -0.05,-0.09 -0.05,-0.09 -0.05,-0.1 -0.04,-0.11 -0.03,-0.1 -0.04,-0.11 -0.02,-0.12 -0.03,-0.12 -0.02,-0.12 -0.01,-0.13 -0.01,-0.13 -0.01,-0.13 0,-0.14 c 0,-1.48 0.72,-2.35 2.19,-2.35 v 0.32 c -0.83,0 -1.24,0.77 -1.24,2.03 h 0 c 0,1.27 0.41,2.04 1.24,2.04 0.85,0 1.25,-0.77 1.25,-2.04 0,-1.26 -0.4,-2.03 -1.25,-2.03 v -0.32 c 1.49,0 2.2,0.87 2.2,2.35 0,1.49 -0.71,2.36 -2.2,2.36 z"
   inkscape:connector-curvature="0"
   style="fill:#000000;stroke-width:0" />
<path
   id="path6165"
   d="m 424.81,609.91142 v 1.07 c -0.3,0.22 -0.77,0.31 -1.18,0.31 -0.99,0 -1.66,-0.47 -1.67,-1.34 0.01,-0.76 0.62,-1.1 1.39,-1.33 0.41,-0.13 0.99,-0.34 0.99,-0.96 0,-0.47 -0.37,-0.76 -0.86,-0.76 -0.74,0 -1.15,0.54 -1.34,1.32 h -0.26 l 0.09,-1.2 c 0.33,-0.3 0.89,-0.44 1.43,-0.44 1.09,0 1.71,0.58 1.71,1.35 0,0.81 -0.49,1.18 -1.43,1.47 -0.38,0.12 -0.99,0.31 -0.99,0.83 0.01,0.47 0.37,0.74 0.83,0.74 0.65,0 0.96,-0.51 1.02,-1.06 z"
   inkscape:connector-curvature="0"
   style="fill:#000000;stroke-width:0" />
<path
   id="path6167"
   d="m 425.78,611.06142 v -0.23 l 0.35,-0.04 c 0.23,-0.04 0.29,-0.09 0.29,-0.42 v -2.89 c 0,-0.46 -0.03,-0.48 -0.69,-0.53 v -0.26 h 2.24 v 0.26 c -0.65,0.05 -0.69,0.07 -0.69,0.53 v 3.75 l -0.06,0.06 z"
   inkscape:connector-curvature="0"
   style="fill:#000000;stroke-width:0" />
<path
   id="path6169"
   d="m 426.84,613.24142 -0.03,0 -0.03,0 -0.03,-0.01 -0.03,0 -0.03,-0.01 -0.02,0 -0.03,-0.01 -0.03,-0.01 -0.02,-0.01 -0.03,-0.01 -0.02,-0.02 -0.02,-0.01 -0.02,-0.02 -0.02,-0.01 -0.02,-0.02 -0.02,-0.02 -0.02,-0.02 -0.02,-0.02 -0.01,-0.02 -0.02,-0.02 -0.01,-0.03 -0.02,-0.02 -0.01,-0.02 -0.01,-0.03 -0.01,-0.03 -0.01,-0.02 0,-0.03 -0.01,-0.03 0,-0.03 -0.01,-0.03 0,-0.03 0,-0.03 c 0,-0.32 0.23,-0.55 0.56,-0.55 0.34,0 0.55,0.23 0.56,0.55 0,0.33 -0.22,0.57 -0.56,0.57 z"
   inkscape:connector-curvature="0"
   style="fill:#000000;stroke-width:0" />
<path
   id="path6171"
   d="m 431.1,610.81142 v 0.37 h -1.19 v 1.15 h -0.26 l -0.56,-1.15 h -0.7 v -0.37 h 0.66 v -3.19 c 0,-0.93 0.7,-1.04 1.02,-1.04 0.47,0 0.91,0.24 1.17,0.4 l -0.07,0.19 c -0.22,-0.09 -0.42,-0.12 -0.65,-0.12 -0.31,0 -0.61,0.22 -0.61,0.92 v 2.84 z"
   inkscape:connector-curvature="0"
   style="fill:#000000;stroke-width:0" />
<path
   id="path6173"
   d="m 431.59,611.06142 v -0.23 l 0.35,-0.04 c 0.24,-0.04 0.29,-0.09 0.29,-0.42 v -2.89 c 0,-0.46 -0.03,-0.48 -0.69,-0.53 v -0.26 h 2.24 v 0.26 c -0.65,0.05 -0.69,0.07 -0.69,0.53 v 3.75 l -0.06,0.06 z"
   inkscape:connector-curvature="0"
   style="fill:#000000;stroke-width:0" />
<path
   id="path6175"
   d="m 432.65,613.24142 -0.03,0 -0.03,0 -0.03,-0.01 -0.03,0 -0.02,-0.01 -0.03,0 -0.03,-0.01 -0.02,-0.01 -0.03,-0.01 -0.02,-0.01 -0.03,-0.02 -0.02,-0.01 -0.02,-0.02 -0.02,-0.01 -0.02,-0.02 -0.02,-0.02 -0.02,-0.02 -0.02,-0.02 -0.01,-0.02 -0.02,-0.02 -0.01,-0.03 -0.01,-0.02 -0.02,-0.02 -0.01,-0.03 -0.01,-0.03 0,-0.02 -0.01,-0.03 -0.01,-0.03 0,-0.03 0,-0.03 -0.01,-0.03 0,-0.03 c 0,-0.32 0.23,-0.55 0.56,-0.55 0.34,0 0.55,0.23 0.56,0.55 0,0.33 -0.22,0.57 -0.56,0.57 z"
   inkscape:connector-curvature="0"
   style="fill:#000000;stroke-width:0" />
<path
   id="path6177"
   d="m 436.57,611.29142 -0.14,0 -0.13,-0.01 -0.13,-0.01 -0.12,-0.02 -0.12,-0.02 -0.11,-0.03 -0.11,-0.03 -0.1,-0.04 -0.1,-0.04 -0.1,-0.05 -0.09,-0.05 -0.09,-0.05 -0.08,-0.07 -0.08,-0.06 -0.08,-0.07 -0.07,-0.07 -0.06,-0.08 -0.07,-0.08 -0.05,-0.09 -0.06,-0.09 -0.05,-0.09 -0.04,-0.1 -0.04,-0.11 -0.04,-0.1 -0.03,-0.11 -0.03,-0.12 -0.02,-0.12 -0.02,-0.12 -0.01,-0.13 -0.01,-0.13 -0.01,-0.13 0,-0.14 c 0,-1.48 0.72,-2.35 2.19,-2.35 v 0.32 c -0.84,0 -1.24,0.77 -1.24,2.03 h 0 c 0,1.27 0.4,2.04 1.24,2.04 0.85,0 1.24,-0.77 1.24,-2.04 0,-1.26 -0.39,-2.03 -1.24,-2.03 v -0.32 c 1.48,0 2.2,0.87 2.2,2.35 0,1.49 -0.72,2.36 -2.2,2.36 z"
   inkscape:connector-curvature="0"
   style="fill:#000000;fill-opacity:1;stroke-width:0" />
<path
   id="path6179"
   d="m 444.06,609.83142 0,0.09 0,0.08 -0.01,0.08 -0.01,0.08 -0.01,0.08 -0.02,0.07 -0.02,0.07 -0.02,0.07 -0.02,0.07 -0.03,0.06 -0.03,0.06 -0.03,0.06 -0.03,0.06 -0.04,0.05 -0.04,0.05 -0.04,0.05 -0.05,0.04 -0.05,0.05 -0.04,0.03 -0.06,0.04 -0.05,0.04 -0.06,0.03 -0.06,0.03 -0.06,0.02 -0.06,0.02 -0.07,0.02 -0.06,0.02 -0.07,0.01 -0.08,0.02 -0.07,0 -0.08,0.01 -0.07,0 c -0.68,0 -1.1,-0.33 -1.67,-0.7 l -0.13,0.7 -1.37,-0.23 v -0.23 l 0.35,-0.04 c 0.24,-0.04 0.3,-0.09 0.3,-0.42 v -2.89 c 0,-0.46 -0.03,-0.48 -0.69,-0.53 v -0.26 h 2.23 v 0.26 c -0.65,0.05 -0.68,0.07 -0.68,0.53 v 2.15 c 0,0.23 0.02,0.36 0.09,0.5 0.19,0.36 0.6,0.66 1.09,0.66 0.62,0 0.96,-0.34 0.96,-1.14 v -2.17 c 0,-0.46 -0.02,-0.48 -0.69,-0.53 v -0.26 h 2.24 v 0.26 c -0.65,0.05 -0.69,0.07 -0.69,0.53 z"
   inkscape:connector-curvature="0"
   style="fill:#000000;stroke-width:0" />
<path
   id="path6181"
   d="m 402.05571,599.57571 h 1.12 v 0.36 h -1.12 l -0.03,1.03 c -0.03,0.87 0.29,0.96 0.44,0.96 0.19,0 0.39,-0.09 0.62,-0.62 0.05,-0.09 0.11,-0.16 0.25,-0.16 0.18,0 0.45,0.16 0.45,0.43 0,0.31 -0.39,0.67 -1.12,0.67 -0.5,0 -0.93,-0.23 -1.16,-0.57 -0.21,-0.32 -0.31,-0.81 -0.31,-1.42 v -0.32 h -0.7 v -0.36 h 0.7 v -3.33 c 0,-0.47 -0.02,-0.49 -0.68,-0.53 v -0.27 h 2.42 v 0.27 c -0.84,0.04 -0.88,0.05 -0.88,0.52 z"
   inkscape:connector-curvature="0"
   style="fill:#000000;stroke-width:0" />
<path
   id="path6183"
   d="m 404.86571,600.04571 -1.39,-0.23 v -0.23 l 0.35,-0.04 c 0.24,-0.04 0.29,-0.08 0.29,-0.41 v -2.89 c 0,-0.47 -0.04,-0.49 -0.69,-0.53 v -0.27 h 2.42 v 0.27 c -0.81,0.04 -0.87,0.06 -0.87,0.53 v 2.14 c 0,0.71 0.31,0.95 0.52,0.95 0.15,0 0.31,-0.06 0.57,-0.2 0.07,-0.04 0.14,-0.05 0.19,-0.05 0.22,0 0.42,0.23 0.42,0.52 0,0.2 -0.13,0.44 -0.49,0.44 -0.33,0 -0.6,-0.2 -1.21,-0.73 z"
   inkscape:connector-curvature="0"
   style="fill:#000000;stroke-width:0" />
<path
   id="path6185"
   d="m 409.28571,600.04571 -0.14,0 -0.13,-0.01 -0.12,-0.01 -0.13,-0.02 -0.11,-0.02 -0.12,-0.03 -0.11,-0.03 -0.1,-0.04 -0.1,-0.04 -0.1,-0.04 -0.09,-0.05 -0.09,-0.06 -0.08,-0.06 -0.08,-0.06 -0.08,-0.07 -0.07,-0.08 -0.06,-0.07 -0.06,-0.09 -0.06,-0.08 -0.05,-0.09 -0.05,-0.1 -0.05,-0.1 -0.04,-0.1 -0.03,-0.11 -0.04,-0.11 -0.02,-0.11 -0.03,-0.12 -0.02,-0.12 -0.01,-0.13 -0.01,-0.13 -0.01,-0.13 0,-0.14 c 0,-1.49 0.72,-2.36 2.19,-2.36 v 0.32 c -0.83,0 -1.24,0.77 -1.24,2.04 h 0 c 0,1.26 0.41,2.03 1.24,2.03 0.85,0 1.25,-0.77 1.25,-2.03 0,-1.27 -0.4,-2.04 -1.25,-2.04 v -0.32 c 1.49,0 2.2,0.87 2.2,2.36 0,1.48 -0.71,2.35 -2.2,2.35 z"
   inkscape:connector-curvature="0"
   style="fill:#000000;stroke-width:0" />
<path
   id="path6187"
   d="m 412.27571,599.81571 v -0.23 l 0.35,-0.04 c 0.23,-0.04 0.29,-0.08 0.29,-0.41 v -2.89 c 0,-0.47 -0.03,-0.49 -0.69,-0.53 v -0.27 h 2.24 v 0.27 c -0.65,0.04 -0.69,0.06 -0.69,0.53 v 2.14 c 0,0.23 0.01,0.36 0.07,0.49 0.18,0.37 0.58,0.68 1.09,0.68 0.78,0 0.87,-0.58 0.87,-1.15 v -2.16 c 0,-0.47 -0.02,-0.49 -0.68,-0.53 v -0.27 h 2.23 v 0.27 c -0.65,0.04 -0.68,0.06 -0.68,0.53 v 2.14 c 0,0.23 0.01,0.36 0.06,0.51 0.14,0.36 0.53,0.66 1.04,0.66 0.58,0.02 0.93,-0.35 0.93,-1.15 v -2.16 c 0,-0.47 -0.03,-0.49 -0.69,-0.53 v -0.27 h 2.24 v 0.27 c -0.65,0.04 -0.69,0.06 -0.69,0.53 v 2.35 c 0,0.92 -0.49,1.45 -1.36,1.45 -0.76,0 -1.3,-0.5 -1.62,-0.7 -0.22,0.43 -0.56,0.7 -1.21,0.7 -0.7,0 -1.28,-0.46 -1.6,-0.69 l -0.08,0.69 z"
   inkscape:connector-curvature="0"
   style="fill:#000000;stroke-width:0" />
<path
   id="path6189"
   d="m 422.79571,599.81571 v -0.23 l 0.35,-0.04 c 0.24,-0.04 0.29,-0.08 0.29,-0.41 v -2.89 c 0,-0.47 -0.03,-0.49 -0.69,-0.53 v -0.27 h 2.24 v 0.27 c -0.65,0.04 -0.69,0.06 -0.69,0.53 v 3.75 l -0.06,0.05 z"
   inkscape:connector-curvature="0"
   style="fill:#000000;stroke-width:0" />
<path
   id="path6191"
   d="m 423.85571,602.00571 -0.03,0 -0.03,-0.01 -0.03,0 -0.03,0 -0.02,-0.01 -0.03,-0.01 -0.03,-0.01 -0.02,-0.01 -0.03,-0.01 -0.02,-0.01 -0.03,-0.01 -0.02,-0.02 -0.02,-0.01 -0.02,-0.02 -0.02,-0.02 -0.02,-0.01 -0.02,-0.02 -0.02,-0.02 -0.01,-0.03 -0.02,-0.02 -0.01,-0.02 -0.01,-0.02 -0.02,-0.03 -0.01,-0.02 -0.01,-0.03 0,-0.03 -0.01,-0.02 -0.01,-0.03 0,-0.03 0,-0.03 -0.01,-0.03 0,-0.03 c 0,-0.32 0.23,-0.55 0.56,-0.55 0.34,0 0.55,0.23 0.56,0.55 0,0.33 -0.22,0.57 -0.56,0.57 z"
   inkscape:connector-curvature="0"
   style="fill:#000000;stroke-width:0" />
<path
   id="path6193"
   d="m 429.96571,598.59571 0,0.08 0,0.08 -0.01,0.09 -0.01,0.07 -0.02,0.08 -0.01,0.07 -0.02,0.08 -0.02,0.06 -0.02,0.07 -0.03,0.06 -0.03,0.07 -0.03,0.05 -0.04,0.06 -0.03,0.05 -0.04,0.05 -0.05,0.05 -0.04,0.05 -0.05,0.04 -0.05,0.04 -0.05,0.04 -0.05,0.03 -0.06,0.03 -0.06,0.03 -0.06,0.03 -0.06,0.02 -0.07,0.02 -0.07,0.02 -0.07,0.01 -0.07,0.01 -0.07,0.01 -0.08,0 -0.08,0 c -0.67,0 -1.1,-0.33 -1.66,-0.69 l -0.13,0.69 -1.37,-0.23 v -0.23 l 0.35,-0.04 c 0.24,-0.04 0.29,-0.08 0.29,-0.41 v -2.89 c 0,-0.47 -0.02,-0.49 -0.68,-0.53 v -0.27 h 2.23 v 0.27 c -0.65,0.04 -0.68,0.06 -0.68,0.53 v 2.14 c 0,0.23 0.01,0.36 0.09,0.51 0.19,0.36 0.6,0.66 1.09,0.66 0.62,0 0.96,-0.35 0.96,-1.15 v -2.16 c 0,-0.47 -0.03,-0.49 -0.69,-0.53 v -0.27 h 2.24 v 0.27 c -0.65,0.04 -0.69,0.06 -0.69,0.53 z"
   inkscape:connector-curvature="0"
   style="fill:#000000;stroke-width:0" />
<path
   id="path6195"
   d="m 433.78571,599.57571 v 0.36 h -1.18 v 1.16 h -0.27 l -0.56,-1.16 h -0.7 v -0.36 h 0.66 v -3.19 c 0,-0.94 0.7,-1.05 1.02,-1.05 0.47,0 0.91,0.24 1.17,0.41 l -0.07,0.19 c -0.22,-0.09 -0.42,-0.12 -0.65,-0.12 -0.31,0 -0.6,0.22 -0.6,0.92 v 2.84 z"
   inkscape:connector-curvature="0"
   style="fill:#000000;stroke-width:0" />
<path
   id="path6197"
   d="m 437.98571,597.85571 0.01,0 0.02,0 0.02,0 0.02,0.01 0.01,0 0.02,0 0.02,0 0.01,0 0.02,0.01 0.01,0 0.02,0.01 0.02,0 0.01,0.01 0.01,0.01 0.02,0 0.01,0.01 0.01,0.01 0.01,0.01 0.02,0.02 0.01,0.01 0.01,0.01 0,0.02 0.01,0.01 0.01,0.02 0.01,0.02 0,0.01 0,0.01 0.01,0.01 0,0.01 0,0.01 0,0.01 0,0.01 0.01,0.01 0,0.01 0,0.02 0,0.01 0,0.01 0,0.02 0,0.01 c 0,0.54 -0.17,1.84 -1.85,1.84 l -0.06,-0.32 c 0.86,0 0.96,-0.87 0.96,-1.22 0,-0.18 -0.06,-0.3 -0.31,-0.3 h -1.74 c 0,0.38 0.14,1.52 1.09,1.52 l 0.06,0.32 c -1.43,0 -2.11,-1.01 -2.11,-2.39 0,-1.45 0.63,-2.34 2.12,-2.32 1.02,0.01 1.54,0.57 1.79,1.29 l -0.28,0.15 c -0.25,-0.53 -0.6,-0.97 -1.33,-0.97 -1.13,0 -1.36,1.1 -1.35,2.05 z"
   inkscape:connector-curvature="0"
   style="fill:#000000;stroke-width:0" />
<path
   id="path6199"
   d="m 440.38571,600.04571 -1.4,-0.23 v -0.23 l 0.35,-0.04 c 0.24,-0.04 0.29,-0.08 0.29,-0.41 v -2.89 c 0,-0.47 -0.04,-0.49 -0.68,-0.53 v -0.27 h 2.42 v 0.27 c -0.82,0.04 -0.88,0.06 -0.88,0.53 v 2.14 c 0,0.71 0.32,0.95 0.53,0.95 0.14,0 0.3,-0.06 0.57,-0.2 0.06,-0.04 0.13,-0.05 0.18,-0.05 0.22,0 0.42,0.23 0.42,0.52 0,0.2 -0.13,0.44 -0.48,0.44 -0.34,0 -0.61,-0.2 -1.22,-0.73 z"
   inkscape:connector-curvature="0"
   style="fill:#000000;stroke-width:0" />
<path
   id="path6201"
   d="m 444.12571,599.57571 h 1.12 v 0.36 h -1.12 l -0.03,1.03 c -0.03,0.87 0.29,0.96 0.44,0.96 0.19,0 0.39,-0.09 0.62,-0.62 0.05,-0.09 0.11,-0.16 0.25,-0.16 0.18,0 0.45,0.16 0.45,0.43 0,0.31 -0.39,0.67 -1.12,0.67 -0.51,0 -0.94,-0.23 -1.17,-0.57 -0.21,-0.32 -0.3,-0.81 -0.3,-1.42 v -0.32 h -0.71 v -0.36 h 0.71 v -3.33 c 0,-0.47 -0.03,-0.49 -0.69,-0.53 v -0.27 h 2.42 v 0.27 c -0.83,0.04 -0.87,0.05 -0.87,0.52 z"
   inkscape:connector-curvature="0"
   style="fill:#000000;stroke-width:0" />
<path
   id="path6203"
   d="m 449.17571,598.82571 0,0.11 0,0.05 0,0.05 -0.01,0.05 -0.01,0.05 -0.01,0.06 -0.01,0.05 -0.01,0.05 -0.02,0.05 -0.01,0.05 -0.03,0.05 -0.02,0.05 -0.03,0.05 -0.03,0.05 -0.04,0.04 -0.04,0.05 -0.04,0.04 -0.05,0.04 -0.06,0.04 -0.05,0.03 -0.03,0.02 -0.04,0.02 -0.03,0.01 -0.04,0.02 -0.03,0.01 -0.04,0.02 -0.04,0.01 -0.04,0.01 -0.04,0.02 -0.05,0.01 -0.04,0.01 -0.05,0.01 -0.05,0.01 -0.05,0 -0.05,0.01 -0.05,0.01 -0.06,0 -0.05,0.01 -0.06,0 -0.06,0 -0.07,0 -0.06,0 c -1.03,0 -1.85,-0.54 -1.85,-1.04 0,-0.3 0.34,-0.43 0.51,-0.43 0.19,0 0.25,0.1 0.3,0.25 0.2,0.68 0.57,0.9 0.94,0.9 0.36,0 0.78,-0.18 0.78,-0.91 v -0.39 -0.37 -1.3 c 0,-0.74 -0.57,-0.93 -0.93,-0.93 -0.56,0 -0.84,0.4 -0.84,0.94 0,0.43 0.2,0.65 0.72,0.85 0.36,0.13 0.85,0.31 1.05,0.44 v 0.37 c -0.23,-0.24 -1.12,-0.47 -1.84,-0.69 -0.66,-0.21 -0.86,-0.67 -0.86,-1.1 0,-0.68 0.46,-1.3 1.32,-1.3 0.57,0.02 1.08,0.36 1.37,0.55 0.13,-0.34 0.27,-0.55 0.59,-0.55 0.34,0 0.74,0.1 1.09,0.28 l -0.06,0.22 c -0.13,-0.03 -0.33,-0.05 -0.47,-0.01 -0.16,0.04 -0.32,0.21 -0.32,0.79 z"
   inkscape:connector-curvature="0"
   style="fill:#000000;stroke-width:0" />
<path
   id="path6205"
   d="m 452.75571,595.81571 -0.05,0 -0.05,0 -0.05,0.01 -0.05,0 -0.04,0.01 -0.05,0.01 -0.04,0.01 -0.04,0.01 -0.09,0.03 -0.07,0.03 -0.08,0.04 -0.06,0.04 -0.07,0.05 -0.06,0.05 -0.06,0.05 -0.05,0.06 -0.05,0.07 -0.04,0.06 -0.05,0.07 -0.04,0.08 -0.03,0.07 -0.03,0.08 -0.03,0.08 -0.03,0.08 -0.03,0.08 -0.02,0.08 -0.02,0.09 -0.01,0.08 -0.02,0.09 -0.01,0.08 -0.01,0.09 -0.01,0.08 0,0.09 -0.01,0.08 0,0.09 0,0.08 c 0,1.36 0.54,1.91 1.17,1.91 0.42,0 0.69,-0.3 0.87,-0.79 0.06,-0.15 0.11,-0.24 0.29,-0.24 0.18,0 0.54,0.12 0.54,0.47 0,0.42 -0.61,0.88 -1.6,0.88 -1.66,0 -2.22,-1.18 -2.22,-2.4 0,-1.53 0.75,-2.31 2.12,-2.31 0.64,0 1.51,0.34 1.76,1.32 l -0.26,0.13 c -0.29,-0.64 -0.65,-0.97 -1.32,-0.97 z"
   inkscape:connector-curvature="0"
   style="fill:#000000;stroke-width:0" />
<path
   id="path6207"
   d="m 458.58571,597.85571 0.02,0 0.01,0 0.02,0 0.02,0.01 0.02,0 0.01,0 0.02,0 0.02,0 0.01,0.01 0.02,0 0.01,0.01 0.02,0 0.01,0.01 0.02,0.01 0.01,0 0.01,0.01 0.02,0.01 0.01,0.01 0.01,0.02 0.01,0.01 0.01,0.01 0.01,0.02 0.01,0.01 0,0.02 0.01,0.02 0,0.01 0.01,0.01 0,0.01 0,0.01 0,0.01 0.01,0.01 0,0.01 0,0.01 0,0.01 0,0.02 0,0.01 0,0.01 0,0.02 0,0.01 c 0,0.54 -0.17,1.84 -1.85,1.84 l -0.05,-0.32 c 0.85,0 0.95,-0.87 0.95,-1.22 0,-0.18 -0.06,-0.3 -0.31,-0.3 h -1.73 c 0,0.38 0.13,1.52 1.09,1.52 l 0.05,0.32 c -1.43,0 -2.11,-1.01 -2.11,-2.39 0,-1.45 0.63,-2.34 2.12,-2.32 1.02,0.01 1.54,0.57 1.79,1.29 l -0.28,0.15 c -0.25,-0.53 -0.6,-0.97 -1.32,-0.97 -1.14,0 -1.37,1.1 -1.35,2.05 z"
   inkscape:connector-curvature="0"
   style="fill:#000000;stroke-width:0" />
<g
   style="font-style:normal;font-variant:normal;font-weight:normal;font-stretch:normal;letter-spacing:normal;word-spacing:normal;text-anchor:start;fill:none;stroke:#000000;stroke-linecap:butt;stroke-linejoin:miter;stroke-miterlimit:10.43299961;stroke-opacity:1;stroke-dasharray:none;stroke-dashoffset:0"
   id="g6537"
   transform="matrix(0.87943917,0,0,0.87943917,284.69025,-166.04727)"
   xml:space="preserve"
   stroke-miterlimit="10.433"
   font-style="normal"
   font-variant="normal"
   font-weight="normal"
   font-stretch="normal"
   font-size-adjust="none"
   letter-spacing="normal"
   word-spacing="normal"
   ns0:text="$w_0$\\\\\\\\\n$w^l$ \\\\\\\\\n$w^s$ \\\\\\\\"
   ns0:preamble="C:\\local\\ali.saad\\phd\\Misc\\textext_preamble.tex">
<path
   style="fill:#000000;stroke-width:0"
   inkscape:connector-curvature="0"
   d="m 224.79,711.47 -0.04,-0.22 0.55,-0.05 c 0.21,-0.02 0.22,-0.12 0.14,-0.44 l -0.57,-2.5 c -0.21,-0.87 0.13,-1.25 0.65,-1.25 0.76,0 1.57,0.79 2.12,1.89 l 0.02,-0.02 c -0.06,-0.33 -0.15,-0.72 -0.15,-0.98 0,-0.5 0.22,-0.89 0.77,-0.89 0.76,0 1.45,0.71 2.05,1.58 0.6,0.88 1.02,1.88 1.02,2.42 0,0.38 -0.21,0.71 -0.28,0.71 -0.22,0 -0.47,-0.07 -0.66,-0.19 0.09,-0.32 0.11,-0.67 0.11,-1.05 0,-1.27 -1.11,-2.99 -1.84,-2.99 -0.42,0 -0.49,0.42 -0.3,1.26 l 0.64,2.89 -0.79,-0.05 c -0.3,-1.16 -0.57,-2.27 -1.1,-3.07 -0.38,-0.57 -0.81,-1.03 -1.17,-1.03 -0.24,0 -0.42,0.21 -0.29,0.74 l 0.81,3.45 -0.05,0.04 z"
   id="path6539" />
<path
   style="fill:#000000;stroke-width:0"
   inkscape:connector-curvature="0"
   d="m 233.17,710.37 -0.11,-0.01 -0.1,0 -0.1,-0.02 -0.09,-0.02 -0.09,-0.03 -0.08,-0.03 -0.08,-0.03 -0.08,-0.04 -0.07,-0.05 -0.07,-0.05 -0.07,-0.06 -0.06,-0.06 -0.06,-0.06 -0.05,-0.07 -0.05,-0.08 -0.05,-0.08 -0.05,-0.08 -0.04,-0.08 -0.04,-0.09 -0.03,-0.1 -0.03,-0.1 -0.03,-0.1 -0.03,-0.1 -0.02,-0.11 -0.02,-0.11 -0.02,-0.11 -0.01,-0.12 -0.01,-0.12 -0.01,-0.12 -0.01,-0.13 0,-0.12 0,-0.13 c 0,-1.4 0.41,-2.41 1.56,-2.41 v 0.24 c -0.66,0 -0.85,1.03 -0.85,2.17 0,1.13 0.19,2.16 0.85,2.16 h 0 c 0.66,0 0.85,-1.03 0.85,-2.16 0,-1.14 -0.19,-2.17 -0.85,-2.17 v -0.24 c 1.15,0 1.56,1.01 1.56,2.41 0,1.39 -0.41,2.41 -1.56,2.41 z"
   id="path6541" />
<path
   style="fill:#000000;stroke-width:0"
   inkscape:connector-curvature="0"
   d="m 307.83805,710.91092 -0.04,-0.22 0.55,-0.05 c 0.21,-0.02 0.22,-0.12 0.14,-0.44 l -0.57,-2.5 c -0.21,-0.87 0.13,-1.25 0.65,-1.25 0.76,0 1.57,0.79 2.12,1.89 l 0.02,-0.02 c -0.06,-0.33 -0.15,-0.72 -0.15,-0.98 0,-0.5 0.22,-0.89 0.77,-0.89 0.76,0 1.45,0.71 2.05,1.58 0.6,0.88 1.02,1.88 1.02,2.42 0,0.37 -0.21,0.71 -0.28,0.71 -0.22,0 -0.47,-0.07 -0.66,-0.19 0.09,-0.32 0.11,-0.67 0.11,-1.05 0,-1.27 -1.11,-2.99 -1.84,-2.99 -0.42,0 -0.49,0.42 -0.3,1.26 l 0.64,2.89 -0.79,-0.05 c -0.3,-1.16 -0.57,-2.27 -1.1,-3.07 -0.38,-0.57 -0.81,-1.03 -1.17,-1.03 -0.24,0 -0.42,0.21 -0.29,0.74 l 0.81,3.45 -0.05,0.04 z"
   id="path6543" />
<path
   style="fill:#000000;stroke-width:0"
   inkscape:connector-curvature="0"
   d="m 316.03805,715.18092 -0.04,-0.16 0.4,-0.05 c 0.17,-0.02 0.21,-0.07 0.14,-0.34 l -0.95,-3.85 c -0.1,-0.4 -0.02,-0.69 0.36,-0.69 0.48,0 0.91,0.48 1.13,1.01 l -0.16,0.09 c -0.16,-0.31 -0.48,-0.73 -0.64,-0.73 -0.13,0 -0.13,0.14 -0.07,0.37 l 1.12,4.48 -0.04,0.04 z"
   id="path6545" />
<path
   style="fill:#000000;stroke-width:0"
   inkscape:connector-curvature="0"
   d="m 247.53176,711.3671 -0.04,-0.22 0.55,-0.05 c 0.21,-0.02 0.22,-0.12 0.14,-0.44 l -0.57,-2.5 c -0.21,-0.87 0.13,-1.25 0.65,-1.25 0.76,0 1.57,0.79 2.12,1.89 l 0.02,-0.02 c -0.06,-0.33 -0.15,-0.72 -0.15,-0.98 0,-0.5 0.22,-0.89 0.77,-0.89 0.76,0 1.45,0.71 2.05,1.58 0.6,0.88 1.02,1.88 1.02,2.42 0,0.38 -0.21,0.71 -0.28,0.71 -0.22,0 -0.47,-0.07 -0.66,-0.19 0.09,-0.32 0.11,-0.67 0.11,-1.05 0,-1.27 -1.11,-2.99 -1.84,-2.99 -0.42,0 -0.49,0.42 -0.3,1.26 l 0.64,2.89 -0.79,-0.05 c -0.3,-1.16 -0.57,-2.27 -1.1,-3.07 -0.38,-0.57 -0.81,-1.03 -1.17,-1.03 -0.24,0 -0.42,0.21 -0.29,0.74 l 0.81,3.45 -0.05,0.04 z"
   id="path6547" />
<path
   style="fill:#000000;stroke-width:0"
   inkscape:connector-curvature="0"
   d="m 256.75176,714.1271 -0.07,0 -0.06,0 -0.06,-0.01 -0.06,-0.01 -0.06,-0.01 -0.06,-0.01 -0.05,-0.02 -0.06,-0.02 -0.05,-0.02 -0.05,-0.02 -0.04,-0.02 -0.05,-0.03 -0.04,-0.03 -0.04,-0.03 -0.04,-0.03 -0.04,-0.04 -0.04,-0.03 -0.03,-0.04 -0.03,-0.04 -0.03,-0.04 -0.03,-0.04 -0.02,-0.04 -0.02,-0.05 -0.02,-0.04 -0.02,-0.05 -0.02,-0.05 -0.01,-0.04 -0.01,-0.05 -0.01,-0.05 0,-0.06 -0.01,-0.05 0,-0.05 c 0,-0.36 0.25,-0.68 0.61,-0.98 0.3,-0.23 0.49,-0.54 0.49,-0.81 0,-0.33 -0.21,-0.52 -0.51,-0.52 -0.26,0 -0.51,0.21 -0.62,0.58 -0.05,0.13 -0.11,0.21 -0.23,0.21 -0.21,0 -0.36,-0.19 -0.36,-0.37 0,-0.3 0.38,-0.67 1.05,-0.67 0.75,0 1.2,0.49 1.2,1.06 0,0.38 -0.17,0.68 -0.64,1.06 -0.42,0.34 -0.49,0.57 -0.49,0.77 0,0.22 0.17,0.45 0.43,0.45 0.23,0 0.41,-0.15 0.56,-0.48 0.03,-0.08 0.09,-0.14 0.19,-0.14 0.14,0 0.33,0.11 0.33,0.32 0,0.22 -0.26,0.54 -0.88,0.54 z"
   id="path6549" />
</g>
</g>    <path
       sodipodi:nodetypes="cc"
       style="fill:none;stroke:url(#linearGradient7056);stroke-width:1;stroke-linecap:butt;stroke-linejoin:miter;stroke-miterlimit:4;stroke-opacity:1;stroke-dasharray:1, 1;stroke-dashoffset:0;marker-start:url(#DotM);marker-mid:none;marker-end:none"
       d="m 262.61712,518.18189 285.97537,0"
       id="path6353"
       inkscape:connector-curvature="0" />
    <path
       style="fill:none;stroke:url(#linearGradient6417);stroke-width:1.5;stroke-linecap:butt;stroke-linejoin:miter;stroke-miterlimit:4;stroke-opacity:1;stroke-dasharray:none"
       d="m 351.52824,518.79702 c -46.93603,5.1375 -61.41579,24.30471 -67.13008,41.21506"
       id="path6323"
       inkscape:connector-curvature="0"
       sodipodi:nodetypes="cc" />
    <path
       inkscape:connector-curvature="0"
       id="path6419"
       d="m 458.70344,516.53532 0,44.03349"
       style="fill:none;stroke:#000000;stroke-width:0.75;stroke-linecap:butt;stroke-linejoin:miter;stroke-miterlimit:4;stroke-opacity:1;stroke-dasharray:2.25, 2.25;stroke-dashoffset:0"
       sodipodi:nodetypes="cc" />
    <path
       sodipodi:nodetypes="cc"
       style="fill:none;stroke:#000000;stroke-width:0.75;stroke-linecap:butt;stroke-linejoin:miter;stroke-miterlimit:4;stroke-opacity:1;stroke-dasharray:2.25, 2.25;stroke-dashoffset:0"
       d="m 351.08014,518.00069 0,42.56812"
       id="path6421"
       inkscape:connector-curvature="0" />
    <g
       ns0:preamble="C:\\local\\ali.saad\\phd\\Misc\\textext_preamble.tex"
       ns0:text="a) \\\\ \\\\ b)"
       word-spacing="normal"
       letter-spacing="normal"
       font-size-adjust="none"
       font-stretch="normal"
       font-weight="normal"
       font-variant="normal"
       font-style="normal"
       stroke-miterlimit="10.433"
       xml:space="preserve"
       transform="matrix(2,0,0,-2,-11.428571,1734.2857)"
       id="g7187"
       style="font-style:normal;font-variant:normal;font-weight:normal;font-stretch:normal;letter-spacing:normal;word-spacing:normal;text-anchor:start;fill:none;stroke:#000000;stroke-linecap:butt;stroke-linejoin:miter;stroke-miterlimit:10.43299961;stroke-opacity:1;stroke-dasharray:none;stroke-dashoffset:0">
<path
   id="path7189"
   d="m 18.168534,725.24206 0,0.13198 0,0.066 -0.0132,0.066 0,0.066 -0.0132,0.066 -0.0132,0.0792 -0.0132,0.066 -0.0132,0.066 -0.0264,0.066 -0.0264,0.066 -0.0264,0.066 -0.0264,0.066 -0.03959,0.066 -0.05279,0.066 -0.03959,0.0528 -0.05279,0.066 -0.06599,0.0528 -0.05279,0.0528 -0.07919,0.0528 -0.07919,0.0396 -0.03959,0.0264 -0.03959,0.0264 -0.03959,0.0132 -0.05279,0.0264 -0.05279,0.0132 -0.03959,0.0264 -0.05279,0.0132 -0.05279,0.0132 -0.06599,0.0264 -0.05279,0.0132 -0.05279,0.0132 -0.06599,0.0132 -0.06599,0.0132 -0.06599,0 -0.06599,0.0132 -0.07919,0.0132 -0.06599,0 -0.07919,0.0132 -0.07919,0 -0.07919,0 -0.07919,0 -0.07919,0 c -1.372586,0 -2.44162,-0.71268 -2.44162,-1.37258 0,-0.38274 0.44873,-0.56751 0.673095,-0.56751 0.250761,0 0.329949,0.13198 0.382741,0.34314 0.263959,0.88427 0.765481,1.17462 1.253805,1.17462 0.461928,0 1.029439,-0.23756 1.029439,-1.20101 v -0.51472 -0.48833 -1.71573 c 0,-0.97665 -0.752283,-1.22741 -1.227409,-1.22741 -0.752283,0 -1.108627,0.52792 -1.108627,1.24061 0,0.56751 0.263959,0.85787 0.937054,1.12182 0.488324,0.17158 1.135023,0.40914 1.398982,0.58071 v 0.48833 c -0.303552,-0.31675 -1.47817,-0.62031 -2.44162,-0.91066 -0.871064,-0.27716 -1.121825,-0.88426 -1.121825,-1.45177 0,-0.89746 0.607105,-1.71574 1.742129,-1.71574 0.752283,0.0264 1.41218,0.47513 1.808118,0.72589 0.171574,-0.44873 0.356345,-0.72589 0.778679,-0.72589 0.44873,0 0.976648,0.13198 1.425378,0.36955 l -0.06599,0.29035 c -0.171573,-0.0396 -0.435532,-0.066 -0.620303,-0.0132 -0.211167,0.0396 -0.422334,0.27716 -0.422334,1.04264 z"
   inkscape:connector-curvature="0"
   style="fill:#000000;stroke-width:0" />
<path
   id="path7191"
   d="m 21.375635,724.18623 0,-0.17158 0,-0.15837 -0.0132,-0.14518 0,-0.15837 -0.0132,-0.14518 0,-0.14518 -0.0264,-0.27716 -0.0264,-0.26395 -0.0264,-0.25077 -0.03959,-0.23756 -0.03959,-0.22436 -0.05279,-0.21117 -0.03959,-0.21117 -0.05279,-0.18477 -0.06599,-0.18477 -0.05279,-0.17157 -0.06599,-0.15838 -0.06599,-0.14518 -0.06599,-0.14517 -0.06599,-0.11878 -0.07919,-0.11879 -0.06599,-0.11878 -0.07919,-0.0924 -0.06599,-0.0924 -0.07919,-0.0924 -0.07919,-0.066 -0.07919,-0.0792 -0.06599,-0.0528 -0.07919,-0.0528 -0.07919,-0.0528 -0.06599,-0.0396 -0.07919,-0.0264 -0.06599,-0.0264 -0.07919,-0.0264 -0.06599,-0.0132 v -0.30355 c 2.124869,0.0792 2.665985,2.70558 2.665985,4.96243 0,2.24365 -0.541116,4.87004 -2.665985,4.96243 v -0.30356 c 0.765481,-0.15837 1.821317,-1.20101 1.821317,-4.65887 z"
   inkscape:connector-curvature="0"
   style="fill:#000000;stroke-width:0" />
<path
   id="path7193"
   d="m 156.90744,720.17594 0.48833,0.47513 c 0.42233,-0.23757 0.92385,-0.47513 1.83451,-0.47513 l 0.0132,0.42233 c -0.6335,0 -1.10863,0.32995 -1.33299,0.93706 -0.066,0.21117 -0.0792,0.47512 -0.0792,0.76548 v 1.9137 c 0,0.29036 0.0264,0.48832 0.11878,0.68629 0.29036,0.58071 0.80508,0.84467 1.47817,0.84467 0.50152,0 1.55736,-0.29035 1.55736,-2.40202 0,-1.76853 -0.54112,-2.74518 -1.74213,-2.74518 l -0.0132,-0.42233 c 1.61015,0 3.00913,0.77868 3.00913,3.24669 0,0.75229 -0.14517,2.96954 -2.32284,2.96954 -0.92385,0 -1.63654,-0.59391 -2.08527,-0.85786 v 3.69542 l -0.0924,0.066 -1.8873,-0.30355 v -0.30356 l 0.44873,-0.0396 c 0.31675,-0.0396 0.39594,-0.0924 0.39594,-0.55431 v -7.81319 z"
   inkscape:connector-curvature="0"
   style="fill:#000000;stroke-width:0" />
<path
   id="path7195"
   d="m 164.95819,723.73938 0,-0.17157 0,-0.14518 -0.0132,-0.15837 0,-0.15838 -0.0132,-0.14517 0,-0.14518 -0.0264,-0.27716 -0.0264,-0.26396 -0.0264,-0.25076 -0.0396,-0.23756 -0.0396,-0.22437 -0.0528,-0.21116 -0.0396,-0.21117 -0.0528,-0.18477 -0.066,-0.18477 -0.0528,-0.17158 -0.066,-0.15837 -0.066,-0.14518 -0.066,-0.14518 -0.066,-0.11878 -0.0792,-0.11878 -0.066,-0.11878 -0.0792,-0.0924 -0.066,-0.0924 -0.0792,-0.0924 -0.0792,-0.066 -0.0792,-0.0792 -0.066,-0.0528 -0.0792,-0.0528 -0.0792,-0.0528 -0.066,-0.0396 -0.0792,-0.0264 -0.066,-0.0264 -0.0792,-0.0264 -0.066,-0.0132 v -0.30355 c 2.12487,0.0792 2.66599,2.70558 2.66599,4.96242 0,2.24366 -0.54112,4.87005 -2.66599,4.94923 v -0.29035 c 0.76548,-0.15838 1.82132,-1.20101 1.82132,-4.65888 z"
   inkscape:connector-curvature="0"
   style="fill:#000000;stroke-width:0" />
</g>  </g>
</svg>
